<?xml version="1.0" encoding="utf-8"?>
<!-- Generator: Adobe Illustrator 24.2.1, SVG Export Plug-In . SVG Version: 6.00 Build 0)  -->
<svg version="1.1" id="Capa_1" xmlns="http://www.w3.org/2000/svg" xmlns:xlink="http://www.w3.org/1999/xlink" x="0px" y="0px"
	 viewBox="0 0 512 512" style="enable-background:new 0 0 512 512;" xml:space="preserve">
<style type="text/css">
	.st0{fill:#FFFFFF;}
	.st1{fill-rule:evenodd;clip-rule:evenodd;}
</style>
<g>
	<g>
		<path class="st0" d="M256,481C131.9,481,31,380.1,31,256S131.9,31,256,31s225,100.9,225,225S380.1,481,256,481z"/>
	</g>
	<g>
		<path class="st1" d="M220.7,257.1v130.4c0,1.9,1.5,3.4,3.4,3.4h48.4c1.9,0,3.4-1.5,3.4-3.4V254.9H311c1.8,0,3.2-1.4,3.4-3.1
			l3.4-39.9c0.2-2-1.4-3.7-3.4-3.7h-38.5v-28.3c0-6.6,5.4-12,12-12H315c1.9,0,3.4-1.5,3.4-3.4v-39.9c0-1.9-1.5-3.4-3.4-3.4h-45.7
			c-26.8,0-48.6,21.8-48.6,48.6v38.5h-24.2c-1.9,0-3.4,1.5-3.4,3.4v39.9c0,1.9,1.5,3.4,3.4,3.4h24.2L220.7,257.1L220.7,257.1z"/>
	</g>
</g>
</svg>
