<?xml version="1.0" encoding="utf-8"?>
<!-- Generator: Adobe Illustrator 24.2.1, SVG Export Plug-In . SVG Version: 6.00 Build 0)  -->
<svg version="1.1" id="Capa_1" xmlns="http://www.w3.org/2000/svg" xmlns:xlink="http://www.w3.org/1999/xlink" x="0px" y="0px"
	 viewBox="0 0 512 512" style="enable-background:new 0 0 512 512;" xml:space="preserve">
<g>
	<g>
		<path d="M256,481C131.9,481,31,380.1,31,256S131.9,31,256,31s225,100.9,225,225S380.1,481,256,481z M331.9,164.7
			c-9.2,0-16.6,7.5-16.6,16.6c0,9.2,7.5,16.6,16.6,16.6s16.6-7.5,16.6-16.6S341.1,164.7,331.9,164.7z M257.8,186.1
			c-38.6,0-69.9,31.4-69.9,69.9s31.4,69.9,69.9,69.9c38.6,0,69.9-31.4,69.9-69.9S296.4,186.1,257.8,186.1z M257.8,300.8
			c-24.7,0-44.8-20.1-44.8-44.8s20.1-44.8,44.8-44.8s44.8,20.1,44.8,44.8C302.6,280.7,282.6,300.8,257.8,300.8z M399,197.9
			c0-47.1-38.2-85.3-85.3-85.3H201.1c-47.1,0-85.3,38.2-85.3,85.3v112.6c0,47.1,38.2,85.3,85.3,85.3h112.6
			c47.1,0,85.3-38.2,85.3-85.3V197.9z M372.3,310.5c0,32.4-26.2,58.6-58.6,58.6H201.1c-32.4,0-58.6-26.2-58.6-58.6V197.9
			c0-32.4,26.2-58.6,58.6-58.6h112.6c32.4,0,58.6,26.2,58.6,58.6L372.3,310.5L372.3,310.5z"/>
	</g>
</g>
</svg>
