<?xml version="1.0" encoding="utf-8"?>
<!-- Generator: Adobe Illustrator 24.2.1, SVG Export Plug-In . SVG Version: 6.00 Build 0)  -->
<svg version="1.1" id="Capa_1" xmlns="http://www.w3.org/2000/svg" xmlns:xlink="http://www.w3.org/1999/xlink" x="0px" y="0px"
	 viewBox="0 0 512 512" style="enable-background:new 0 0 512 512;" xml:space="preserve">
<style type="text/css">
	.st0{fill:#FFFFFF;}
	.st1{fill-rule:evenodd;clip-rule:evenodd;fill:#FFFFFF;}
</style>
<g>
	<g>
		<path d="M256,481C131.9,481,31,380.1,31,256S131.9,31,256,31s225,100.9,225,225S380.1,481,256,481z"/>
	</g>
	<g>
		<g>
			<path class="st0" d="M385.3,173.9c-8.3,3.8-17.5,6.1-26.5,7.6c4.3-0.7,10.6-8.4,13.1-11.6c3.8-4.8,7-10.2,8.8-16.1
				c0.2-0.5,0.4-1-0.1-1.4c-0.6-0.2-0.9-0.1-1.4,0.1c-10,5.4-20.4,9.3-31.5,12c-0.9,0.2-1.6,0-2.2-0.6c-0.9-1-1.8-2-2.8-2.8
				c-4.6-4-9.6-7.1-15.2-9.3c-7.4-3-15.4-4.3-23.4-3.8c-7.7,0.5-15.3,2.7-22.2,6.3c-6.9,3.6-13,8.6-17.9,14.6
				c-5.1,6.2-8.8,13.6-10.7,21.4c-1.8,7.5-1.7,15-0.6,22.6c0.2,1.3,0.1,1.4-1.1,1.3c-43.2-6.4-79-21.9-108.1-55
				c-1.3-1.4-1.9-1.4-3,0.1c-12.7,19.1-6.6,49.7,9.3,64.8c2.1,2,4.3,4,6.6,5.8c-0.9,0.2-11.4-1-20.9-5.8c-1.3-0.8-1.9-0.3-2,1.1
				c-0.1,2.1,0.1,4,0.3,6.2c2.4,19.3,15.8,37.2,34.2,44.2c2.2,0.9,4.6,1.7,6.9,2.1c-4.2,0.9-8.5,1.6-20.5,0.6
				c-1.5-0.3-2.1,0.5-1.5,1.9c9,24.5,28.4,31.8,43,36c1.9,0.3,3.9,0.3,5.9,0.8c-0.1,0.2-0.2,0.2-0.3,0.3
				c-4.8,7.4-21.6,12.8-29.4,15.6c-14.2,5-29.6,7.2-44.6,5.7c-2.4-0.4-2.9-0.3-3.6,0c-0.7,0.4-0.1,1,0.7,1.6c3,2,6.1,3.8,9.3,5.5
				c9.5,5,19.4,9.1,29.8,11.9c53.6,14.8,113.9,3.9,154.1-36c31.6-31.4,42.7-74.7,42.7-118c0-1.7,2-2.6,3.2-3.5
				c8.2-6.2,14.8-13.6,20.9-21.8c1.4-1.9,1.3-3.5,1.3-4.2c0-0.1,0-0.2,0-0.2C386.3,173.2,386.4,173.4,385.3,173.9z"/>
		</g>
		<g>
			<path class="st1" d="M201.9,363.1C224.1,363.1,203,363.1,201.9,363.1C204.9,363.1,201.8,363.1,201.9,363.1z"/>
		</g>
		<g>
			<path class="st1" d="M201.9,363.1C201.6,363.1,197.6,363.1,201.9,363.1C201.9,363.1,201.2,363.1,201.9,363.1z"/>
		</g>
		<g>
			<path class="st1" d="M210.8,363.3C210.8,362.9,215.4,363.3,210.8,363.3C210.8,363.1,211.3,363.3,210.8,363.3z"/>
		</g>
		<g>
			<path class="st1" d="M303.5,148.3c-0.3,0.2-0.7,0.2-1.1,0C302.8,148.3,303.2,148.3,303.5,148.3z"/>
		</g>
	</g>
</g>
</svg>
