<?xml version="1.0" encoding="utf-8"?>
<!-- Generator: Adobe Illustrator 24.2.0, SVG Export Plug-In . SVG Version: 6.00 Build 0)  -->
<svg version="1.1" id="Capa_1" xmlns="http://www.w3.org/2000/svg" xmlns:xlink="http://www.w3.org/1999/xlink" x="0px" y="0px"
	 viewBox="0 0 512 512" style="enable-background:new 0 0 512 512;" xml:space="preserve">
<style type="text/css">
	.st0{fill:#FFFFFF;}
</style>
<g>
	<path class="st0" d="M231.3,138.8c0-4.9-2.4-9.4-6.5-12.1l-87.2-58.1c-4.5-3-10.2-3.3-14.9-0.7c-4.7,2.5-7.7,7.5-7.7,12.8v116.3
		c0,5.4,3,10.3,7.7,12.8c2.1,1.2,4.5,1.7,6.9,1.7c2.8,0,5.6-0.8,8.1-2.4l87.2-58.1C228.9,148.2,231.3,143.6,231.3,138.8z
		 M144.1,169.7v-62l46.5,31L144.1,169.7z"/>
	<path class="st0" d="M417.8,253.6c-20.1-20.1-52.7-20.1-72.8,0c-0.1,0.1-0.2,0.2-0.4,0.4c-0.1-0.1-0.2-0.2-0.4-0.4
		c-20.1-20.1-52.7-20.1-72.8,0c-20.1,20.1-20.1,52.7,0,72.8l62.9,62.9c2.8,2.8,6.6,4.3,10.3,4.3c3.7,0,7.4-1.4,10.3-4.3l62.9-62.9
		C437.9,306.4,437.9,273.7,417.8,253.6C417.8,253.6,417.8,253.6,417.8,253.6L417.8,253.6z M397.3,305.9l-52.6,52.6l-52.6-52.6
		c-8.7-8.7-8.7-23,0-31.7c4.4-4.4,10.1-6.6,15.8-6.6c5.7,0,11.5,2.2,15.8,6.6c3.7,3.7,5.9,8.4,6.5,13.6c0.7,7.4,7,13.1,14.5,13.1
		s13.7-5.7,14.5-13.1c0.5-5.2,2.7-9.9,6.5-13.6c8.7-8.7,23-8.7,31.7,0C406,282.9,406,297.1,397.3,305.9L397.3,305.9z"/>
	<path class="st0" d="M460.9,184.3H328.2V51.6c0-24-19.6-43.6-43.6-43.6H52.1C28,8,8.5,27.5,8.5,51.6v261.6c0,5.7,3.3,10.8,8.5,13.2
		c1.9,0.9,4,1.3,6.1,1.3c3.4,0,6.8-1.2,9.5-3.5l63.7-54.6h88.6v132.7c0,24,19.6,43.6,43.6,43.6h188.4l63.7,54.6
		c2.7,2.3,6.1,3.5,9.5,3.5c2.1,0,4.1-0.4,6.1-1.3c5.2-2.4,8.5-7.5,8.5-13.2V227.9C504.5,203.9,485,184.3,460.9,184.3z M90.8,240.5
		c-3.5,0-6.8,1.2-9.5,3.5l-43.8,37.6v-230c0-8,6.5-14.5,14.5-14.5h232.5c8,0,14.5,6.5,14.5,14.5v132.7h-70.7
		c-24,0-43.6,19.6-43.6,43.6v12.6H90.8z M475.5,457.9l-43.8-37.6c-2.6-2.3-6-3.5-9.5-3.5H228.4c-8,0-14.5-6.5-14.5-14.5V227.9
		c0-8,6.5-14.5,14.5-14.5h232.5c8,0,14.5,6.5,14.5,14.5V457.9z"/>
</g>
</svg>
