<?xml version="1.0" encoding="utf-8"?>
<!-- Generator: Adobe Illustrator 24.2.0, SVG Export Plug-In . SVG Version: 6.00 Build 0)  -->
<svg version="1.1" id="Capa_1" xmlns="http://www.w3.org/2000/svg" xmlns:xlink="http://www.w3.org/1999/xlink" x="0px" y="0px"
	 viewBox="0 0 512 512" style="enable-background:new 0 0 512 512;" xml:space="preserve">
<style type="text/css">
	.st0{fill:#FFFFFF;}
</style>
<g>
	<g>
		<g>
			<path class="st0" d="M499.9,212.4H378.8c4.9,13.7,8,28.2,8,43.6c0,15.4-3.1,29.9-8,43.6h121.2c2.5-14.2,4.1-28.7,4.1-43.6
				S502.5,226.6,499.9,212.4z"/>
		</g>
	</g>
	<g>
		<g>
			<path class="st0" d="M133.2,212.4H12.1C9.5,226.6,8,241.1,8,256c0,14.9,1.6,29.4,4.1,43.6h121.2c-4.9-13.7-8-28.2-8-43.6
				S128.4,226.1,133.2,212.4z"/>
		</g>
	</g>
	<g>
		<g>
			<path class="st0" d="M256,8c-14.9,0-29.4,1.6-43.6,4.1v121.2c13.7-4.9,28.2-8,43.6-8c15.4,0,29.9,3.1,43.6,8V12.1
				C285.4,9.5,270.9,8,256,8z"/>
		</g>
	</g>
	<g>
		<g>
			<path class="st0" d="M486.8,345.3c2.2-5.5,4.5-10.9,6.3-16.6H364.7c-9.5,14.2-21.8,26.5-36,36v128.4c5.7-1.8,11.1-4.1,16.6-6.3
				c16.7,11.1,35.8,17.2,56,17.2c56.1,0,102.7-46.6,102.7-102.7C504,381.1,497.9,362,486.8,345.3z M401.3,475c-8,0-15.7-1.3-23-3.8
				c38.2-21.9,71-54.6,92.9-92.9c2.4,7.3,3.8,15.1,3.8,23C475,441.4,441.4,475,401.3,475z"/>
		</g>
	</g>
	<g>
		<g>
			<path class="st0" d="M256,386.8c-15.4,0-29.9-3.1-43.6-8v121.2c14.2,2.5,28.7,4.1,43.6,4.1c14.9,0,29.4-1.6,43.6-4.1V378.8
				C285.9,383.6,271.4,386.8,256,386.8z"/>
		</g>
	</g>
	<g>
		<g>
			<path class="st0" d="M166.7,25.2C150,14.1,130.9,8,110.7,8C54.6,8,8,54.6,8,110.7c0,20.3,6.1,39.4,17.2,56
				c-2.2,5.5-4.5,10.9-6.3,16.6h128.4c9.5-14.2,21.8-26.5,36-36V18.9C177.6,20.7,172.2,23,166.7,25.2z M40.8,133.7
				c-2.4-7.3-3.8-15.1-3.8-23C37,70.6,70.6,37,110.7,37c8,0,15.7,1.3,23,3.8C95.4,62.7,62.7,95.4,40.8,133.7z"/>
		</g>
	</g>
	<g>
		<g>
			<path class="st0" d="M504,110.7C504,54.6,457.4,8,401.3,8c-20.3,0-39.4,6.1-56,17.2c-5.5-2.2-10.9-4.5-16.6-6.3v128.4
				c14.2,9.5,26.5,21.8,36,36h128.4c-1.8-5.7-4.1-11.1-6.3-16.6C497.9,150,504,130.9,504,110.7z M471.2,133.7
				c-21.9-38.2-54.6-71-92.9-92.9c7.3-2.4,15.1-3.8,23-3.8c40.1,0,73.6,33.6,73.6,73.6C475,118.6,473.6,126.4,471.2,133.7z"/>
		</g>
	</g>
	<g>
		<g>
			<path class="st0" d="M147.3,328.7H18.9c1.8,5.7,4.1,11.1,6.3,16.6C14.1,362,8,381.1,8,401.3C8,457.4,54.6,504,110.7,504
				c20.3,0,39.4-6.1,56-17.2c5.5,2.2,10.9,4.5,16.6,6.3V364.7C169.1,355.1,156.9,342.9,147.3,328.7z M110.7,475
				C70.6,475,37,441.4,37,401.3c0-8,1.3-15.7,3.8-23c21.9,38.2,54.6,71,92.9,92.9C126.4,473.6,118.6,475,110.7,475z"/>
		</g>
	</g>
</g>
</svg>
