<?xml version="1.0" encoding="utf-8"?>
<!-- Generator: Adobe Illustrator 24.2.0, SVG Export Plug-In . SVG Version: 6.00 Build 0)  -->
<svg version="1.1" id="Capa_1" xmlns="http://www.w3.org/2000/svg" xmlns:xlink="http://www.w3.org/1999/xlink" x="0px" y="0px"
	 viewBox="0 0 512 512" style="enable-background:new 0 0 512 512;" xml:space="preserve">
<style type="text/css">
	.st0{fill:#FFFFFF;}
</style>
<g>
	<path class="st0" d="M230.4,146.7l131.9-87.9v228.4l35.4,35.4V25.7c0-6.5-3.6-12.5-9.4-15.6c-5.7-3.1-12.8-2.7-18.2,0.9l-155,103.3
		h-25.8l34.4,34.4C226.1,148.3,228.5,148,230.4,146.7L230.4,146.7z"/>
	<path class="st0" d="M504,479L33,8L8,33l106.3,106.3V380c0,9.8,7.9,17.7,17.7,17.7h83.2l155,103.3c3,2,6.4,3,9.8,3
		c2.9,0,5.7-0.7,8.4-2.1c5.8-3.1,9.4-9.1,9.4-15.6v-63.5L479,504L504,479L504,479z M362.3,453.2l-131.9-87.9c-2.9-1.9-6.3-3-9.8-3
		h-70.9V174.8l212.6,212.6C362.3,387.4,362.3,453.2,362.3,453.2L362.3,453.2z"/>
</g>
</svg>
