<?xml version="1.0" encoding="utf-8"?>
<!-- Generator: Adobe Illustrator 24.2.0, SVG Export Plug-In . SVG Version: 6.00 Build 0)  -->
<svg version="1.1" id="Capa_1" xmlns="http://www.w3.org/2000/svg" xmlns:xlink="http://www.w3.org/1999/xlink" x="0px" y="0px"
	 viewBox="0 0 512 512" style="enable-background:new 0 0 512 512;" xml:space="preserve">
<style type="text/css">
	.st0{fill:#FFFFFF;}
</style>
<g>
	<path class="st0" d="M474.3,242.4l-63.5-46.5l-2.8-22.6C395,69.9,300.3-3.5,197,9.5c-103.6,13-176.8,107.4-163.8,211
		c8.1,64.3,48.6,119.7,106.8,147.2l-17.8,89.5c-1.6,7.8,3.5,15.4,11.3,17.1C283.8,505.3,275.9,504,278.7,504c2.9,0,5.8-0.9,8.3-2.6
		c3.3-2.3,5.5-5.7,6.1-9.7l12.6-78.8H424c4.2,0,8.2-1.8,11-5c2.8-3.2,4-7.4,3.4-11.6l-14.5-98.7l49.7-31.3c4.1-2.6,6.6-7,6.8-11.8
		C480.5,249.8,478.2,245.2,474.3,242.4L474.3,242.4z M400.4,278.1c-4.9,3.1-7.5,8.7-6.6,14.4l13.4,91.4H293.2
		c-7.1,0-13.2,5.2-14.3,12.2l-12.1,76l-113.2-23.5l17.3-86.8c1.4-6.9-2.4-13.8-8.9-16.4C107.6,324,69.3,274.7,62,216.8
		C51,129.2,113,49.3,200.6,38.3c87.4-11,167.5,51.2,178.5,138.6l3.6,28.8c0.5,4,2.6,7.5,5.8,9.9l51.3,37.5L400.4,278.1z"/>
	<path class="st0" d="M220.6,64.3c-72.1,0-130.8,58.7-130.8,130.8s58.7,130.8,130.8,130.8S351.3,267.1,351.3,195
		S292.7,64.3,220.6,64.3L220.6,64.3z M220.6,296.7c-56.1,0-101.7-45.6-101.7-101.7S164.5,93.3,220.6,93.3S322.3,139,322.3,195
		S276.7,296.7,220.6,296.7L220.6,296.7z"/>
	<circle class="st0" cx="162.5" cy="166" r="14.5"/>
	<circle class="st0" cx="278.7" cy="166" r="14.5"/>
	<path class="st0" d="M169.2,230.8c-5.7,5.7-5.7,14.9,0,20.5s14.9,5.7,20.5,0c17-17,44.6-17,61.6,0c2.8,2.8,6.6,4.3,10.3,4.3
		s7.4-1.4,10.3-4.3c5.7-5.7,5.7-14.9,0-20.5C243.6,202.5,197.5,202.5,169.2,230.8L169.2,230.8z"/>
</g>
</svg>
