<?xml version="1.0" encoding="utf-8"?>
<!-- Generator: Adobe Illustrator 24.2.1, SVG Export Plug-In . SVG Version: 6.00 Build 0)  -->
<svg version="1.1" id="Capa_1" xmlns="http://www.w3.org/2000/svg" xmlns:xlink="http://www.w3.org/1999/xlink" x="0px" y="0px"
	 viewBox="0 0 512 512" style="enable-background:new 0 0 512 512;" xml:space="preserve">
<style type="text/css">
	.st0{fill:#FFFFFF;}
</style>
<g>
	<path class="st0" d="M294.5,389.2c17.6,4.3,26.1,16.7,29,33.5c3.1,17.7,4.7,35.6,3,53.6c-1.6,16.8-10.3,26.4-24.3,27.6
		c-13.3,1.1-23.2-6.7-27.5-22.7c-2.2-8.2-3.7-16.7-4.5-25.2c-0.6-7-3.6-9.1-10.2-8.2c-11.3,1.6-22.6,3-34,3.9
		c-4.9,0.4-8.1,3.1-11.6,5.9c-27.3,22.4-59.2,33.8-93.8,38.5c-7.4,1-14.7-0.1-21.8-2.2c-9.4-2.7-15.7-8.7-17.1-18.7
		c-1.4-10.6,3.6-18,12.6-23.1c6.9-3.9,14.6-4.9,22.2-6.3c16.1-3.2,31.8-7.2,46.1-15.7c3.4-2,7.9-3.7,6.5-9.1
		c-4.5-16.7,3.3-29.5,13.6-41c5.6-6.3,5.5-9.3-2.1-13.4c-16.2-8.7-31.8-18.3-45-31.3c-18.9-18.7-19.3-31.2-0.5-50.4
		c4.8-4.9,0.6-7-1.6-9.9c-25.1-32.7-36.1-69.7-34.8-110.8c2.5-78.3,68.8-148.6,146.8-155.3c70.2-6.1,125.4,20.6,160.8,80.9
		c35.4,60.3,31.5,121.6-7.4,180c-4,6-3.8,8.9,1,14.1c10.4,11.3,10.3,22.9,1.2,35.5c-9.3,12.9-22.8,20.8-36,28.9
		c-3.4,2.1-7.8,3.3-9.6,7.3c-11.7,25.4-32,33.2-58.3,28.8c-3-2-5.5-0.8-6.4,2.1C289.8,389.2,292.9,388.6,294.5,389.2z M309.6,459.5
		c-0.3-12.7-1.9-25.1-4.4-37.6c-2.2-11-8.8-15.7-19.3-17c-11.5-1.4-22.8-0.1-34.1,1.2c-5.2,0.6-10.2,0-11.3-6.4
		c-1-5.6,1.7-9.1,7-11.2c7.2-2.9,14-6.5,21.2-9.5c8.1-3.5,10.5-7.6,3.5-15c-4.2-4.4-6.1-10.7-6.7-16.8c-0.7-6.1-3.8-8.1-9.6-8.4
		c-35.7-1.9-67.4-14.3-95.6-36.3c-5.9-4.6-13.6-7.9-19.6-0.3c-5.9,7.5,0.5,12.6,5.3,17.7c16,16.9,36.4,27.3,56.5,38.2
		c11.3,6.1,11.9,9.5,3.7,19.7c-3.8,4.8-8,9.2-11.7,14.1c-6.2,8.2-13.2,16.4-7.7,27.6c5.6,11.3,15.7,14.4,27.6,14.2
		c18.4-0.4,36.6-1.7,54.7-5.1c10.4-1.9,16,0.8,16.4,12.9c0.4,11.7,3,23.4,5.2,35c0.8,4.4,3.3,8.7,8.8,8.7c6.2,0,8.3-4.8,9.1-9.7
		C309.4,470.2,309.3,464.8,309.6,459.5z M384.5,181c-4.9,0-9.8,0.5-14.6-0.1c-9.3-1.2-12.6,2.4-13.4,11.8
		c-1.1,12.5-4.1,24.8-6.5,37.2c-1.7,8.7-10.6,18.4-6.8,24.8c4,6.7,15.9,8.4,23.9,13.1c5.8,3.4,9.2,2.3,13.1-2.8
		c12.7-16.8,22.2-35.1,27-55.5C414,181,413.8,181,384.5,181z M223.2,182.5c-11.1,0-20.1,0.3-29-0.1c-7.3-0.3-9,2.8-8.4,9.5
		c1.4,14.3,4.8,28.1,9.5,41.6c5.9,16.9,6.1,16.9,24.1,13.6c4.4-0.8,8.8-1.6,13.3-2.3c22.9-3.4,23.2-3.4,22.7-27.3
		c-0.2-11.2,5.1-25.6-2.4-32.9C246.1,177.8,232,183.3,223.2,182.5z M141.8,182.4c-4.9,0-9.8,0.4-14.7-0.1
		c-9.5-1.1-11.9,2.4-10.4,11.8c3.3,20.4,9.7,39.4,20.5,57c12.8,20.9,12.8,20.9,34.7,11.1c2.2-1,4.4-2.2,6.8-2.8
		c5.9-1.6,6.3-4.8,4.1-10.1c-5.9-13.9-10-28.4-12.6-43.3C166.1,182.5,166.1,182.4,141.8,182.4z M383.7,164c7.1,0,12.8-0.4,18.5,0.1
		c8.1,0.6,10.8-2,9.3-10.5c-3.7-20.7-10.1-40.3-21.3-58.2c-11-17.6-11-17.6-29.4-8.8c-2.9,1.4-5.9,3-9,3.9
		c-7.5,2.1-9.2,5.6-6.3,13.4c4.2,11.4,6.7,23.5,9.8,35.3c2.1,7.8-1,18.4,4.7,23.1C366.2,167.4,376.5,163.2,383.7,164z M306.9,182.5
		c-8.1,0-16.3,0.5-24.4-0.1c-8.3-0.6-10.4,2.9-10.1,10.6c0.5,13.4,0.6,26.9,0,40.3c-0.4,8.4,3.3,10.7,10.7,10.8
		c11.1,0,22,1.7,32.5,5.1c7.4,2.5,10.3-0.3,12.5-6.6c4.9-13.8,9.6-27.8,11-42.4c1.9-20.8,3.3-17.2-16.1-17.6
		C317.5,182.4,312.2,182.4,306.9,182.5z M218.8,164.4c9,0,18-0.2,26.9,0.1c6.6,0.2,9.7-1.9,9.4-9.1c-0.4-12.2-0.4-24.5,0-36.7
		c0.2-6.5-1.7-9.8-8.7-10.2c-12.6-0.7-25.2-2.5-37.4-6.1c-7.2-2.1-10.3,1-12.5,7.4c-3.8,11.2-7.7,22.5-9.2,34.2
		c-3.2,24-3.7,20.1,17.9,20.4C209.8,164.5,214.3,164.4,218.8,164.4z M140.4,164.4c4.5,0,9-0.4,13.5,0.1c9.2,1.1,13.9-1.2,14.5-11.9
		c0.5-10.9,3.6-21.7,6.2-32.4c2-8.2,8.5-17.5,6.4-24.1c-2.5-7.7-15.2-7.8-22.5-12.8c-6.3-4.4-10.5-3.2-15,3.3
		c-10.7,15.7-18.6,32.5-23.6,50.7C112.3,164.4,112.3,164.4,140.4,164.4z M304,164.4c9.2,0,16.6-0.7,23.8,0.2
		c11,1.2,12.9-3.5,11.6-13.3c-1.8-13.4-5.5-26.2-9.2-39c-2.8-9.6-7.8-11.9-17.1-8.8c-6.1,2-12.7,2.8-19.1,3.6
		c-21.6,2.8-21.8,2.7-21.5,23.9c0.1,10.5-4.4,23.8,1.9,30.7C281.4,169.3,295.2,163,304,164.4z M311.1,367.5
		c16.3,0.2,29.4-12.5,30-29.2c0.5-14.9-13.7-29.2-28.9-29c-15.9,0.2-29.5,13-29.8,28.2C282,354.1,294.6,367.3,311.1,367.5z
		 M255,27.9c-18.8,16.6-32,32.8-43.4,50.7c-3.7,5.8-0.4,7.1,4,7.9c10.8,1.9,21.7,3.4,32.5,5.1c4.5,0.7,6.9-0.9,6.9-5.8
		C255,67.7,255,49.5,255,27.9z M272.5,28.3c0,21.9,0,40,0,58.1c0,4.1,1.8,6,6,5.3c10.8-1.8,21.6-3.5,32.4-5.4
		c4.5-0.8,6.3-2.9,3.4-7.4C303.3,61.3,291,44.8,272.5,28.3z M194.1,450.2c-9.7-10.5-18.1-10.2-28.5-3c-10.7,7.4-23.7,10.3-36.4,13.2
		c-8.3,1.8-16.6,3.7-24.8,5.9c-3.1,0.8-6.4,2.7-5.8,6.7c0.5,3.1,3.5,4.4,6.3,5c2.7,0.6,5.6,1.2,8.4,1
		C142.5,476.8,169.1,467.1,194.1,450.2z M255.1,318.5c0-11.3,0.4-19.7-0.1-28c-0.6-9.6,4.8-23.1-2.6-27.7
		c-9.6-5.9-22.8,0.2-34.3,2.7c-0.4,0.1-0.8,0.2-1.2,0.3c-4.1,0.7-4.5,3.2-2.6,6.1C225,288.5,237.3,303.8,255.1,318.5z M272.7,310.6
		c8.7-7.6,15.3-12.1,22.2-16.4c9.5-6,18-16.3,17.7-26c-0.2-6.1-15.2-5.3-23.8-6.7c-2.8-0.5-5.7-0.6-8.5-1.1c-5-0.8-7.8,0.7-7.7,6.3
		C272.8,280.3,272.7,294,272.7,310.6z M226.2,30.3c-19,4.5-33.7,11.8-47.3,21.5c-5.5,3.9-14.9,7.2-14.2,13.5
		c0.7,6.3,10.7,7.2,16.8,10.1c4.2,2,8.9,5.7,12.5-0.8C202.6,59.4,213.8,46,226.2,30.3z M303.2,31.7C313.3,46,323.7,59.5,332,74.4
		c1.3,2.3,3.1,4.3,5.9,3c7.8-3.5,15.6-7.1,23.1-11c3.5-1.8,1-4.2-0.7-5.7C343.8,46.4,325.1,36.3,303.2,31.7z M166.6,284.9
		c16.4,15.5,35,25.3,59.3,31.8c-8.4-11.2-14.8-19.4-20.9-27.9c-13.2-18.6-13.1-18.7-33.7-7.5C169.9,282,168.7,283.2,166.6,284.9z
		 M382.7,294c-11,4.9-20.8,11.5-28.8,20.1c-3.5,3.7,1.6,9.1,2.9,13.6c0.6,2.1,2.7,3.1,4.9,1.6c10.2-6.6,21.3-12.5,27.2-23.8
		C391.9,299.7,389.8,295.4,382.7,294z M361.4,285.1c-7.7-6.3-15.8-8.9-23.6-11.9c-5.4-2.1-7.3,1.9-8.9,5.6c-2,4.5-8,7.9-5.7,13.6
		c2,4.9,18.9,7.4,23.5,4.1C351.2,293.2,355.5,289.6,361.4,285.1z"/>
</g>
</svg>
