<?xml version="1.0" encoding="utf-8"?>
<!-- Generator: Adobe Illustrator 24.2.0, SVG Export Plug-In . SVG Version: 6.00 Build 0)  -->
<svg version="1.1" id="Capa_1" xmlns="http://www.w3.org/2000/svg" xmlns:xlink="http://www.w3.org/1999/xlink" x="0px" y="0px"
	 viewBox="0 0 512 512" style="enable-background:new 0 0 512 512;" xml:space="preserve">
<style type="text/css">
	.st0{fill:#FFFFFF;}
</style>
<g>
	<path class="st0" d="M460.4,150.4H320.9c-15.9,0-29.8,8.6-37.5,21.3h-54.9c-7.6-12.8-21.6-21.3-37.5-21.3H51.6
		C27.5,150.4,8,170,8,194v87.2c0,24.4,16.4,44.9,38.8,51.3l-4.2,7.3c-4,7-1.6,15.8,5.3,19.9c2.3,1.3,4.8,1.9,7.3,1.9
		c5,0,9.9-2.6,12.6-7.3l11.4-19.8h67.4c44.3,0,81.1-32.9,87.3-75.6h44.4c6.1,42.7,42.9,75.6,87.3,75.6h67.4l11.4,19.8
		c2.7,4.7,7.6,7.3,12.6,7.3c2.5,0,5-0.6,7.3-1.9c7-4,9.3-12.9,5.3-19.9l-4.2-7.3c22.4-6.3,38.8-26.9,38.8-51.3V194
		C504,170,484.5,150.4,460.4,150.4L460.4,150.4z M320.9,179.5h139.5c8,0,14.5,6.5,14.5,14.5v8.7H306.4V194
		C306.4,186,312.9,179.5,320.9,179.5z M51.6,179.5h139.5c8,0,14.5,6.5,14.5,14.5v8.7H37V194C37,186,43.6,179.5,51.6,179.5z
		 M61.3,305.4c-13.4,0-24.2-10.9-24.2-24.2v-49.4h71.9c-6.3,6.3-11.9,13.6-16.6,21.8l-29.9,51.8H61.3z M205.6,246.3
		c0,32.6-26.5,59.1-59.1,59.1H95.9l21.5-37.3c13.3-23.1,36.3-36.3,62.9-36.3h25.2V246.3z M234.7,200.8h42.6v29.1h-42.6V200.8z
		 M365.5,305.4c-32.6,0-59.1-26.5-59.1-59.1v-14.5h25.2c26.7,0,49.6,13.2,62.9,36.3l21.5,37.3H365.5z M450.7,305.4h-1.1l-29.9-51.8
		c-4.7-8.2-10.3-15.5-16.6-21.8H475v49.4C475,294.6,464.1,305.4,450.7,305.4z"/>
</g>
</svg>
