<?xml version="1.0" encoding="utf-8"?>
<!-- Generator: Adobe Illustrator 24.2.0, SVG Export Plug-In . SVG Version: 6.00 Build 0)  -->
<svg version="1.1" id="Capa_1" xmlns="http://www.w3.org/2000/svg" xmlns:xlink="http://www.w3.org/1999/xlink" x="0px" y="0px"
	 viewBox="0 0 512 512" style="enable-background:new 0 0 512 512;" xml:space="preserve">
<style type="text/css">
	.st0{fill:#FFFFFF;}
</style>
<g>
	<path class="st0" d="M350.9,504H161.1c-24.6,0-44.6-20-44.6-44.6V114.5c0-24.6,20-44.6,44.6-44.6h189.9c24.6,0,44.6,20,44.6,44.6
		v344.9C395.5,484,375.5,504,350.9,504z M161.1,101c-7.5,0-13.6,6.1-13.6,13.6v344.9c0,7.5,6.1,13.6,13.6,13.6h189.9
		c7.5,0,13.6-6.1,13.6-13.6V114.5c0-7.5-6.1-13.6-13.6-13.6H161.1z"/>
	<path class="st0" d="M318,101H194c-8.6,0-15.5-6.9-15.5-15.5V42.8c0-19.2,15.6-34.9,34.9-34.9h85.3c19.2,0,34.9,15.6,34.9,34.9
		v42.6C333.5,94,326.6,101,318,101z M209.5,70h93V42.8c0-2.1-1.7-3.9-3.9-3.9h-85.3c-2.1,0-3.9,1.7-3.9,3.9V70z"/>
	<path class="st0" d="M318,449.8H194c-8.6,0-15.5-6.9-15.5-15.5c0-8.6,6.9-15.5,15.5-15.5h124c8.6,0,15.5,6.9,15.5,15.5
		C333.5,442.8,326.6,449.8,318,449.8z"/>
	<path class="st0" d="M318,387.8H194c-8.6,0-15.5-6.9-15.5-15.5c0-8.6,6.9-15.5,15.5-15.5h124c8.6,0,15.5,6.9,15.5,15.5
		C333.5,380.8,326.6,387.8,318,387.8z"/>
	<path class="st0" d="M318,325.8H194c-8.6,0-15.5-6.9-15.5-15.5c0-8.6,6.9-15.5,15.5-15.5h124c8.6,0,15.5,6.9,15.5,15.5
		C333.5,318.8,326.6,325.8,318,325.8z"/>
</g>
</svg>
