<?xml version="1.0" encoding="utf-8"?>
<!-- Generator: Adobe Illustrator 24.2.0, SVG Export Plug-In . SVG Version: 6.00 Build 0)  -->
<svg version="1.1" id="Capa_1" xmlns="http://www.w3.org/2000/svg" xmlns:xlink="http://www.w3.org/1999/xlink" x="0px" y="0px"
	 viewBox="0 0 512 512" style="enable-background:new 0 0 512 512;" xml:space="preserve">
<g>
	<g>
		<g>
			<path d="M498.6,419.3L295.1,50.9c-7.6-13.8-22.1-22.3-37.8-22.3h-2.6c-15.7,0-30.2,8.5-37.8,22.3L13.4,419.3
				C9.8,425.7,8,432.9,8,440.2c0,23.8,19.4,43.2,43.2,43.2h409.7c23.8,0,43.2-19.4,43.2-43.2C504,432.9,502.2,425.7,498.6,419.3z
				 M460.8,462.7H51.2c-12.4,0-22.5-10.1-22.5-22.5c0-3.8,1-7.6,2.8-10.9L235,60.9c4-7.2,11.5-11.6,19.7-11.6h2.6
				c8.2,0,15.7,4.5,19.7,11.6l203.5,368.3c1.8,3.3,2.8,7.1,2.8,10.9C483.4,452.6,473.3,462.7,460.8,462.7z"/>
			<path d="M328.3,276.7h-46.7l35.7-89.2c1.3-3.2,0.9-6.8-1-9.6c-1.9-2.8-5.1-4.5-8.6-4.5h-72.3c-4.4,0-8.3,2.7-9.7,6.9l-51.7,144.7
				c-1.1,3.2-0.6,6.7,1.3,9.4c1.9,2.7,5.1,4.4,8.5,4.4h46.7l-35.7,89.2c-1.9,4.7-0.1,10.1,4.2,12.7c1.7,1,3.5,1.5,5.3,1.5
				c2.9,0,5.8-1.3,7.9-3.6l124-144.7c2.6-3.1,3.2-7.4,1.5-11C336.1,279,332.4,276.7,328.3,276.7z M237.1,377.6l18.1-45.4
				c1.3-3.2,0.9-6.8-1-9.6c-1.9-2.8-5.1-4.5-8.6-4.5h-47.3l44.3-124h49.8l-35.7,89.2c-1.3,3.2-0.9,6.8,1,9.6
				c1.9,2.8,5.1,4.5,8.6,4.5h39.5L237.1,377.6z"/>
		</g>
	</g>
</g>
</svg>
