<?xml version="1.0" encoding="utf-8"?>
<!-- Generator: Adobe Illustrator 24.2.3, SVG Export Plug-In . SVG Version: 6.00 Build 0)  -->
<svg version="1.1" id="Capa_1" xmlns="http://www.w3.org/2000/svg" xmlns:xlink="http://www.w3.org/1999/xlink" x="0px" y="0px"
	 viewBox="0 0 512 512" style="enable-background:new 0 0 512 512;" xml:space="preserve">
<style type="text/css">
	.st0{fill:#FFFFFF;}
</style>
<g>
	<path class="st0" d="M353.9,312c98.7-70.8,91.3-219.7-13-281c-0.3-0.2-0.7-0.4-1-0.6C277.9-5.4,198.5,1.8,143.7,51
		c-3,2.7-3.2,7.3-0.5,10.3c2.7,3,7.3,3.2,10.3,0.5c35.7-32.1,84.4-45.6,131.2-36.7c-0.7,7.9-6.2,16.5-12.2,22.2
		c-11.8,11.3-60.8,1.5-78.6,40.5c-2.5,5.4-5.9,15.1-9,19.9c-1.6-5.4-2.8-14-9.7-19.8c-4.1-3.5-8.5-5-13.1-4.6
		c-8.2,0.8-13.9,8-17.3,12.2c-7.2,9-4,17.1-1.7,23.1c2.2,5.5,4,10.2,0.6,18.1c-3.3,7.6,3.6,15.8,5.9,18.5
		c9.3,11.1,32.8,29.5,47.1,26c34.9-8.7,44.7,48.1,67.9,54.1c17.4,4.4,34.1,14.5,32,23.6c-6.5,28.2-33.2,25.4-50,32.9
		c-9.2,4.1-26,15.7-37.2,29.9c-8.9-2.8-17.4-6.4-25.5-10.7c1.1-2.6,2.3-5.2,3.6-8c12.1-25.5,11.3-38.8-17.4-62.5
		c-13.8-11.4-9-26.7-2.6-37.6c4.1-6.9,2.1-15.9-4.6-20.5c-10.4-7.1-40.7-25.3-54.9-46.2c5.2-19.6,14.1-37.7,26.4-53.7
		c2.4-3.2,1.8-7.7-1.3-10.2c-3.2-2.4-7.7-1.8-10.2,1.3c-40.6,52.9-47.9,129-9.1,191.1c51.2,81.9,160,103.3,238.5,48.4
		C353,312.8,353.5,312.4,353.9,312z M351.8,295.4c-1.2-11.2,8.9-28.1,18.1-43.2c12-19.9,23.4-38.7,14.4-52.1
		c-8.6-12.7-21.2-7.6-36-19.8c-8.7-7.2-16.7-16.2-12-41c1.3-7,8.1-15.8,19-24.6c7.1-5.8,9.8-15.5,6.6-24.3c-1.3-3.5-1.3-5.7-1-6.6
		c5.2-13.4-16.9-20.6-18.8-34.8C427.8,107,432,231.3,351.8,295.4z M104.2,154.8c16.6,18.3,39.3,31.9,50.4,39.5
		c0.4,0.3,0.5,0.7,0.3,1.1c-12.9,22-10.8,42.5,5.9,56.2c27.6,22.8,21,27.7,10.4,51.8C123.9,272.2,95.8,215,104.2,154.8z
		 M224.9,325.9c9-9.6,20.7-17.8,27.4-20.8c13.8-6.1,49.6-5.3,58.3-42.9c4.5-19.7-18.1-34.8-42.6-41c-13.3-3.4-29.6-65.4-75-54.1
		c-0.9,0.2-5.4-0.3-13.8-5.6c-11.7-7.3-20.2-16.7-21.8-20.2c5.2-12.8,1.5-21.9-0.9-28c-2.2-5.6-2.3-6.4-0.5-8.6
		c1.3-1.6,5.3-6.6,7.4-6.8c0.5-0.1,1.4,0.4,2.3,1.2c6,5.1,2.9,22.4,16.2,24.9c14.2,2.7,19.8-18.3,25.1-30
		c14.5-31.7,57.8-19.2,75.4-36c9.1-8.7,14.9-19.3,16.4-29.4c10.2,3,20,6.9,29.3,11.9c-4.4,21.2,13.9,33.3,18.7,39.6
		c-1.2,4.3-0.7,9.4,1.4,15.2c1.1,2.9,0.2,6.2-2.1,8c-9.6,7.8-21.6,19.9-24.1,33.2c-6,31.1,5.3,45.2,17,54.9
		c27.3,22.6,50.7-0.2,18.5,53.2c-12.1,20-25.6,42.4-18.3,59.9C306.4,325.6,265.7,334.4,224.9,325.9z"/>
	<path class="st0" d="M127.2,428.9c1.4,2,3.6,3,5.9,3c5.8,0,9.4-6.7,5.9-11.5c-9.5-13.2-51.8-35.3-74.4-57.6
		c-8.8-8.6-24.1-38.4-28.1-51l-9.9-35.7c-1.1-4.1,4.9-6.8,7-2.1c11.6,24.7,12.6,29.7,18.4,37.2c13.3,17.2,30.7,31.4,50.1,41.1
		l30.9,31.1c1.4,1.4,3.3,2.1,5.2,2.1c6.4,0,9.7-7.8,5.2-12.4L112,341.7l-12.3-19.1c-2.1-4.3,3.4-8.4,7.1-4.7
		C149,362.3,147,361,149.2,362l45.3,22c24.8,12,23,38.2,23.6,40.1c0.4,4,3.9,6.9,7.9,6.6c4-0.4,6.9-3.9,6.6-7.9l-0.6-7
		c-1.8-19.2-13.7-36.5-31.1-44.9l-44.2-21.4l-39.4-41.7c-6.3-6.5-16.2-7.8-23.7-3.1c-6.7,4.2-9.9,12.1-8.5,19.5
		c-8.1-6.5-15.4-13.9-21.7-22c-4.2-5.4-4.3-7.8-16.6-34.3c-3.6-8-12.3-12.4-20.6-10.5C16,259.7,9.8,270,12.5,280
		c13.4,48.1,9.1,33.2,10,36.1c4.6,14.4,21,46.4,31.8,57.1c12.3,12.1,29.6,23.9,44.8,34.3C105.5,411.9,123.5,423.8,127.2,428.9z"/>
	<path class="st0" d="M487.8,257.9c-8.9-3-18.5,1.2-22.3,9.7c-12.4,26.7-12.6,29.2-16.8,34.6c-6.3,8.2-13.7,15.6-21.7,22
		c1.4-7.4-1.8-15.3-8.5-19.5c-7.5-4.7-17.4-3.4-23.8,3.2l-39.4,41.6L311.2,371c-32.9,16-31.1,50.1-31.7,52.2c-0.4,4,2.6,7.5,6.6,7.9
		c4,0.4,7.5-2.6,7.9-6.6c0.6-1.9-1.2-28.4,23.6-40.4c47.5-23.2,45.7-21.8,47.4-23.6l40.2-42.5c3.7-3.9,9.2,0.4,7.1,4.6l-12.3,19.1
		l-31.2,31.4c-4.6,4.6-1.3,12.4,5.2,12.4c5.5,0,5.7-3.8,36.1-33.3c28.2-14.1,49.9-37.4,56-50.9l12.6-27.7c1.8-4,8-2,6.7,2.8
		l-9.8,35.4c-4,12.6-19.4,42.4-28.1,51c-22.5,22.2-64.7,44.3-74.3,57.5c-3.5,4.8,0,11.5,5.9,11.5c2.2,0,4.5-1,5.9-3
		c7.3-10,49.7-32.9,72.8-55.7c10.8-10.7,27.2-42.6,31.8-57.1c0.9-2.9-2.8,10.2,9.9-35.8C502.1,270.9,497,261,487.8,257.9z"/>
	<path class="st0" d="M230.4,445.6h-89c-9.3,0-16.8,7.6-16.8,16.8v24.7c0,9.3,7.6,16.8,16.8,16.8h89c9.3,0,16.8-7.6,16.8-16.8v-24.7
		C247.2,453.2,239.6,445.6,230.4,445.6z M232.7,487.2c0,1.3-1,2.3-2.3,2.3h-89c-1.3,0-2.3-1-2.3-2.3v-24.7c0-1.3,1-2.3,2.3-2.3h89
		c1.3,0,2.3,1,2.3,2.3V487.2z"/>
	<path class="st0" d="M370.7,445.6h-89c-9.3,0-16.8,7.6-16.8,16.8v24.7c0,9.3,7.6,16.8,16.8,16.8h89c9.3,0,16.8-7.6,16.8-16.8v-24.7
		C387.6,453.2,380,445.6,370.7,445.6z M373,487.2c0,1.3-1,2.3-2.3,2.3h-89c-1.3,0-2.3-1-2.3-2.3v-24.7c0-1.3,1-2.3,2.3-2.3h89
		c1.3,0,2.3,1,2.3,2.3V487.2z"/>
</g>
</svg>
