<?xml version="1.0" encoding="utf-8"?>
<!-- Generator: Adobe Illustrator 24.2.3, SVG Export Plug-In . SVG Version: 6.00 Build 0)  -->
<svg version="1.1" id="Capa_1" xmlns="http://www.w3.org/2000/svg" xmlns:xlink="http://www.w3.org/1999/xlink" x="0px" y="0px"
	 viewBox="0 0 512 512" style="enable-background:new 0 0 512 512;" xml:space="preserve">
<style type="text/css">
	.st0{fill:#FFFFFF;}
</style>
<g>
	<g>
		<g>
			<path class="st0" d="M85.9,410c16.6-15.6,17.4-41.8,1.8-58.4c-15.6-16.6-41.8-17.4-58.4-1.8c-16.6,15.6-17.4,41.8-1.8,58.4
				c0.6,0.6,1.2,1.2,1.8,1.8C16.2,417,8,430.7,8,445.6v50.2c0,4.6,3.7,8.3,8.3,8.3c0,0,0,0,0,0h82.7c4.6,0,8.3-3.7,8.3-8.3
				c0,0,0,0,0,0v-50.2C107.1,430.7,99,417,85.9,410z M57.6,355.2c13.7,0,24.8,11.1,24.8,24.8c0,13.7-11.1,24.8-24.8,24.8
				S32.8,393.7,32.8,380C32.8,366.3,43.9,355.2,57.6,355.2z M90.6,487.5H24.5v-41.9c0-13.4,10.8-24.2,24.2-24.2h17.7
				c13.4,0,24.2,10.8,24.2,24.2V487.5z"/>
		</g>
	</g>
	<g>
		<g>
			<path class="st0" d="M218.2,410c16.6-15.6,17.4-41.8,1.8-58.4c-15.6-16.6-41.8-17.4-58.4-1.8c-16.6,15.6-17.4,41.8-1.8,58.4
				c0.6,0.6,1.2,1.2,1.8,1.8c-13.1,7.1-21.2,20.7-21.3,35.6v50.2c0,4.6,3.7,8.3,8.3,8.3c0,0,0,0,0,0h82.7c4.6,0,8.3-3.7,8.3-8.3
				c0,0,0,0,0,0v-50.2C239.4,430.7,231.2,417,218.2,410z M189.9,355.2c13.7,0,24.8,11.1,24.8,24.8c0,13.7-11.1,24.8-24.8,24.8
				c-13.7,0-24.8-11.1-24.8-24.8C165.1,366.3,176.2,355.2,189.9,355.2z M222.9,487.5h-66.1v-41.9c0-13.4,10.8-24.2,24.2-24.2h17.7
				c13.4,0,24.2,10.8,24.2,24.2V487.5z"/>
		</g>
	</g>
	<g>
		<g>
			<path class="st0" d="M350.5,410c16.6-15.6,17.4-41.8,1.8-58.4c-15.6-16.6-41.8-17.4-58.4-1.8c-16.6,15.6-17.4,41.8-1.8,58.4
				c0.6,0.6,1.2,1.2,1.8,1.8c-13.1,7.1-21.2,20.7-21.3,35.6v50.2c0,4.6,3.7,8.3,8.3,8.3c0,0,0,0,0,0h82.7c4.6,0,8.3-3.7,8.3-8.3
				c0,0,0,0,0,0v-50.2C371.7,430.7,363.5,417,350.5,410z M322.1,355.2c13.7,0,24.8,11.1,24.8,24.8c0,13.7-11.1,24.8-24.8,24.8
				s-24.8-11.1-24.8-24.8C297.4,366.3,308.4,355.2,322.1,355.2z M355.2,487.5h-66.1v-41.9c0-13.4,10.8-24.2,24.2-24.2H331
				c13.4,0,24.2,10.8,24.2,24.2V487.5z"/>
		</g>
	</g>
	<g>
		<g>
			<path class="st0" d="M482.7,410c16.6-15.6,17.4-41.8,1.8-58.4c-15.6-16.6-41.8-17.4-58.4-1.8c-16.6,15.6-17.4,41.8-1.8,58.4
				c0.6,0.6,1.2,1.2,1.8,1.8c-13.1,7.1-21.2,20.7-21.3,35.6v50.2c0,4.6,3.7,8.3,8.3,8.3c0,0,0,0,0,0h82.7c4.6,0,8.3-3.7,8.3-8.3
				c0,0,0,0,0,0v-50.2C504,430.7,495.8,417,482.7,410z M454.4,355.2c13.7,0,24.8,11.1,24.8,24.8c0,13.7-11.1,24.8-24.8,24.8
				s-24.8-11.1-24.8-24.8C429.6,366.3,440.7,355.2,454.4,355.2z M487.5,487.5h-66.1v-41.9c0-13.4,10.8-24.2,24.2-24.2h17.7
				c13.4,0,24.2,10.8,24.2,24.2V487.5z"/>
		</g>
	</g>
	<g>
		<g>
			<path class="st0" d="M305.6,49.3C305.6,49.3,305.6,49.3,305.6,49.3H189.9c-4.6,0-8.3,3.7-8.3,8.3c0,0,0,0,0,0v148.8
				c0,4.6,3.7,8.3,8.3,8.3c0,0,0,0,0,0h115.7c4.6,0,8.3-3.7,8.3-8.3c0,0,0,0,0,0V57.6C313.9,53,310.2,49.3,305.6,49.3z M297.3,198.1
				h-99.2V65.8h99.2V198.1z"/>
		</g>
	</g>
	<g>
		<g>
			<path class="st0" d="M445.5,51.6c-0.4-0.4-0.7-0.7-1.1-1.1c-13.3-12.7-34.3-12.7-47.6,0l-0.3,0.3l-0.3-0.3
				c-13.3-12.7-34.3-12.7-47.6,0c-12.9,12.3-13.4,32.7-1.1,45.7c0.4,0.4,0.7,0.7,1.1,1.1l42.1,40.6c3.2,3.1,8.3,3.1,11.5,0
				l42.1-40.6C457.3,85,457.8,64.6,445.5,51.6z M433.6,84.7c-0.2,0.2-0.4,0.4-0.7,0.7l-36.4,35.1l-36.4-35.1
				c-6.3-6-6.6-15.9-0.7-22.3c0.2-0.2,0.4-0.4,0.7-0.7l0,0c6.9-6.5,17.7-6.5,24.6,0l6,5.8c3.2,3.1,8.3,3.1,11.5,0l6-5.8
				c6.9-6.6,17.7-6.6,24.6,0C439.3,68.4,439.6,78.4,433.6,84.7z"/>
		</g>
	</g>
	<g>
		<g>
			<path class="st0" d="M279.1,127L254.3,94c-3-3.7-8.4-4.2-12-1.2c-0.4,0.4-0.8,0.7-1.2,1.2L216.3,127c-2.2,2.9-2.2,7,0,9.9
				l24.8,33.1c2.7,3.7,7.9,4.4,11.6,1.7c0.6-0.5,1.2-1,1.7-1.7l24.8-33.1C281.4,134,281.4,130,279.1,127z M247.7,151.3L233.3,132
				l14.5-19.3l14.5,19.3L247.7,151.3z"/>
		</g>
	</g>
	<g>
		<g>
			<path class="st0" d="M396.6,156.8c-36.5,0-66.1,29.6-66.1,66.1s29.6,66.1,66.1,66.1s66.1-29.6,66.1-66.1
				C462.7,186.4,433.1,156.8,396.6,156.8z M396.6,272.5c-27.4,0-49.6-22.2-49.6-49.6s22.2-49.6,49.6-49.6
				c27.4,0,49.6,22.2,49.6,49.6C446.1,250.3,423.9,272.5,396.6,272.5z"/>
		</g>
	</g>
	<g>
		<g>
			<path class="st0" d="M404.8,239.5c0,4.6-3.7,8.3-8.3,8.3c-4.6,0-8.3-3.7-8.3-8.3h-16.5c0,13.7,11.1,24.8,24.8,24.8
				s24.8-11.1,24.8-24.8H404.8z"/>
		</g>
	</g>
	<g>
		<g>
			<path class="st0" d="M417.2,198.1c-6.8,0-12.4,5.6-12.4,12.4s5.6,12.4,12.4,12.4c6.8,0,12.4-5.6,12.4-12.4
				C429.6,203.7,424.1,198.1,417.2,198.1z M417.2,214.7c-2.3,0-4.1-1.9-4.1-4.1c0-2.3,1.9-4.1,4.1-4.1s4.1,1.9,4.1,4.1
				C421.3,212.8,419.5,214.7,417.2,214.7z"/>
		</g>
	</g>
	<g>
		<g>
			<path class="st0" d="M375.9,198.1c-6.8,0-12.4,5.6-12.4,12.4s5.6,12.4,12.4,12.4c6.8,0,12.4-5.6,12.4-12.4
				C388.3,203.7,382.7,198.1,375.9,198.1z M375.9,214.7c-2.3,0-4.1-1.9-4.1-4.1c0-2.3,1.9-4.1,4.1-4.1c2.3,0,4.1,1.9,4.1,4.1
				C380,212.8,378.2,214.7,375.9,214.7z"/>
		</g>
	</g>
	<g>
		<g>
			<path class="st0" d="M156.8,173.3C156.8,173.3,156.8,173.3,156.8,173.3H57.6c-4.6,0-8.3,3.7-8.3,8.3c0,0,0,0,0,0v57.9
				c0,4.6,3.7,8.3,8.3,8.3c0,0,0,0,0,0h30.1l47.3,39.4c3.5,2.9,8.7,2.4,11.6-1.1c1.6-1.9,2.2-4.5,1.8-6.9l-6.3-31.4h14.7
				c4.6,0,8.3-3.7,8.3-8.3c0,0,0,0,0,0v-57.9C165.1,177,161.4,173.3,156.8,173.3z M148.5,231.2H132c-4.6,0-8.3,3.7-8.3,8.3
				c0,0.5,0.1,1.1,0.2,1.6l3.7,18.4l-31.6-26.3c-1.5-1.2-3.4-1.9-5.3-1.9H65.8v-41.3h82.7V231.2z"/>
		</g>
	</g>
	<g>
		<g>
			<path class="st0" d="M408.2,8H103.8C50.9,8,8,50.9,8,103.8v122.4c0.1,52.9,43,95.8,95.9,95.9h304.3c52.9-0.1,95.8-43,95.9-95.9
				V103.8C504,50.9,461.1,8,408.2,8z M487.5,226.3c0,43.8-35.5,79.3-79.3,79.3H103.8c-43.8,0-79.3-35.5-79.3-79.3V103.8
				c0-43.8,35.5-79.3,79.3-79.3h304.3c43.8,0,79.3,35.5,79.3,79.3L487.5,226.3L487.5,226.3z"/>
		</g>
	</g>
	<g>
		<g>
			<path class="st0" d="M116.2,41.7c-3-0.5-6-0.7-9-0.7c-24.5,0-46.4,15.5-54.5,38.7l0,0.1l0,0.1c-1,2.9-1.8,5.9-2.3,9
				c-0.1,0.3-0.1,0.6-0.1,1c-5,31.6,16.6,61.2,48.1,66.1s61.2-16.6,66.1-48.1S147.8,46.7,116.2,41.7z M98.2,139.2
				c-21.8-4.5-35.8-25.7-31.6-47.5c18.9,4.2,32.3,20.9,32.3,40.3C98.9,134.4,98.7,136.8,98.2,139.2z M114.8,139.5
				c0.4-2.5,0.6-5,0.6-7.5c0-26.1-17.5-49-42.7-55.8c6-9.2,15.5-15.6,26.3-17.8c0.5,27.2,19.9,50.4,46.5,55.8
				C140.2,127.3,128.7,136.9,114.8,139.5z M115.5,58.4c18.8,3.9,32.5,20.3,32.9,39.5C129.6,94,116,77.6,115.5,58.4z"/>
		</g>
	</g>
</g>
</svg>
