<?xml version="1.0" encoding="utf-8"?>
<!-- Generator: Adobe Illustrator 24.2.3, SVG Export Plug-In . SVG Version: 6.00 Build 0)  -->
<svg version="1.1" id="Capa_1" xmlns="http://www.w3.org/2000/svg" xmlns:xlink="http://www.w3.org/1999/xlink" x="0px" y="0px"
	 viewBox="0 0 512 512" style="enable-background:new 0 0 512 512;" xml:space="preserve">
<style type="text/css">
	.st0{fill:#FFFFFF;}
</style>
<g>
	<path class="st0" d="M412.8,335.8h-35c-4,0-7.3,3.3-7.3,7.3c0,4,3.3,7.3,7.3,7.3h35c31.4,0,57,25.6,57,57v82.2h-62.8v-36.6
		c0-4-3.3-7.3-7.3-7.3c-4,0-7.3,3.3-7.3,7.3v36.6H119.5v-36.6c0-4-3.3-7.3-7.3-7.3c-4,0-7.3,3.3-7.3,7.3v36.6H42.1v-82.2
		c0-31.4,25.6-57,57-57h77c3.6,40.8,37.8,73,79.8,73c42,0,76.2-32.2,79.8-73h8.1c4,0,7.3-3.3,7.3-7.3c0-4-3.3-7.3-7.3-7.3h-24.1
		c-1.1,0-1.9-0.9-1.9-1.9v-33.3c23.8-17.3,42.8-42,45-70.9l0.4-5.4c25.9-1.8,46.4-23.4,46.4-49.7V172c0-16.6-13.5-30.2-30.2-30.2
		h-10.2l0.8-11C375,64.5,322.4,8,256,8c-66.4,0-119,56.6-114.1,122.8l0.8,11h-10.2c-16.6,0-30.2,13.5-30.2,30.2v2.5
		c0,26.3,20.5,48,46.4,49.7c0.9,12.6,2.2,22.7,9.7,36.9c1.9,3.5,6.3,4.9,9.8,3c3.5-1.9,4.9-6.3,3-9.8c-4.5-8.4-7.1-17.1-7.7-25.8
		l-7.3-98.9c-2.1-28,7.3-54.7,26.4-75.3c39.3-42.3,106.5-42.8,146.3,0c19.1,20.6,28.5,47.3,26.4,75.3l-7.3,98.9
		c-3.2,43.6-56.6,78.9-89.2,81.4c-21,1.7-51.2-15.1-68-30.7c-2.9-2.7-7.5-2.6-10.3,0.4c-2.7,2.9-2.6,7.5,0.4,10.3
		c4.1,3.8,8.5,7.3,13,10.7v33.3c0,1.1-0.9,1.9-1.9,1.9H99.2c-39.4,0-71.5,32.1-71.5,71.5v89.4c0,4,3.3,7.3,7.3,7.3h442.2
		c4,0,7.3-3.3,7.3-7.3v-89.4C484.4,367.9,452.3,335.8,412.8,335.8z M116.9,174.5V172c0-8.6,7-15.7,15.7-15.7h11.3l3.9,53.2
		C130.4,207.3,116.9,192.4,116.9,174.5z M379.4,156.3c8.6,0,15.7,7,15.7,15.7v2.5c0,18-13.5,32.8-30.8,35l3.9-53.2H379.4z
		 M208.7,333.9v-24c16.5,9.3,36.7,16.7,55.3,14.2c12-1.6,25.9-6.7,39.3-14.2v24c0,9.1,7.4,16.5,16.5,16.5h1.5
		c-3.5,32.7-31.2,58.5-65.2,58.5c-34,0-61.7-25.7-65.2-58.5h1.5C201.3,350.3,208.7,342.9,208.7,333.9z"/>
	<path class="st0" d="M256.5,105.4c3.5,0,6.3,2.8,6.3,6.3c0,4,3.3,7.3,7.3,7.3c4,0,7.3-3.3,7.3-7.3c0-11.5-9.3-20.8-20.8-20.8
		c-11.5,0-20.8,9.3-20.8,20.8c0,18.9,15.4,34.3,34.3,34.3c18.9,0,34.3-15.4,34.3-34.3c0-26.4-21.5-47.9-47.9-47.9
		c-26.4,0-47.9,21.5-47.9,47.9c0,43.1,43.5,72.8,83.5,57.3c3.7-1.4,5.6-5.7,4.2-9.4s-5.7-5.6-9.4-4.2
		c-30.6,11.8-63.8-10.8-63.8-43.7c0-18.4,14.9-33.3,33.3-33.3c18.4,0,33.3,15,33.3,33.3c0,10.9-8.9,19.8-19.8,19.8
		c-10.9,0-19.8-8.9-19.8-19.8C250.2,108.2,253,105.4,256.5,105.4z"/>
	<path class="st0" d="M312,146.7c3.4,2.1,7.9,1.1,10-2.3c27.2-43.1-6.9-108.1-66-108.1c-41.6,0-75.4,33.8-75.4,75.4
		c0,20.1,7.8,39.1,22.1,53.3c1.4,1.4,3.3,2.1,5.1,2.1c6.4,0,9.7-7.8,5.1-12.4c-11.5-11.5-17.8-26.8-17.8-43
		c0-33.6,27.3-60.9,60.9-60.9c47.7,0,74.8,52.4,53.7,85.8C307.5,140,308.6,144.5,312,146.7z"/>
</g>
</svg>
