<?xml version="1.0" encoding="utf-8"?>
<!-- Generator: Adobe Illustrator 24.1.3, SVG Export Plug-In . SVG Version: 6.00 Build 0)  -->
<svg version="1.1" id="Capa_1" xmlns="http://www.w3.org/2000/svg" xmlns:xlink="http://www.w3.org/1999/xlink" x="0px" y="0px"
	 viewBox="0 0 512 512" style="enable-background:new 0 0 512 512;" xml:space="preserve">
<style type="text/css">
	.st0{fill:#FF637B;}
	.st1{fill:#E63950;}
</style>
<g>
	<path class="st0" d="M376.1,27.3c-52.3,0-97.6,29.7-120.1,73c-22.5-43.2-67.9-73-120.1-73C56.6,27.3,0,89.2,0,178.1
		c0,93.7,66.2,148.4,165,231c41.8,35.2,31.9,26.8,84.1,72.1c2.1,1.8,4.5,2.7,6.9,3c0.9,0.6,1.8,0.6,3,0.6c3.6,0,6.9-1.2,9.9-3.6
		c78.6-68.4,116.3-100.2,154.7-136.7c45.4-43.6,88.4-93.7,88.4-166.4C512,89.2,455.4,27.3,376.1,27.3z"/>
	<path class="st1" d="M512,178.1c0,72.7-43.1,122.8-88.4,166.4c-38.6,36.6-77,69-154.7,136.7c-3,2.4-6.3,3.6-9.9,3.6
		c-1.2,0-2.1,0-3-0.6V364.6h-15c-16.5,0-30-13.5-30-30s13.5-30,30-30h15v-60.1h15c16.5,0,30-13.5,30-30s-13.5-30-30-30h-15v-84.1
		c22.5-43.2,67.9-73,120.1-73C455.4,27.3,512,89.2,512,178.1z"/>
</g>
</svg>
