<?xml version="1.0" encoding="utf-8"?>
<!-- Generator: Adobe Illustrator 24.1.3, SVG Export Plug-In . SVG Version: 6.00 Build 0)  -->
<svg version="1.1" id="Capa_1" xmlns="http://www.w3.org/2000/svg" xmlns:xlink="http://www.w3.org/1999/xlink" x="0px" y="0px"
	 viewBox="0 0 512 512" style="enable-background:new 0 0 512 512;" xml:space="preserve">
<style type="text/css">
	.st0{fill:#FDD0D0;}
	.st1{fill:#FAAAAA;}
	.st2{fill:#FF637B;}
	.st3{fill:#6AA9FF;}
	.st4{fill:#7ED8F6;}
	.st5{fill:#E63950;}
</style>
<g>
	<path class="st0" d="M241,322.2c0-15.9-6.3-31.2-17.6-42.4l-65.3-65.3c-12.1-12.1-31.8-11.6-43.3,0.9
		c-10.9,11.8-10.5,30.1,0.9,41.5l30.9,30.9c5.9,5.9,5.9,15.4,0,21.2s-15.4,5.9-21.2,0l-52.2-51.2C64.7,249.4,60,237.9,60,226v-90.1
		c0-24.8-20-44.8-44.8-44.9C6.9,91,0,97.7,0,106v163.4c0,13.6,3.7,26.9,12.1,40.6L86,396.1c14.2,16.5,25.9,35,34.8,54.9l64,34.8
		L241,451V322.2z"/>
	<path class="st1" d="M496.8,91C472,91.1,452,111.2,452,135.9V226c0,11.9-4.7,23.4-13.2,31.8L386.6,309c-5.9,5.9-15.4,5.9-21.2,0
		s-5.9-15.4,0-21.2l30.9-30.9c11.4-11.4,11.8-29.7,0.9-41.5c-11.5-12.6-31.2-13-43.3-0.9l-65.3,65.3C277.3,291,271,306.3,271,322.2
		V451l62.8,37.6L391,451c9-21,21.1-38.8,35.9-56.2l73-84.8c8.4-13.7,12.1-27,12.1-40.6V106C512,97.7,505.1,91,496.8,91z"/>
	<path class="st2" d="M405.1,87.9c0,53.7-44.1,90.3-104.7,141.6c-10.8,9-22.5,18.9-34.5,29.4c-2.7,2.4-6.3,3.6-9.9,3.6
		c-3.6,0-7.2-1.2-9.9-3.6c-12-10.5-23.7-20.4-34.5-29.7c-63-53.1-104.7-88.2-104.7-141.3c0-49.2,36-87.9,81.9-87.9
		c33.9,0,54.9,20.1,67.2,38.4C268.3,20.1,289.3,0,323.2,0C369.1,0,405.1,38.7,405.1,87.9z"/>
	<path class="st3" d="M271,451h120v46c0,8.3-6.7,15-15,15h-90c-8.3,0-15-6.7-15-15V451z"/>
	<path class="st4" d="M121,452.6V497c0,8.3,6.7,15,15,15h90c8.3,0,15-6.7,15-15v-46H120.8C120.8,451.6,121,452.1,121,452.6z"/>
	<path class="st5" d="M405.1,87.9c0,53.7-44.1,90.3-104.7,141.6c-10.8,9-22.5,18.9-34.5,29.4c-2.7,2.4-6.3,3.6-9.9,3.6V38.4
		C268.3,20.1,289.3,0,323.2,0C369.1,0,405.1,38.7,405.1,87.9z"/>
</g>
</svg>
