<?xml version="1.0" encoding="utf-8"?>
<!-- Generator: Adobe Illustrator 24.2.3, SVG Export Plug-In . SVG Version: 6.00 Build 0)  -->
<svg version="1.1" id="Capa_1" xmlns="http://www.w3.org/2000/svg" xmlns:xlink="http://www.w3.org/1999/xlink" x="0px" y="0px"
	 viewBox="0 0 512 512" style="enable-background:new 0 0 512 512;" xml:space="preserve">
<style type="text/css">
	.st0{fill:#FFFFFF;}
</style>
<g>
	<path class="st0" d="M393.5,228.1c38.4-27.8,46.9-81.5,19.1-119.9c-2.7-3.7-5.7-7.2-9-10.5c-15.5-15.5-36.6-24-58.5-23.7
		c-45,0.6-81.6,38.7-81.5,84.7c0,27.4,13.2,53.2,35.4,69.3c1.1,0.9,1.8,2.2,1.8,3.6v11c-11.9,6.8-15.9,22-9.1,33.9
		c3,5.1,7.6,9,13.2,11v9.7c0,13.7,11.1,24.8,24.8,24.8h33.1c13.7,0,24.8-11.1,24.8-24.8v-9.7c12.9-4.6,19.7-18.7,15.1-31.6
		c-2-5.6-5.9-10.3-11-13.2v-11C391.7,230.3,392.3,229,393.5,228.1z M280.1,158.8c-0.1-37.1,29.2-67.7,65.2-68.2c0.3,0,0.6,0,0.9,0
		c17.2,0,33.6,6.8,45.8,18.9c27.1,27,27.2,70.9,0.2,98c-2.6,2.6-5.3,5-8.3,7.1c-5.5,4-8.7,10.3-8.7,17.1v7.7h-57.9v-7.7
		c0-6.8-3.2-13.1-8.7-17.1C290.7,201.7,280,180.9,280.1,158.8z M362.8,305.6h-33.1c-4.6,0-8.3-3.7-8.3-8.3v-8.3H371v8.3
		C371,301.9,367.3,305.6,362.8,305.6z M379.3,272.5h-66.1c-4.6,0-8.3-3.7-8.3-8.3c0-4.6,3.7-8.3,8.3-8.3h66.1c4.6,0,8.3,3.7,8.3,8.3
		C387.6,268.8,383.9,272.5,379.3,272.5z"/>
	<path class="st0" d="M359.6,126.3c10.5,4.4,18.5,13.4,21.5,24.4c1.3,4.4,5.9,6.9,10.3,5.6c4.3-1.3,6.8-5.7,5.6-10
		c-4.5-15.9-16-28.9-31.2-35.2c-4.2-1.7-9.1,0.3-10.8,4.5C353.4,119.8,355.4,124.6,359.6,126.3L359.6,126.3z"/>
	<path class="st0" d="M354.5,49.3V32.8c0-4.6-3.7-8.3-8.3-8.3s-8.3,3.7-8.3,8.3v16.5c0,4.6,3.7,8.3,8.3,8.3S354.5,53.9,354.5,49.3z"
		/>
	<path class="st0" d="M299.1,67.6c4.6,0,8.3-3.7,8.3-8.3c0-1.2-0.2-2.3-0.7-3.3L300,40.8c-1.9-4.2-6.7-6-10.9-4.2
		c-4.2,1.9-6,6.7-4.2,10.9l6.7,15.1C292.9,65.7,295.9,67.6,299.1,67.6z"/>
	<path class="st0" d="M260.2,95.9c4.6,0,8.3-3.7,8.3-8.3c0-2.3-1-4.6-2.7-6.1l-12.3-11.1c-3.4-3.1-8.6-2.8-11.7,0.6
		s-2.8,8.6,0.6,11.7l0,0l12.3,11.1C256.2,95.1,258.2,95.9,260.2,95.9z"/>
	<path class="st0" d="M244,131.8c1.4-4.3-1-9-5.3-10.4l-15.7-5.1c-4.3-1.4-9,0.9-10.5,5.2c-1.4,4.3,0.9,9,5.2,10.5c0,0,0.1,0,0.1,0
		l15.7,5.1C237.9,138.6,242.6,136.2,244,131.8C244,131.9,244,131.8,244,131.8L244,131.8z"/>
	<path class="st0" d="M230.2,168.9l-16.4,1.7c-4.5,0.4-7.9,4.5-7.4,9c0.4,4.5,4.5,7.9,9,7.4c0,0,0.1,0,0.1,0l16.4-1.7
		c4.5-0.5,7.8-4.6,7.3-9.1C238.8,171.7,234.7,168.5,230.2,168.9L230.2,168.9z"/>
	<path class="st0" d="M460.5,185.4l16.4,1.7c4.5,0.5,8.6-2.9,9.1-7.4c0.5-4.5-2.8-8.5-7.3-9l-16.4-1.7c-4.5-0.5-8.6,2.8-9.1,7.3
		C452.6,180.8,455.8,184.9,460.5,185.4C460.4,185.4,460.4,185.4,460.5,185.4z"/>
	<path class="st0" d="M456.3,137.6c0.9,0,1.7-0.1,2.6-0.4l15.7-5.1c4.3-1.4,6.7-6.1,5.3-10.4c-1.4-4.3-6.1-6.7-10.4-5.3l-15.7,5.1
		c-4.3,1.4-6.7,6.1-5.3,10.4C449.5,135.2,452.7,137.6,456.3,137.6z"/>
	<path class="st0" d="M437.8,93.7l12.3-11.1c3.4-3.1,3.7-8.3,0.6-11.7c-3.1-3.4-8.3-3.7-11.7-0.6l0,0l-12.3,11.1
		c-3.4,3.1-3.6,8.3-0.5,11.7C429.3,96.4,434.4,96.7,437.8,93.7z"/>
	<path class="st0" d="M393.3,67.6c3.3,0,6.2-1.9,7.6-4.9l6.7-15.1c1.9-4.2,0-9.1-4.2-10.9c-4.2-1.9-9.1,0-10.9,4.2L385.7,56
		c-1.9,4.2,0,9.1,4.2,10.9C391,67.3,392.1,67.6,393.3,67.6L393.3,67.6z"/>
	<path class="st0" d="M479.2,421.4H371.7v-8.3c0-12.4-16.2-21.5-21.1-23.9c-0.4-0.2-0.9-0.4-1.3-0.5l-80.9-24.3
		c-5.1-4.5-23.4-20.4-45.8-36.5c-35.7-25.7-63.4-38.8-82.3-38.8H74.1v-8.3c0-4.6-3.7-8.3-8.3-8.3H16.2c-4.6,0-8.3,3.7-8.3,8.3v181.9
		c0,4.6,3.7,8.3,8.3,8.3h49.6c4.6,0,8.3-3.7,8.3-8.3v-8.3h24.4c5.2,0.7,47.4,9,84.6,16.4c74.6,14.7,85.1,16.7,87.5,16.7h208.6
		c13.7,0,24.8-11.1,24.8-24.8v-16.5C504,432.5,492.9,421.4,479.2,421.4z M57.6,454.4H24.5V289.1h33.1V454.4z M487.5,462.7
		c0,4.6-3.7,8.3-8.3,8.3H271c-5.2-0.7-47.4-9-84.6-16.4c-74.6-14.7-85.1-16.7-87.5-16.7H74.1V305.6h66.1
		c31.3,0,96.1,52.2,118.5,72.3c0.9,0.8,2,1.4,3.2,1.8l82,24.6c5.1,2.7,10.6,7,11.4,9.1v16.3c0,4.3-3.3,7.9-7.6,8.2l-80.4-16.1
		l-56.7-32.4c-4-2.3-9-0.9-11.3,3.1c-2.3,4-0.9,9,3.1,11.3c0,0,0,0,0,0l57.9,33.1c0.8,0.4,1.6,0.8,2.5,0.9l82.7,16.5
		c0.5,0.1,1.1,0.2,1.6,0.2c10.5,0,19.9-6.6,23.4-16.5h108.9c4.6,0,8.3,3.7,8.3,8.3V462.7z"/>
</g>
</svg>
