<svg id="Capa_1" enable-background="new 0 0 512 512" height="512" viewBox="0 0 512 512" width="512" xmlns="http://www.w3.org/2000/svg"><g><g><g fill="#f9f9f9"><path d="m256 56c-8.284 0-15-6.716-15-15v-25c0-8.284 6.716-15 15-15s15 6.716 15 15v25c0 8.284-6.716 15-15 15z"/><path d="m256 419.847c-8.284 0-15-6.716-15-15v-55.128c0-8.284 6.716-15 15-15s15 6.716 15 15v55.128c0 8.284-6.716 15-15 15zm0-121.283c-8.284 0-15-6.716-15-15v-55.128c0-8.284 6.716-15 15-15s15 6.716 15 15v55.128c0 8.285-6.716 15-15 15zm0-121.282c-8.284 0-15-6.716-15-15v-55.128c0-8.284 6.716-15 15-15s15 6.716 15 15v55.128c0 8.284-6.716 15-15 15z"/><path d="m256 511c-8.284 0-15-6.716-15-15v-25c0-8.284 6.716-15 15-15s15 6.716 15 15v25c0 8.284-6.716 15-15 15z"/></g></g><path d="m447 511h-80c-7.869 0-14.401-6.082-14.962-13.932l-9.005-126.068h-26.033c-4.303 0-8.397-1.848-11.245-5.073s-4.173-7.518-3.639-11.787l25.62-204.961c3.433-27.467 26.895-48.179 54.576-48.179h49.377c27.681 0 51.143 20.712 54.575 48.179l25.62 204.961c.534 4.27-.791 8.562-3.639 11.787s-6.942 5.073-11.245 5.073h-26.033l-9.005 126.068c-.561 7.85-7.093 13.932-14.962 13.932z" fill="#e789da"/><path d="m486.264 149.179c-3.433-27.467-26.895-48.179-54.576-48.179h-24.688v410h40c7.869 0 14.401-6.082 14.962-13.932l9.005-126.068h26.033c4.303 0 8.397-1.848 11.245-5.073s4.173-7.518 3.639-11.787z" fill="#eb1d83"/><path d="m407 116c-31.705 0-57.5-25.795-57.5-57.5s25.795-57.5 57.5-57.5 57.5 25.795 57.5 57.5-25.795 57.5-57.5 57.5z" fill="#f2d1a5"/><path d="m135 511h-60c-19.299 0-35-15.701-35-35v-155.276c-22.469-2.496-40-21.601-40-44.724v-120c0-30.327 24.673-55 55-55h100c30.327 0 55 24.673 55 55v120c0 23.123-17.531 42.229-40 44.724v155.276c0 19.299-15.701 35-35 35z" fill="#9ddff6"/><path d="m155 101h-50v410h30c19.299 0 35-15.701 35-35v-155.276c22.469-2.495 40-21.601 40-44.724v-120c0-30.327-24.673-55-55-55z" fill="#8bb9ff"/><path d="m105 116c-31.705 0-57.5-25.795-57.5-57.5s25.795-57.5 57.5-57.5 57.5 25.795 57.5 57.5-25.795 57.5-57.5 57.5z" fill="#f2d1a5"/><path d="m105 1v115c31.705 0 57.5-25.795 57.5-57.5s-25.795-57.5-57.5-57.5z" fill="#f2bb88"/><path d="m407 1v115c31.705 0 57.5-25.795 57.5-57.5s-25.795-57.5-57.5-57.5z" fill="#f2bb88"/><g fill="#e2dff4"><path d="m271 41v-25c0-8.284-6.716-15-15-15v55c8.284 0 15-6.716 15-15z"/><path d="m271 404.847v-55.128c0-8.284-6.716-15-15-15v85.128c8.284 0 15-6.716 15-15z"/><path d="m271 283.564v-55.128c0-8.284-6.716-15-15-15v85.128c8.284 0 15-6.715 15-15z"/><path d="m271 162.282v-55.128c0-8.284-6.716-15-15-15v85.128c8.284 0 15-6.716 15-15z"/><path d="m271 496v-25c0-8.284-6.716-15-15-15v55c8.284 0 15-6.716 15-15z"/></g></g></svg>