<?xml version="1.0" encoding="utf-8"?>
<!-- Generator: Adobe Illustrator 24.2.3, SVG Export Plug-In . SVG Version: 6.00 Build 0)  -->
<svg version="1.1" id="Capa_1" xmlns="http://www.w3.org/2000/svg" xmlns:xlink="http://www.w3.org/1999/xlink" x="0px" y="0px"
	 viewBox="0 0 512 512" style="enable-background:new 0 0 512 512;" xml:space="preserve">
<style type="text/css">
	.st0{fill:#386BB2;}
</style>
<g>
	<g>
		<path class="st0" d="M256.5,63.7c82.4,0,152.4,56.9,171.3,134.3l-28.6-20.2L382.8,201l67.2,47.4l47.4-67.2l-23.1-16.3l-19,26.9
			C433.6,101.7,352.3,35.5,256.5,35.5c-54.7,0-106,21.3-144.7,59.9s-59.9,90-59.9,144.7h28.3C80.2,142.8,159.3,63.7,256.5,63.7
			L256.5,63.7z"/>
	</g>
	<g>
		<path class="st0" d="M256.5,448.3c-82.4,0-152.4-56.9-171.3-134.3l28.6,20.2l16.3-23.1L63,263.6l-47.4,67.2l23.1,16.3l19-26.9
			c21.8,90.1,103.1,156.3,198.9,156.3c54.7,0,106-21.3,144.7-59.9s59.9-90,59.9-144.7h-28.3C432.8,369.2,353.7,448.3,256.5,448.3
			L256.5,448.3z"/>
	</g>
	<g>
		<path class="st0" d="M256.5,154.1l-9,7.3c-2.8,2.3-69.1,57.3-69.1,114.1c0,43.1,35,78.1,78.1,78.1s78.1-35,78.1-78.1
			c0-56.8-66.3-111.8-69.1-114.1L256.5,154.1z M306.3,275.6c0,27.5-22.3,49.8-49.8,49.8s-49.8-22.3-49.8-49.8
			c0-30.6,30.6-66,49.8-84.3C275.7,209.6,306.3,245,306.3,275.6z"/>
	</g>
</g>
</svg>
