<?xml version="1.0" encoding="utf-8"?>
<!-- Generator: Adobe Illustrator 24.2.3, SVG Export Plug-In . SVG Version: 6.00 Build 0)  -->
<svg version="1.1" id="Capa_1" xmlns="http://www.w3.org/2000/svg" xmlns:xlink="http://www.w3.org/1999/xlink" x="0px" y="0px"
	 viewBox="0 0 512 512" style="enable-background:new 0 0 512 512;" xml:space="preserve">
<style type="text/css">
	.st0{fill:#FFFFFF;}
</style>
<g>
	<path class="st0" d="M503.5,45C502.4,25.3,486.7,9.6,467,8.5C427.2,6.4,349.4,8.5,275,47c-37.9,19.6-78,52.9-110,91.3
		c-0.4,0.5-0.8,0.9-1.2,1.4l-72.6,5.6c-12,0.9-22.6,7.2-29.2,17.2l-49.6,75c-5,7.6-5.8,17.1-2.1,25.4c3.7,8.3,11.2,14.1,20.2,15.5
		l61.2,9.5c-0.2,1.2-0.4,2.4-0.6,3.6c-2,12.2,2,24.7,10.8,33.5l85.3,85.3c7.3,7.3,17.2,11.3,27.3,11.3c2.1,0,4.2-0.2,6.3-0.5
		c1.2-0.2,2.4-0.4,3.6-0.6l9.5,61.2c1.4,9,7.2,16.5,15.5,20.2c3.5,1.5,7.1,2.3,10.8,2.3c5.1,0,10.2-1.5,14.6-4.4l75-49.6
		c10-6.6,16.3-17.3,17.2-29.2l5.6-72.6c0.5-0.4,1-0.8,1.4-1.2c38.4-32,71.6-72.1,91.3-110C503.5,162.6,505.6,84.8,503.5,45L503.5,45
		z M333.5,425.8l-71.7,47.4l-9.2-59.6c30.3-8.9,60.3-23.2,88.8-42.3l-3.7,47.3C337.5,421.5,336,424.2,333.5,425.8L333.5,425.8z
		 M207.7,389.6l-85.3-85.3c-2.2-2.2-3.2-5.2-2.7-8.2c2.5-15.2,6.5-29.6,11.3-43.2L259,380.9c-16.3,5.8-30.9,9.3-43.1,11.4
		C212.9,392.8,209.8,391.8,207.7,389.6L207.7,389.6z M93.4,174.2l47.3-3.7c-19.1,28.6-33.4,58.5-42.3,88.8l-59.6-9.2l47.4-71.7
		C87.8,176,90.5,174.5,93.4,174.2z M355.2,324.7c-23.5,19.6-46.3,33.7-67.3,44L143.3,224.1c13.4-27.4,29.8-50.3,44-67.3
		c29.6-35.5,66.5-66.2,101.1-84.1c68.3-35.3,140.2-37.2,177-35.2c4.9,0.3,8.7,4.1,9,9c2,36.8,0.1,108.7-35.2,177
		C421.3,258.2,390.7,295.1,355.2,324.7L355.2,324.7z"/>
	<path class="st0" d="M347.8,236.9c18.6,0,37.2-7.1,51.4-21.2c13.7-13.7,21.3-32,21.3-51.4s-7.6-37.7-21.3-51.4
		c-28.3-28.3-74.4-28.3-102.8,0c-13.7,13.7-21.3,32-21.3,51.4s7.6,37.7,21.3,51.4C310.6,229.8,329.2,236.9,347.8,236.9L347.8,236.9z
		 M316.9,133.4c8.5-8.5,19.7-12.7,30.8-12.7c11.2,0,22.3,4.2,30.8,12.7c8.2,8.2,12.8,19.2,12.8,30.8s-4.5,22.6-12.8,30.8
		c-17,17-44.7,17-61.7,0c-8.2-8.2-12.8-19.2-12.8-30.8S308.7,141.6,316.9,133.4z"/>
	<path class="st0" d="M22.8,416.8c3.7,0,7.4-1.4,10.3-4.3l47.4-47.4c5.7-5.7,5.7-14.9,0-20.6c-5.7-5.7-14.9-5.7-20.6,0L12.5,392
		c-5.7,5.7-5.7,14.9,0,20.6C15.4,415.4,19.1,416.8,22.8,416.8z"/>
	<path class="st0" d="M124,388c-5.7-5.7-14.9-5.7-20.6,0l-91.2,91.2c-5.7,5.7-5.7,14.9,0,20.6c2.8,2.8,6.6,4.3,10.3,4.3
		s7.4-1.4,10.3-4.3l91.2-91.2C129.7,402.9,129.7,393.7,124,388L124,388z"/>
	<path class="st0" d="M146.9,431.5l-47.4,47.4c-5.7,5.7-5.7,14.9,0,20.6c2.8,2.8,6.6,4.3,10.3,4.3s7.4-1.4,10.3-4.3l47.4-47.4
		c5.7-5.7,5.7-14.9,0-20.6C161.8,425.8,152.6,425.8,146.9,431.5z"/>
</g>
</svg>
