<?xml version="1.0" encoding="utf-8"?>
<!-- Generator: Adobe Illustrator 24.2.3, SVG Export Plug-In . SVG Version: 6.00 Build 0)  -->
<svg version="1.1" id="Capa_1" xmlns="http://www.w3.org/2000/svg" xmlns:xlink="http://www.w3.org/1999/xlink" x="0px" y="0px"
	 viewBox="0 0 512 512" style="enable-background:new 0 0 512 512;" xml:space="preserve">
<style type="text/css">
	.st0{fill:#FFFFFF;}
</style>
<g>
	<g>
		<g>
			<path class="st0" d="M256,208.6c-12.9,0-23.5-10.5-23.5-23.5c0-12.9,10.5-23.5,23.5-23.5c12.9,0,23.5,10.5,23.5,23.5
				C279.5,198.1,268.9,208.6,256,208.6z M256,176.2c-4.9,0-8.9,4-8.9,8.9c0,4.9,4,8.9,8.9,8.9c4.9,0,8.9-4,8.9-8.9
				C264.9,180.2,260.9,176.2,256,176.2z"/>
		</g>
		<g>
			<path class="st0" d="M256,109.6c-12.9,0-23.5-10.5-23.5-23.5s10.5-23.5,23.5-23.5c12.9,0,23.5,10.5,23.5,23.5
				S268.9,109.6,256,109.6z M256,77.2c-4.9,0-8.9,4-8.9,8.9c0,4.9,4,8.9,8.9,8.9c4.9,0,8.9-4,8.9-8.9
				C264.9,81.2,260.9,77.2,256,77.2z"/>
		</g>
		<g>
			<path class="st0" d="M256,406.6c-12.9,0-23.5-10.5-23.5-23.5c0-12.9,10.5-23.5,23.5-23.5c12.9,0,23.5,10.5,23.5,23.5
				C279.5,396.1,268.9,406.6,256,406.6z M256,374.2c-4.9,0-8.9,4-8.9,8.9c0,4.9,4,8.9,8.9,8.9c4.9,0,8.9-4,8.9-8.9
				C264.9,378.2,260.9,374.2,256,374.2z"/>
		</g>
	</g>
	<g>
		<path class="st0" d="M66.1,437.5c1.3,2.3,3.7,3.7,6.3,3.7c0.5,0,1-0.1,1.6-0.2l86.1-18.9c13-2.8,23.2-13.1,26.1-26.1l9.3-42.2
			c3.5-16.1,4.6-32.6,3.1-49l-3.1-35.2c-0.3-3.4-3-6.2-6.4-6.6c-3.4-0.4-6.7,1.7-7.7,4.9l-19.3,58c-1.2,3.5-3.1,6.7-5.6,9.3
			L67.1,429C64.9,431.3,64.5,434.7,66.1,437.5z M166.9,345.5c4-4.2,7.1-9.3,8.9-14.8l8.3-24.8l0,0.4c1.3,14.9,0.4,30-2.9,44.6
			l-9.3,42.2c-1.6,7.5-7.5,13.4-15,15l-62.9,13.8L166.9,345.5z"/>
		<path class="st0" d="M340.1,393l-2-9.3c-0.9-3.9-4.7-6.4-8.7-5.5c-3.9,0.9-6.4,4.7-5.5,8.7l2,9.3c2.9,13,13.1,23.2,26.1,26.1
			l86.1,18.9c0.5,0.1,1,0.2,1.6,0.2c2.6,0,5-1.4,6.3-3.7c1.6-2.8,1.1-6.3-1.1-8.6l-89.2-93.5c-2.5-2.6-4.5-5.9-5.6-9.3l-19.3-58
			c-1.1-3.3-4.3-5.3-7.7-4.9c-3.4,0.4-6.1,3.1-6.4,6.6l-3.1,35.2c-1.5,16.4-0.4,32.9,3.1,49l0.9,4c0.9,3.9,4.7,6.4,8.7,5.5
			c3.9-0.9,6.4-4.7,5.5-8.7l-0.9-4c-3.2-14.7-4.2-29.7-2.9-44.6l0-0.4l8.3,24.8c1.8,5.5,4.9,10.6,8.9,14.8l72.8,76.3L355.1,408
			C347.6,406.4,341.7,400.5,340.1,393z"/>
		<path class="st0" d="M493.2,449.6c-2.3-6.6-7.3-11.7-13.7-14.1l-85.1-130.9c-0.1-0.1-0.1-0.2-0.2-0.3c-2.3-3.3-3.9-7.1-4.5-11
			c0-0.2-0.1-0.4-0.1-0.6l-17-73.2c-0.8-5.6-2.4-10.9-4.6-16l16.4-13.6c3.9,2.6,8.5,4,13.5,4c13.6,0,24.6-11.1,24.6-24.6
			s-11.1-24.6-24.6-24.6s-24.6,11.1-24.6,24.6c0,3.3,0.7,6.5,1.9,9.4l-14.7,12.1c-6.5-8.6-15.3-15.5-25.5-19.8l-24.6-10.3
			c-8.3-3.5-14.2-10.9-15.6-19.9l-1.5-9.4c14.1-16.2,22.7-38.2,22.7-58.2c0-17.6-3.2-31.3-9.9-41.8C296.3,15.9,279.4,8,256,8
			c-60,0-60,49.1-60,65.3c0,20,8.6,42,22.7,58.2l-1.5,9.4c-1.4,8.9-7.3,16.4-15.6,19.9L177,171c-20,8.4-34.4,26.9-37.6,48.4
			l-1.2,5.1c-0.9,3.9,1.5,7.8,5.4,8.7c3.9,0.9,7.8-1.5,8.7-5.4l1.3-5.4c0-0.2,0.1-0.4,0.1-0.6c2.4-16.6,13.4-30.9,28.9-37.4
			l24.6-10.3c13-5.5,22.1-17,24.4-30.9l2.1-12.8c0.4-2.2-0.3-4.5-1.9-6.2c-13.1-13.9-21.2-33.4-21.2-50.9c0-26.3,5.5-50.7,45.4-50.7
			c31.4,0,45.4,15.6,45.4,50.7c0,17.6-8.1,37.1-21.2,50.9c-1.6,1.6-2.2,3.9-1.9,6.2l2.1,12.8c2.3,13.9,11.4,25.5,24.4,30.9
			l24.6,10.3c8,3.4,14.8,8.8,19.9,15.6l-79.1,65.4c-3.9-3-8.8-4.8-14.2-4.8c-12.9,0-23.5,10.5-23.5,23.5c0,12.9,10.5,23.5,23.5,23.5
			c12.9,0,23.5-10.5,23.5-23.5c0-2.3-0.3-4.6-1-6.7l77.7-64.2c1,2.8,1.7,5.7,2.1,8.6c0,0.2,0.1,0.4,0.1,0.6l17,73.2
			c0.9,6.1,3.3,12,6.9,17l85.2,131.1c0.8,2.4,2.7,4.3,5.4,4.9c0,0,0,0,0,0l0,0c3.1,0.7,5.5,2.8,6.6,5.8c1.1,3,0.5,6.2-1.5,8.7
			c-15,18.6-38.1,28.3-61.8,26.1L257,466.6c-0.7-0.1-1.4-0.1-2,0L95.8,489.2c-23.8,2.2-46.8-7.5-61.8-26.1c-2-2.5-2.5-5.6-1.5-8.7
			c1.1-3,3.5-5.1,6.6-5.8c1.9-0.4,3.5-1.5,4.5-3.1l86.1-132.9c3.6-5,6-10.9,6.9-17l9.1-39.3c0.9-3.9-1.5-7.8-5.4-8.7
			c-3.9-0.9-7.8,1.5-8.7,5.4l-9.2,39.5c0,0.2-0.1,0.4-0.1,0.6c-0.6,4-2.1,7.8-4.5,11c-0.1,0.1-0.1,0.2-0.2,0.3L32.9,435.3
			c-6.6,2.4-11.7,7.6-14.1,14.3c-2.7,7.8-1.3,16.2,3.9,22.6C39,492.5,63.4,504,89.1,504c2.7,0,5.5-0.1,8.2-0.4c0.1,0,0.2,0,0.3,0
			L256,481.2l158.4,22.4c0.1,0,0.2,0,0.3,0c28.7,2.7,56.6-9,74.7-31.5C494.5,465.8,496,457.3,493.2,449.6z M397.9,159.1
			c5.6,0,10.1,4.5,10.1,10.1s-4.5,10.1-10.1,10.1s-10.1-4.5-10.1-10.1S392.4,159.1,397.9,159.1z M256,293.1c-4.9,0-8.9-4-8.9-8.9
			c0-4.9,4-8.9,8.9-8.9c4.9,0,8.9,4,8.9,8.9C264.9,289.1,260.9,293.1,256,293.1z"/>
	</g>
</g>
</svg>
