<?xml version="1.0" encoding="utf-8"?>
<!-- Generator: Adobe Illustrator 24.2.3, SVG Export Plug-In . SVG Version: 6.00 Build 0)  -->
<svg version="1.1" id="Capa_1" xmlns="http://www.w3.org/2000/svg" xmlns:xlink="http://www.w3.org/1999/xlink" x="0px" y="0px"
	 viewBox="0 0 512 512" style="enable-background:new 0 0 512 512;" xml:space="preserve">
<style type="text/css">
	.st0{fill:#FFFFFF;}
</style>
<g>
	<path class="st0" d="M401.9,66.3h-43.8V22.5c0-4.5-2.1-8.7-5.6-11.5s-8.1-3.7-12.5-2.6L106.5,66.8l0,0c-6.3,1.6-11,7.3-11,14.1
		v408.6c0,8,6.5,14.5,14.5,14.5h291.9c8,0,14.5-6.5,14.5-14.5V80.9C416.5,72.8,410,66.3,401.9,66.3L401.9,66.3z M329,66.3H228.1
		L329,41.1L329,66.3L329,66.3z M387.4,475H124.6V95.4h262.8V475z"/>
	<path class="st0" d="M204.2,249.8l-0.6,35.1c-0.1,4.7,2.2,9.2,6,12c3.8,2.8,8.8,3.5,13.3,2l33.2-11.4l33.2,11.4
		c1.5,0.5,3.1,0.8,4.7,0.8c3,0,6-0.9,8.5-2.8c3.8-2.8,6.1-7.3,6-12l-0.6-35.1l21.1-28c2.9-3.8,3.7-8.7,2.2-13.2
		c-1.5-4.5-5-8-9.6-9.4L288,188.9l-20.1-28.8c-2.7-3.9-7.2-6.2-11.9-6.2s-9.2,2.3-11.9,6.2L224,188.9l-33.6,10.3
		c-4.5,1.4-8.1,4.9-9.6,9.4c-1.5,4.5-0.6,9.5,2.2,13.2L204.2,249.8z M237.2,215.2c3.1-0.9,5.8-2.9,7.7-5.6l11.1-15.9l11.1,15.9
		c1.9,2.7,4.6,4.6,7.7,5.6l18.5,5.6l-11.7,15.4c-2,2.6-3,5.8-2.9,9l0.3,19.3l-18.3-6.3c-1.5-0.5-3.1-0.8-4.7-0.8
		c-1.6,0-3.2,0.3-4.7,0.8l-18.3,6.3l0.3-19.3c0.1-3.2-1-6.4-2.9-9l-11.7-15.4L237.2,215.2z"/>
	<path class="st0" d="M314.4,329H197.6c-8,0-14.5,6.5-14.5,14.5c0,8,6.5,14.5,14.5,14.5h116.7c8,0,14.5-6.5,14.5-14.5
		C328.9,335.5,322.4,329,314.4,329z"/>
	<path class="st0" d="M314.4,387.4H197.6c-8,0-14.5,6.5-14.5,14.5c0,8,6.5,14.5,14.5,14.5h116.7c8,0,14.5-6.5,14.5-14.5
		C328.9,393.9,322.4,387.4,314.4,387.4z"/>
</g>
</svg>
