<?xml version="1.0" encoding="utf-8"?>
<!-- Generator: Adobe Illustrator 24.1.3, SVG Export Plug-In . SVG Version: 6.00 Build 0)  -->
<svg version="1.1" id="Capa_1" xmlns="http://www.w3.org/2000/svg" xmlns:xlink="http://www.w3.org/1999/xlink" x="0px" y="0px"
	 viewBox="0 0 512 512" style="enable-background:new 0 0 512 512;" xml:space="preserve">
<style type="text/css">
	.st0{fill:#FF637B;}
	.st1{fill:#E63950;}
	.st2{fill-rule:evenodd;clip-rule:evenodd;fill:#FF435B;}
	.st3{fill-rule:evenodd;clip-rule:evenodd;fill:#CC2E43;}
	.st4{fill:#FF8856;}
	.st5{fill:#FF435B;}
	.st6{fill-rule:evenodd;clip-rule:evenodd;fill:#FFDE46;}
	.st7{fill-rule:evenodd;clip-rule:evenodd;fill:#FFCD00;}
</style>
<g>
	<g>
		<path class="st0" d="M256,46C140.2,46,46,140.2,46,256s94.2,210,210,210s210-94.2,210-210S371.8,46,256,46z M256,436
			c-99.3,0-180-80.7-180-180S156.7,76,256,76s180,80.7,180,180S355.3,436,256,436z"/>
		<path class="st0" d="M256,106c-82.8,0-150,67.2-150,150s67.2,150,150,150s150-67.2,150-150S338.8,106,256,106z M256,376
			c-66.3,0-120-53.7-120-120s53.7-120,120-120s120,53.7,120,120S322.3,376,256,376z"/>
		<path class="st0" d="M271,15v106c0,0.6-0.3,0.9-0.3,1.5c-4.8-0.6-9.6-1.5-14.7-1.5s-9.9,0.9-14.7,1.5c0-0.6-0.3-0.9-0.3-1.5V15
			c0-8.4,6.6-15,15-15S271,6.6,271,15z"/>
		<path class="st0" d="M271,391v106c0,8.4-6.6,15-15,15s-15-6.6-15-15V391c0-0.6,0.3-0.9,0.3-1.5c4.8,0.6,9.6,1.5,14.7,1.5
			c5.1,0,9.9-0.9,14.7-1.5C270.7,390.1,271,390.4,271,391z"/>
		<path class="st0" d="M122.5,241.3c-0.5-0.1-1-0.3-1.5-0.3H15c-8.3,0-15,6.7-15,15c0,8.3,6.7,15,15,15h106c0.5,0,1-0.2,1.5-0.3
			c-0.5-4.9-1.5-9.7-1.5-14.7S121.9,246.2,122.5,241.3z"/>
	</g>
	<path class="st1" d="M497,241H391c-0.5,0-1,0.2-1.5,0.3c0.5,4.9,1.5,9.7,1.5,14.7s-0.9,9.8-1.5,14.7c0.5,0.1,1,0.3,1.5,0.3h106
		c8.3,0,15-6.7,15-15S505.3,241,497,241z"/>
	<path class="st1" d="M270.7,122.5c-4.8-0.6-9.6-1.5-14.7-1.5V0c8.4,0,15,6.6,15,15v106C271,121.6,270.7,121.9,270.7,122.5z"/>
	<path class="st1" d="M270.7,389.5c0,0.6,0.3,0.9,0.3,1.5v106c0,8.4-6.6,15-15,15V391C261.1,391,265.9,390.1,270.7,389.5z"/>
	<path class="st1" d="M406,256c0,82.8-67.2,150-150,150v-30c66.3,0,120-53.7,120-120s-53.7-120-120-120v-30
		C338.8,106,406,173.2,406,256z"/>
	<path class="st1" d="M466,256c0,115.8-94.2,210-210,210v-30c99.3,0,180-80.7,180-180S355.3,76,256,76V46
		C371.8,46,466,140.2,466,256z"/>
	<g>
		<path class="st2" d="M348.5,235.2c-5.7,0-10.4,4.6-10.5,10.3h-56.6l40-40c2,2,4.7,3,7.3,3c2.7,0,5.4-1,7.4-3.1
			c4.1-4.1,4.1-10.8,0-14.9l-14.6-14.6c-4.1-4.1-10.8-4.1-14.9,0c-4.1,4.1-4.1,10.6-0.1,14.7l-40,40V174c5.7-0.1,10.3-4.8,10.3-10.5
			c0-5.8-4.7-10.5-10.5-10.5h-20.6c-5.8,0-10.5,4.7-10.5,10.5c0,5.7,4.6,10.4,10.3,10.5v56.6l-40-40c4-4.1,3.9-10.7-0.1-14.7
			c-4.1-4.1-10.8-4.1-14.9,0l-14.6,14.6c-4.1,4.1-4.1,10.8,0,14.9c2.1,2.1,4.7,3.1,7.4,3.1c2.6,0,5.3-1,7.3-3l40,40H174
			c-0.1-5.7-4.8-10.3-10.5-10.3c-5.8,0-10.5,4.7-10.5,10.5v20.6c0,5.8,4.7,10.5,10.5,10.5c5.7,0,10.4-4.6,10.5-10.3h56.6l-40,40
			c-4.1-4-10.7-3.9-14.7,0.1c-4.1,4.1-4.1,10.8,0,14.9l7.3,7.3c0,0,0,0,0,0c0,0,0,0,0,0l7.3,7.3c2.1,2.1,4.7,3.1,7.4,3.1
			s5.4-1,7.4-3.1c4.1-4.1,4.1-10.6,0.1-14.7l40-40V338c-5.7,0.1-10.3,4.8-10.3,10.5c0,5.8,4.7,10.5,10.5,10.5h20.6
			c5.8,0,10.5-4.7,10.5-10.5c0-5.7-4.6-10.4-10.3-10.5v-56.6l40,40c-4,4.1-3.9,10.7,0.1,14.7c2.1,2.1,4.7,3.1,7.4,3.1
			c2.7,0,5.4-1,7.4-3.1l7.3-7.3c0,0,0,0,0,0c0,0,0,0,0,0l7.3-7.3c4.1-4.1,4.1-10.8,0-14.9c-4.1-4.1-10.6-4.1-14.7-0.1l-40-40H338
			c0.1,5.7,4.8,10.3,10.5,10.3c5.8,0,10.5-4.7,10.5-10.5v-20.6C359,239.9,354.3,235.2,348.5,235.2L348.5,235.2z"/>
		<path class="st3" d="M348.5,235.2c-5.7,0-10.4,4.6-10.5,10.3h-56.6l40-40c2,2,4.7,3,7.3,3c2.7,0,5.4-1,7.4-3.1
			c4.1-4.1,4.1-10.8,0-14.9l-14.6-14.6c-4.1-4.1-10.8-4.1-14.9,0c-4.1,4.1-4.1,10.6-0.1,14.7l-40,40V174c5.7-0.1,10.3-4.8,10.3-10.5
			c0-5.8-4.7-10.5-10.5-10.5H256v206h10.3c5.8,0,10.5-4.7,10.5-10.5c0-5.7-4.6-10.4-10.3-10.5v-56.6l40,40c-4,4.1-3.9,10.7,0.1,14.7
			c2.1,2.1,4.7,3.1,7.4,3.1c2.7,0,5.4-1,7.4-3.1l7.3-7.3c0,0,0,0,0,0s0,0,0,0l7.3-7.3c4.1-4.1,4.1-10.8,0-14.9
			c-4.1-4.1-10.6-4.1-14.7-0.1l-40-40H338c0.1,5.7,4.8,10.3,10.5,10.3c5.8,0,10.5-4.7,10.5-10.5v-20.6
			C359,239.9,354.3,235.2,348.5,235.2L348.5,235.2z"/>
		<g>
			<g>
				<path class="st4" d="M256,328.2c-39.8,0-72.2-32.4-72.2-72.2c0-39.8,32.4-72.2,72.2-72.2s72.2,32.4,72.2,72.2
					C328.2,295.8,295.8,328.2,256,328.2z"/>
			</g>
		</g>
		<path class="st5" d="M256,183.8v144.3c39.8,0,72.2-32.4,72.2-72.2C328.2,216.2,295.8,183.8,256,183.8z"/>
		<g>
			<path class="st6" d="M256,224.4c5.8,0,10.5-4.7,10.5-10.5s-4.7-10.5-10.5-10.5c-5.8,0-10.5,4.7-10.5,10.5S250.2,224.4,256,224.4z
				"/>
		</g>
		<g>
			<path class="st6" d="M256,308.8c5.8,0,10.5-4.7,10.5-10.5c0-5.8-4.7-10.5-10.5-10.5c-5.8,0-10.5,4.7-10.5,10.5
				C245.5,304.1,250.2,308.8,256,308.8z"/>
		</g>
		<g>
			<circle class="st7" cx="298.2" cy="256.1" r="10.5"/>
		</g>
		<g>
			<circle class="st6" cx="213.8" cy="256.1" r="10.5"/>
		</g>
		<g>
			<path class="st7" d="M293.3,293.4c-4.1,4.1-10.8,4.1-14.9,0s-4.1-10.8,0-14.9c4.1-4.1,10.8-4.1,14.9,0
				C297.4,282.6,297.4,289.3,293.3,293.4z"/>
		</g>
		<g>
			<path class="st6" d="M233.6,233.7c-4.1,4.1-10.8,4.1-14.9,0c-4.1-4.1-4.1-10.8,0-14.9c4.1-4.1,10.8-4.1,14.9,0
				S237.7,229.6,233.6,233.7z"/>
		</g>
		<g>
			<path class="st7" d="M293.3,218.8c4.1,4.1,4.1,10.8,0,14.9c-4.1,4.1-10.8,4.1-14.9,0c-4.1-4.1-4.1-10.8,0-14.9
				C282.5,214.7,289.2,214.7,293.3,218.8z"/>
		</g>
		<g>
			<path class="st6" d="M233.6,278.5c4.1,4.1,4.1,10.8,0,14.9s-10.8,4.1-14.9,0c-4.1-4.1-4.1-10.8,0-14.9
				C222.8,274.4,229.5,274.4,233.6,278.5z"/>
		</g>
		<g>
			<path class="st6" d="M256,266.5c5.8,0,10.5-4.7,10.5-10.5c0-5.8-4.7-10.5-10.5-10.5c-5.8,0-10.5,4.7-10.5,10.5
				C245.5,261.8,250.2,266.5,256,266.5z"/>
			<path class="st7" d="M256,203.4v21c5.8,0,10.5-4.7,10.5-10.5S261.8,203.4,256,203.4z"/>
			<path class="st7" d="M256,245.5v21c5.8,0,10.5-4.7,10.5-10.5C266.5,250.2,261.8,245.5,256,245.5z"/>
			<path class="st7" d="M256,287.8v21c5.8,0,10.5-4.7,10.5-10.5C266.5,292.5,261.8,287.8,256,287.8z"/>
		</g>
	</g>
</g>
</svg>
