<?xml version="1.0" encoding="utf-8"?>
<!-- Generator: Adobe Illustrator 24.2.3, SVG Export Plug-In . SVG Version: 6.00 Build 0)  -->
<svg version="1.1" id="Capa_1" xmlns="http://www.w3.org/2000/svg" xmlns:xlink="http://www.w3.org/1999/xlink" x="0px" y="0px"
	 viewBox="0 0 512 512" style="enable-background:new 0 0 512 512;" xml:space="preserve">
<style type="text/css">
	.st0{fill:#FFFFFF;}
</style>
<g>
	<path class="st0" d="M228,167.7c-13.2-11.7-27.8-11.7-41.1,0c-3,2.7-3.3,7.2-0.6,10.2c1.4,1.6,3.4,2.5,5.4,2.5
		c1.7,0,3.4-0.6,4.8-1.8c7.8-6.8,14.1-6.8,21.8,0c3,2.7,7.6,2.4,10.2-0.6C231.3,174.9,231,170.3,228,167.7z"/>
	<path class="st0" d="M172.4,464.7c-4,0-7.3,3.3-7.3,7.3v24.8c0,4,3.3,7.3,7.3,7.3c4,0,7.3-3.3,7.3-7.3v-24.8
		C179.7,467.9,176.5,464.7,172.4,464.7z"/>
	<path class="st0" d="M337.6,464.7c-4,0-7.3,3.3-7.3,7.3v24.8c0,4,3.3,7.3,7.3,7.3c4,0,7.3-3.3,7.3-7.3v-24.8
		C344.9,467.9,341.6,464.7,337.6,464.7z"/>
	<path class="st0" d="M207.5,187.2c-4,0-7.3,3.3-7.3,7.3v8.5c0,4,3.3,7.3,7.3,7.3c4,0,7.3-3.3,7.3-7.3v-8.5
		C214.8,190.4,211.5,187.2,207.5,187.2z"/>
	<path class="st0" d="M292.7,178.6c7.8-6.8,14.1-6.8,21.8,0c1.4,1.2,3.1,1.8,4.8,1.8c2,0,4-0.8,5.4-2.5c2.7-3,2.4-7.6-0.6-10.2
		c-13.2-11.7-27.8-11.7-41.1,0c-3,2.7-3.3,7.2-0.6,10.2C285.1,180.9,289.7,181.2,292.7,178.6L292.7,178.6z"/>
	<path class="st0" d="M303.5,187.2c-4,0-7.3,3.3-7.3,7.3v8.5c0,4,3.3,7.3,7.3,7.3s7.3-3.3,7.3-7.3v-8.5
		C310.8,190.4,307.5,187.2,303.5,187.2z"/>
	<path class="st0" d="M393.2,281.1c4,0,7.3-3.3,7.3-7.3v-31c5.9-6.1,9.5-14.4,9.5-23.5c0-8.1-2.8-15.5-7.5-21.3v-43.6
		C402.4,73.7,336.7,8,256,8S109.6,73.7,109.6,154.4V198c-4.7,5.8-7.5,13.3-7.5,21.3c0,8.2,2.9,15.7,7.8,21.6
		c-0.1,0.6-0.2,1.2-0.2,1.8v104.6c0,20.8,7.1,40.5,20.2,56.3c-9.1,8-14.5,19.6-14.5,31.9v61.2c0,4,3.3,7.3,7.3,7.3s7.3-3.3,7.3-7.3
		v-61.2c0-10,5.4-19.2,14-24.2c0.3-0.2,43.2-23.8,43.2-23.8c2.2,13.6,8.5,26.2,18.2,36.4c1.4,1.5,3.3,2.2,5.3,2.2c1.8,0,3.6-0.7,5-2
		c2.9-2.8,3-7.4,0.2-10.3c-8.9-9.3-14.1-21.2-15-33.9l14.4-7.9v4.3c0,22,17.9,39.9,39.9,39.9s39.9-17.9,39.9-39.9V372l14.4,7.9
		c-1.9,28.3-25.5,50.8-54.3,50.8c-5.2,0-10.5-0.8-15.5-2.3c-3.8-1.1-7.9,1-9,4.9c-1.1,3.8,1,7.9,4.9,9c6.4,1.9,13,2.9,19.7,2.9
		c34.2,0,62.7-25,68-57.8c0,0,42.9,23.7,43.2,23.8c8.7,5,14,14.2,14,24.2v61.2c0,4,3.3,7.3,7.3,7.3c4,0,7.3-3.3,7.3-7.3v-61.2
		c0-12.4-5.4-24-14.5-31.9c13.1-15.8,20.2-35.5,20.2-56.3v-42.5c0-4-3.3-7.3-7.3-7.3c-4,0-7.3,3.3-7.3,7.3v42.5c0,18-6.4,35-18,48.4
		l-73-40.3V350c38-14,66.5-47.7,73-88.6c0-0.1,0-0.2,0.1-0.3c0.4-2.5,0.7-5.1,0.9-7.7h6.9c3.5,0,6.9-0.5,10.1-1.5v22
		C386,277.9,389.2,281.1,393.2,281.1L393.2,281.1z M256,22.5c72.7,0,131.9,59.2,131.9,131.9v33.1c-3.7-1.4-7.8-2.2-12-2.2h-6.5v-4.1
		c0-30.5-10.6-60.4-29.7-84.2c-2.4-3-6.7-3.6-9.9-1.3c-37.7,27-82.2,41.2-128.6,41.2H158c-8.8,0-15.9,7.1-15.9,15.9v32.5h-6.1
		c-4.2,0-8.3,0.8-12,2.2v-33.1C124.1,81.7,183.3,22.5,256,22.5z M116.6,219.3c0-10.8,8.8-19.5,19.5-19.5h6.1v39.1h-6.1
		C125.3,238.9,116.6,230.1,116.6,219.3z M156.7,243.3v-26l28.2,25c-3,9.8-4,20-2.9,30.6l-24.5-17.3
		C156.9,251.6,156.7,247.5,156.7,243.3L156.7,243.3z M194.2,230c-0.3,0.1-0.6,0.3-1,0.4l-36.6-32.4v-5.4v-39.8
		c0-0.7,0.6-1.4,1.4-1.4h43.2c47.1,0,92.3-13.8,131.2-39.9c14.5,20.2,22.4,44.8,22.4,69.7v17l-37.1,32.2c-0.3-0.1-0.6-0.3-1-0.4
		C276.5,215.6,235.3,215.6,194.2,230L194.2,230z M326.2,242.3l28.7-24.9v25.9c0,4.2-0.3,8.4-0.8,12.5L329.4,273
		C330.5,262.4,329.4,252.2,326.2,242.3L326.2,242.3z M142.1,395.7c-11.6-13.5-18-30.4-18-48.4v-96.1c3.7,1.4,7.8,2.2,12,2.2h6.5
		c3.9,43.9,32.9,80.8,72.5,96v6L142.1,395.7z M255,401.7c-14,0-25.4-11.4-25.4-25.4v-22.4c8.4,2,17.2,3,26.2,3
		c8.5,0,16.7-0.9,24.6-2.7v22.1C280.4,390.3,269,401.7,255,401.7L255,401.7z M255.8,342.4c-42.8,0-79.4-27.3-93.2-65.4l24,17
		c0.1,0.2,0.1,0.4,0.2,0.7c0.9,2.7,2.8,5.1,5.3,6.7c4.4,2.8,8.9,5.3,13.4,7.6c3.6,1.8,7.9,0.4,9.8-3.2c1.8-3.6,0.4-7.9-3.2-9.8
		c-3.9-2-7.8-4.2-11.7-6.6c-5.6-16.7-5.8-31.8-0.5-45.9c37.3-12.9,74.8-12.9,111.4,0c5.6,14.5,5.4,29.6-0.5,46
		c-23.6,15.9-46.9,21.2-71.4,16.2c-3.9-0.8-7.8,1.7-8.6,5.7c-0.8,3.9,1.7,7.8,5.7,8.6c6.8,1.4,13.5,2.1,20.2,2.1
		c21.4,0,42.4-7,62.8-20.9c2.2-1.5,3.9-3.7,4.8-6.2c0.1-0.3,0.2-0.7,0.3-1L349,277C335.2,315.1,298.6,342.4,255.8,342.4L255.8,342.4
		z M369.9,238.9v-39.1h6.1c10.8,0,19.5,8.8,19.5,19.5c0,10.8-8.8,19.5-19.5,19.5H369.9z"/>
</g>
</svg>
