<?xml version="1.0" encoding="utf-8"?>
<!-- Generator: Adobe Illustrator 24.2.3, SVG Export Plug-In . SVG Version: 6.00 Build 0)  -->
<svg version="1.1" id="Capa_1" xmlns="http://www.w3.org/2000/svg" xmlns:xlink="http://www.w3.org/1999/xlink" x="0px" y="0px"
	 viewBox="0 0 512 512" style="enable-background:new 0 0 512 512;" xml:space="preserve">
<style type="text/css">
	.st0{fill:#FFFFFF;}
</style>
<g>
	<path class="st0" d="M134.1,167.1c5.4-1.9,11.1-3.7,17-5.5c9-2.7,4.9-16.6-4.1-13.9c-6.1,1.8-12.1,3.7-17.7,5.7
		c-8.9,3.1-15,11.5-15,20.9v163.5c0,9.3,6,17.7,15,20.9c40.8,14.2,83.4,21.5,126.7,21.5s85.9-7.2,126.7-21.5
		c8.9-3.1,15-11.5,15-20.9V174.3c0-9.3-6-17.7-15-20.9c-40.8-14.2-83.4-21.5-126.7-21.5c-23.8,0-47.7,2.2-71,6.6
		c-9.2,1.7-6.5,16,2.7,14.3c22.4-4.2,45.4-6.4,68.3-6.4c41.6,0,82.6,7,121.9,20.7c3.1,1.1,5.2,4,5.2,7.1v30.6l-87.3-23.1
		c-25.8-6.5-53.1-6.5-79,0l-88,23v-30.6C128.9,171.1,131,168.2,134.1,167.1z M383.1,292.8l-90.8,24c-23.5,5.9-48.3,5.9-71.7,0
		l-91.6-24v-29.5h254.2V292.8z M377.9,344.9c-39.2,13.7-80.2,20.7-121.9,20.7s-82.6-7-121.9-20.7c-3.1-1.1-5.2-4-5.2-7.1v-29.9
		l88,23c25.8,6.5,53.2,6.5,79,0l87.2-23v29.9C383.1,340.9,381,343.8,377.9,344.9z M220.5,195.9c23.5-5.9,48.3-5.9,71.7,0l90.9,24
		v28.8H128.9v-28.9L220.5,195.9z"/>
	<path class="st0" d="M424.9,167.7c-2.5-18.3-15.1-34-33-40.3c-43.8-15.3-89.5-23-135.9-23s-92.1,7.8-135.9,23
		c-17.9,6.3-30.6,22-33,40.3C43,170.5,8,207,8,251.3v9.3c0,44.4,35,80.8,79.1,83.6c2.5,18.3,15.1,34,33,40.3
		c43.8,15.3,89.5,23,135.9,23c31.8,0,63.6-3.7,94.5-11c9.1-2.2,5.8-16.3-3.3-14.1c-29.8,7-60.4,10.6-91.2,10.6
		c-44.8,0-88.9-7.5-131.1-22.2c-14.2-5-23.8-18.3-23.8-33.1V174.3c0-14.8,9.5-28.1,23.8-33.1c42.2-14.7,86.3-22.2,131.1-22.2
		s88.9,7.5,131.1,22.2c14.2,5,23.8,18.3,23.8,33.1v163.5c0,16.5-11.4,29-26.4,34c-9.8,3.4-6.2,17.3,4.6,13.8
		c18.7-6.2,33.2-21.3,35.9-41.2C469,341.4,504,305,504,260.6v-9.3C504,207,469,170.5,424.9,167.7L424.9,167.7z M22.5,260.6v-9.3
		c0-36.2,28.3-66,64.1-69v147.3C50.8,326.7,22.5,296.9,22.5,260.6z M489.5,260.6c0,36.2-28.3,66-64.1,69V182.3
		c35.9,3,64.1,32.8,64.1,69V260.6z"/>
</g>
</svg>
