<?xml version="1.0" encoding="utf-8"?>
<!-- Generator: Adobe Illustrator 24.1.3, SVG Export Plug-In . SVG Version: 6.00 Build 0)  -->
<svg version="1.1" id="Capa_1" xmlns="http://www.w3.org/2000/svg" xmlns:xlink="http://www.w3.org/1999/xlink" x="0px" y="0px"
	 viewBox="0 0 512 512" style="enable-background:new 0 0 512 512;" xml:space="preserve">
<style type="text/css">
	.st0{fill:#FDBF00;}
	.st1{fill:#00429D;}
	.st2{fill:#00347B;}
	.st3{fill-rule:evenodd;clip-rule:evenodd;fill:#FFF4F4;}
	.st4{fill-rule:evenodd;clip-rule:evenodd;fill:#F6EFEA;}
	.st5{fill:#FF8856;}
	.st6{fill-rule:evenodd;clip-rule:evenodd;fill:#BEE75E;}
	.st7{fill:#7DD5F4;}
	.st8{fill:#4793FF;}
	.st9{fill:#FF435B;}
</style>
<g>
	<path class="st0" d="M400,152h111v-18.3l-41.9-90c-5.4-11.6-21.8-11.6-27.2,0l-41.9,90V152z"/>
	<g>
		<path class="st1" d="M486,512h-61c-8.3,0-15-6.7-15-15v-61c0-8.3,6.7-15,15-15h61c8.3,0,15,6.7,15,15v61
			C501,505.3,494.3,512,486,512z"/>
	</g>
	<path class="st2" d="M486,421h-30.5v91H486c8.3,0,15-6.7,15-15v-61C501,427.7,494.3,421,486,421z"/>
	<g>
		<path class="st3" d="M16,45h334v452H16V45z"/>
	</g>
	<path class="st4" d="M183,45h167v452H183V45z"/>
	<g>
		<path class="st0" d="M350,512H16c-8.3,0-15-6.7-15-15V45c0-8.3,6.7-15,15-15h334c8.3,0,15,6.7,15,15v452
			C365,505.3,358.3,512,350,512z M31,482h304V60H31V482z"/>
	</g>
	<path class="st5" d="M350,30H183v30h152v422H183v30h167c8.3,0,15-6.7,15-15V45C365,36.7,358.3,30,350,30z"/>
	<g>
		<path class="st6" d="M76,310c8.3,0,15-6.7,15-15c0-8.3-6.7-15-15-15c-8.3,0-15,6.7-15,15S67.7,310,76,310z"/>
	</g>
	<g>
		<path class="st7" d="M290,310H136c-8.3,0-15-6.7-15-15s6.7-15,15-15h154c8.3,0,15,6.7,15,15S298.3,310,290,310z"/>
	</g>
	<g>
		<path class="st6" d="M76,370c8.3,0,15-6.7,15-15c0-8.3-6.7-15-15-15c-8.3,0-15,6.7-15,15S67.7,370,76,370z"/>
	</g>
	<g>
		<path class="st7" d="M290,370H136c-8.3,0-15-6.7-15-15s6.7-15,15-15h154c8.3,0,15,6.7,15,15S298.3,370,290,370z"/>
	</g>
	<g>
		<path class="st6" d="M76,430c8.3,0,15-6.7,15-15s-6.7-15-15-15c-8.3,0-15,6.7-15,15S67.7,430,76,430z"/>
	</g>
	<g>
		<path class="st7" d="M290.3,430H136c-8.3,0-15-6.7-15-15s6.7-15,15-15h154.3c8.3,0,15,6.7,15,15S298.6,430,290.3,430z"/>
	</g>
	<g>
		<path class="st7" d="M258,90H108c-8.3,0-15-6.7-15-15V15c0-8.3,6.7-15,15-15h150c8.3,0,15,6.7,15,15v60C273,83.3,266.3,90,258,90z
			"/>
	</g>
	<path class="st5" d="M220,157h-22v-22c0-8.3-6.7-15-15-15s-15,6.7-15,15v22h-22c-8.3,0-15,6.7-15,15s6.7,15,15,15h22v22
		c0,8.3,6.7,15,15,15s15-6.7,15-15v-22h22c8.3,0,15-6.7,15-15S228.3,157,220,157z"/>
	<path class="st7" d="M400,133h111v233.3H400V133z"/>
	<path class="st0" d="M415,451h81c8.3,0,15-6.7,15-15v-75H400v75C400,444.3,406.7,451,415,451z"/>
	<g>
		<path class="st8" d="M258,0h-75v90h75c8.3,0,15-6.7,15-15V15C273,6.7,266.3,0,258,0z"/>
		<path class="st8" d="M290,280H183v30h107c8.3,0,15-6.7,15-15S298.3,280,290,280z"/>
		<path class="st8" d="M290,340H183v30h107c8.3,0,15-6.7,15-15S298.3,340,290,340z"/>
		<path class="st8" d="M290.3,400H183v30h107.3c8.3,0,15-6.7,15-15S298.6,400,290.3,400z"/>
	</g>
	<path class="st9" d="M220,157h-22v-22c0-8.3-6.7-15-15-15v104c8.3,0,15-6.7,15-15v-22h22c8.3,0,15-6.7,15-15S228.3,157,220,157z"/>
	<path class="st5" d="M469.1,43.7c-2.7-5.8-8.1-8.7-13.6-8.7v117H511v-18.3L469.1,43.7z"/>
	<path class="st8" d="M455.5,133H511v233.3h-55.5V133z"/>
	<path class="st5" d="M455.5,361v90H496c8.3,0,15-6.7,15-15v-75H455.5z"/>
</g>
</svg>
