<?xml version="1.0" encoding="utf-8"?>
<!-- Generator: Adobe Illustrator 24.2.3, SVG Export Plug-In . SVG Version: 6.00 Build 0)  -->
<svg version="1.1" id="Capa_1" xmlns="http://www.w3.org/2000/svg" xmlns:xlink="http://www.w3.org/1999/xlink" x="0px" y="0px"
	 viewBox="0 0 512 512" style="enable-background:new 0 0 512 512;" xml:space="preserve">
<style type="text/css">
	.st0{fill:#386BB2;}
</style>
<g>
	<path class="st0" d="M497.4,341.2c0-70.2-47.3-131.6-114.1-150.1c-4.2-97.8-85-176-183.8-176c-101.5,0-184,82.5-184,184
		c0,33.1,8.8,65.3,25.5,93.5l-24.8,89.8l89.8-24.8c26,15.4,55.3,24,85.5,25.3c18.5,66.7,79.9,114.1,150.1,114.1
		c28,0,55.3-7.5,79.3-21.7l75.8,21l-21-75.8C490,396.5,497.4,369.2,497.4,341.2z M110.5,327l-53.8,14.9l14.9-53.8l-3.4-5.3
		c-16-25-24.4-54-24.4-83.8c0-85.9,69.9-155.8,155.8-155.8s155.8,69.9,155.8,155.8s-69.9,155.8-155.8,155.8
		c-29.8,0-58.8-8.4-83.8-24.4L110.5,327z M456.3,455.8l-39.9-11l-5.3,3.5c-20.7,13.4-44.6,20.5-69.4,20.5
		c-55.2,0-103.7-35.7-120.9-86.9c84.5-9.7,151.8-77,161.6-161.6c51.2,17.2,86.9,65.7,86.9,120.9c0,24.7-7.1,48.7-20.5,69.4l-3.5,5.3
		L456.3,455.8z"/>
	<path class="st0" d="M185.4,270.1h28.2v28.2h-28.2V270.1z"/>
	<path class="st0" d="M227.8,156.2c0,8-3.3,15.4-9.2,20.8l-33.2,30.4v34.5h28.2v-22l24-22c11.7-10.7,18.4-25.9,18.4-41.7
		c0-31.1-25.3-56.5-56.5-56.5s-56.5,25.3-56.5,56.5h28.2c0-15.6,12.7-28.2,28.2-28.2S227.8,140.7,227.8,156.2z"/>
</g>
</svg>
