<?xml version="1.0" encoding="utf-8"?>
<!-- Generator: Adobe Illustrator 24.2.3, SVG Export Plug-In . SVG Version: 6.00 Build 0)  -->
<svg version="1.1" id="Capa_1" xmlns="http://www.w3.org/2000/svg" xmlns:xlink="http://www.w3.org/1999/xlink" x="0px" y="0px"
	 viewBox="0 0 512 512" style="enable-background:new 0 0 512 512;" xml:space="preserve">
<style type="text/css">
	.st0{fill:#FFFFFF;}
</style>
<g>
	<path class="st0" d="M386.9,217.7h-0.6v-16.2v-0.6v-73.4c0-65.7-55.4-119.1-123.6-119.1h-21.8c-68.2,0-123.6,53.4-123.6,119.1v73.4
		v0.6v16.2c-23.2,0.1-42,19-42,42.3c0,23.3,19,42.3,42.3,42.3h0.1c2.7,35.3,23,66.9,54.5,83.8l5.7,3c5,2.7,10.1,5.1,15.2,7.2v98.9
		c0,4.6,3.8,8.4,8.4,8.4h100.8c4.6,0,8.4-3.8,8.4-8.4v-97.9c7-2.7,13.8-5.9,20.5-9.7l2.2-1.2c30.8-17.3,50.6-49.1,52.8-84.1h0.8
		c23.3,0,42.3-19,42.3-42.3S410.2,217.7,386.9,217.7z M134.1,127.5c0-56.4,47.9-102.3,106.8-102.3h21.8
		c58.9,0,106.8,45.9,106.8,102.3V192c-18.6-3.8-68.3-19.6-149.8-86.8c-7.9-6.5-17.4-9.8-26.9-9.8c-7.7,0-15.4,2.2-22.2,6.6
		c-10.7,7-25.3,19-36.5,37.3L134.1,127.5z M92,260c0-14,11.3-25.3,25.2-25.4v50.9C103.3,285.3,92,274,92,260z M293.8,486.8h-84
		v-84.7c14.2,4,28.7,6,43.2,6c13.7,0,27.4-1.8,40.8-5.4V486.8z M325.1,371.7l-2.2,1.2c-42.7,24-94,24.5-137.2,1.4l-5.7-3
		c-28.4-15.2-46-44.6-46-76.8c0-0.2,0-0.3-0.1-0.5c0-0.2,0.1-0.3,0.1-0.5v-91.9c0-46,24.9-71.8,45.7-85.5c8.8-5.7,20.8-4.9,29.2,2.1
		c87.3,72,140.9,87.5,160.5,90.9v84.4c0,0.1,0,0.2,0,0.2c0,0.1,0,0.2,0,0.2c0,0.3,0.1,0.6,0.1,0.9c0,0.3-0.1,0.6-0.1,0.9
		C369.5,327.2,352.5,356.3,325.1,371.7L325.1,371.7z M386.9,285.5h-0.6v-50.9h0.6c14,0,25.5,11.4,25.5,25.5
		C412.4,274.1,401,285.5,386.9,285.5z"/>
	<path class="st0" d="M213.6,168.5c-1.1-0.7-28.5-17.8-59.7,0.8c-4,2.4-5.3,7.5-2.9,11.5c1.6,2.6,4.4,4.1,7.2,4.1
		c1.5,0,2.9-0.4,4.3-1.2c22-13.1,41.1-1.6,42-1.1c3.9,2.5,9.1,1.3,11.6-2.6C218.6,176.2,217.5,171,213.6,168.5L213.6,168.5z"/>
	<path class="st0" d="M206.1,229.8c-3.6-2.9-8.9-2.4-11.8,1.2c-3.2,3.9-8.1,6-13.2,5.6c-4.1-0.4-7.7-2.3-10.3-5.4
		c-3-3.6-8.3-4-11.8-1.1c-3.6,3-4,8.3-1.1,11.8c5.5,6.6,13.2,10.6,21.7,11.4c1,0.1,1.9,0.1,2.9,0.1c9.6,0,18.7-4.3,24.9-11.8
		C210.2,238,209.7,232.7,206.1,229.8z"/>
	<path class="st0" d="M340.6,229.8c-3.6-2.9-8.9-2.4-11.8,1.2c-3.2,3.9-8.1,6-13.2,5.6c-4.1-0.4-7.7-2.3-10.3-5.4
		c-3-3.6-8.3-4-11.8-1.1c-3.6,3-4,8.3-1.1,11.8c5.5,6.6,13.2,10.6,21.7,11.4c1,0.1,1.9,0.1,2.9,0.1c9.6,0,18.7-4.3,24.9-11.8
		C344.8,238,344.2,232.7,340.6,229.8z"/>
	<path class="st0" d="M273.4,305.5c-3.6-2.9-8.9-2.4-11.8,1.2c-3.2,3.9-8.1,6-13.2,5.6c-4.1-0.4-7.7-2.3-10.3-5.4
		c-3-3.6-8.3-4-11.8-1.1c-3.6,3-4,8.3-1.1,11.8c5.5,6.6,13.2,10.6,21.7,11.4c1,0.1,1.9,0.1,2.9,0.1c9.6,0,18.7-4.3,24.9-11.8
		C277.5,313.7,277,308.4,273.4,305.5z"/>
	<circle class="st0" cx="247.6" cy="188.3" r="9.4"/>
	<path class="st0" d="M453.6,58c4.6,0,8.4-3.8,8.4-8.4V24.4c0-4.6-3.8-8.4-8.4-8.4c-4.6,0-8.4,3.8-8.4,8.4v25.2
		C445.2,54.2,448.9,58,453.6,58z"/>
	<path class="st0" d="M453.6,74.8c-4.6,0-8.4,3.8-8.4,8.4v25.2c0,4.6,3.8,8.4,8.4,8.4c4.6,0,8.4-3.8,8.4-8.4V83.2
		C462,78.6,458.2,74.8,453.6,74.8z"/>
	<path class="st0" d="M411.5,74.8h25.2c4.6,0,8.4-3.8,8.4-8.4s-3.8-8.4-8.4-8.4h-25.2c-4.6,0-8.4,3.8-8.4,8.4S406.9,74.8,411.5,74.8
		z"/>
	<path class="st0" d="M495.6,58h-25.2c-4.6,0-8.4,3.8-8.4,8.4s3.8,8.4,8.4,8.4h25.2c4.6,0,8.4-3.8,8.4-8.4S500.3,58,495.6,58z"/>
	<path class="st0" d="M58.4,369.1c-4.6,0-8.4,3.8-8.4,8.4v25.2c0,4.6,3.8,8.4,8.4,8.4s8.4-3.8,8.4-8.4v-25.2
		C66.8,372.8,63.1,369.1,58.4,369.1z"/>
	<path class="st0" d="M58.4,427.9c-4.6,0-8.4,3.8-8.4,8.4v25.2c0,4.6,3.8,8.4,8.4,8.4s8.4-3.8,8.4-8.4v-25.2
		C66.8,431.7,63.1,427.9,58.4,427.9z"/>
	<path class="st0" d="M41.6,411.1H16.4c-4.6,0-8.4,3.8-8.4,8.4c0,4.6,3.8,8.4,8.4,8.4h25.2c4.6,0,8.4-3.8,8.4-8.4
		C50,414.9,46.2,411.1,41.6,411.1z"/>
	<path class="st0" d="M100.5,411.1H75.2c-4.6,0-8.4,3.8-8.4,8.4c0,4.6,3.8,8.4,8.4,8.4h25.2c4.6,0,8.4-3.8,8.4-8.4
		C108.9,414.9,105.1,411.1,100.5,411.1z"/>
	<circle class="st0" cx="478.8" cy="175.7" r="8.4"/>
	<circle class="st0" cx="361.1" cy="427.9" r="8.4"/>
	<circle class="st0" cx="58.4" cy="158.9" r="8.4"/>
	<path class="st0" d="M45.8,74.8c16.2,0,29.4-13.2,29.4-29.4S62,16,45.8,16S16.4,29.2,16.4,45.4S29.6,74.8,45.8,74.8z M45.8,32.8
		c7,0,12.6,5.7,12.6,12.6S52.8,58,45.8,58s-12.6-5.7-12.6-12.6S38.8,32.8,45.8,32.8z"/>
	<path class="st0" d="M449.4,402.7c-16.2,0-29.4,13.2-29.4,29.4c0,16.2,13.2,29.4,29.4,29.4c16.2,0,29.4-13.2,29.4-29.4
		C478.8,415.9,465.6,402.7,449.4,402.7z M449.4,444.8c-7,0-12.6-5.7-12.6-12.6c0-7,5.7-12.6,12.6-12.6c7,0,12.6,5.7,12.6,12.6
		C462,439.1,456.3,444.8,449.4,444.8z"/>
</g>
</svg>
