<?xml version="1.0" encoding="utf-8"?>
<!-- Generator: Adobe Illustrator 24.2.1, SVG Export Plug-In . SVG Version: 6.00 Build 0)  -->
<svg version="1.1" id="Capa_1" xmlns="http://www.w3.org/2000/svg" xmlns:xlink="http://www.w3.org/1999/xlink" x="0px" y="0px"
	 viewBox="0 0 512 512" style="enable-background:new 0 0 512 512;" xml:space="preserve">
<style type="text/css">
	.st0{fill:#FFFFFF;}
</style>
<g>
	<path class="st0" d="M498.5,187.9L453.8,21c-1-3.7-3.4-6.8-6.7-8.7c-3.3-1.9-7.2-2.4-10.9-1.4L362,30.7c-7.7,2.1-12.2,10-10.2,17.6
		l1.2,4.6l-208.6,55.9c-12.9,3.5-22,14-24.3,26.4l-26.3,7.1c-8.7,2.3-15.9,7.9-20.4,15.7c-2,3.4-3.3,7-4,10.7l-44.8,12
		c-7.7,2.1-12.2,10-10.2,17.6L29.4,254c1,3.7,3.4,6.8,6.7,8.7c2.2,1.3,4.7,1.9,7.2,1.9c1.2,0,2.5-0.2,3.7-0.5l44.9-12
		c6.3,7.4,15.7,11.8,25.6,11.8c2.9,0,5.8-0.4,8.7-1.1l26.3-7c2.5,2.9,5.4,5.4,8.8,7.3c5.2,3,10.9,4.5,16.7,4.5
		c2.9,0,5.9-0.4,8.7-1.2l28.2-7.5c2,7.3,5.9,13.7,11,18.9l-97.5,203.2c-3.4,7.2-0.4,15.8,6.7,19.2c2,1,4.1,1.4,6.2,1.4
		c5.4,0,10.5-3,13-8.2l87.8-182.9v176.7c0,7.9,6.4,14.4,14.4,14.4c7.9,0,14.4-6.4,14.4-14.4V310.6l87.8,182.9
		c2.5,5.2,7.6,8.2,13,8.2c2.1,0,4.2-0.5,6.2-1.4c7.2-3.4,10.2-12,6.7-19.2l-97.5-203.2c7.8-7.8,12.6-18.6,12.6-30.5
		c0-3.7-0.5-7.4-1.4-10.8l97-26l1.2,4.6c1,3.7,3.4,6.8,6.7,8.7c2.2,1.3,4.7,1.9,7.2,1.9c1.2,0,2.5-0.2,3.7-0.5l74.2-19.9
		C496,203.4,500.6,195.5,498.5,187.9L498.5,187.9z M53.5,232.6L46,204.8l27.8-7.5l3.7,13.9l3.7,13.9L53.5,232.6z M118.7,235
		c-2.6,0.7-5.2-0.8-5.9-3.4L97.9,176c-0.4-1.7,0.1-3,0.5-3.6c0.4-0.6,1.2-1.8,2.9-2.2l23.2-6.2l17.4,64.9L118.7,235z M270.9,247.4
		c0,7.9-6.5,14.4-14.4,14.4c-7.9,0-14.4-6.5-14.4-14.4s6.5-14.4,14.4-14.4C264.4,233,270.9,239.4,270.9,247.4z M387.8,182.7
		l-107.3,28.8c-6.9-4.6-15.1-7.3-24-7.3c-17,0-31.7,9.8-38.7,24.1l-38.5,10.3c-1.7,0.4-3-0.1-3.6-0.5c-0.6-0.4-1.8-1.2-2.2-2.9
		l-24.8-92.7c-0.7-2.6,0.8-5.2,3.4-5.9l208.6-55.9L387.8,182.7z M420.6,193.8l-37.3-139l46.3-12.4l37.3,139L420.6,193.8z"/>
</g>
</svg>
