<?xml version="1.0" encoding="utf-8"?>
<!-- Generator: Adobe Illustrator 24.1.3, SVG Export Plug-In . SVG Version: 6.00 Build 0)  -->
<svg version="1.1" id="Capa_1" xmlns="http://www.w3.org/2000/svg" xmlns:xlink="http://www.w3.org/1999/xlink" x="0px" y="0px"
	 viewBox="0 0 512 512" style="enable-background:new 0 0 512 512;" xml:space="preserve">
<style type="text/css">
	.st0{fill:#FF637B;}
	.st1{fill:#EFE2DD;}
	.st2{fill:#CDBFBA;}
	.st3{fill:#FFF5F5;}
	.st4{fill:#FDD0D0;}
	.st5{fill:#7ED8F6;}
	.st6{fill:#FAAAAA;}
	.st7{fill:#6AA9FF;}
</style>
<g>
	<path class="st0" d="M197.5,356.9l-42.4-42.4c-5.9-5.9-15.4-5.9-21.2,0L13.2,435.2c-17.5,17.5-17.5,46.1,0,63.6
		C21.7,507.3,33,512,45,512s23.3-4.7,31.8-13.2l120.7-120.7C203.4,372.2,203.4,362.7,197.5,356.9z"/>
	<path class="st1" d="M302,0C186.2,0,92,94.2,92,210s94.2,210,210,210c115.8,0,210-94.2,210-210S417.8,0,302,0z"/>
	<path class="st2" d="M512,210c0,115.8-94.2,210-210,210V0C417.8,0,512,94.2,512,210z"/>
	<path class="st3" d="M482,210c0,99.3-80.7,180-180,180c-99.3,0-180-80.7-180-180S202.7,30,302,30C401.3,30,482,110.7,482,210z"/>
	<path class="st1" d="M482,210c0,99.3-80.7,180-180,180V30C401.3,30,482,110.7,482,210z"/>
	<path class="st4" d="M302,60c-33,0-60,27-60,60s27,60,60,60c33,0,60-27,60-60S335,60,302,60z"/>
	<path class="st5" d="M302,180c-49.5,0-90,40.5-90,90v45c0,8.4,6.6,15,15,15h150c8.4,0,15-6.6,15-15v-45
		C392,220.5,351.5,180,302,180z"/>
	<path class="st6" d="M362,120c0,33-27,60-60,60V60C335,60,362,87,362,120z"/>
	<path class="st7" d="M392,270v45c0,8.4-6.6,15-15,15h-75V180C351.5,180,392,220.5,392,270z"/>
</g>
</svg>
