<?xml version="1.0" encoding="utf-8"?>
<!-- Generator: Adobe Illustrator 24.1.3, SVG Export Plug-In . SVG Version: 6.00 Build 0)  -->
<svg version="1.1" id="Capa_1" xmlns="http://www.w3.org/2000/svg" xmlns:xlink="http://www.w3.org/1999/xlink" x="0px" y="0px"
	 viewBox="0 0 512 512" style="enable-background:new 0 0 512 512;" xml:space="preserve">
<style type="text/css">
	.st0{fill:#B35F49;}
	.st1{fill:#FFB99C;}
	.st2{fill:#FDE4E4;}
	.st3{fill:#FCCED3;}
</style>
<g>
	<path class="st0" d="M173.7,332.4c8.8-8.8,23-8.8,31.8,0l38.2,38.2c5.8,5.8,15.1,5.8,20.8,0l0.3-0.3c5.8-5.8,5.8-15.1,0-20.8
		l-80.6-80.6c-8.8-8.8-8.8-23,0-31.8c8.8-8.8,23-8.8,31.8,0l80.4,80.4c12.8,12.8,34-8.3,21.2-21.2L237.2,216c-8.8-8.8-8.8-23,0-31.8
		c9.4-9.4,21.6-10.2,37.1,5.3c36.5,36.5,62.3,62.3,96.3,96.3c12.8,12.8,34-8.3,21.2-21.2l-32.8-32.7c-11.7-11.7-11.7-30.6,0-42.3
		c5.9-5.9,15.3-5.9,21.2,0l27.7,27.7c39.4,39.4,62.2,91.8,64.1,147.6l35.2,36.4c5.9,5.9,5.9,15.3,0,21.2l-84.7,84.7
		c-5.8,5.9-15.3,5.9-21.2,0l-38-38c-65.6-1.8-114.1-29.4-157-72.3l-32.5-32.5C164.9,355.4,164.9,341.2,173.7,332.4z"/>
	<path class="st1" d="M179.6,173.7c8.8,8.8,8.8,23,0,31.8l-38.2,38.2c-5.8,5.8-5.8,15.1,0,20.8l0.3,0.3c5.8,5.8,15.1,5.8,20.8,0
		l80.6-80.6c8.8-8.8,23-8.8,31.8,0c8.8,8.8,8.8,23,0,31.8l-80.4,80.4c-12.8,12.8,8.3,34,21.2,21.2l80.4-80.4c8.8-8.8,23-8.8,31.8,0
		c9.4,9.4,10.2,21.6-5.3,37.1c-36.5,36.5-62.3,62.3-96.3,96.3c-12.8,12.8,8.3,34,21.2,21.2l32.7-32.8c11.7-11.7,30.6-11.7,42.3,0
		c5.9,5.9,5.9,15.3,0,21.2l-27.7,27.7c-39.4,39.4-91.8,62.2-147.6,64.1l-36.4,35.2c-5.9,5.9-15.3,5.9-21.2,0L4.9,422.4
		c-5.9-5.9-5.9-15.3,0-21.2l38-38c1.8-65.6,29.4-114.1,72.3-157l32.5-32.5C156.6,164.9,170.8,164.9,179.6,173.7z"/>
	<path class="st2" d="M390.7,216.8V256c0,8.4-6.6,15-15,15c-16.5,0-29.9-13.5-29.9-29.9v-46.4c0-18-29.9-18-29.9,0v136.2
		c0,21.9-9.3,29.9-22.5,29.9c-12.3,0-22.5-10.2-22.5-22.5V224.6c0-9-7.5-13.5-15-13.5c-7.5,0-15,4.5-15,13.5v113.8
		c0,12.3-10.2,22.5-22.5,22.5c-12.3,0-22.5-10.2-22.5-22.5V224.6c0-8.4-6.6-15-14.7-15h-0.6c-8.1,0-14.7,6.6-14.7,15v53.9
		c0,12.3-10.2,22.5-22.5,22.5s-22.5-10.2-22.5-22.5v-46.1c0-60.8,14.7-114.4,59.9-162V15.5c0-8.4,6.6-15,15-15h119.8
		c8.4,0,16,6.6,16,15l-0.1,51.6C369.8,107.8,390.7,161.1,390.7,216.8z"/>
	<path class="st3" d="M390.7,216.8V256c0,8.4-6.6,15-15,15c-16.5,0-29.9-13.5-29.9-29.9v-46.4c0-18-29.9-18-29.9,0v136.2
		c0,21.9-9.3,29.9-22.5,29.9c-12.3,0-22.5-10.2-22.5-22.5V224.6c0-9-7.5-13.5-15-13.5V0.5h59.9c8.4,0,16,6.6,16,15l-0.1,51.6
		C369.8,107.8,390.7,161.1,390.7,216.8z"/>
</g>
</svg>
