<?xml version="1.0" encoding="utf-8"?>
<!-- Generator: Adobe Illustrator 24.2.3, SVG Export Plug-In . SVG Version: 6.00 Build 0)  -->
<svg version="1.1" id="Capa_1" xmlns="http://www.w3.org/2000/svg" xmlns:xlink="http://www.w3.org/1999/xlink" x="0px" y="0px"
	 viewBox="0 0 512 512" style="enable-background:new 0 0 512 512;" xml:space="preserve">
<style type="text/css">
	.st0{fill:#FDB97E;}
	.st1{fill:#ADE194;}
	.st2{fill:#A274BF;}
	.st3{fill:#925CB4;}
	.st4{fill:#528FD8;}
	.st5{fill:#97DA7B;}
	.st6{fill:#FEE97D;}
	.st7{fill:#FEA95C;}
	.st8{fill:#F58A97;}
	.st9{fill:#F07281;}
	.st10{fill:#FEE45A;}
	.st11{fill:#0573CE;}
	.st12{fill:#9B8E99;}
	.st13{fill:#FFFFFF;}
</style>
<g>
	<g>
		<g>
			<path class="st0" d="M482.9,88.9H59.3l-33.8,11.5v45.2l24.9,11.5h426.5l20-11.5v-45.2L482.9,88.9z"/>
			<path class="st1" d="M488.4,178h-420l-43,12.9v45.2l18.3,10.8h444.2l8.8-10.8v-45.2L488.4,178z"/>
			<g>
				<g>
					<path class="st2" d="M483.8,258.8H59.3l-33.8,22.6v45.2h465.9c3,0,5.4-2.4,5.4-5.4v-39.9L483.8,258.8z"/>
					<path class="st3" d="M77,258.8H59.3l-33.8,22.6v45.2H77V258.8z"/>
					<path class="st4" d="M25.5,236.1h471.3v45.2H25.5L25.5,236.1z"/>
					<path class="st5" d="M77,246.9V178h-8.6l-43,12.9v45.2l18.3,10.8H77z"/>
					<path class="st6" d="M25.5,145.7h471.3v45.2H25.5L25.5,145.7z"/>
					<path class="st7" d="M77,157.1V88.9H59.3l-33.8,11.5v45.2l24.9,11.5H77z"/>
					<path class="st8" d="M496.7,62.7v37.7H25.5V55.2h463.7C493.4,55.2,496.7,58.5,496.7,62.7L496.7,62.7z"/>
				</g>
				<path class="st9" d="M25.5,55.2H77v45.2H25.5L25.5,55.2z"/>
				<path class="st10" d="M25.5,145.7H77v45.2H25.5L25.5,145.7z"/>
				<path class="st11" d="M25.5,236.1H77v45.2H25.5L25.5,236.1z"/>
				<path class="st12" d="M47.9,493.6V31.8c0-9-7.3-16.3-16.3-16.3s-16.3,7.3-16.3,16.3v461.8c0,2.7,2.2,4.9,4.9,4.9H43
					C45.7,498.5,47.9,496.3,47.9,493.6z"/>
				<g>
					<path class="st6" d="M367.8,306.5c-4.1,10-12.2,16.8-23.2,21.1c-2.7,1.1-2.8,4.9-0.1,6.1c10.7,4.6,18.6,11.6,22.9,21.5
						c1.2,2.7,5,2.7,6.1,0c4.2-10.4,11.5-17.4,21.5-21.6c2.7-1.1,2.7-5,0-6.1c-10.1-4-17-11.2-21.1-21
						C372.8,303.8,368.9,303.8,367.8,306.5z"/>
					<path class="st6" d="M167.5,16.5c-4.1,10-12.2,16.8-23.2,21.1c-2.7,1.1-2.8,4.9-0.1,6.1c10.7,4.6,18.6,11.6,22.9,21.5
						c1.2,2.7,5,2.7,6.1,0c4.2-10.4,11.5-17.4,21.5-21.6c2.7-1.1,2.7-5,0-6.1c-10.1-4-17-11.2-21.1-21
						C172.4,13.7,168.6,13.8,167.5,16.5z"/>
				</g>
			</g>
		</g>
	</g>
	<g>
		<path class="st13" d="M47.9,422c-4,0-7.3,3.3-7.3,7.3v68.3c0,4,3.3,7.3,7.3,7.3s7.3-3.3,7.3-7.3v-68.3
			C55.2,425.2,51.9,422,47.9,422L47.9,422z"/>
		<path class="st13" d="M496.7,47.9H222.4c-4,0-7.3,3.3-7.3,7.3s3.3,7.3,7.3,7.3h267.1v30.7h-28.8c-4,0-7.3,3.3-7.3,7.3
			c0,4,3.3,7.3,7.3,7.3h28.8v30.7H55.2v-30.7h374.5c4,0,7.3-3.3,7.3-7.3c0-4-3.3-7.3-7.3-7.3H55.2V62.4h61.4c4,0,7.3-3.3,7.3-7.3
			s-3.3-7.3-7.3-7.3H55.2v-16c0-13-10.6-23.6-23.6-23.6C18.6,8.2,8,18.8,8,31.8v465.7c0,4,3.3,7.3,7.3,7.3s7.3-3.3,7.3-7.3V31.8
			c0-5,4-9,9-9s9,4,9,9v366.4c0,4,3.3,7.3,7.3,7.3s7.3-3.3,7.3-7.3v-64.3h258.9c4,0,7.3-3.3,7.3-7.3c0-4-3.3-7.3-7.3-7.3H55.2v-30.7
			h434.3v30.7h-63.1c-4,0-7.3,3.3-7.3,7.3c0,4,3.3,7.3,7.3,7.3h69.4c0.2,0,0.3,0,0.5,0c0.2,0,0.3,0,0.5,0c4,0,7.3-3.3,7.3-7.3V55.2
			C504,51.1,500.8,47.9,496.7,47.9L496.7,47.9z M489.5,152.9v30.7H55.2v-30.7H489.5z M55.2,274.1v-30.7h50.5c4,0,7.3-3.3,7.3-7.3
			s-3.3-7.3-7.3-7.3H55.2v-30.7h434.3v30.7H136.7c-4,0-7.3,3.3-7.3,7.3s3.3,7.3,7.3,7.3h352.7v30.7H55.2z"/>
		<path class="st13" d="M398.2,320.8c-8-3.2-13.6-8.8-17.1-17.1c-1.7-4-5.5-6.5-9.8-6.5c-4.3,0-8.1,2.6-9.7,6.6
			c-3.1,7.7-9.4,13.2-19.1,17c-4,1.6-6.6,5.4-6.7,9.7c-0.1,4.3,2.5,8.2,6.4,9.9c9.4,4,15.6,9.8,19.1,17.8c1.7,3.9,5.5,6.4,9.7,6.4
			c0.1,0,0.1,0,0.2,0c4.3-0.1,8-2.6,9.6-6.6c3.4-8.3,9.1-14.1,17.5-17.5c4-1.6,6.6-5.5,6.6-9.8C404.8,326.2,402.2,322.4,398.2,320.8
			L398.2,320.8z M370.8,345.3c-3.8-5.8-9-10.7-15.4-14.5c6.7-3.8,12.1-8.6,15.9-14.4c3.6,5.9,8.4,10.6,14.1,14.2
			C379.3,334.3,374.5,339.3,370.8,345.3z"/>
		<path class="st13" d="M141.4,50.3c9.4,4,15.6,9.8,19.1,17.8c1.7,3.9,5.5,6.4,9.7,6.4c0.1,0,0.1,0,0.2,0c4.3-0.1,8-2.6,9.6-6.6
			c3.4-8.3,9.1-14.1,17.5-17.5c4-1.6,6.6-5.5,6.6-9.8c0-4.3-2.6-8.1-6.6-9.7c-8-3.2-13.6-8.8-17.1-17.1c-1.7-4-5.5-6.5-9.8-6.5
			c0,0,0,0,0,0c-4.3,0-8.1,2.6-9.7,6.6v0c-3.1,7.7-9.4,13.2-19.1,17c-4,1.6-6.6,5.4-6.7,9.6C134.9,44.7,137.4,48.6,141.4,50.3
			L141.4,50.3z M170.5,26.4c3.6,5.9,8.4,10.6,14.1,14.2c-6,3.7-10.9,8.7-14.6,14.7c-3.8-5.8-9-10.7-15.4-14.5
			C161.3,37,166.7,32.2,170.5,26.4z"/>
	</g>
</g>
</svg>
