<?xml version="1.0" encoding="utf-8"?>
<!-- Generator: Adobe Illustrator 24.2.3, SVG Export Plug-In . SVG Version: 6.00 Build 0)  -->
<svg version="1.1" id="Capa_1" xmlns="http://www.w3.org/2000/svg" xmlns:xlink="http://www.w3.org/1999/xlink" x="0px" y="0px"
	 viewBox="0 0 512 512" style="enable-background:new 0 0 512 512;" xml:space="preserve">
<style type="text/css">
	.st0{fill:#FFFFFF;}
</style>
<g>
	<path class="st0" d="M439.5,36.1C425.6,18.2,404.7,8,382,8h-95.3l-88.9,57.4l-0.2,0.1C180,77.3,169.5,97,169.5,118.3
		c0,14.6,5,28.1,13.3,38.8c-13.4,3.3-26.4,8.2-38.6,14.8l-4.7,2.5C90,201,58.4,251.8,57.2,307.1c0,1.2,0,2.4,0,3.6
		c0,45.5,19.6,88.9,53.7,119l1.3,1.2c18.2,16,39.6,27.6,62.6,33.9V504h29.3v-34c4.3,0.4,8.7,0.5,13.1,0.5h31.1v-29.3h-31.1
		c-31.6,0-62-11.5-85.6-32.4l-1.3-1.2c-27.8-24.6-43.8-59.9-43.8-97c0-1,0-1.9,0-2.9c0.2-9.4,1.5-18.6,3.8-27.5l245.9,58.1
		c4.1,1,8.3,1.5,12.5,1.5c9.6,0,19.2-2.6,27.6-7.7c8.2-4.9,14.8-11.8,19.3-19.9l10.3,20.4c24.6,48.8,22.9,106.1-4.4,153.4l25.4,14.7
		C459.1,444.8,461,377,432,319.4l-23.7-47.1l11.4-44.8l19.3-72.7l-0.6-0.2l14.2-55.8C458.2,76.8,453.4,54,439.5,36.1L439.5,36.1z
		 M125.3,220.5l33.1,6.8l-18.8,34.5l-38.6-9.1C107.3,240.8,115.5,229.9,125.3,220.5L125.3,220.5z M372.3,292.2
		c-3.4,13-16.4,20.7-29.4,17.6l-173.7-41.1l19.2-35.3l151.1,31l37.7-158.2l-28.5-6.8l-31.1,130.6l-159.1-32.6
		c19.4-10.3,41.2-15.8,63.1-15.8h26.7v-29.3h-15.4c-18.8,0-34.1-15.3-34.1-34.1c0-11.4,5.7-22,15.1-28.4l81.5-52.7H382
		c13.5,0,26.1,6.1,34.4,16.8c8.3,10.7,11.1,24.4,7.8,37.5L391.4,220L372.3,292.2z"/>
</g>
</svg>
