<?xml version="1.0" encoding="utf-8"?>
<!-- Generator: Adobe Illustrator 24.1.3, SVG Export Plug-In . SVG Version: 6.00 Build 0)  -->
<svg version="1.1" id="Capa_1" xmlns="http://www.w3.org/2000/svg" xmlns:xlink="http://www.w3.org/1999/xlink" x="0px" y="0px"
	 viewBox="0 0 512 512" style="enable-background:new 0 0 512 512;" xml:space="preserve">
<style type="text/css">
	.st0{fill:#FFDA2D;}
	.st1{fill:#FDBF00;}
	.st2{fill:#895D3C;}
	.st3{fill:#714C2F;}
	.st4{fill:#FF637B;}
	.st5{fill:#E63950;}
</style>
<g>
	<path class="st0" d="M347,0c-90.9,0-165,74.1-165,165c0,12.6,1.5,25.2,4.2,37.2c0.6,2.7,2.1,5.4,3.9,7.2l112.5,112.5
		c1.8,1.8,4.5,3.3,7.2,3.9c12,2.7,24.6,4.2,37.2,4.2c90.9,0,165-74.1,165-165C512,74.1,437.9,0,347,0z"/>
	<path class="st1" d="M512,165c0,90.9-74.1,165-165,165V0C437.9,0,512,74.1,512,165z"/>
	<path class="st2" d="M317,120h-30c-8.3,0-15-6.7-15-15s6.7-15,15-15h30c8.3,0,15,6.7,15,15S325.3,120,317,120z"/>
	<path class="st3" d="M407,120h-30c-8.3,0-15-6.7-15-15s6.7-15,15-15h30c8.3,0,15,6.7,15,15S415.3,120,407,120z"/>
	<path class="st4" d="M422,225c0,8.4-6.6,15-15,15s-15-6.6-15-15c0-24.9-20.1-45-45-45s-45,20.1-45,45c0,8.4-6.6,15-15,15
		s-15-6.6-15-15c0-41.4,33.6-75,75-75S422,183.6,422,225z"/>
	<path class="st5" d="M422,225c0,8.4-6.6,15-15,15s-15-6.6-15-15c0-24.9-20.1-45-45-45v-30C388.4,150,422,183.6,422,225z"/>
	<path class="st0" d="M165,182C74.1,182,0,256.1,0,347c0,90.9,74.1,165,165,165s165-74.1,165-165C330,256.1,255.9,182,165,182z"/>
	<path class="st1" d="M330,347c0,90.9-74.1,165-165,165V182C255.9,182,330,256.1,330,347z"/>
	<path class="st2" d="M135,302h-30c-8.3,0-15-6.7-15-15s6.7-15,15-15h30c8.3,0,15,6.7,15,15S143.3,302,135,302z"/>
	<path class="st3" d="M225,302h-30c-8.3,0-15-6.7-15-15s6.7-15,15-15h30c8.3,0,15,6.7,15,15S233.3,302,225,302z"/>
	<path class="st4" d="M240,347c0,41.4-33.6,75-75,75s-75-33.6-75-75c0-8.4,6.6-15,15-15s15,6.6,15,15c0,24.9,20.1,45,45,45
		s45-20.1,45-45c0-8.4,6.6-15,15-15S240,338.6,240,347z"/>
	<path class="st5" d="M240,347c0,41.4-33.6,75-75,75v-30c24.9,0,45-20.1,45-45c0-8.4,6.6-15,15-15S240,338.6,240,347z"/>
</g>
</svg>
