<?xml version="1.0" encoding="utf-8"?>
<!-- Generator: Adobe Illustrator 24.2.3, SVG Export Plug-In . SVG Version: 6.00 Build 0)  -->
<svg version="1.1" id="Capa_1" xmlns="http://www.w3.org/2000/svg" xmlns:xlink="http://www.w3.org/1999/xlink" x="0px" y="0px"
	 viewBox="0 0 512 512" style="enable-background:new 0 0 512 512;" xml:space="preserve">
<style type="text/css">
	.st0{fill:#FFFFFF;}
</style>
<g>
	<path class="st0" d="M504,216h-18l-26.8,14.1c-3-1.7-6.2-3.1-9.5-3.9l-33.7-8.4v-3.8c14.9-10.4,24-27.6,24-45.9v-14
		c0-31.1-24.4-57.1-54.3-58c-1.5,0-3,0-4.5,0.1l8.7-20.5l-42.4-42.4l-25,16.3c-9.5-5.3-19.5-9.5-29.9-12.4L286.5,8h-61l-6.2,29.1
		c-10.4,2.9-20.5,7.1-29.9,12.4l-25-16.3l-42.3,42.3l8.6,20.5c-0.3,0-0.6-0.1-1-0.1c-15.3-0.4-29.8,5.1-40.7,15.8
		c-11,10.6-17,24.9-17,40.2v16c0,18.3,9.1,35.5,24,45.9v3.8l-22,5.5L34.1,200H8v165.8L86.7,392H102l1.9-6.7l24.1,14.5
		c0.4,13.1,10.9,23.7,24,24.1c0.5,13.1,11,23.5,24,24c0.5,13.1,11,23.5,24,24c0.5,13.4,11.4,24.1,24.9,24.1c5,0,9.9-1.6,14-4.3
		l7.1,6.3c4.4,3.9,10.2,6.1,16.1,6.1h1.5c13.3,0,24.1-10.8,24.3-24c13.2-0.2,23.8-10.8,24-24c13.2-0.2,23.9-10.8,24-24
		c13.3-0.3,24-11.2,24-24.5c0-0.8,0-1.6-0.1-2.4L504,333V216z M424,154v14c0,14.2-7.7,27.5-20,34.6l-4,2.3l0,25.3l40,10l-88,46.3
		V265c0-10.8-4.3-20.6-11.5-27.9l27.5-6.9v-25.3l-4-2.3c-12.3-7.1-20-20.4-20-34.6v-16c0-10.9,4.3-21.1,12.2-28.7
		c7.8-7.6,18.2-11.7,29.1-11.3C406.6,112.6,424,131.5,424,154z M268.1,280.2l-36.2-11.6c-16.5-5.3-34.4-6.1-51.3-2.3l-4.6,1V265
		c0-11,7.5-20.6,18.2-23.3l45.8-11.5v-25.3l-4-2.3c-12.3-7.1-20-20.4-20-34.6v-16c0-10.9,4.3-21.1,12.2-28.7
		c7.8-7.6,18.3-11.7,29.1-11.3c21.4,0.6,38.8,19.5,38.8,42v14c0,14.2-7.7,27.5-20,34.6l-4,2.3l0,25.3l45.8,11.5
		C328.5,244.4,336,254,336,265v30l-2,1h-4.9l-49.2-14.1C276.1,280.9,272.1,280.4,268.1,280.2z M177.8,127.7
		C192.8,98.6,223.1,80,256,80c32.6,0,62.8,18.4,77.9,47.1c-3.8,7.6-5.9,16.1-5.9,24.9v16c0,18.3,9.1,35.5,24,45.9v3.8l-32,8l-32-8
		v-3.8c14.9-10.4,24-27.6,24-45.9v-14c0-31.1-24.4-57.1-54.3-58c-15.3-0.4-29.8,5.1-40.7,15.8c-11,10.6-17,24.9-17,40.2v16
		c0,18.3,9.1,35.5,24,45.9v3.8l-32,8l-32-8v-3.8c14.9-10.4,24-27.6,24-45.9v-14C184,144.6,181.7,135.6,177.8,127.7z M141,79.3
		l25.6-25.6L189,68.4l4.3-2.6c10.8-6.6,22.4-11.5,34.6-14.4l4.9-1.2l5.6-26.2h35l5.6,26.2l4.9,1.2c12.2,2.9,23.9,7.8,34.6,14.4
		l4.3,2.6l22.5-14.6L371,79.3l-9.1,21.2c-6.2,2.7-11.9,6.4-16.9,11.2c-0.3,0.3-0.6,0.7-0.9,1C325.2,82.8,291.9,64,256,64
		c-36.2,0-69.6,19-88.4,49.3c-5-5.3-11-9.5-17.7-12.5L141,79.3z M112,230.2v-25.3l-4-2.3c-12.3-7.1-20-20.4-20-34.6v-16
		c0-10.9,4.3-21.1,12.2-28.7c7.8-7.6,18.2-11.7,29.1-11.3c21.4,0.6,38.8,19.5,38.8,42v14c0,14.2-7.7,27.5-20,34.6l-4,2.3l0,25.3
		l27.5,6.9c-7.1,7.3-11.5,17.1-11.5,27.9v5.9l-25,5.5l0.6-2.3l0.3-14.8l-42.2-24.6L112,230.2z M24,216h5.8l57.5,33.6l-29,116.1
		L24,354.2V216z M89.3,376l-15.7-5.2L101.7,258l18.2,10.6v2.3L89.9,376H89.3z M144,399c0-2.4,1-4.7,2.6-6.3l14.1-14.1
		c1.7-1.7,4-2.6,6.3-2.6c4.9,0,9,4,9,9c0,2.4-1,4.7-2.6,6.3l-14.1,14.1c-1.7,1.7-4,2.6-6.3,2.6C148,408,144,404,144,399z M168,423.1
		c0-2.4,1-4.7,2.6-6.3l14.1-14.1c1.7-1.7,4-2.6,6.3-2.6c4.9,0,9,4,9,9c0,2.4-1,4.7-2.6,6.3l-14.1,14.1c-1.7,1.7-4,2.6-6.3,2.6
		C172,432,168,428,168,423.1z M192,447.1c0-2.4,1-4.7,2.6-6.3l14.1-14.1c1.7-1.7,4-2.6,6.3-2.6c4.9,0,9,4,9,9c0,2.4-1,4.7-2.6,6.3
		l-14.1,14.1c-1.7,1.7-4,2.6-6.3,2.6C196,456,192,452,192,447.1z M225,480c-4.9,0-9-4-9-9c0-2.4,1-4.7,2.6-6.3l14.1-14.1
		c1.7-1.7,4-2.6,6.3-2.6c4.9,0,9,4,9,9c0,2.4-1,4.7-2.6,6.3l-14.1,14.1C229.6,479.1,227.3,480,225,480z M263.7,488h-1.5
		c-2,0-4-0.7-5.5-2.1l-6-5.3l6-6c2.1-2.1,3.8-4.7,5-7.4l7.3,6.1c1.9,1.6,3,3.9,3,6.4C272,484.3,268.3,488,263.7,488z M335.4,416H334
		c-2,0-4-0.7-5.5-2l-43.4-36.2l-10.3,12.3l42.1,35.1c1.9,1.6,3,3.9,3,6.4c0,4.6-3.7,8.3-8.3,8.3h-1.7c-1.9,0-3.8-0.7-5.3-1.9
		l-43.5-36.2l-10.3,12.3l42.1,35.1c1.9,1.6,3,3.9,3,6.4c0,4.6-3.7,8.3-8.3,8.3c-3.1,0-6.1-1.1-8.4-3l-17.9-14.9
		c-3.9-8-12-13.6-21.5-14c-0.5-13.1-11-23.5-24-24c-0.5-13.1-11-23.5-24-24c-0.5-13.4-11.4-24.1-24.9-24.1c-6.6,0-13,2.7-17.7,7.3
		l-14.1,14.1c-0.8,0.8-1.5,1.8-2.2,2.7l-24.6-14.7L130,294l54-12c14.2-3.2,29.1-2.5,42.9,1.9l11.8,3.8l-40,20
		c-9.1,4.6-14.8,13.8-14.8,24v1.6c0,14.8,12,26.8,26.8,26.8c4.9,0,9.6-1.3,13.8-3.8l29.8-17.9c6-3.6,14-2.8,19.2,1.8l67.6,60.8
		c1.8,1.6,2.8,4,2.8,6.4C344,412.2,340.2,416,335.4,416z M488,323.1l-134.8,67.4c-0.4-0.5-0.9-0.9-1.4-1.3l-67.6-60.8
		c-5.9-5.3-13.6-8.3-21.6-8.3c-5.8,0-11.6,1.6-16.6,4.6l-29.8,17.9c-1.7,1-3.6,1.5-5.5,1.5c-6,0-10.8-4.8-10.8-10.8v-1.6
		c0-4.1,2.3-7.8,6-9.7l44.6-22.3c7.6-3.8,16.7-4.7,24.9-2.3l50.3,14.4L338,312l150-79V323.1z"/>
</g>
</svg>
