<svg id="Capa_1" enable-background="new 0 0 512.025 512.025" height="512" viewBox="0 0 512.025 512.025" width="512" xmlns="http://www.w3.org/2000/svg"><g><g><path d="m203.377 322.465c-23.2 7.15-40.58 26.4-45.34 50.22-7.64 38.18-37.24 67.77-75.41 75.41-26.48 5.29-47.73 26.14-52.87 51.87-1.43 7.13-7.69 12.06-14.69 12.06-4.2 0-7.93-1.7-10.62-4.4-3.39-3.39-5.14-8.37-4.11-13.54 7.49-37.46 38.2-67.77 76.41-75.41 26.26-5.25 46.62-25.61 51.87-51.87 6.93-34.64 32.19-62.61 65.93-73.01 6.7-2.06 13.73.79 17.22 6.51 5.114 8.442.903 19.297-8.39 22.16z" fill="#ffbfbf"/></g><path d="m463.727 281.615c-64.32 64.32-168.97 64.33-233.3.03-.01 0-.03-.02-.04-.03-.01 0-.01 0-.01-.01-.01 0-.01 0-.01-.01-64.34-64.33-64.34-169.01 0-233.34 64.33-64.34 169.01-64.34 233.34 0 .01 0 .01 0 .01.01.01 0 .01 0 .01.01.01.01.03.03.03.04 64.31 64.33 64.3 168.98-.03 233.3z" fill="#ff8e8e"/><path d="m463.727 281.615c-64.32 64.32-168.97 64.33-233.3.03l233.33-233.33c64.31 64.33 64.3 168.98-.03 233.3z" fill="#ec5569"/><g><path d="m328.347 183.725c-.01-.01-.03-.03-.04-.04-14.83-14.83-40.16-17.51-71.31-7.54-24.68 7.89-50.19 22.98-66.57 39.36-17.37 17.36-23.52 35.53-18.3 54.01 4.57 16.14 17.31 29.86 28.9 41.45.01.01.03.03.04.04 11.58 11.58 25.29 24.31 41.42 28.86 20.52 5.82 38.71-3.02 54-18.29 16.39-16.39 31.47-41.9 39.36-66.57 9.96-31.13 7.29-56.45-7.5-71.28z" fill="#fff2fb"/></g><path d="m335.847 255.005c-7.89 24.67-22.97 50.18-39.36 66.57-15.29 15.27-33.48 24.11-54 18.29-16.13-4.55-29.84-17.28-41.42-28.86l127.28-127.28c14.79 14.83 17.46 40.15 7.5 71.28z" fill="#ffdfea"/><g><path d="m419.527 92.545c-.01-.01-.03-.03-.04-.04-23.39-23.39-61.46-23.39-84.85 0-23.4 23.4-23.4 61.46 0 84.86.01.01.03.03.04.03 23.39 23.36 61.43 23.35 84.81-.03 23.38-23.39 23.39-61.42.04-84.82z" fill="#ec5569"/></g><path d="m419.487 177.365c-23.38 23.38-61.42 23.39-84.81.03l84.85-84.85c23.35 23.4 23.34 61.43-.04 84.82z" fill="#cc2e43"/></g></svg>