<?xml version="1.0" encoding="utf-8"?>
<!-- Generator: Adobe Illustrator 24.2.3, SVG Export Plug-In . SVG Version: 6.00 Build 0)  -->
<svg version="1.1" id="Capa_1" xmlns="http://www.w3.org/2000/svg" xmlns:xlink="http://www.w3.org/1999/xlink" x="0px" y="0px"
	 viewBox="0 0 512 512" style="enable-background:new 0 0 512 512;" xml:space="preserve">
<style type="text/css">
	.st0{fill:#386BB2;}
</style>
<g>
	<g>
		<g>
			<g>
				<path class="st0" d="M136.5,15.1c-5.2,0-9.4,4.2-9.4,9.4c0,5.2,4.2,9.4,9.4,9.4c53.2,0,96.4,44.4,96.4,98.9
					c0,5.2,4.2,9.4,9.4,9.4c5.2,0,9.4-4.2,9.4-9.4C251.8,67.9,200.1,15.1,136.5,15.1z"/>
			</g>
		</g>
		<g>
			<g>
				<path class="st0" d="M136.5,59.7c-5.2,0-9.4,4.2-9.4,9.4c0,5.2,4.2,9.4,9.4,9.4c29.1,0,52.8,24.3,52.8,54.3
					c0,5.2,4.2,9.4,9.4,9.4c5.2,0,9.4-4.2,9.4-9.4C208.1,92.5,176,59.7,136.5,59.7z"/>
			</g>
		</g>
		<g>
			<g>
				<path class="st0" d="M136.7,100.8c-5.2,0-9.4,4.2-9.4,9.4c0,5.2,4.2,9.4,9.4,9.4c6.8,0,12.3,5.8,12.3,12.8
					c0,5.2,4.2,9.4,9.4,9.4c5.2,0,9.4-4.2,9.4-9.4C167.8,115.1,153.8,100.8,136.7,100.8z"/>
			</g>
		</g>
		<g>
			<g>
				<path class="st0" d="M308.9,297.2l-1.2-2c-9.5-5.4-15.9-15.7-15.9-27.4V140c0-17.4,14.1-31.5,31.5-31.5h22.4
					c5.2,0,9.4-4.2,9.4-9.4c0-5.2-4.2-9.4-9.4-9.4h-22.4c-27.8,0-50.4,22.6-50.4,50.4v127.8c0,27.8,22.6,50.4,50.4,50.4h47.4v27.1
					c0,3.8,2.3,7.2,5.8,8.7c1.2,0.5,2.4,0.7,3.6,0.7c2.4,0,4.8-0.9,6.6-2.7l34-33.7h25.9c27.8,0,50.4-22.6,50.4-50.4V140
					c0-27.8-22.6-50.4-50.4-50.4h-20.9c-5.2,0-9.4,4.2-9.4,9.4c0,5.2,4.2,9.4,9.4,9.4h20.9c17.4,0,31.5,14.1,31.5,31.5v127.8
					c0,10-4.7,18.9-12,24.7v6l-18.8,0v0.8h0c-0.2,0-0.5,0-0.7,0h-29.8v0c-2.5,0-4.9,1-6.6,2.7l-20.7,20.5v-13.9
					c0-5.2-4.2-9.4-9.4-9.4h-53.5l1.2-2.1L308.9,297.2z"/>
			</g>
		</g>
		<g>
			<g>
				<path class="st0" d="M387.8,92.4c-1.7-1.8-4.2-2.8-6.7-2.8c-2.5,0-4.9,1-6.7,2.8c-1.8,1.7-2.8,4.2-2.8,6.7c0,2.5,1,4.9,2.8,6.7
					c1.8,1.7,4.2,2.8,6.7,2.8c2.5,0,4.9-1,6.7-2.8c1.8-1.8,2.8-4.2,2.8-6.7C390.6,96.6,389.6,94.2,387.8,92.4z"/>
			</g>
		</g>
		<g>
			<g>
				<path class="st0" d="M190,331.7c-1.8-1.8-4.2-2.8-6.7-2.8c-2.5,0-4.9,1-6.7,2.8c-1.8,1.8-2.8,4.2-2.8,6.7c0,2.5,1,4.9,2.8,6.7
					c1.8,1.8,4.2,2.8,6.7,2.8c2.5,0,4.9-1,6.7-2.8c1.8-1.8,2.8-4.2,2.8-6.7C192.8,335.9,191.8,333.5,190,331.7z"/>
			</g>
		</g>
		<g>
			<g>
				<path class="st0" d="M396,416.8l-72.1-72.1c-9.6-9.6-24.7-11-35.9-3.3l-46,31.5c-3.7,2.6-8.8,2.1-12-1.1l-15.2-15.2
					c-3.7-3.7-9.6-3.7-13.3,0c-3.7,3.7-3.7,9.6,0,13.3l15.2,15.2c9.6,9.6,24.7,11,35.9,3.3l46-31.5c3.7-2.6,8.8-2.1,12,1.1
					l72.1,72.1c3.7,3.7,3.7,9.6,0,13.3c-46.2,46.2-121.5,46.2-167.7,0L68.6,297c-22.4-22.4-34.7-52.2-34.7-83.9s12.3-61.5,34.7-83.9
					c1.8-1.8,4.1-2.8,6.7-2.8c2.5,0,4.9,1,6.7,2.8l72.1,72.1c3.2,3.2,3.7,8.2,1.1,12l-31.5,46c-7.7,11.2-6.3,26.3,3.3,35.9
					l22.9,22.9c3.7,3.7,9.6,3.7,13.3,0c3.7-3.7,3.7-9.6,0-13.3L140.3,282c-3.2-3.2-3.7-8.2-1.1-12l31.5-46
					c7.7-11.2,6.3-26.3-3.3-35.9L95.2,116c-11-11-28.9-11-39.9,0c-53.6,53.6-53.6,140.8,0,194.4l146.4,146.4
					c26.8,26.8,62,40.2,97.2,40.2c35.2,0,70.4-13.4,97.2-40.2C407,445.8,407,427.8,396,416.8z"/>
			</g>
		</g>
		<g>
			<g>
				<path class="st0" d="M141.9,246.5l-57.1-57.1c-3.7-3.7-9.6-3.7-13.3,0c-3.7,3.7-3.7,9.6,0,13.3l57.1,57.1
					c1.8,1.8,4.2,2.8,6.7,2.8c2.4,0,4.8-0.9,6.7-2.8C145.5,256.1,145.5,250.2,141.9,246.5z"/>
			</g>
		</g>
		<g>
			<g>
				<path class="st0" d="M360.2,464.9l-60-60c-3.7-3.7-9.6-3.7-13.3,0c-3.7,3.7-3.7,9.6,0,13.3l60,60c1.8,1.8,4.2,2.8,6.7,2.8
					c2.4,0,4.8-0.9,6.7-2.8C363.9,474.5,363.9,468.6,360.2,464.9z"/>
			</g>
		</g>
	</g>
	<g>
		<g>
			<g>
				<path class="st0" d="M351.3,222.2c1.2-6.5-1.8-15.7-13.8-20.1c-4.8-1.8-9.3-3.7-11.1-4.5c-0.1-0.1-0.1-0.3-0.1-0.6
					c0.1-0.7,0.8-1.3,1.8-1.6c4.9-1.5,9.6,2.3,9.7,2.3c2,0.6,4.1,0,5.6-1.4l1.5-1.4c2.7-2.6,2.3-7-0.9-9c-5.5-3.5-13.3-7-20.2-4.9
					c-6.7,2-11.5,7.3-12.4,13.9c-0.9,6.2,1.8,12.2,7,15.6c0.3,0.2,0.7,0.4,1,0.6c0.2,0.1,6.2,2.7,12.8,5.2c2.6,1,4.3,2.4,4.2,3.3
					c-0.2,1.1-1.9,3-5.3,3c-3.6,0-7.1-1.4-9.2-3.8c-2.9-3.2-7.8-3.3-10.8-0.3c-3,2.9-2.8,7.8,0.1,10.9c5,5.3,12.3,8.4,20,8.4
					C341.2,237.6,349.7,231.1,351.3,222.2L351.3,222.2z"/>
				<path class="st0" d="M440.6,237.6c10,0,18.5-6.5,20.1-15.4c1.2-6.5-1.8-15.7-13.8-20.1c-4.8-1.8-9.3-3.7-11.1-4.5
					c-0.1-0.1-0.1-0.3-0.1-0.6c0.1-0.7,0.8-1.3,1.8-1.6c4.9-1.5,9.6,2.3,9.7,2.3c2.8,1,5.9,0.1,7.7-2.2l0.4-0.4
					c2.7-3.4,1.7-8.4-2.1-10.4c-5.7-3-13.4-5.7-20-3.7c-6.7,2-11.5,7.3-12.4,13.9c-0.9,6.2,1.8,12.2,7,15.6c0.3,0.2,0.7,0.4,1,0.6
					c0.2,0.1,6.2,2.7,12.8,5.2c2.6,1,4.3,2.4,4.2,3.3c-0.2,1.1-1.9,3-5.3,3c-3.6,0-7.1-1.4-9.2-3.8c-2.9-3.2-7.8-3.3-10.8-0.3
					c-3,2.9-2.8,7.8,0.1,10.9C425.6,234.6,432.9,237.6,440.6,237.6L440.6,237.6z"/>
				<path class="st0" d="M385.6,237.6c15.9,0,28.8-12.9,28.8-28.8c0-15.9-12.9-28.8-28.8-28.8c-15.9,0-28.8,12.9-28.8,28.8
					C356.8,224.7,369.7,237.6,385.6,237.6z M385.6,195.1c7.6,0,13.7,6.2,13.7,13.7c0,7.6-6.2,13.7-13.7,13.7s-13.7-6.2-13.7-13.7
					C371.9,201.2,378,195.1,385.6,195.1z"/>
			</g>
		</g>
	</g>
</g>
</svg>
