<?xml version="1.0" encoding="utf-8"?>
<!-- Generator: Adobe Illustrator 24.2.3, SVG Export Plug-In . SVG Version: 6.00 Build 0)  -->
<svg version="1.1" id="Capa_1" xmlns="http://www.w3.org/2000/svg" xmlns:xlink="http://www.w3.org/1999/xlink" x="0px" y="0px"
	 viewBox="0 0 512 512" style="enable-background:new 0 0 512 512;" xml:space="preserve">
<style type="text/css">
	.st0{fill:#FFFFFF;}
</style>
<g>
	<path class="st0" d="M255.8,417.3c5.8,0,11.7-0.5,17.5,0.1c9.9,1.1,19-3.8,28.7-3.7c2.7-5.9,10.6-0.9,13.5-6.4
		c0.1-0.2,0.6-0.2,0.9-0.2c2.6-0.3,4.7-0.4,6.9-3.1c1.4-1.7,5.6-2.2,8.6-3.6c5.6-2.6,9.7-8.7,16.9-7.6c1.9-3.7,6.6-4.3,8.7-7.6
		c1.1-1.8,2.3-2.8,4.4-2.7c2.2,0.1,3.5-1.8,4.4-3.2c2.4-3.4,5.7-5.1,9.2-6.7c2.3-1,2.9-3.5,4.7-5.1c5.2-4.5,7.7-11.5,13.3-16.1
		c2.1-1.8,4.6-3.8,6.3-6c2-2.6,2.6-6.1,5.3-8.6c3.1-2.7,3.7-7.1,6.2-10.5c1.8-2.4,3.1-6.1,3.9-9.4c0.7-3,2.2-3.7,4.8-3.7
		c3.1,0,6.3,0,9.4,0c1.9,0,4.8,0,4.8,1.7c0,1.7-0.8,4.5-2.9,5.5c-1.1,0.5-1.7,0.7-2.1,2c-1.1,4.6-2,9.2-6.4,12.5
		c-1,0.8-2.2,3.6-2.5,5.7c-1.1,6.7-6,10.5-10.7,14.3c-1.5,1.2-1.8,3-2.4,4.1c-3.2,6.7-9.9,10.5-13.7,16.5c-2.4,3.8-6.7,5.5-8.7,9.5
		c-0.3,0.6-1.3,1.2-1.9,1.1c-2.9-0.6-4.1,1.5-4.7,3.4c-1.4,4.4-6.2,3.6-8.8,6.4c-3.6,3.9-8.3,6.6-12.3,10.1c-1.4,1.2-3,0.4-4.3,1.4
		c-4.1,3.1-8.9,5.1-13.4,7.5c-3.6,1.9-8.4,1.1-11.5,5.3c-1.6,2.2-6.8,2.5-10.2,3.2c-5.2,1.1-9.2,5.6-14.8,5.1
		c-4.5-0.4-8.9,1.4-12.9,2.7c-20.1,6.6-40.6,2.2-60.8,3.1c-4.4,0.2-10.9-4.4-11.4-7.4c-0.7-4.6,3.6-9.7,8.5-9.8
		C236,417.2,245.9,417.3,255.8,417.3C255.8,417.3,255.8,417.3,255.8,417.3z"/>
	<path class="st0" d="M253.6,469.3c-4.9,0-9.8,0.2-14.6-0.1c-3.1-0.2-6.7,1.1-8.8-2.7c-0.2-0.3-1.2-0.4-1.8-0.4
		c-10.8,0.4-21.2-2.8-31.9-3.7c-2.3-0.2-4.7-0.1-6.1-2.7c-0.3-0.5-1.4-0.9-2-0.8c-5.3,1.1-10.2-1.9-14-4c-7.3-4-15.8-4.6-23-9.4
		c-4.7-3.1-10.5-5.7-15.8-8.3c-3.4-1.7-5.7-5.7-9.5-6.9c-5.9-1.8-8.6-7.7-14.3-10.3c-3-1.4-6.5-5-9.3-8.3c-2.5-2.9-5.4-6.7-9.6-8.4
		c-1.8-0.8-3.5-2.3-3.8-4.4c-0.4-2.8-4.7-3-3.7-7c0.9-3.6,2.1-5.5,5.9-5.8c5.3-0.4,8.6,2,12.4,5.8c3.8,3.9,8.5,7.7,12.1,11.6
		c3.4,3.7,10.6,2.8,11,9.7c0.1,1.6,3,0.6,4.5,1.8c5.2,4.1,11.4,6.8,16.1,11.9c2.1,2.3,6.6,1.2,9.7,3.5c5.9,4.2,12.8,6,19.5,8.5
		c5.4,2,11.2,3.1,16.7,4.9c5.1,1.7,10.1,3.9,15.4,5.3c18.7,4.9,37.4,2.6,56.1,3.2c6.9,0.2,13.9-0.6,20.9-0.3
		c3.1,0.1,4.7-2.4,7.2-2.9c3.5-0.7,7.2-0.5,10.8-0.6c4.5-0.1,7.4,2.1,7.7,5.7c0.4,5.3-1.6,8.1-5.9,9.5c-5.8,1.9-11.6,1.8-17.5,2.2
		c-4.3,0.3-9-1.4-12.6,2.8c-0.7,0.8-2.7,0.5-4.1,0.5C265.3,469.3,259.5,469.2,253.6,469.3C253.6,469.3,253.6,469.3,253.6,469.3z"/>
	<path class="st0" d="M224.9,215.9c1.6,0,3.1,0.1,4.7,0c8.1-0.4,15.6,1.1,21.5,7.3c4.4,4.6,7.5,10.1,11.6,15
		c5.6,6.7,2.8,14.6,4,21.9c1,6.3-3.2,10.4-5.1,15.5c-0.9,2.5-0.5,5.6-3.2,7.8c-2.3,1.9-4.5,4-6.7,6c-3,2.7-7.5,2.2-10.2,5.9
		c-1.5,1.9-5.7,3-8,3.3c-8.4,1.1-17.7,2.7-25-2.8c-5.3-4-11.6-6.7-15.7-12.8c-2.8-4.1-6.1-7.6-6.3-12.7c-0.2-4.3-4.7-7.1-3.7-12
		c0.6-3,0.1-6,2-9.2c2-3.4,2-8,2.9-12.1c0.2-1-0.3-2.6,0.9-3c6-1.7,6.7-9.7,13.1-10.9C207.3,213.9,216.6,216.7,224.9,215.9z
		 M249,257.3c-0.2-4.7-1.5-8.8-3.1-13.1c-2.5-6.7-9.6-5.7-12.3-10.7c-8.4-0.6-16.8-1.1-24.2,4.2c-0.2,0.2-0.5,0.4-0.6,0.7
		c-0.6,3.4-2.9,5.8-4.7,8.6c-2.3,3.6-4,7.3-3.2,11.7c0.9,5.2,2,10.2,6.2,14.3c4.5,4.3,9.5,7.5,15.2,8.9c6.5,1.6,11.4-2.9,16.6-6.2
		C245.8,271.3,250.2,265.8,249,257.3z"/>
	<path class="st0" d="M313.1,216.1c9.8,0,19.5,0.1,29.3,0c2.5,0,3.9,0.6,3.6,3.4c-0.5,4,1.1,8.2-2.1,12.1c-1.8,2.2-4.7,4.2-6.3,4.9
		c-4.3,1.8-5.2,6.3-8.6,8.6c-2.1,1.4-0.4,5.3,2.4,5.9c3.5,0.8,5.8,2.6,8.4,5.4c2.8,2.9,5,6.1,7.5,9.2c2.8,3.6,2.6,9.9-0.6,13.3
		c-1.3,1.4-1.9,3.5-2.5,5.3c-1.8,4.9-5.4,7-9.7,9.3c-11.2,5.8-23.2,7.1-35.2,5.3c-3.9-0.6-9-0.9-12.4-5.2c-1.5-1.9-5.4-2.4-8.2-3.8
		c-2.5-1.3-1.8-2.9-2.1-4.5c-0.3-1.5,0-2.9,2.1-2.8c2.8,0.2,1.5-2.7,3.1-4c4.8-3.8,9.4-3,14.1-0.8c2,0.9,4.9,0.9,5.7,4
		c0.1,0.5,1.9,0.7,3,0.7c3.3,0.2,6.6,0,9.9,0.4c7.1,0.9,10.1-4.3,13.7-8.6c0.3-0.3,0.1-1.6-0.1-1.6c-2.6-0.9-2.5-3.4-3.3-5.3
		c-0.5-1.2-1.2-1.7-2.3-2c-6.5-2-12.9-4.2-19.9-3.4c-1.5,0.2-4.5,1.7-4.5-0.2c-0.1-3.5-4.4-6.1-1.7-10c1.6-2.2,2.9-3.9,5.8-4.9
		c3.8-1.4,6.5-5,9.2-8.2c0.5-0.6,0.7-1.3,1.6-1.4c1.7-0.1,3.4-0.7,2.9-2.8c-0.5-2-2.5-1.6-4-1.6c-9,0-17.9-0.2-26.9,0.1
		c-3.3,0.1-4.4-1.1-4.7-4.1c-1.2-12.6-1.2-12.6,11.2-12.6C298.6,216.1,305.9,216.1,313.1,216.1z"/>
	<path class="st0" d="M97.6,231.6c2.8-0.5,1.6-4.5,4.9-5.9c4.8-2.1,9.4-4.8,14.2-7.2c10.8-5.2,21.7-2.3,32.4-1.8
		c4.6,0.2,9.4,3.6,13.3,7.5c9.1,9.3,8.2,22.5,2.7,32.1c-1,1.8-3,5.3-6.7,5.5c-1.2,0.1-2.2,1.3-3.3,2.3c-2.1,2-3.7,5.1-7.5,4.6
		c-0.5-0.1-1.5,0.3-1.7,0.7c-1.8,5.5-7.3,6.5-11.3,9.2c-1,0.6-1,1.6-0.7,2.5c0.5,1.6,1.9,1.5,3.1,1.5c8.7,0,17.3,0,26,0
		c1.3,0,2.6-0.2,3.8,0.1c3.4,0.6,5.5,2.1,5.5,6.2c-0.1,10.3,0.1,10.3-10,10.3c-19.4,0-38.7,0-58.1,0c-7.9,0-7.9,0-7.9-7.6
		c0-1.7,0-3.5,0.1-5.2c0.1-2.2,0.9-3.9,3.6-3.9c1.6,0,2.4-1.8,3.4-2.4c4.9-3,8.9-7.3,14.5-9.1c5.9-1.9,9.5-7,13.9-10.8
		c2.6-2.3,5.4-5.1,8.6-6c5.8-1.6,6.3-6.3,7.2-10.5c1-4.6,0.1-8.9-5.5-10.8c-2.1-0.7-3.3-2.8-6.1-3c-7.9-0.7-14,2.5-18.9,8.1
		c-2.8,3.2-5.5,2.6-8.5,0.8C105,236.7,100.1,236,97.6,231.6z"/>
	<path class="st0" d="M193.6,189.1c1.6-10.9,2-22.1,5.8-32.6c0.9-2.6,1.1-5.6,0.8-8.4c-0.6-6.9,2-13.4,4.4-19.2
		c2.1-5,2.1-11.2,5.9-14.9c5.3-5,3.1-12.1,6.6-17.6c1.3-2.1,2.9-4.2,4.1-6.4c3.7-6.5,7.7-12.9,12-19.1c2.8-4,6.4-7.6,9-12
		c3.2-5.4,7-10.5,11.6-15.1c3.1-3.1,6-6.8,9-9.9c2.8-3,5.5-6.4,9-8.8c1.6-1.1,3-2.7,4.2-4.3c2.5-3.1,4.9-6.3,7.3-9.4
		c3.3-4.4,7.9-3.2,12.3-2.9c0.9,0.1,1.3,0.7,1.4,1.5c0.6,4.8,1.8,10.4-2.2,13.6c-3.3,2.7-6.1,5.7-9,8.7c-3.5,3.6-8,6.2-9.8,11.4
		c-1.3,3.7-5.3,5.3-7.6,8.5C265.8,56,262,59,259,62.7c-1.7,2.1-3.4,3.7-3.7,6.4c-0.1,1-1,1.1-1.8,1.1c-2.2,0.1-3.1,1.3-3.7,3.5
		c-0.9,3.9-4.9,6-6.2,10.2c-1.7,5.6-5.4,11.1-9.1,15.2c-3.9,4.3-3,9.4-5.7,13.8c-2,3.2-4.5,7.3-5.3,12c-0.7,4.2-1.5,9.3-5.2,12.6
		c-0.5,0.5-0.6,1.4-0.8,2.2c-1.1,7.7-4.5,15-3.7,23.1c0.2,2,0.8,4.8-2.6,5.7c-1.1,0.3-0.6,2.3-0.7,3.5c-0.2,7.6-0.3,15.1-0.4,22.7
		c-0.2,6.9-0.8,7.5-7.4,7.5c-9.5,0-9.5,0-9.3-9.7C193.6,191.3,193.6,190.2,193.6,189.1z"/>
	<path class="st0" d="M162.1,178.4c0-4.1-0.2-8.2,0.1-12.3c0.2-3.4-0.9-7.3,2.9-9.6c0.3-0.2,0.4-0.9,0.4-1.3
		c-0.7-8.2,4.3-15.6,3.5-23.9c-0.2-1.6,0-3.2,1.6-4.1c1.7-0.9,1.9-2.3,1.8-4c-0.1-4.9,0.4-10.4,3.6-13.6c3.3-3.3,2.4-7.8,5.4-10.7
		c1.1-1.1,1.1-2.6,1.1-4c-0.2-7.8,4-13.2,9.6-17.9c1.3-1.1,1-2.6,1.1-3.9c0.4-4.4,2.4-7.3,6-10.1c1.9-1.4,3.4-4.8,4-7.4
		c1-4.4,6.5-6.3,5.8-11.5c-0.1-0.8,1.5-1.4,2.7-1.4c0.9,0,2.1,0,2.1-1.3c0-5.7,4.8-8.5,8-12c2-2.2,4-4.4,5.5-6.8
		c3.2-5,8-8.4,11.6-12.9c2.3-2.8,9.1-2.3,11.5,0.3c2.7,2.9,1.9,8.2-1.7,12.2c-4.8,5.3-9.9,10.1-14,16.1c-4.2,6.2-9,11.9-13.6,17.8
		c-3.3,4.3-5.1,8.9-7.6,13.3c-2.8,5-5.3,10.4-9.1,15c-2,2.4-4.8,5.3-4.4,9.5c0.2,1.8-0.5,3.9-2.7,5.7c-2.1,1.7-4.1,5-3.9,8.6
		c0.1,1.7,0.6,4.4-2.6,4.7c-0.3,0-0.6,0.7-0.7,1.1c-0.8,3.6,0.5,7.8-3.5,10.3c0.3,9.6-4.8,18.2-5.1,27.9c-0.1,5.3-0.5,12-2.8,16.5
		c-4.5,8.7-2.4,17.4-3,26.1c-0.3,3.3-1.1,4.3-4.4,4.2c-11.2-0.4-9.6,1.8-9.7-9.7c0-3.6,0-7.2,0-10.9
		C161.8,178.4,162,178.4,162.1,178.4z"/>
	<path class="st0" d="M228.4,188.2c1.2-6.6,3.7-15.7,3.1-25.2c-0.1-1.2,0.4-2.1,1.7-2.5c2-0.5,1.9-2.6,1.4-3.4
		c-2-2.9,0.1-5.6,1.1-7.1c2-2.9,1.9-5.8,2.6-8.8c1.2-5.4,3.4-10.5,6-15.4c0.6-1.1,0.6-2.1,0.8-3.1c0.3-1.6-0.2-3.7,2.5-3.7
		c0.3,0,0.8-0.3,0.8-0.5c-0.9-7.2,5.9-11.1,7.5-17.3c0.8-3.1,3.8-5.1,4.9-8.3c1.3-3.9,4.4-7.7,7-10.3c4-4,6-9.7,11.2-12.6
		c2.1-1.2,1.4-4.4,3.2-6.3c1.7-1.9,3.8-3.5,5.3-5.6c6-7.9,12.8-15,19.7-22.1c2.7-2.8,5.4-5.9,8.2-8.8c3.3-3.6,7.9-2.5,11.9-1.7
		c3,0.6,2.1,4.1,2.1,6.4c-0.1,3.2,0.3,6.3-4.3,8c-2.7,1-6.1,4.2-6.9,8.2c-0.4,2.2-2.6,3-3.8,4c-4.6,4-8.7,8.4-12.1,13.4
		c-3.8,5.7-9.6,9.6-13.6,15.2c-3.3,4.7-8.9,8.3-10.9,13.1c-2.4,5.9-9.3,9.5-8.4,16.8c-3.6,2.1-1.7,7.5-6,9.5
		c-1.5,0.7-1.2,3.6-1.9,5.5c-1.8,5.2-5.4,9.6-6.2,15.4c-0.4,2.7-2.6,5.4-3.7,8.4c-1.8,5-1.6,10-2.6,15c-0.8,3.7,0.2,7.7-3.2,10.7
		c-0.7,0.6-0.4,2.4-0.4,3.7c-0.2,6.5-0.3,12.9-0.4,19.4c0,2.8-1,4.5-4.2,4.1c-0.3,0-0.6,0-0.9,0
		C228.2,202.4,228.2,202.4,228.4,188.2z"/>
	<path class="st0" d="M246.5,503.7c-6.3,0-12.8,1-18.8-0.2c-10.1-2-20.4-2.4-30.2-5.7c-0.7-0.2-1.6-0.5-2.3-0.4
		c-5.5,1.1-6.4-4.1-8.3-7c-1.5-2.4-0.1-5.7,2.9-7.3c1.2-0.7-0.5-3.1,2.3-3c3.1,0.1,6.3-0.5,9.2,1.2c4.1,2.5,8.7,2.6,13.3,2.6
		c2.4,0,4.9-0.6,7,1.7c0.7,0.8,2.7,0.7,4,0.7c19.2,0.4,38.4,0.9,57.6-0.3c8.5-0.5,16.9-3,25.5-3.2c4.5-5.8,12.7-1,17.4-6.2
		c8.3,0.5,14.3-5.9,22-7.7c2.3-0.5,5.7-2.3,8.2-4.1c3.6-2.6,7.3-2.4,11.2-1.9c5.4,0.7,6.5,5.1,4.5,10c-1.9,4.6-6.7,3.5-9.3,6.6
		c-2.7,3.2-7.3,5-11,5.9c-6.6,1.6-12.4,5.1-19.3,6.2c-5,0.8-10.7,0.6-15.1,2.8c-10.8,5.6-22.2,6.5-33.7,6.2
		c-4.4-0.1-7.2,3.1-11.1,3.1C263.8,503.6,255.1,503.6,246.5,503.7C246.5,503.6,246.5,503.6,246.5,503.7z M199.9,498.5
		c-0.1-0.2-0.2-0.4-0.3-0.6c-0.1,0.1-0.3,0.2-0.3,0.3c0,0.2,0.2,0.4,0.3,0.6C199.7,498.7,199.8,498.6,199.9,498.5z"/>
	<path class="st0" d="M246.5,399.8c-3,0-6,0.2-9-0.1c-3.6-0.3-7.5,0.8-10.7-2.7c-1.2-1.3-4.6-1-6.9-0.7c-7,0.9-13.4-2-19.5-4.3
		c-5-1.9-10.8-3-14.8-6.1c-6.4-5.1-15-6-20.6-12.6c-2.7-3.1-6.7-6.9-11.9-7c-1.2,0-1.3-1.3-1.4-2.2c-0.1-1.2-0.1-2.2-1.7-2.2
		c-3.4,0.1-4.5-2.3-5.4-4.9c-1-2.8-3.8-4-5.8-4.9c-4.5-2-6.7-5.2-8-9.5c-0.1-0.3-0.2-0.9-0.2-0.9c-6.6,0.3-4.7-7.5-9.2-9.6
		c-2-0.9-3.1-4.5-3.7-6.6c-1.1-3.9-3.9-6.1-6.1-8.9c-0.6-0.8-1.3-1.3-0.9-2.3c0.3-0.9,1.2-1,1.9-1c4.2-0.1,8.5-0.1,12.7-0.1
		c2.7,0,3.9,3,5,4.2c2.5,2.7,5.4,5.8,6.9,9.3c1.3,3.3,4.2,5.2,5.8,7.7c2.4,4,9.2,4,8.8,10c-0.1,1.2,1.2,1.4,1.9,1.8
		c3.6,1.8,5.7,6.1,8.8,7.4c5.2,2.2,8.8,7.1,14.2,8.1c2.9,0.6,2.3,2.8,3.9,3.8c5.6,3.9,12.2,5.7,17.8,9.5c1,0.7,2.8,0.3,4.2,0.6
		c2,0.4,5-0.9,5.5,2.7c0.1,0.4,1.3,0.6,2,0.8c9.9,2.1,19.8,4.2,30,3.7c2.1-0.1,4.8-1,5.7,2.5c0.3,1,2,0.6,3,0.6
		c5.5,0.1,11,0,16.5,0.3c1.4,0.1,3.7-0.5,3.9,2.3c0.2,2.8,1.5,6.3-1,8c-2.7,1.8-5.5,4.2-9.6,3.7c-4-0.5-8.2-0.1-12.3-0.1
		C246.5,400,246.5,399.9,246.5,399.8z"/>
	<path class="st0" d="M270.2,199c-2.3-0.8-6.2,1.4-6.9-1.9c-0.8-3.9-1.2-8.4,1.2-12.2c0.5-0.7,1.5-1.1,1.4-2.2
		c-0.8-8.2,3.1-15.7,3.8-23.6c0.2-2.2-0.6-4.8,2.5-5.9c0.7-0.2,0.9-2.3,0.9-3.5c0.2-6.4,2.7-11.7,6.5-16.6c1.7-2.2,1.9-5.2,3.1-7.7
		c2.4-4.9,6.5-8.9,7.7-14c0.8-3.5,4.3-2.7,5.8-5.7c3.5-7,9-12.8,14.8-18.3c5.1-4.8,9.2-10.5,14.2-15.3c3.3-3.2,4.4-8.3,7.6-10.7
		c4.6-3.5,7.3-9.2,13-11.2c3.8-1.3,7.5-0.2,9.6,3.1c2.3,3.7,0.2,7.1-2.3,10.1c-3.6,4.3-6.4,9.6-10.7,13c-4.4,3.4-7.8,7.5-11.2,11.5
		c-3.2,3.7-7.8,6.3-9.6,11.4c-0.8,2.2-3.2,4.1-5,5.5c-4.4,3.3-6.3,7.8-9.1,12.1c-1.9,2.9-3.5,6.4-6.1,8.4c-3.8,3.1-4.2,7.6-6.4,11.3
		c-3.7,6.3-5.5,13.3-8.2,20c-4,9.9-6.5,19.8-6.3,30.3c0.1,4.3-3.4,6.9-3.8,11C276.3,200.1,272.4,198.4,270.2,199z"/>
	<path class="st0" d="M304.2,199.3c-8.3,0-6.9,0.3-6.7-6.7c0.1-3.2-1.3-7,3-8.9c0.2-0.1,0.3-0.9,0.3-1.3c-0.1-4.3,0-8.5,1.4-12.6
		c1.8-5.4,0.9-11.7,6-15.8c0.8-0.7,1.2-2.1,1.4-3.3c1.5-7.3,8.5-12,9-19.7c0.1-2.2,2.6-1.5,3.8-3.3c3.1-5.2,7.5-9.8,11.7-14.2
		c1.5-1.5,3-2.6,3-4.9c0-0.3,0-0.8,0.2-0.9c4.4-1.6,5-7.3,8.8-9c3.8-1.6,5.3-4.6,7.2-7.7c1.9-3.1,4.2-6,8.1-6.3
		c8.4-0.8,11.7,3.9,9,12.1c-0.7,2.3-3,0.7-3.7,2c-2.6,4.9-7.9,7.6-10.2,12.7c-0.8,1.7-2.7,0.6-3.7,2.3c-3.3,5.9-7.3,11.2-13.3,14.7
		c-0.3,0.2-0.6,0.4-0.6,0.7c-1.2,6.8-6,11.7-10.1,16.7c-2.3,2.9-3,6.4-5.3,9.1c-0.3,0.3-0.6,0.7-0.7,1.2c-1.9,8.5-6.6,16.1-7,25.1
		c-0.2,4.7-1.3,9.5-1.4,14.4c-0.1,3.7-3.2,3.2-5.4,3.7C307.5,199.6,305.8,199.3,304.2,199.3z"/>
	<path class="st0" d="M332.1,443.5c-1.6-7.1,5.3-6,8.1-8.7c2.6-2.5,6-4.3,9.7-5c5.9-1.2,9.8-5.8,14.6-8.7c5-3,10-6.4,15-9.3
		c6-3.6,9.9-9.4,16.5-12.5c3.2-1.5,7.9-4.7,9.1-9.7c0.1-0.6,0.5-1.4,0.9-1.6c5.3-2,6-8.5,9.8-11c4.6-3,6.5-10.3,14.2-8.8
		c3.3,0.6,4.2,3.1,5.5,4.9c1.1,1.5,0.9,4.4-0.7,6.5c-3.1,4.1-5.3,9.2-9.2,12.3c-4.4,3.5-8.1,7.6-11.9,11.5c-2.9,3.1-6.8,5.2-9.1,9.2
		c-1.2,2.1-4.3,2.5-6.5,4c-2.1,1.5-3.6,3.5-5.5,4.9c-4.3,3.2-9.1,5.8-13,9.4c-4.3,4-9.9,5.7-14.4,9.2c-2.7,2.1-6.5,4.9-10.9,4.7
		c-4.2-0.2-6.3,3.9-10.1,5.1c-2.6,0.8-5.5,2.5-7.3,1C334.6,449.2,329.7,448.1,332.1,443.5z"/>
	<path class="st0" d="M332.1,192.6c-1.3-7.1,4.3-13.5,5.6-21c0.2-1.3,1-2.8,1.3-4.3c0.2-1.5-0.1-3.1,2.3-3.4c1.8-0.2,1.2-2,1.3-3.1
		c0.6-4.4,2-8.2,6-10.9c1.4-0.9,1.4-3.6,2.4-5.3c2.2-3.8,5.9-6.3,8.8-9.4c6.4-6.9,13.4-13.2,18.8-21.1c2.7-3.9,7.2-2.7,11-2
		c2.9,0.6,2.2,3.6,2.5,5.8c0.8,7.6-5.1,11.6-9.6,15.8c-3.5,3.4-5.7,7.7-9.3,10.9c-0.4,0.4-0.6,1.4-1,1.4c-5,0.6-6.5,5.5-8,8.5
		c-2.7,5.5-6.5,10.3-8.8,16.2c-3.1,8.2-5.8,16.2-6.6,25c-0.2,3-2.8,6.1-6.9,6.2c-0.6,0-1.3,0-1.9,0
		C331.9,201.8,331.9,201.8,332.1,192.6z"/>
	<path class="st0" d="M273.9,365.3c-8,0.2-11.7-3.6-11.2-10.3c0.3-3.7,4-5.4,5.6-6c3.4-1.4,7.5-2.7,11.6-1.7c0.9,0.2,2,0.4,2.8,0.1
		c4.7-2.4,10.9-1.7,14.4-6.6c1.7-2.5,4.8-2.3,6.8-2.4c4.8-0.2,7.1-4.1,10.6-6c4.7-2.5,8-6.8,13.2-9.2c2.8-1.3,5.9-5,8.1-8.2
		c0.9-1.3,1.6-1.7,2.8-1.7c5,0,10.1,0,15.1,0.1c1,0,2.3-0.2,2.6,1.3c0.2,1.3-0.7,1.6-1.7,2.3c-4.2,3-6.2,7.9-10.3,11.2
		c-4.8,3.9-9.5,8.2-13.8,12.7c-3.6,3.8-8.2,5.2-12.5,7.6c-5.1,2.7-10.1,5-15.5,7c-1.8,0.7-4.3,2.3-6.2,3.9c-2.3,1.9-4.8,2.1-7.5,2.2
		c-3.1,0.2-6,0.3-8.6,2.8C278.4,366,275.6,364.8,273.9,365.3z"/>
	<path class="st0" d="M68.4,299.9c0.6-2.5-1-5.7,1.4-7c3.4-1.8,7.4-0.8,11.1,0c1.2,0.3,1.1,1.4,1.3,2.2c1,4.6,2.9,9,4.1,13.6
		c0.9,3.5,3.4,7,4.9,10.6c2.1,4.8,4.8,9.2,8.1,13.2c5.6,6.7,8.7,15.3,15,21.1c5.1,4.7,7.3,9,6,15.5c-0.3,1.5-0.2,3.2-2.5,3.2
		c-2.6,0-5.9,1.4-7.3-1.1c-1.1-1.8-2.1-2.1-3.7-2.7c-3.5-1.4-4.6-5.3-7.1-7.8c-2.4-2.4-3.5-6-6.3-8.3c-1.7-1.4-2.8-3-3.2-5.4
		c-0.5-2.6-0.6-6.3-5-6.5c-1.1,0-1.5-1.5-1.5-2.7c0.2-4.2-3.7-6.5-4.6-10c-1-3.9-3.7-6.2-5.7-9.3c-1.8-2.7-3.7-6.4-4.2-10
		C68.8,305.8,68.7,302.8,68.4,299.9z"/>
	<path class="st0" d="M221.9,313.2c4.6,0,9.1-0.1,13.7,0c3.1,0.1,6,1.3,8.9,2.1c6,1.5,12.6,3.3,18.5-1c0.6-0.4,1.5-0.5,2.2-0.6
		c13-1,26.1-0.7,39.1-0.2c1.1,0,3.3-0.8,3.3,1.5c0.1,2.3-2.1,1.3-3.2,1.8c-3.6,1.6-7.9,1.9-9.8,6.2c-0.1,0.2-0.5,0.6-0.7,0.6
		c-5.5-0.6-9.5,4.5-15.3,3.9c-3.2-0.3-7.2-1-9.6,3c-0.3,0.6-2.1,0.4-3.1,0.4c-6.3,0.1-12.6,0.2-18.9,0.1c-4.2-0.1-8.7,1-12.3-2.7
		c-0.6-0.6-2.1-0.7-3.1-0.6c-5.1,0.3-10.3-0.8-14.2-3.3c-4.3-2.8-9.6-3.5-13.5-7c-0.8-0.7-2.8-0.8-1.9-2.6c0.6-1.3,1.9-1.5,3.2-1.4
		C210.9,313.2,216.4,313.2,221.9,313.2C221.9,313.2,221.9,313.2,221.9,313.2z"/>
	<path class="st0" d="M373.8,202.1c-2.2-1-5.4,1.3-6.3-1.8c-1.2-4-1.7-8.5,1-12c1.1-1.4,1.8-2.7,1.6-4c-0.4-4.7,1.3-10.2,3.9-11.9
		c4.9-3.1,3.6-10.5,9.7-11.9c0.4-0.1,0.4-1.7,0.7-2.6c0.3-1.2,0.7-2.7,1.9-3.2c6.7-2.7,9.7-9.4,14.9-13.5c2.1-1.6,3.1-4.6,5.9-5
		c2.5-0.3,5.5-1,7,1.9c2,4,2.1,8.5-0.7,11.8c-4.4,5.2-10.2,9.3-14.1,14.8c-2.8,3.9-8.3,6-8.5,11.7c-4.8,0.9-2.3,6.7-5.8,8.5
		c-1,0.5-0.8,1.8-0.6,2.6c1,5.3-2.4,9.1-4.5,13.2C378.9,203.3,375.8,201,373.8,202.1z"/>
	<path class="st0" d="M189.2,424.1c-4.4-0.6-10.1-3.4-15.8-5.9c-2.5-1.1-5.3-1.7-7.8-3.6c-2.7-2.1-5.3-4.9-9-5.8
		c-0.7-0.2-1.3-1-2-1.1c-6-0.9-10.1-5.5-15-8.3c-2.4-1.4-5.3-3.9-6.6-7.1c-1.1-2.6,2.4-9.4,5.2-9.6c2.3-0.1,4.7,0,7,0.1
		c0.7,0,2.1,0.3,2.1,0.6c1,5.4,6.3,4.2,9.5,6.3c0.8,0.5,1.3,0.9,1.9,1.5c3.9,3.8,7.9,7.1,13.3,9c3.9,1.4,7.9,2.7,11.5,5.6
		c2.6,2,7,2.9,10.6,4.3c1.8,0.7,6,5.3,6.1,6.7C200.5,421.3,196.8,424.2,189.2,424.1z"/>
	<path class="st0" d="M297.4,393.3c-6.3,0-10.1-2.9-9.2-7.7c0.5-2.6,1.4-5.8,5.2-6.1c1.7-0.1,4,0.3,4-2.7c0-0.3,0.7-0.8,1-0.8
		c4.9,0.6,8.4-3.3,13.1-3.8c4.2-0.5,8.1-3.3,12.2-5c5.7-2.5,9-8.8,15.9-9.3c2.2-0.2,8.4,1.6,9.4,4.1c1.3,3.2,1.3,7.1-1.6,9
		c-2.9,1.9-5.3,4.8-9.2,5.2c-2.7,0.3-4,3.3-6.9,4.2c-4.9,1.6-9.3,4.5-14.1,6.5c-2.6,1.2-5.5,1.8-8.3,2.7c-1.8,0.5-3.6,0-4.8,2.6
		C303,394.4,299.5,392.8,297.4,393.3z"/>
	<path class="st0" d="M373.9,278.6c2.4-0.4,5.1,0.9,6.9-2.5c0.9-1.8,4-1.2,5.7-0.5c2,0.9,0.8,2.6-0.3,3.9c-0.7,0.9-1.2,2.3,0.4,2.6
		c1.5,0.3,3.6,1.1,4.5-1.1c0.4-1,0.2-2.3,1.9-2.1c1.3,0.2,1.1,1.3,1.3,2.2c0.4,2.2,1.6,1.9,3.4,1.7c2.5-0.3,5.2-1.4,7.8,0.2
		c1,0.7,1.8,0,2.4-0.7c4.5-4.9,6.1-5,10.4-0.4c0.2-0.2,0.5-0.3,0.7-0.6c0.9-1.9-1.8-5.2,1.6-6c3.6-0.8,6.8,0.9,8.5,4.3
		c0.7,1.4,1,2.2,2.7,2.6c1.3,0.3,2.1,1.3,1.5,3.2c-1.2,3.7-4.2,5.6-8.2,4.5c-1.3-0.4-2.8-0.1-2.6,1.6c0.8,6.7-5.7,6.7-8.6,7.1
		c-4,0.4-8.1,1.5-12.3,1c-3.1-0.3-4-1-3.8-4.2c0.2-2.4,1.6-6.8-1.5-6.9c-3.4-0.1-1.2,4.3-1.7,6.6c-0.5,2.7-0.4,5.7-4.1,2.1
		c-0.5-0.5-1.5-0.4-2.3-0.5c-3.1-0.1-4.7-1.3-3.8-4.7c0.6-2.4-0.9-4.3-2.9-2.9c-2.9,2.2-5.7,0.8-7.1-0.6c-1.8-1.8-2.9-5-0.2-7.8
		C374.3,280.4,373.9,279.3,373.9,278.6L373.9,278.6z"/>
	<path class="st0" d="M143.1,133.1c-5,1.9-6.2-3.2-8.4-5.4c-1.5-1.5-1.5-6,1.9-8.1c0.3-0.2,0.8-0.7,0.8-1.1
		c-0.4-6.5,2.3-12.3,3.8-18.4c0.4-1.6,5.2-11.2,6.1-12.3c3-3.7,7.3-4.4,11-2.5c4.3,2.2,4.2,8.9,2,13.8c-2.2,4.8-5.8,9.1-5.6,15.2
		c0.1,4.5-3,8.7-3.5,13.5C150.9,129.2,148.2,134.7,143.1,133.1z"/>
	<path class="st0" d="M144.7,166.5c-4.9,10.5-3,21.8-3.8,32.7c-0.2,2.2-0.9,3.1-3.1,2.9c-3-0.2-6,0.1-9-0.1c-2-0.1-2.8-0.5-2.3-3.5
		c1-6.3,0.5-12.8,0.7-19.3c0-2.5,0.5-5.1,0-7.5c-1.4-6.3,2.7-11.1,4.3-16.5c0.6-2.1,7.8-1.6,9.6,0.1
		C144.3,158.5,145.2,162.1,144.7,166.5z"/>
	<path class="st0" d="M202.5,338.9c4.8,0.2,8.8,2.4,13.1,4.5c5.1,2.4,10.8,4.2,16.7,4.6c7.3,0.5,11.2,5,9.9,11.2
		c-1,5-9.5,8-13.4,4.6c-0.6-0.6-0.8-2-1.9-1.7c-6.3,1.4-11.4-2.8-17.2-4c-4.5-1-9.1-3.7-12.5-7c-2.4-2.4-1.3-7-0.5-10.4
		C197.4,337.7,200.5,339.4,202.5,338.9z"/>
	<path class="st0" d="M365.5,351.3c-1.6-0.8-5,1.4-5.3-2.4c-0.3-3.9-3.1-8.1,1.9-11.4c1.7-1.1,2.9-3.5,4.1-5.4
		c3-4.7,6-9.3,10.5-12.7c0.1-0.1,0.2-0.2,0.3-0.4c2.2-9.7,10-5.2,15.4-5.5c4.2-0.2,2.1,4.5,1.3,5.7c-1.1,1.5-1.8,3.4-3.1,4.7
		c-3.4,3.5-5.3,7.7-6.6,12.2c0,0.2,0,0.4-0.1,0.4c-6.3,0.7-4.6,9.4-10.2,10.3C370.3,347.5,370.3,353.5,365.5,351.3z"/>
	<path class="st0" d="M132.8,458.7c2.5,0.3,5-0.5,7,2.4c1.1,1.6,4.4,2.1,6.8,2.4c2.2,0.3,3.9,0.9,5.2,2.6c1.9,2.4,4.3,3.3,7.3,3.3
		c3.1,0.1,5.1,2.6,6.2,4.7c1.3,2.3,0.5,5.4-1.8,7.7c-1.2,1.2-2.3,1.7-3.7,1.5c-4.5-0.5-8.7,0.3-13.3-3c-2.7-2-7-4.5-11.6-4.4
		c-3.6,0.1-7.9-5.8-8-9.6c0-0.6,0-1.3,0-1.9C126.5,458.8,126.5,458.8,132.8,458.7z"/>
	<path class="st0" d="M410.5,198.9c-2.2,0-3.6,0-5,0c-3.9-0.1-6.3-3.9-3.5-5.8c3.4-2.4,3.1-6.2,5.6-8.7c3.4-3.5,7.1-6.5,10.8-9.6
		c1.9-1.6,2.7-3.9,6.1-4.3c4.6-0.5,5.5,3.5,7.8,5.3c1.4,1.1,0.7,4.9-2.2,7.1c-2,1.5-4,3.9-4.5,6.8c-0.1,0.9-0.4,1.6-1.4,1.5
		c-3.2-0.3-3.9,2.1-4.6,4.3C417.8,201.1,413,197.8,410.5,198.9z"/>
	<path class="st0" d="M374,278.5c-0.6,0-1.3,0.1-1.9,0c-2.5-0.2-1.2,3.1-3.2,3.4c-2.7,0.3-1.5-2.3-2.5-3.3c-1.2-1.2-2.8-2.5-3.1-4
		c-1.4-5.9-4.7-11.5-3.5-18c0.3-1.9,0.6-2.1,2.7-2.3c3.8-0.4,7.5,0.2,11.2-0.2c3.5-0.4,5,1.1,4.8,4.4c-0.1,2.5,0.4,4.7,1.6,7
		c1.9,3.6-0.3,8.3-4.4,9.9C373.8,276.2,373.8,277.2,374,278.5C373.9,278.6,374,278.5,374,278.5z"/>
	<path class="st0" d="M161.8,313.2c4.4-0.6,8.3,1,12.5,5.1c3,2.9,5.6,4.5,5.4,9c-0.1,2.5-0.5,5.6-2.2,6.4c-3.4,1.5-7.9,1.6-10.9-0.7
		c-4.7-3.8-8.9-8.3-12.5-13.2c-1.2-1.6-3.1-3.1-2.2-5.3c0.9-2.2,3.3-1,5-1.2C158.2,313.1,159.5,313.2,161.8,313.2z"/>
	<path class="st0" d="M428.9,265.3c-0.5-1.3-1.1-2.5-1.6-3.8c-1-2.5-0.9-4.3,2.5-4.2c1.2,0,2.8,0.1,2.5-1.8
		c-0.2-1.6-1.8-1.4-2.6-1.1c-2.2,0.7-5.5-0.4-4.8-1.4c1.4-2.1-0.6-4.9,2.5-6.8c2.1-1.3,4.5-2.5,6.4-4.4c0.7-0.6,1.5-1,1.7-2.1
		l0.1-0.1c7.2,0.4,9.5,3.9,6.9,10.7c-0.6,1.4-0.8,2.3,0.2,4c1.6,2.7,0.9,6.1,0.5,9.2c-0.3,1.9-2,1.4-3.4,1.4
		c-3.4,0-6.8-1.3-10.1,0.4C429.3,265.5,429.1,265.5,428.9,265.3z"/>
	<path class="st0" d="M379.2,230.8c-0.4-2.8-3.5-4.6-1.1-8.6c2.4-4,5.3-2.6,7.9-2.6c2.1,0,1.1,2.5,1.3,3.9c0.2,1.4-0.1,3.1,2,2.9
		c1.9-0.2,1.3-1.8,1.4-3c0-1.3,0-2.5-0.1-3.8c-0.2-1.9,0-2.5,2.4-2.9c8.2-1.5,8.2-1.7,8.2,6.3c0,1.9,0.2,3.8-0.1,5.7
		c-0.2,1.6,1.3,4.2-1.7,4.5c-2.1,0.2-5.3,1.9-5.7-2.4c-0.1-0.9-0.8-1.4-1.7-1c-1.5,0.7-0.7,2.2-0.9,3.4c-0.2,1.4,0.9,3.4-1.4,3.9
		c-1.8,0.3-3.7,0.4-4.7-1.9c-0.5-1.2-1.8-2.1-2.8-3.1c-0.5-0.6-1.1-0.4-1.7-0.3C380.2,231.3,379.7,231.1,379.2,230.8z"/>
	<path class="st0" d="M404.8,225.1c0-0.9,0-1.9,0-2.8c0-6.4,0-6.3,6.3-6.2c3.1,0.1,4.6,1,4.3,4.3c-0.1,1.1-0.5,2.8,1.2,3.1
		c1.6,0.3,2.2-0.8,2.3-2.3c0.1-2.1,1.4-1.8,3-1.9c3.8-0.2,4.1,3.8,6.5,5.3c0.7,0.4-2.4,4.9-3.4,5.2c-3,0.9-3.7,3.4-4.6,5.3
		c-1.2,2.6-2.9,2.2-4.6,1.8c-2.2-0.5-1.7-2.2-1.2-3.8c0.2-0.7,0.4-1.5,0.4-2.3c-0.1-1.6,1.1-4.1-1.2-4.3c-2.2-0.2-1.4,2.4-1.3,3.7
		c0.1,4.4-3.8,3.1-5.8,3.7c-2.6,0.7-1.7-2.2-1.9-3.7C404.7,228.5,404.8,226.8,404.8,225.1z"/>
	<path class="st0" d="M370.9,251.3c-2.8-0.2-5.6-0.3-8.4-0.5c-0.9-0.1-1.9-0.2-2.2-1.3c-0.3-1,0.1-1.8,1.1-2.2
		c1.3-0.5,2.1-1.6,2-2.9c-0.4-6,3.6-4,6-2.9c3.6,1.6,6.8,4.1,10.1,6.2c1,0.6,0.8,1.7,0.5,2.5c-0.4,1.1-1.2,1.6-2.6,1.4
		C375.3,251.3,373.1,251.3,370.9,251.3C370.9,251.2,370.9,251.2,370.9,251.3z"/>
	<path class="st0" d="M379.2,230.8c0.5,0.3,0.9,0.6,1.4,0.8c0.3,2.2-1.4,4.8,2.6,5.8c2.1,0.5,1.6,4.2,0.4,5.7
		c-1.2,1.6-5,1.3-5.5,0.2c-1.8-4.4-6.8-2.9-9.6-5.9c-2.1-2.3-1.9-2.5-0.2-4.7c3.2-4.1,6-4.7,9.5-0.7
		C378.4,231.6,378.8,231.2,379.2,230.8z"/>
	<path class="st0" d="M428.9,265.3c0.2,0.1,0.5,0.1,0.7,0.1c3.3,0.6,5.9,2.8,8.5,4.4c2.7,1.6,2,5.6,0.5,7.6
		c-1.3,1.7-4.3,1.9-6.1-0.9c-1.1-1.6-3.2-3.2-4.4-3.9C420.8,269,427.7,267.6,428.9,265.3z"/>
	<path class="st0" d="M435.3,239.8c-3.3,0.6-6.9,0.3-9.3,3.5c-0.9,1.2-3,1.2-3.6-0.1c-0.9-1.9-1.3-5.4,0.6-5.9
		c3.3-0.9,3.6-4,5.5-5.7c2.8-2.5,5.2-2.9,7.3,0.3c0.3,0.5,0.6,1.2,1,1.4c4.3,1.6,3.1,2.7-0.2,4C436,237.6,435.8,238.9,435.3,239.8
		C435.4,239.8,435.3,239.8,435.3,239.8z"/>
	<path class="st0" d="M105.2,416.2c-0.1,0-0.2-0.1-0.3-0.1c0.1-0.1,0.2-0.3,0.3-0.4c0.1,0.1,0.2,0.2,0.3,0.3
		C105.4,416,105.3,416.1,105.2,416.2z"/>
	<path class="st0" d="M199.9,498.5c-0.1,0.1-0.2,0.2-0.3,0.3c-0.1-0.2-0.2-0.4-0.3-0.6c0-0.1,0.2-0.2,0.3-0.3
		C199.7,498.1,199.8,498.3,199.9,498.5z"/>
</g>
</svg>
