<?xml version="1.0" encoding="utf-8"?>
<!-- Generator: Adobe Illustrator 24.2.3, SVG Export Plug-In . SVG Version: 6.00 Build 0)  -->
<svg version="1.1" id="Capa_1" xmlns="http://www.w3.org/2000/svg" xmlns:xlink="http://www.w3.org/1999/xlink" x="0px" y="0px"
	 viewBox="0 0 512 512" style="enable-background:new 0 0 512 512;" xml:space="preserve">
<style type="text/css">
	.st0{fill:#FFFFFF;}
</style>
<g>
	<path class="st0" d="M329,95.2c-11.2,0-20.3,9.1-20.3,20.3c0,11.2,9.1,20.3,20.3,20.3c11.2,0,20.3-9.1,20.3-20.3
		C349.3,104.3,340.2,95.2,329,95.2z M329,121.3c-3.2,0-5.8-2.6-5.8-5.8c0-3.2,2.6-5.8,5.8-5.8c3.2,0,5.8,2.6,5.8,5.8
		C334.8,118.7,332.2,121.3,329,121.3z"/>
	<path class="st0" d="M194.2,408.3l-30.9-17.8c-4.7-2.7-10.2-2.7-14.9,0c-4.7,2.7-7.5,7.5-7.5,12.9V439c0,5.4,2.8,10.2,7.5,12.9
		c4.7,2.7,10.2,2.7,14.9,0l30.9-17.8c4.7-2.7,7.5-7.5,7.5-12.9C201.7,415.8,198.9,411,194.2,408.3z M187,421.6l-30.9,17.8
		c-0.1,0.1-0.2,0.1-0.5,0c-0.2-0.1-0.2-0.3-0.2-0.4v-35.7c0-0.1,0-0.3,0.2-0.4c0.1-0.1,0.2-0.1,0.2-0.1c0.1,0,0.2,0,0.2,0.1
		l30.9,17.8c0.1,0.1,0.2,0.1,0.2,0.4C187.3,421.5,187.1,421.5,187,421.6z"/>
	<path class="st0" d="M482.4,226.1h-25.8v-51.9c0-11.8-9.6-21.5-21.5-21.5h-62.8c4.4-8.7,9.7-16.8,16-24.3l0.2-0.2
		c2.8-3.3,4.1-7.6,3.5-11.9s-3.1-8.1-6.7-10.4c-8.1-5.2-10.7-7.3-11.5-7.9c-11.7-10.1-20.3-23.5-24.9-38.6c4.8,1.4,9.9,2.1,14.9,2.1
		c12.8,0,25-4.4,34.8-12.4c9.8,8,22.1,12.4,34.8,12.4c20.4,0,39-11.2,48.6-29.1c1.9-3.5,0.6-7.9-3-9.8c-3.5-1.9-7.9-0.6-9.8,3
		c-7.1,13.3-20.8,21.5-35.9,21.5c-10.2,0-19.9-3.8-27.4-10.6c-4.2-3.9-10.6-3.9-14.9,0c-7.5,6.9-17.2,10.6-27.4,10.6
		c-6.4,0-12.8-1.6-18.5-4.5l-2.1-12.3c-1.1-6.3-5.9-11.2-12.1-12.1c-7.9-1.2-15,4.1-16.3,11.9l-2.1,12.4c-5.7,2.9-12.1,4.5-18.6,4.5
		c-10.2,0-19.9-3.8-27.4-10.6c-4.2-3.9-10.6-3.9-14.9,0c-7.5,6.9-17.2,10.6-27.4,10.6c-15,0-28.8-8.2-35.9-21.5
		c-1.9-3.5-6.3-4.8-9.8-3c-3.5,1.9-4.8,6.3-3,9.8c9.6,18,28.2,29.1,48.6,29.1c12.8,0,25-4.4,34.8-12.4c9.8,8,22.1,12.4,34.8,12.4
		c5.1,0,10.1-0.7,15-2.1c-4.6,15.1-13.2,28.6-24.9,38.6c-0.8,0.7-3.4,2.8-11.7,8.1c-3.6,2.3-6,6.1-6.7,10.3
		c-0.6,4.2,0.6,8.5,3.3,11.8l0.5,0.6c6.2,7.4,11.4,15.4,15.8,23.9H69.4c-11.8,0-21.5,9.6-21.5,21.5v215.2H23
		c-8.3,0-15.1,6.8-15.1,15.1c0,35,28.4,63.4,63.4,63.4h39.7c13.7,15.8,33.8,25.9,56.3,25.9s42.7-10.1,56.3-25.9h151.8
		c4,0,7.2-3.2,7.2-7.2c0-4-3.2-7.2-7.2-7.2H233.5c5.3-10.2,8.3-21.8,8.3-34c0-5.3-0.6-10.5-1.6-15.5h241.3c0.3,0,0.6,0.3,0.6,0.6
		c0,27-22,49-49,49h-22c-4,0-7.2,3.2-7.2,7.2c0,4,3.2,7.2,7.2,7.2h22c35,0,63.4-28.4,63.4-63.4c0-8.3-6.8-15.1-15.1-15.1h-24.9
		v-80.7h25.8c11.9,0,21.7-9.7,21.7-21.7v-39.3C504,235.8,494.3,226.1,482.4,226.1L482.4,226.1z M453.4,294.3h-14.8v-53.8h14.8
		L453.4,294.3L453.4,294.3z M324.1,294.3l0-53.8h100v53.8H324.1z M245.4,269.9c-1.5-0.5-1.8-1.8-1.8-2.5s0.2-1.9,1.8-2.5l20.1-6.9
		v18.8L245.4,269.9z M280,253.1l29.7-10.2l0,49.2L280,281.8V253.1z M280.8,119.6l-0.5-0.6c0,0-0.1-0.2-0.1-0.4
		c0-0.2,0.2-0.3,0.2-0.3c10-6.4,12.5-8.6,13.3-9.3c17-14.7,28.5-35.4,32.3-58.3l3-18c0,0,0,0,0,0l3,17.9
		c3.8,22.9,15.3,43.6,32.3,58.3c0.8,0.7,3.3,2.8,13.1,9.2c0,0,0.2,0.1,0.2,0.3c0,0.2-0.1,0.3-0.1,0.4l-0.3,0.4
		c-8.5,10.2-15.6,21.4-20.9,33.5h-54.8C296.1,140.8,289.2,129.7,280.8,119.6z M62.4,366.2h53.2c-6.8,6.6-12.3,14.5-16.2,23.3h-37
		L62.4,366.2z M71.4,453.5c-27,0-49-22-49-49c0-0.3,0.3-0.6,0.6-0.6h71.6c-1.1,5-1.6,10.2-1.6,15.5c0,12.3,3,23.8,8.3,34L71.4,453.5
		L71.4,453.5z M167.4,479.4c-33.1,0-59.9-26.9-59.9-59.9s26.9-59.9,59.9-59.9s59.9,26.9,59.9,59.9S200.5,479.4,167.4,479.4z
		 M442.1,351.8H248.7c-4,0-7.2,3.2-7.2,7.2s3.2,7.2,7.2,7.2h193.4v23.3H235.5c-11.6-26.1-37.7-44.4-68.1-44.4
		c-11,0-21.4,2.4-30.8,6.7H62.4V174.3c0-3.9,3.2-7,7-7h365.7c3.9,0,7,3.2,7,7v51.9H316.8c-2,0-4,0.4-5.9,1L267.8,242l20.5-49.3
		c1.5-3.7-0.2-7.9-3.9-9.4c-3.7-1.5-7.9,0.2-9.4,3.9l-25.4,61.1l-8.8,3c-7,2.4-11.5,8.7-11.5,16.1c0,4.5,1.7,8.6,4.6,11.7
		c-3.8,3-8.5,4.6-13.4,4.6h-15.5c-11.9,0-21.6-9.7-21.6-21.6c0-19.9-16.2-36-36-36c-14.6,0-27.7,8.8-33.3,22.3L97.6,288
		c-1.5,3.7,0.2,7.9,3.9,9.4c3.7,1.5,7.9-0.2,9.4-3.9l16.3-39.6c3.3-8.1,11.2-13.4,20-13.4c11.9,0,21.6,9.7,21.6,21.6
		c0,19.9,16.2,36,36,36h15.5c10.4,0,20.3-4.5,27.1-12.3l63.4,21.8c1.9,0.7,3.9,1,6,1h125.2L442.1,351.8z M489.6,287.1
		c0,4-3.2,7.2-7.2,7.2h-14.6v-53.8h14.6c4,0,7.2,3.2,7.2,7.2V287.1z"/>
</g>
</svg>
