<?xml version="1.0" encoding="utf-8"?>
<!-- Generator: Adobe Illustrator 24.1.3, SVG Export Plug-In . SVG Version: 6.00 Build 0)  -->
<svg version="1.1" id="Capa_1" xmlns="http://www.w3.org/2000/svg" xmlns:xlink="http://www.w3.org/1999/xlink" x="0px" y="0px"
	 viewBox="0 0 512 512" style="enable-background:new 0 0 512 512;" xml:space="preserve">
<style type="text/css">
	.st0{fill:#FDD0D0;}
	.st1{fill:#7ED8F6;}
	.st2{fill:#FAAAAA;}
	.st3{fill:#6AA9FF;}
	.st4{fill:#FF637B;}
	.st5{fill:#E63950;}
</style>
<g>
	<path class="st0" d="M256,166c-33,0-60,27-60,60s27,60,60,60s60-27,60-60S289,166,256,166z"/>
	<path class="st1" d="M343.9,357.7c-13.2,11.4-28.5,20.1-45.3,25.8h-85.5c-16.5-5.7-31.8-14.4-45-25.8c8.7-41.4,44.7-71.7,87.9-71.7
		S335.2,316.3,343.9,357.7z"/>
	<path class="st2" d="M316,226c0,33-27,60-60,60V166C289,166,316,193,316,226z"/>
	<path class="st3" d="M343.9,357.7c-13.2,11.4-28.5,20.1-45.3,25.8H256V286C299.2,286,335.2,316.3,343.9,357.7z"/>
	<g>
		<path class="st4" d="M256,46C140.2,46,46,140.2,46,256s94.2,210,210,210s210-94.2,210-210S371.8,46,256,46z M256,436
			c-99.3,0-180-80.7-180-180S156.7,76,256,76s180,80.7,180,180S355.3,436,256,436z"/>
		<path class="st4" d="M256,106c-82.8,0-150,67.2-150,150s67.2,150,150,150s150-67.2,150-150S338.8,106,256,106z M256,376
			c-66.3,0-120-53.7-120-120s53.7-120,120-120s120,53.7,120,120S322.3,376,256,376z"/>
		<path class="st4" d="M271,15v106c0,0.6-0.3,0.9-0.3,1.5c-4.8-0.6-9.6-1.5-14.7-1.5s-9.9,0.9-14.7,1.5c0-0.6-0.3-0.9-0.3-1.5V15
			c0-8.4,6.6-15,15-15S271,6.6,271,15z"/>
		<path class="st4" d="M271,391v106c0,8.4-6.6,15-15,15s-15-6.6-15-15V391c0-0.6,0.3-0.9,0.3-1.5c4.8,0.6,9.6,1.5,14.7,1.5
			s9.9-0.9,14.7-1.5C270.7,390.1,271,390.4,271,391z"/>
		<path class="st4" d="M122.5,241.3c-0.5-0.1-1-0.3-1.5-0.3H15c-8.3,0-15,6.7-15,15s6.7,15,15,15h106c0.5,0,1-0.2,1.5-0.3
			c-0.5-4.9-1.5-9.7-1.5-14.7S121.9,246.2,122.5,241.3z"/>
	</g>
	<path class="st5" d="M497,241H391c-0.5,0-1,0.2-1.5,0.3c0.5,4.9,1.5,9.7,1.5,14.7s-0.9,9.8-1.5,14.7c0.5,0.1,1,0.3,1.5,0.3h106
		c8.3,0,15-6.7,15-15S505.3,241,497,241z"/>
	<path class="st5" d="M270.7,122.5c-4.8-0.6-9.6-1.5-14.7-1.5V0c8.4,0,15,6.6,15,15v106C271,121.6,270.7,121.9,270.7,122.5z"/>
	<path class="st5" d="M270.7,389.5c0,0.6,0.3,0.9,0.3,1.5v106c0,8.4-6.6,15-15,15V391C261.1,391,265.9,390.1,270.7,389.5z"/>
	<path class="st5" d="M406,256c0,82.8-67.2,150-150,150v-30c66.3,0,120-53.7,120-120s-53.7-120-120-120v-30
		C338.8,106,406,173.2,406,256z"/>
	<path class="st5" d="M466,256c0,115.8-94.2,210-210,210v-30c99.3,0,180-80.7,180-180S355.3,76,256,76V46
		C371.8,46,466,140.2,466,256z"/>
</g>
</svg>
