<?xml version="1.0" encoding="utf-8"?>
<!-- Generator: Adobe Illustrator 24.2.3, SVG Export Plug-In . SVG Version: 6.00 Build 0)  -->
<svg version="1.1" id="Capa_1" xmlns="http://www.w3.org/2000/svg" xmlns:xlink="http://www.w3.org/1999/xlink" x="0px" y="0px"
	 viewBox="0 0 512 512" style="enable-background:new 0 0 512 512;" xml:space="preserve">
<style type="text/css">
	.st0{fill:#FFFFFF;}
</style>
<g>
	<path class="st0" d="M163.3,382.5c-2.7-3-7.2-3.3-10.2-0.6c-3,2.7-3.3,7.2-0.6,10.2l23.4,26.6V495c0,4,3.2,7.3,7.3,7.3
		s7.3-3.2,7.3-7.3v-79c0-1.8-0.6-3.5-1.8-4.8L163.3,382.5z"/>
	<path class="st0" d="M112.1,324.5c-20.2-22.9-24.7-55.5-11.5-83.1l9.8-20.3c1.7-3.6,0.2-7.9-3.4-9.7c-3.6-1.7-7.9-0.2-9.7,3.4
		l-9.8,20.3c-15.8,32.8-10.5,71.7,13.6,99l30.3,34.4c1.4,1.6,3.4,2.5,5.4,2.5c1.7,0,3.4-0.6,4.8-1.8c3-2.7,3.3-7.2,0.6-10.2
		L112.1,324.5z"/>
	<path class="st0" d="M354.8,124.3c-9.3,0-17.8,3.7-24.1,9.7c-5.8-11.2-17.5-18.9-30.9-18.9c-9.5,0-18.2,3.9-24.5,10.1
		c-5.9-10.8-17.4-18.2-30.6-18.2c-9.5,0-18.1,3.8-24.4,10c-5.9-10.9-17.4-18.3-30.6-18.3c-19.2,0-34.8,15.6-34.8,34.8v30.4
		c-16.6-0.7-33,7.1-42.9,21.8c-2.2,3.3-1.4,7.8,2,10.1c3.3,2.2,7.8,1.4,10.1-2c10.1-14.9,29.6-19.7,45.5-11.2l87.1,46.8
		c4.4,2.4,7.2,7,7.3,12c0.1,5.2-2.7,10-7.3,12.5l-11.4,6.1c-16.2,8.7-35.8,9-52.2,0.8l-26.4-13.2c-3.6-1.8-7.9-0.3-9.7,3.3
		c-1.8,3.6-0.3,7.9,3.3,9.7l26.4,13.2c10,5,20.9,7.5,31.8,7.5c11.6,0,23.3-2.8,33.8-8.5l0.9-0.5l14.5,17.4c6.6,8,10.3,18,10.3,28.4
		v41.8c0,4,3.2,7.3,7.3,7.3c4,0,7.3-3.2,7.3-7.3V318c0-13.7-4.8-27.1-13.6-37.7L265.9,265c8-5.4,12.7-14.3,12.6-24.1
		c-0.1-4.1-1-8-2.7-11.6c6.2,6,14.7,9.7,24,9.7c9.7,0,18.4-4,24.7-10.3c6,10.6,17.3,17.8,30.3,17.8c5.5,0,10.8-1.3,15.4-3.6v17.3
		c0,4,3.2,7.3,7.3,7.3c4,0,7.3-3.2,7.3-7.3v-30.8c3.1-5.2,4.8-11.2,4.8-17.7V159C389.5,139.9,373.9,124.3,354.8,124.3L354.8,124.3z
		 M169.5,166.6v-33.2c0-11.2,9.1-20.2,20.2-20.2c11.2,0,20.2,9.1,20.2,20.2v54.3l-33.6-18C174.2,168.5,171.8,167.5,169.5,166.6z
		 M224.5,195.5v-53.8c0-11.2,9.1-20.2,20.2-20.2c11.2,0,20.2,9.1,20.2,20.2v62.5c0,4-1.2,7.9-3.4,11.2L224.5,195.5z M299.8,224.5
		c-11.2,0-20.2-9.1-20.2-20.2v-54.4c0-11.2,9.1-20.2,20.2-20.2c11.2,0,20.2,9.1,20.2,20.2v54.4C320,215.4,310.9,224.5,299.8,224.5z
		 M354.8,231.9c-11.2,0-20.2-9.1-20.2-20.2V159c0-11.2,9.1-20.2,20.2-20.2S375,147.9,375,159v52.6
		C375,222.8,365.9,231.9,354.8,231.9z"/>
	<path class="st0" d="M377.4,283.8c-4,0-7.3,3.2-7.3,7.3v65.8c0,10.9-2.9,21.6-8.4,31l-11,18.8c-1.6,2.7-2.5,5.9-2.5,9.1V495
		c0,4,3.2,7.3,7.3,7.3s7.3-3.2,7.3-7.3v-79.3c0-0.6,0.2-1.2,0.5-1.7l11-18.8c6.8-11.6,10.4-24.9,10.4-38.3V291
		C384.7,287,381.4,283.8,377.4,283.8z"/>
	<path class="st0" d="M337.3,79.4c1.2,0.8,2.6,1.2,3.9,1.2c2.4,0,4.7-1.2,6.1-3.3L383.5,21c2.2-3.4,1.2-7.9-2.2-10
		c-3.4-2.2-7.9-1.2-10,2.2l-36.2,56.2C333,72.7,334,77.2,337.3,79.4z"/>
	<path class="st0" d="M411.8,128c1.3,1,2.9,1.5,4.5,1.5c2.2,0,4.3-1,5.7-2.8l80.4-102.6c2.5-3.2,1.9-7.7-1.2-10.2
		c-3.2-2.5-7.7-1.9-10.2,1.2l-80.4,102.6C408.1,121,408.7,125.6,411.8,128z"/>
	<path class="st0" d="M493.2,200.5l-32.3,18c-3.5,1.9-4.8,6.4-2.8,9.9c1.3,2.4,3.8,3.7,6.3,3.7c1.2,0,2.4-0.3,3.5-0.9l32.3-18
		c3.5-1.9,4.8-6.4,2.8-9.9C501.2,199.8,496.7,198.5,493.2,200.5L493.2,200.5z"/>
	<path class="st0" d="M499.5,334.4l-31.3-18.9c-3.4-2.1-7.9-1-10,2.5c-2.1,3.4-1,7.9,2.5,10l31.3,18.9c1.2,0.7,2.5,1,3.7,1
		c2.5,0,4.9-1.3,6.2-3.5C504.1,341,503,336.5,499.5,334.4L499.5,334.4z"/>
	<path class="st0" d="M412.8,382.3c-2.6-3-7.2-3.4-10.2-0.8c-3,2.6-3.4,7.2-0.8,10.2l11.6,13.6c1.4,1.7,3.5,2.5,5.5,2.5
		c1.7,0,3.3-0.6,4.7-1.7c3-2.6,3.4-7.2,0.8-10.2L412.8,382.3z"/>
	<path class="st0" d="M445.1,420.2c-2.6-3-7.2-3.4-10.2-0.8c-3,2.6-3.4,7.2-0.8,10.2l40.5,47.4c1.4,1.7,3.5,2.5,5.5,2.5
		c1.7,0,3.3-0.6,4.7-1.7c3-2.6,3.4-7.2,0.8-10.2L445.1,420.2z"/>
	<path class="st0" d="M281.5,60c0.8,0.3,1.5,0.4,2.3,0.4c3,0,5.9-1.9,6.9-5l8-24.1c1.3-3.8-0.8-7.9-4.6-9.2
		c-3.8-1.3-7.9,0.8-9.2,4.6l-8,24.1C275.6,54.6,277.6,58.7,281.5,60z"/>
	<path class="st0" d="M164.6,77.2c1.4,2.2,3.7,3.3,6.1,3.3c1.3,0,2.7-0.4,3.9-1.2c3.4-2.2,4.3-6.7,2.2-10l-36.2-56.2
		c-2.2-3.4-6.7-4.3-10-2.2c-3.4,2.2-4.3,6.7-2.2,10L164.6,77.2z"/>
	<path class="st0" d="M91.9,126.8c1.4,1.8,3.5,2.7,5.7,2.7c1.6,0,3.2-0.5,4.5-1.6c3.1-2.5,3.7-7.1,1.2-10.2L20.9,14.3
		c-2.5-3.1-7.1-3.7-10.2-1.2s-3.7,7.1-1.2,10.2L91.9,126.8z"/>
	<path class="st0" d="M46.1,231.2c1.1,0.6,2.2,0.8,3.4,0.8c2.6,0,5.1-1.4,6.4-3.9c1.9-3.5,0.5-7.9-3.1-9.8l-34.2-18
		c-3.5-1.9-7.9-0.5-9.8,3.1c-1.9,3.5-0.5,7.9,3.1,9.8L46.1,231.2z"/>
	<path class="st0" d="M55.7,318c-2.1-3.4-6.5-4.5-10-2.5l-31.3,18.9c-3.4,2.1-4.5,6.5-2.5,10c1.4,2.3,3.8,3.5,6.2,3.5
		c1.3,0,2.6-0.3,3.7-1L53.2,328C56.6,325.9,57.7,321.4,55.7,318L55.7,318z"/>
	<path class="st0" d="M111.4,381.5c-3-2.6-7.6-2.2-10.2,0.8L89.5,396c-2.6,3-2.2,7.6,0.8,10.2c1.4,1.2,3,1.7,4.7,1.7
		c2,0,4.1-0.9,5.5-2.5l11.6-13.6C114.8,388.7,114.4,384.1,111.4,381.5z"/>
	<path class="st0" d="M79,419.4c-3-2.6-7.6-2.2-10.2,0.8l-40.5,47.4c-2.6,3-2.2,7.6,0.8,10.2c1.4,1.2,3,1.7,4.7,1.7
		c2,0,4.1-0.9,5.5-2.5l40.5-47.4C82.4,426.6,82.1,422,79,419.4z"/>
	<path class="st0" d="M221.4,55.4c1,3,3.8,5,6.9,5c0.8,0,1.5-0.1,2.3-0.4c3.8-1.3,5.9-5.4,4.6-9.2l-8-24.1c-1.3-3.8-5.4-5.9-9.2-4.6
		c-3.8,1.3-5.9,5.4-4.6,9.2L221.4,55.4z"/>
</g>
</svg>
