<svg height="512pt" viewBox="-28 0 512 512" width="512pt" xmlns="http://www.w3.org/2000/svg"><path d="m228.226562 311.855469c-32.433593 0-98.777343-37.292969-102.742187-91.105469l-7.515625-102.074219c-4.71875-64.082031 46-118.675781 110.257812-118.675781 64.257813 0 114.976563 54.59375 110.257813 118.675781l-7.515625 102.074219c-3.964844 53.8125-70.308594 91.105469-102.742188 91.105469zm0 0" fill="#ffab91"/><path d="m256.601562 3.675781c27.765626 21.894531 44.699219 56.757813 41.882813 95l-7.515625 102.074219c-3.964844 53.8125-70.308594 91.109375-102.742188 91.109375-5.511718 0-12.003906-1.082031-19.003906-3.132813 20.425782 14.667969 43.558594 23.132813 59.003906 23.132813 32.433594 0 98.777344-37.292969 102.742188-91.109375l7.515625-102.074219c4-54.285156-31.789063-101.753906-81.882813-115zm0 0" fill="#ff7043"/><path d="m335.304688 208.335938h-3.421876l5.171876-70.226563h18.578124c13.0625 0 23.652344 10.589844 23.652344 23.65625v2.585937c.003906 24.292969-19.6875 43.984376-43.980468 43.984376zm0 0" fill="#ffab91"/><path d="m121.148438 208.335938h3.421874l-5.171874-70.226563h-18.578126c-13.066406 0-23.65625 10.589844-23.65625 23.65625v2.585937c0 24.292969 19.695313 43.984376 43.984376 43.984376zm0 0" fill="#ffab91"/><path d="m355.632812 138.109375h-.691406c2.734375 3.859375 4.347656 8.566406 4.347656 13.65625v2.585937c0 18.039063-10.863281 33.53125-26.402343 40.320313l-1.003907 13.664063h3.421876c24.292968 0 43.984374-19.691407 43.984374-43.984376v-2.585937c0-13.066406-10.589843-23.65625-23.65625-23.65625zm0 0" fill="#ff7043"/><path d="m119.398438 138.109375h-19.246094c-.003906.007813-.007813.011719-.015625.019531l4.183593 56.792969c.136719 1.84375-1.324218 3.414063-3.171874 3.414063-3.082032 0-6.089844-.320313-8.992188-.921876 7.742188 6.796876 17.882812 10.921876 28.992188 10.921876h3.425781zm0 0" fill="#ff7043"/><path d="m390.113281 338.355469h-96.089843c-5.242188 0-9.492188-4.25-9.492188-9.492188v-38.238281c-19.738281 13.503906-41.535156 21.234375-56.304688 21.234375-14.765624 0-36.566406-7.734375-56.300781-21.234375v38.238281c0 5.242188-4.25 9.492188-9.496093 9.492188h-96.089844c-36.640625 0-66.339844 29.703125-66.339844 66.339843v107.304688h456.453125v-107.304688c0-36.636718-29.699219-66.339843-66.339844-66.339843zm0 0" fill="#ef5350"/><path d="m398.03125 338.84375c11.402344 11.914062 18.421875 28.058594 18.421875 45.851562v47.726563c0 32.902344-26.671875 59.578125-59.578125 59.578125h-356.875v20h456.453125v-107.304688c0-33.957031-25.519531-61.9375-58.421875-65.851562zm0 0" fill="#c62828"/><path d="m228.226562 413.722656c41.59375 0 75.304688-33.753906 75.234376-75.367187h-9.4375c-5.242188 0-9.492188-4.25-9.492188-9.492188v-38.238281c-19.738281 13.5-41.535156 21.230469-56.304688 21.230469-14.765624 0-36.5625-7.730469-56.300781-21.230469v38.238281c0 5.242188-4.25 9.492188-9.492187 9.492188h-9.441406c-.070313 41.613281 33.640624 75.367187 75.234374 75.367187zm0 0" fill="#ffab91"/><path d="m294.023438 338.355469c-5.242188 0-9.492188-4.25-9.492188-9.492188v-38.238281c-13.320312 9.109375-27.570312 15.582031-39.972656 18.835938.308594 4.960937 4.421875 8.894531 9.464844 8.894531 5.34375 0 9.492187 4.703125 8.796874 10-4.832031 36.886719-36.386718 65.367187-74.59375 65.367187-4.117187 0-8.152343-.34375-12.089843-.980468 13.519531 12.984374 31.867187 20.980468 52.089843 20.980468 41.59375 0 75.304688-33.753906 75.234376-75.367187zm0 0" fill="#ff7043"/><path d="m87.296875 451.765625v60.234375h-15v-60.234375c0-4.144531 3.355469-7.5 7.5-7.5 4.140625 0 7.5 3.355469 7.5 7.5zm289.363281-7.5c-4.144531 0-7.5 3.355469-7.5 7.5v60.234375h15v-60.234375c0-4.144531-3.359375-7.5-7.5-7.5zm0 0" fill="#c62828"/><path d="m72.296875 492h15v20h-15zm0 0" fill="#b71c1c"/><path d="m369.160156 490.726562v21.273438h15v-26.617188c-4.675781 2.410157-9.707031 4.234376-15 5.34375zm0 0" fill="#b71c1c"/><path d="m242.6875 162.902344c-34.941406 0-63.371094-28.429688-63.371094-63.367188 0-27.238281 22.164063-49.402344 49.402344-49.402344s49.398438 22.164063 49.398438 49.402344c0 19.535156-15.894532 35.433594-35.433594 35.433594-19.539063 0-35.433594-15.898438-35.433594-35.433594 0-11.839844 9.632812-21.46875 21.46875-21.46875s21.464844 9.628906 21.464844 21.46875c0 4.140625-3.355469 7.5-7.5 7.5-4.140625 0-7.5-3.359375-7.5-7.5 0-3.566406-2.898438-6.46875-6.464844-6.46875s-6.46875 2.902344-6.46875 6.46875c0 11.265625 9.167969 20.433594 20.433594 20.433594 11.269531 0 20.433594-9.167969 20.433594-20.433594 0-18.96875-15.429688-34.402344-34.398438-34.402344s-34.402344 15.433594-34.402344 34.402344c0 26.667969 21.699219 48.367188 48.371094 48.367188 26.667969 0 48.367188-21.699219 48.367188-48.367188 0-34.644531-28.1875-62.828125-62.828126-62.828125-34.640624 0-62.824218 28.183594-62.824218 62.828125 0 16.78125 6.535156 32.558594 18.398437 44.425782 2.929688 2.929687 2.929688 7.675781 0 10.605468-2.929687 2.925782-7.675781 2.925782-10.605469 0-14.699218-14.699218-22.792968-34.246094-22.792968-55.03125 0-42.914062 34.910156-77.828125 77.824218-77.828125 42.914063 0 77.828126 34.914063 77.828126 77.828125 0 34.941406-28.429688 63.367188-63.367188 63.367188zm0 0" fill="#ab47bc"/><path d="m295.890625 133.886719c6.417969-9.90625 10.164063-21.699219 10.164063-34.351563 0-15.363281-4.492188-29.6875-12.207032-41.761718 3.988282 12.832031 5.6875 26.628906 4.636719 40.902343zm0 0" fill="#7b1fa2"/></svg>