<?xml version="1.0" encoding="utf-8"?>
<!-- Generator: Adobe Illustrator 24.2.3, SVG Export Plug-In . SVG Version: 6.00 Build 0)  -->
<svg version="1.1" id="Capa_1" xmlns="http://www.w3.org/2000/svg" xmlns:xlink="http://www.w3.org/1999/xlink" x="0px" y="0px"
	 viewBox="0 0 512 512" style="enable-background:new 0 0 512 512;" xml:space="preserve">
<style type="text/css">
	.st0{fill:#FFFFFF;}
</style>
<g>
	<path class="st0" d="M211.8,447.6l-1.5,7.1L211.8,447.6c-4-0.8-7.8,1.8-8.6,5.7c-0.8,3.9,1.8,7.8,5.7,8.5c0,0,0.1,0,0.1,0
		c0.5,0.1,0.9,0.1,1.4,0.1c3.4,0,6.5-2.4,7.1-5.9C218.3,452.2,215.7,448.4,211.8,447.6z"/>
	<path class="st0" d="M267.3,449.9l0.7,7.2L267.3,449.9c-4,0.4-6.9,4-6.5,8c0.4,3.7,3.5,6.5,7.2,6.5c0.2,0,0.5,0,0.8,0l0.2,0
		c4-0.5,6.8-4,6.4-8C274.9,452.4,271.3,449.5,267.3,449.9z"/>
	<path class="st0" d="M239.5,450.9c0,0-0.1,0-0.1,0c-4-0.2-7.3,2.9-7.5,6.9c-0.2,4,3,7.4,7,7.6c0.1,0,0.2,0,0.3,0
		c3.9,0,7.1-3,7.3-6.9C246.6,454.4,243.5,451,239.5,450.9z"/>
	<path class="st0" d="M184.9,440.2L184.9,440.2c-3.9-1.4-8,0.6-9.3,4.4c-1.4,3.8,0.6,8,4.4,9.3c0.8,0.3,1.6,0.4,2.5,0.4
		c3,0,5.8-1.8,6.8-4.8C190.7,445.7,188.7,441.6,184.9,440.2z"/>
	<path class="st0" d="M294.8,444.9l1.8,7L294.8,444.9c-3.9,1-6.2,5-5.2,8.9c0.8,3.3,3.8,5.5,7,5.5c0.6,0,1.2-0.1,1.8-0.2
		c0,0,0.2,0,0.2,0c3.9-1.1,6.1-5,5.1-8.9C302.6,446.1,298.6,443.8,294.8,444.9z"/>
	<path class="st0" d="M321,435.7l2.9,6.7L321,435.7c-3.7,1.6-5.4,5.9-3.8,9.6c1.2,2.7,3.9,4.4,6.7,4.4c1,0,2-0.2,2.9-0.6
		c0,0,0.1-0.1,0.2-0.1c3.6-1.6,5.3-5.9,3.6-9.6C329,435.7,324.7,434.1,321,435.7z"/>
	<path class="st0" d="M157.2,104.4c1.2,0,2.4-0.3,3.4-0.9c3.5-1.9,4.9-6.3,3-9.8c-1.9-3.5-6.3-4.9-9.8-3l-0.1,0
		c-3.5,1.9-4.8,6.3-2.9,9.8C152.1,103.1,154.6,104.4,157.2,104.4z"/>
	<path class="st0" d="M73.1,185.6c1.1,0.6,2.2,0.8,3.4,0.8c2.6,0,5.1-1.4,6.4-3.9l0.1-0.3c1.8-3.6,0.3-8-3.3-9.7
		c-3.6-1.8-7.9-0.3-9.7,3.2C68.2,179.4,69.6,183.7,73.1,185.6z"/>
	<path class="st0" d="M62.9,212.9c0.8,0.3,1.6,0.4,2.3,0.4c3,0,5.9-1.9,6.9-4.9l0.1-0.3c1.2-3.8-1-7.9-4.8-9.1
		c-3.8-1.2-7.8,0.9-9.1,4.7C57.1,207.5,59.1,211.7,62.9,212.9z"/>
	<path class="st0" d="M87.5,160.2c1.3,0.9,2.8,1.4,4.3,1.4c2.2,0,4.5-1,5.9-3l0.1-0.1c2.3-3.3,1.6-7.8-1.7-10.1
		c-3.3-2.3-7.8-1.6-10.1,1.7l5.9,4.3l-5.9-4.3C83.5,153.3,84.2,157.8,87.5,160.2z"/>
	<path class="st0" d="M132.5,120.1c1.5,0,3.1-0.5,4.4-1.5c3.2-2.4,3.9-6.9,1.6-10.2c-2.4-3.2-6.9-3.9-10.2-1.6l-0.2,0.1
		c-3.2,2.4-3.8,7-1.4,10.2C128.2,119.1,130.3,120.1,132.5,120.1z"/>
	<path class="st0" d="M56.4,323.1c1,3.1,3.8,5.1,6.9,5.1c0.7,0,1.4-0.1,2.1-0.3c3.8-1.2,6-5.2,4.8-9c-1.1-3.8-5-6.1-8.9-5
		c-3.9,1.1-6.2,5.1-5.1,8.9C56.3,322.9,56.4,323.1,56.4,323.1z"/>
	<path class="st0" d="M110.6,139.3c1.9,0,3.8-0.7,5.2-2.2c2.8-2.8,2.8-7.4,0-10.3c-2.8-2.8-7.4-2.8-10.3,0l-0.1,0.1
		c-2.8,2.9-2.8,7.5,0.1,10.3C106.9,138.6,108.7,139.3,110.6,139.3z"/>
	<path class="st0" d="M64.4,291.5c-0.5-3.9-4.1-6.7-8.1-6.3c-4,0.5-6.8,4.1-6.4,8.1l0,0.3c0.5,3.6,3.6,6.2,7.2,6.2
		c0.3,0,0.7,0,1.1-0.1C62.3,299.1,65,295.4,64.4,291.5z"/>
	<path class="st0" d="M55.3,270.7c0.1,0,0.1,0,0.2,0c3.9,0,7.1-3.1,7.3-7.1l0-0.3c0-4-3.3-7.3-7.3-7.3c-4,0-7.2,3.2-7.3,7.2
		C48.2,267.2,51.3,270.5,55.3,270.7z"/>
	<path class="st0" d="M56.9,241.5c0.4,0.1,0.9,0.1,1.3,0.1c3.5,0,6.5-2.5,7.1-6c0-0.1,0-0.2,0-0.3c0.6-4-2.2-7.7-6.1-8.2
		c-3.9-0.6-7.6,2.1-8.2,6C50.3,237,53,240.8,56.9,241.5z"/>
	<path class="st0" d="M399.7,162.5c1.4,2,3.7,3.1,6,3.1c1.4,0,2.9-0.4,4.1-1.3c3.3-2.3,4.1-6.8,1.9-10.1l-6,4l6-4.1
		c-2.3-3.3-6.8-4.2-10.1-1.9c-3.3,2.3-4.2,6.8-1.9,10.1L399.7,162.5z"/>
	<path class="st0" d="M436.8,235.6c-4,0.4-6.9,4-6.4,8l0,0.3c0.5,3.6,3.6,6.2,7.2,6.2c0.3,0,0.7,0,1-0.1c3.9-0.6,6.7-4.2,6.2-8.1
		C444.4,238,440.8,235.2,436.8,235.6z"/>
	<path class="st0" d="M424.5,215.1L424.5,215.1c1,3.3,3.9,5.3,7,5.3c0.7,0,1.4-0.1,2.1-0.3c3.9-1.1,6.1-5.2,4.9-9l0-0.1
		c-1.1-3.9-5.2-6.1-9-4.9C425.6,207.2,423.4,211.2,424.5,215.1z"/>
	<path class="st0" d="M414.3,187.9c1.3,2.6,3.9,4.1,6.6,4.1c1.1,0,2.2-0.2,3.2-0.7c3.6-1.8,5.1-6.1,3.3-9.7l-6.6,3.1l6.6-3.1
		c-1.7-3.6-6-5.2-9.7-3.5s-5.2,6-3.5,9.7L414.3,187.9z"/>
	<path class="st0" d="M381.4,139.8c1.4,1.5,3.3,2.2,5.2,2.2c1.8,0,3.7-0.7,5.1-2.1c2.8-2.8,2.9-7.3,0.2-10.2
		c-2.7-2.9-7.3-3.1-10.3-0.4c-2.9,2.7-3.1,7.3-0.4,10.3L381.4,139.8z"/>
	<path class="st0" d="M439.2,265.9c-4-0.1-7.3,3-7.5,7c-0.2,4,2.9,7.4,6.9,7.6c0.1,0,0.3,0,0.4,0c3.8,0,7-3,7.2-6.9l0-0.3
		C446.3,269.4,443.2,266.1,439.2,265.9z"/>
	<path class="st0" d="M334.9,104.1l0.2,0.1c1.1,0.6,2.2,0.8,3.4,0.8c2.6,0,5.1-1.4,6.4-3.8c1.9-3.5,0.6-7.9-3-9.8l-3.5,6.4l3.5-6.4
		c-3.5-1.9-7.9-0.6-9.9,2.9C330.1,97.8,331.4,102.2,334.9,104.1z"/>
	<path class="st0" d="M359.5,120l0.1,0.1c1.3,1,2.9,1.5,4.4,1.5c2.2,0,4.4-1,5.8-2.9c2.4-3.2,1.8-7.8-1.4-10.2l0,0
		c-3.2-2.4-7.7-1.8-10.2,1.3S356.3,117.6,359.5,120z"/>
	<path class="st0" d="M499.5,376l-34.1-34.2c-2.9-2.9-6.8-4.5-10.9-4.5c-4.1,0-8,1.6-10.9,4.5l-0.8,0.8l-2.2-2.2
		c-2.8-2.8-4.9-6-6.4-9.5c-0.1-0.5-0.3-0.9-0.5-1.3c-1.1-3.1-1.7-6.5-1.7-9.9v-9.7c0.7,0.3,1.4,0.6,2.2,0.7c0.4,0.1,0.8,0.1,1.2,0.1
		c3.4,0,6.5-2.5,7.1-6c0.8-3.9-1.8-7.7-5.7-8.5c-1.7-0.3-3.4,0-4.9,0.7c-0.4-10.3-4.7-20-12-27.3L387,236.5
		c-7.4-7.4-17.3-11.5-27.8-11.5c-8.1,0-15.9,2.5-22.4,7l-3.5-3.5v-83.1c0-10-3.6-19.7-10.2-27.2c-4.7-5.4-7.3-12.2-7.3-19.4v-6.1
		h0.5c8.5,0,15.4-6.9,15.4-15.4V29c0-8.5-6.9-15.4-15.4-15.4H180.5c-8.5,0-15.4,6.9-15.4,15.4v48.3c0,8.5,6.9,15.4,15.4,15.4h1.1
		v3.2c0,7.8-3,15.2-8.6,20.7l-14.7,14.7c-7.8,7.8-12.1,18.1-12.1,29.2v46.9c0,6.4,1.5,12.4,4.2,17.7c-9.6,0.6-18.6,4.6-25.5,11.5
		L92,269.7c-7.8,7.8-12.1,18.1-12.1,29.2v20.8c0,7.8-3,15.2-8.6,20.7l-2.2,2.2c0,0,0,0,0,0l-0.8-0.8c-2.9-2.9-6.8-4.5-10.9-4.5
		c-4.1,0-8,1.6-10.9,4.5L12.5,376c-6,6-6,15.7,0,21.7l11.7,11.7c2.8,2.8,7.4,2.8,10.3,0c2.8-2.8,2.8-7.4,0-10.3l-11.7-11.7
		c-0.3-0.3-0.3-0.9,0-1.2L56.9,352c0.3-0.3,0.8-0.3,1.2,0l5.9,5.9h0l81,81.1l9.1,9.1c0.3,0.3,0.3,0.9,0,1.2l-34.1,34.2
		c-0.3,0.3-0.8,0.3-1.2,0L55,419.7c-2.8-2.8-7.4-2.8-10.3,0c-2.8,2.8-2.8,7.4,0,10.3l63.7,63.8c2.9,2.9,6.8,4.5,10.9,4.5
		c4.1,0,8-1.6,10.9-4.5l34.1-34.2c6-6,6-15.7,0-21.7l-0.4-0.4l4.3-4.3c5-5,11.7-8.1,18.8-8.5c10-0.6,19.4-4.9,26.5-12l31.3-31.4
		c9-2.4,16.1-9.7,18-19c3.2,1.5,6.8,2.4,10.6,2.4c13.7,0,24.8-11.1,24.8-24.8v-17.3c3.1,1.4,6.6,2.2,10.3,2.2
		c13.7,0,24.8-11.1,24.8-24.8v-51l22.4,22.5c1.4,1.4,3.3,2.1,5.2,2.1c1.9,0,3.7-0.7,5.1-2.1c2.8-2.8,2.9-7.4,0-10.3l-18.6-18.7
		c3.6-2,7.7-3,11.9-3c6.6,0,12.8,2.6,17.5,7.3l33.1,33.1c5,5,7.8,11.8,7.8,18.9v20.8c0,11.7,4.6,22.7,12.8,31l2.3,2.3l-10.5,10.6
		l-63.7,63.9l-3.6-3.6c0,0-0.1-0.1-0.1-0.1l-0.6-0.6c-7.5-7.5-17.5-12.1-28.1-12.8c-6.5-0.4-12.5-3.2-17.1-7.8l-23.9-23.7
		c-2.8-2.8-7.4-2.8-10.3,0c-2.8,2.8-2.8,7.4,0,10.3l23.9,23.7c7.1,7.1,16.5,11.4,26.5,12c7.1,0.5,13.8,3.5,18.8,8.5l0.4,0.4
		c0.2,0.2,0.4,0.4,0.6,0.6l3.3,3.4l-0.4,0.4c-6,6-6,15.7,0,21.7l34.1,34.2c2.9,2.9,6.8,4.5,10.9,4.5c4.1,0,8-1.6,10.9-4.5l96-96.2
		C505.5,391.7,505.5,381.9,499.5,376z M437,303.7l-0.1,0l-1.3-0.3L437,303.7z M203.2,402.5c-4.6,4.6-10.7,7.3-17.1,7.8
		c-10.6,0.7-20.6,5.2-28.1,12.8l-4.3,4.3l-3.9-3.9c0,0-0.1-0.1-0.1-0.1l-70.3-70.4l2.3-2.3c8.3-8.3,12.8-19.3,12.8-31v-20.8
		c0-7.1,2.8-13.8,7.8-18.9l33.1-33.1c4.7-4.7,10.9-7.3,17.5-7.3c4.2,0,8.3,1.1,11.9,3.1l-18.7,18.7c-2.8,2.8-2.8,7.4,0,10.3
		c1.4,1.4,3.3,2.1,5.1,2.1c1.9,0,3.7-0.7,5.1-2.1l22.3-22.3V340c0,13.7,11.1,24.8,24.8,24.8c3.9,0,7.5-0.9,10.8-2.5
		c1.5,7.2,6.1,13.3,12.3,16.7L203.2,402.5z M318.7,300.1c0,5.7-4.6,10.3-10.3,10.3c-5.7,0-10.3-4.6-10.3-10.3v-81.1
		c0-4-3.3-7.3-7.3-7.3c-4,0-7.3,3.3-7.3,7.3V340c0,5.7-4.6,10.3-10.3,10.3c-5.1,0-9.3-3.7-10.1-8.6V219c0-4-3.3-7.3-7.3-7.3
		c-1.3,0-2.5,0.3-3.6,0.9c-2.3,1.2-3.9,3.6-3.9,6.4V340c0,0.9,0.1,1.8,0.2,2.7v14.6c0,5.7-4.6,10.3-10.3,10.3
		c-5.7,0-10.2-4.6-10.2-10.3V218.9c0-4-3.3-7.3-7.3-7.3c-4,0-7.3,3.3-7.3,7.3V340c0,5.7-4.6,10.3-10.2,10.3
		c-5.7,0-10.3-4.6-10.3-10.3V204.8c0-4-3.3-7.3-7.3-7.3c-4,0-7.3,3.3-7.3,7.3v25c-0.6,0.2-1.2,0.5-1.7,0.8
		c-9.4-3.5-16.1-12.6-16.1-23.3v-46.9c0-7.1,2.8-13.8,7.8-18.9l14.7-14.7c8.3-8.3,12.8-19.3,12.8-31v-3.2h14.6c4,0,7.3-3.3,7.3-7.3
		c0-4-3.3-7.3-7.3-7.3h-30.3c-0.5,0-0.8-0.4-0.8-0.8V29c0-0.5,0.4-0.8,0.8-0.8h135.7c0.5,0,0.8,0.4,0.8,0.8v48.3
		c0,0.5-0.4,0.8-0.8,0.8h-71.4c-4,0-7.3,3.3-7.3,7.3c0,4,3.3,7.3,7.3,7.3h56.3v6.1c0,10.7,3.9,20.9,10.9,28.9
		c4.3,4.9,6.6,11.1,6.6,17.6V300.1z M489.3,387.4l-96,96.2c-0.2,0.2-0.4,0.2-0.6,0.2c-0.2,0-0.4-0.1-0.6-0.2L358,449.4
		c-0.3-0.3-0.3-0.9,0-1.2l5.5-5.5l0,0l55.7-55.8L454,352c0.3-0.3,0.8-0.3,1.2,0l34.1,34.2C489.6,386.5,489.6,387.1,489.3,387.4z"/>
	<path class="st0" d="M203.5,45.4c-4.3,0-7.7,3.5-7.7,7.8c0,4.3,3.5,7.8,7.7,7.8c4.3,0,7.7-3.5,7.7-7.8
		C211.2,48.9,207.8,45.4,203.5,45.4z"/>
	<path class="st0" d="M456.9,376.7c-4.3,0-7.7,3.5-7.7,7.8c0,4.3,3.5,7.8,7.7,7.8c4.3,0,7.7-3.5,7.7-7.8
		C464.7,380.2,461.2,376.7,456.9,376.7z"/>
	<path class="st0" d="M129.1,450.8c0-4.3-3.5-7.8-7.7-7.8c-4.3,0-7.7,3.5-7.7,7.8c0,4.3,3.5,7.8,7.7,7.8
		C125.6,458.6,129.1,455.1,129.1,450.8z"/>
</g>
</svg>
