<?xml version="1.0" encoding="utf-8"?>
<!-- Generator: Adobe Illustrator 24.1.3, SVG Export Plug-In . SVG Version: 6.00 Build 0)  -->
<svg version="1.1" id="Capa_1" xmlns="http://www.w3.org/2000/svg" xmlns:xlink="http://www.w3.org/1999/xlink" x="0px" y="0px"
	 viewBox="0 0 512 512" style="enable-background:new 0 0 512 512;" xml:space="preserve">
<style type="text/css">
	.st0{fill:#FFDA2D;}
	.st1{fill:#FDBF00;}
	.st2{fill:#895D3C;}
	.st3{fill:#FFF5F5;}
	.st4{fill:#714C2F;}
	.st5{fill:#EFE2DD;}
	.st6{fill:#FF637B;}
	.st7{fill:#E63950;}
</style>
<g>
	<path class="st0" d="M256,0C115.3,0,0,115.3,0,256s115.3,256,256,256s256-115.3,256-256S396.7,0,256,0z"/>
	<path class="st0" d="M256,0C115.3,0,0,115.3,0,256s115.3,256,256,256s256-115.3,256-256S396.7,0,256,0z"/>
	<path class="st1" d="M512,256c0,140.7-115.3,256-256,256V0C396.7,0,512,115.3,512,256z"/>
	<path class="st2" d="M196,241c-24.8,0-45-20.2-45-45s20.2-45,45-45s45,20.2,45,45S220.8,241,196,241z"/>
	<path class="st3" d="M196,211c-8.3,0-15-6.7-15-15s6.7-15,15-15s15,6.7,15,15S204.3,211,196,211z"/>
	<path class="st4" d="M316,241c-24.8,0-45-20.2-45-45s20.2-45,45-45s45,20.2,45,45S340.8,241,316,241z"/>
	<path class="st5" d="M316,211c-8.3,0-15-6.7-15-15s6.7-15,15-15s15,6.7,15,15S324.3,211,316,211z"/>
	<path class="st2" d="M125.4,146.6c-5.9-5.9-5.9-15.4,0-21.2l30-30c5.9-5.9,15.4-5.9,21.2,0s5.9,15.4,0,21.2l-30,30
		C140.7,152.5,131.3,152.5,125.4,146.6z"/>
	<path class="st4" d="M376,151c-3.8,0-7.7-1.5-10.6-4.4l-30-30c-5.9-5.9-5.9-15.4,0-21.2s15.4-5.9,21.2,0l30,30
		c5.9,5.9,5.9,15.4,0,21.2C383.7,149.5,379.8,151,376,151z"/>
	<path class="st6" d="M419.2,340.3c-9.6,14.4-25.2,22.8-42.6,22.8c-17.1,0-32.7-8.4-42.3-22.8c-8.1-11.7-27-11.7-35.1,0
		c-9.6,14.4-25.2,22.8-42.6,22.8c-0.3,0-0.3,0-0.6,0c-16.8-0.3-32.1-8.7-41.7-22.8c-8.1-11.7-27-11.7-35.1,0
		c-9.6,14.4-25.2,22.8-42.6,22.8c-17.1,0-32.7-8.4-42.3-22.8c-4.5-6.9-2.7-16.2,4.2-20.7c6.9-4.8,16.2-2.7,20.7,4.2
		c8.1,12,27,12,35.1,0c9.6-14.4,25.2-22.8,42.3-22.8c17.4,0,33,8.4,42.6,22.8c4.2,5.7,10.5,8.7,16.8,9c7.2,0.3,14.1-2.7,18.3-9
		c9.6-14.4,25.2-22.8,42.3-22.8c17.4,0,33,8.4,42.6,22.8c8.1,12,27,12,35.1,0c4.5-6.9,13.8-9,20.7-4.2
		C421.9,324.1,423.7,333.4,419.2,340.3z"/>
	<path class="st7" d="M419.2,340.3c-9.6,14.4-25.2,22.8-42.6,22.8c-17.1,0-32.7-8.4-42.3-22.8c-8.1-11.7-27-11.7-35.1,0
		c-9.6,14.4-25.2,22.8-42.6,22.8c-0.3,0-0.3,0-0.6,0v-30.3c7.2,0.3,14.1-2.7,18.3-9c9.6-14.4,25.2-22.8,42.3-22.8
		c17.4,0,33,8.4,42.6,22.8c8.1,12,27,12,35.1,0c4.5-6.9,13.8-9,20.7-4.2C421.9,324.1,423.7,333.4,419.2,340.3z"/>
</g>
</svg>
