<?xml version="1.0" encoding="utf-8"?>
<!-- Generator: Adobe Illustrator 24.2.3, SVG Export Plug-In . SVG Version: 6.00 Build 0)  -->
<svg version="1.1" id="Capa_1" xmlns="http://www.w3.org/2000/svg" xmlns:xlink="http://www.w3.org/1999/xlink" x="0px" y="0px"
	 viewBox="0 0 512 512" style="enable-background:new 0 0 512 512;" xml:space="preserve">
<style type="text/css">
	.st0{fill:#FFFFFF;}
</style>
<g>
	<g>
		<g>
			<path class="st0" d="M497.1,448.3L338.7,290c-3.4-3.4-9-3.4-12.4,0c-3.4,3.4-3.4,9,0,12.4l158.3,158.3c3.4,3.4,3.4,9,0,12.4
				L473.8,484c-3.4,3.4-9,3.4-12.4,0L303.7,326.2c-3.4-3.4-9-3.4-12.4,0c-3.4,3.4-3.4,9,0,12.4L449,496.3c5.1,5.1,11.9,7.7,18.6,7.7
				c6.7,0,13.5-2.6,18.6-7.7l10.9-10.9C507.3,475.2,507.3,458.5,497.1,448.3z"/>
		</g>
	</g>
	<g>
		<g>
			<path class="st0" d="M297.1,110.9c-4.9,6.8-12.9,10.9-21.3,10.9c-14.5,0-26.3-11.8-26.3-26.3c0-7.6,3.3-14.9,9.1-19.9l-11.5-13.2
				c-9.6,8.3-15.1,20.4-15.1,33.1c0,24.2,19.7,43.8,43.8,43.8c14,0,27.3-6.8,35.5-18.2L297.1,110.9z"/>
		</g>
	</g>
	<g>
		<g>
			<path class="st0" d="M240.8,174.4c-19.3,0-35,15.7-35,35s15.7,35,35,35s35-15.7,35-35S260.1,174.4,240.8,174.4z M240.8,226.9
				c-9.7,0-17.5-7.9-17.5-17.5s7.9-17.5,17.5-17.5s17.5,7.9,17.5,17.5S250.4,226.9,240.8,226.9z"/>
		</g>
	</g>
	<g>
		<g>
			<path class="st0" d="M240.8,156.8c-4.8,0-8.8,3.9-8.8,8.8v17.5c0,4.8,3.9,8.8,8.8,8.8s8.8-3.9,8.8-8.8v-17.5
				C249.5,160.8,245.6,156.8,240.8,156.8z"/>
		</g>
	</g>
	<g>
		<g>
			<path class="st0" d="M240.8,226.9c-4.8,0-8.8,3.9-8.8,8.8v17.5c0,4.8,3.9,8.8,8.8,8.8s8.8-3.9,8.8-8.8v-17.5
				C249.5,230.9,245.6,226.9,240.8,226.9z"/>
		</g>
	</g>
	<g>
		<g>
			<path class="st0" d="M284.6,200.6h-17.5c-4.8,0-8.8,3.9-8.8,8.8s3.9,8.8,8.8,8.8h17.5c4.8,0,8.8-3.9,8.8-8.8
				S289.4,200.6,284.6,200.6z"/>
		</g>
	</g>
	<g>
		<g>
			<path class="st0" d="M214.5,200.6H197c-4.8,0-8.8,3.9-8.8,8.8s3.9,8.8,8.8,8.8h17.5c4.8,0,8.8-3.9,8.8-8.8
				S219.3,200.6,214.5,200.6z"/>
		</g>
	</g>
	<g>
		<g>
			<path class="st0" d="M228.2,184.5l-11.9-11.9c-3.4-3.4-9-3.4-12.4,0c-3.4,3.4-3.4,9,0,12.4l11.9,11.9c1.7,1.7,4,2.6,6.2,2.6
				c2.2,0,4.5-0.9,6.2-2.6C231.7,193.4,231.7,187.9,228.2,184.5z"/>
		</g>
	</g>
	<g>
		<g>
			<path class="st0" d="M277.6,233.9l-10.7-10.7c-3.4-3.4-9-3.4-12.4,0c-3.4,3.4-3.4,9,0,12.4l10.7,10.7c1.7,1.7,4,2.6,6.2,2.6
				c2.2,0,4.5-0.9,6.2-2.6C281.1,242.8,281.1,237.3,277.6,233.9z"/>
		</g>
	</g>
	<g>
		<g>
			<path class="st0" d="M277.6,172.5c-3.4-3.4-9-3.4-12.4,0l-11.6,11.6c-3.4,3.4-3.4,9,0,12.4c1.7,1.7,4,2.6,6.2,2.6
				c2.2,0,4.5-0.9,6.2-2.6l11.6-11.6C281.1,181.5,281.1,176,277.6,172.5z"/>
		</g>
	</g>
	<g>
		<g>
			<path class="st0" d="M228.1,222.1c-3.4-3.4-9-3.4-12.4,0l-11.8,11.8c-3.4,3.4-3.4,9,0,12.4c1.7,1.7,4,2.6,6.2,2.6
				c2.2,0,4.5-0.9,6.2-2.6l11.8-11.8C231.5,231,231.5,225.5,228.1,222.1z"/>
		</g>
	</g>
	<g>
		<g>
			<path class="st0" d="M205.7,121.8c-10.3,0-35,1.3-42.6,13.7c-3,4.9-3.1,10.8-0.3,16.5c0.7,1.4,0.5,2,0.3,2.4
				c-2.1,4.5-13.5,9.6-20.8,11.4c-4.7,1.2-7.5,5.9-6.4,10.6c1,4,4.6,6.6,8.5,6.6c0.7,0,1.4-0.1,2.1-0.3c4.3-1.1,26.1-7.1,32.5-21.1
				c2.6-5.6,2.4-11.7-0.5-17.5c3.4-2.6,15.9-4.9,27.2-4.9c4.8,0,8.8-3.9,8.8-8.8C214.5,125.7,210.6,121.8,205.7,121.8z"/>
		</g>
	</g>
	<g>
		<g>
			<path class="st0" d="M212,282.2c-3.3-3.4-8.8-3.5-12.3-0.3c-0.3,0.3-6.9,6.3-20.2,6.3c-0.4,0-0.6-0.1-0.6-0.1
				c-1.6-1-3.3-8.5-4.2-12.6c-2.4-10.8-5.3-24.1-17.6-30.3c-18.6-9.3-32.9,2.5-38,12.7c-2.2,4.3-0.4,9.6,3.9,11.8
				c4.3,2.2,9.6,0.4,11.8-3.9c1.1-2.3,5.5-9.3,14.5-4.8c4.8,2.4,6.6,10.5,8.3,18.4c2.3,10.5,5.8,26.4,21.9,26.4
				c20.6,0,31.3-10.2,32.5-11.3C215.3,291.1,215.3,285.7,212,282.2z"/>
		</g>
	</g>
	<g>
		<g>
			<path class="st0" d="M100.6,174.4c-14.5,0-26.3,11.8-26.3,26.3c0,14.5,11.8,26.3,26.3,26.3c14.5,0,26.3-11.8,26.3-26.3
				C126.9,186.1,115.1,174.4,100.6,174.4z M100.6,209.4c-4.8,0-8.8-3.9-8.8-8.8s3.9-8.8,8.8-8.8c4.8,0,8.8,3.9,8.8,8.8
				S105.4,209.4,100.6,209.4z"/>
		</g>
	</g>
	<g>
		<g>
			<g>
				<path class="st0" d="M294.4,88.5c-27.6-27.6-64.3-42.8-103.3-42.8S115.4,60.9,87.8,88.5S45,152.8,45,191.8s15.2,75.7,42.8,103.3
					c27.6,27.6,64.3,42.8,103.3,42.8s75.7-15.2,103.3-42.8c27.6-27.6,42.8-64.3,42.8-103.3S322,116.1,294.4,88.5z M282,282.7
					c-24.3,24.3-56.6,37.6-90.9,37.6c-34.3,0-66.6-13.4-90.9-37.6c-24.3-24.3-37.7-56.6-37.7-90.9s13.4-66.6,37.7-90.9
					c24.3-24.3,56.6-37.6,90.9-37.6s66.6,13.4,90.9,37.6c24.3,24.3,37.7,56.6,37.7,90.9C319.6,226.1,306.3,258.4,282,282.7z"/>
				<path class="st0" d="M321.2,61.8C249.4-10,132.8-10,61,61.8c-71.7,71.7-71.7,188.4,0,260.1c35.9,35.9,83,53.8,130.1,53.8
					c47.1,0,94.2-17.9,130.1-53.8C392.9,250.2,392.9,133.5,321.2,61.8z M308.8,309.5c-64.9,64.9-170.5,64.9-235.3,0
					C8.6,244.6,8.6,139,73.4,74.1c32.4-32.4,75.1-48.7,117.7-48.7c42.6,0,85.2,16.2,117.7,48.7C373.7,139,373.7,244.6,308.8,309.5z"
					/>
			</g>
		</g>
	</g>
</g>
</svg>
