<?xml version="1.0" encoding="utf-8"?>
<!-- Generator: Adobe Illustrator 24.2.1, SVG Export Plug-In . SVG Version: 6.00 Build 0)  -->
<svg version="1.1" id="Capa_1" xmlns="http://www.w3.org/2000/svg" xmlns:xlink="http://www.w3.org/1999/xlink" x="0px" y="0px"
	 viewBox="0 0 512 512" style="enable-background:new 0 0 512 512;" xml:space="preserve">
<style type="text/css">
	.st0{fill:#FFFFFF;}
</style>
<g>
	<circle cx="256" cy="256" r="225"/>
	<path class="st0" d="M399,197.9c0-47.1-38.2-85.3-85.3-85.3H201.1c-47.1,0-85.3,38.2-85.3,85.3v112.6c0,47.1,38.2,85.3,85.3,85.3
		h112.6c47.1,0,85.3-38.2,85.3-85.3V197.9z"/>
	<path d="M372.3,310.5c0,32.4-26.2,58.6-58.6,58.6H201.1c-32.4,0-58.6-26.2-58.6-58.6V197.9c0-32.4,26.2-58.6,58.6-58.6h112.6
		c32.4,0,58.6,26.2,58.6,58.6L372.3,310.5L372.3,310.5z"/>
	<circle class="st0" cx="331.9" cy="181.3" r="16.6"/>
	<circle class="st0" cx="257.8" cy="256" r="69.9"/>
	<circle cx="257.8" cy="256" r="44.8"/>
</g>
</svg>
