<?xml version="1.0" encoding="utf-8"?>
<!-- Generator: Adobe Illustrator 24.1.3, SVG Export Plug-In . SVG Version: 6.00 Build 0)  -->
<svg version="1.1" id="Capa_1" xmlns="http://www.w3.org/2000/svg" xmlns:xlink="http://www.w3.org/1999/xlink" x="0px" y="0px"
	 viewBox="0 0 512 512" style="enable-background:new 0 0 512 512;" xml:space="preserve">
<style type="text/css">
	.st0{fill:#FDE4E4;}
	.st1{fill:#FCCED3;}
	.st2{fill:#FAAAAA;}
	.st3{fill:#7ED8F6;}
	.st4{fill:#6AA9FF;}
</style>
<g>
	<path class="st0" d="M478.9,322.8c-2.7,4.5-7.5,7.2-12.9,7.2h-45v15l-20.7,19.8L421,375v30c0,24.9-20.1,45-45,45H271v47
		c0,8.4-6.6,15-15,15H106c-8.4,0-15-6.6-15-15V364.5c0-16.8-6.3-33.9-18.3-48.9C45.4,280.8,31,239.1,31,195
		c0-56.4,24.3-110.1,66.9-147c35.4-31.2,81-48,128.1-48c9.3,0,18.6,0.6,27.9,1.8c85.5,12,155.1,82.8,165.6,168.6
		c1.2,10.2,1.8,20.7,1.5,30.6l58.2,106.8C481.6,312.6,481.6,318,478.9,322.8z"/>
	<path class="st1" d="M478.9,322.8c-2.7,4.5-7.5,7.2-12.9,7.2h-45v15l-20.7,19.8L421,375v30c0,24.9-20.1,45-45,45H271v47
		c0,8.4-6.6,15-15,15h-30V0c9.3,0,18.6,0.6,27.9,1.8c85.5,12,155.1,82.8,165.6,168.6c1.2,10.2,1.8,20.7,1.5,30.6l58.2,106.8
		C481.6,312.6,481.6,318,478.9,322.8z"/>
	<path class="st2" d="M421,345v30h-32.7c-22.8,0-45.3,9.3-61.8,25.5c-5.4,6-15.6,6-21,0c-6-5.7-6-15.3,0-21
		c21.9-21.9,51.9-34.5,82.8-34.5H421z"/>
	<path class="st3" d="M129.3,268.4c-7.4-3.7-10.4-12.7-6.7-20.1l30-60c3.7-7.4,12.7-10.4,20.1-6.7c7.4,3.7,10.4,12.7,6.7,20.1
		l-30,60C145.8,269.1,136.8,272.1,129.3,268.4z"/>
	<path class="st3" d="M239.5,201.6l-30,60c-3.9,7.5-12.6,10.5-20.1,6.9c-7.5-3.9-10.5-12.9-6.9-20.1l30-60c2.7-5.4,8.1-8.4,13.5-8.4
		c2.4,0,4.5,0.6,6.6,1.5C240.1,185.4,243.1,194.4,239.5,201.6z"/>
	<path class="st4" d="M249.3,268.4c-7.4-3.7-10.4-12.7-6.7-20.1l30-60c3.7-7.4,12.7-10.4,20.1-6.7c7.4,3.7,10.4,12.7,6.7,20.1
		l-30,60C265.8,269.1,256.8,272.1,249.3,268.4z"/>
	<path class="st4" d="M239.5,201.6l-13.5,27V180c2.4,0,4.5,0.6,6.6,1.5C240.1,185.4,243.1,194.4,239.5,201.6z"/>
	<path class="st3" d="M299.8,122.1C293.8,87,262.9,60,226,60s-67.8,27-73.8,62.1c-18,6-31.2,22.8-31.2,42.9c0,24.9,20.1,45,45,45
		h120c24.9,0,45-20.1,45-45C331,144.9,317.8,128.1,299.8,122.1z"/>
	<path class="st4" d="M331,165c0,24.9-20.1,45-45,45h-60V60c36.9,0,67.8,27,73.8,62.1C317.8,128.1,331,144.9,331,165z"/>
</g>
</svg>
