<?xml version="1.0" encoding="utf-8"?>
<!-- Generator: Adobe Illustrator 24.2.3, SVG Export Plug-In . SVG Version: 6.00 Build 0)  -->
<svg version="1.1" id="Capa_1" xmlns="http://www.w3.org/2000/svg" xmlns:xlink="http://www.w3.org/1999/xlink" x="0px" y="0px"
	 viewBox="0 0 512 512" style="enable-background:new 0 0 512 512;" xml:space="preserve">
<style type="text/css">
	.st0{fill:#FFFFFF;}
</style>
<g>
	<path class="st0" d="M495.8,57.6H471v-8.3c0-4.6-3.7-8.3-8.3-8.3h-57.9v-8.3C404.8,19.1,393.7,8,380,8s-24.8,11.1-24.8,24.8V41
		h-16.5v-8.3c0-13.7-11.1-24.8-24.8-24.8s-24.8,11.1-24.8,24.8V41h-99.2v-8.3c0-13.7-11.1-24.8-24.8-24.8
		c-13.7,0-24.8,11.1-24.8,24.8V41h-16.5v-8.3C123.7,19.1,112.6,8,98.9,8S74.1,19.1,74.1,32.8V41H16.2C11.7,41,8,44.7,8,49.3v413.4
		c0,4.6,3.7,8.3,8.3,8.3h8.3v24.8c0,4.6,3.7,8.3,8.3,8.3h463c4.6,0,8.3-3.7,8.3-8.3V65.8C504,61.3,500.3,57.6,495.8,57.6z
		 M24.5,454.4V156.8h429.9v297.6H24.5z M371.7,32.8c0-4.6,3.7-8.3,8.3-8.3s8.3,3.7,8.3,8.3V41h-16.5V32.8z M305.6,32.8
		c0-4.6,3.7-8.3,8.3-8.3s8.3,3.7,8.3,8.3V41h-16.5V32.8z M156.8,32.8c0-4.6,3.7-8.3,8.3-8.3s8.3,3.7,8.3,8.3V41h-16.5V32.8z
		 M90.6,32.8c0-4.6,3.7-8.3,8.3-8.3c4.6,0,8.3,3.7,8.3,8.3V41H90.6V32.8z M74.1,57.6v8.3c0,13.7,11.1,24.8,24.8,24.8
		c4.6,0,8.3-3.7,8.3-8.3s-3.7-8.3-8.3-8.3c-4.6,0-8.3-3.7-8.3-8.3v-8.3h49.6v8.3c0,13.7,11.1,24.8,24.8,24.8c4.6,0,8.3-3.7,8.3-8.3
		s-3.7-8.3-8.3-8.3c-4.6,0-8.3-3.7-8.3-8.3v-8.3h132.3v8.3c0,13.7,11.1,24.8,24.8,24.8c4.6,0,8.3-3.7,8.3-8.3s-3.7-8.3-8.3-8.3
		c-4.6,0-8.3-3.7-8.3-8.3v-8.3h49.6v8.3c0,13.7,11.1,24.8,24.8,24.8c4.6,0,8.3-3.7,8.3-8.3s-3.7-8.3-8.3-8.3c-4.6,0-8.3-3.7-8.3-8.3
		v-8.3h82.7v82.7H24.5V57.6H74.1z M487.5,487.5H41V471h421.7c4.6,0,8.3-3.7,8.3-8.3V74.1h16.5V487.5z"/>
	<path class="st0" d="M239.5,421.4c63.9,0,115.7-51.8,115.7-115.7s-51.8-115.7-115.7-115.7s-115.7,51.8-115.7,115.7
		C123.8,369.5,175.6,421.3,239.5,421.4z M239.5,404.8c-51.6-0.1-94.5-39.6-98.9-90.9h16.6c4.6,45.4,45.1,78.6,90.5,74
		c39.1-3.9,70.1-34.9,74-74h16.6C334,365.3,291,404.8,239.5,404.8z M239.5,239.5c36.5,0,66.1,29.6,66.1,66.1s-29.6,66.1-66.1,66.1
		s-66.1-29.6-66.1-66.1C173.4,269.1,203,239.5,239.5,239.5z M338.3,297.3h-16.6c-4-39.1-34.9-70-74-74v-16.6
		C296,210.8,334.2,249.1,338.3,297.3z M231.2,206.7v16.6c-39.1,4-70,34.9-74,74h-16.6C144.7,249.1,183,210.8,231.2,206.7z"/>
	<path class="st0" d="M239.5,346.9c18.2,0,33.1-12.6,33.1-28.1c0-12.2-18.4-39.8-26.3-51.1c-2.6-3.7-7.8-4.6-11.5-2
		c-0.8,0.6-1.5,1.2-2,2c-0.3,0.4-6.4,9.2-12.7,19.5c-12,19.8-13.6,27.3-13.6,31.6C206.4,334.3,221.2,346.9,239.5,346.9z
		 M239.5,287.3c9.3,14.4,16.4,27.6,16.5,31.5c0,6.3-7.6,11.6-16.5,11.6s-16.5-5.3-16.5-11.6C223.1,315,230.1,301.7,239.5,287.3z"/>
</g>
</svg>
