<?xml version="1.0" encoding="utf-8"?>
<!-- Generator: Adobe Illustrator 24.2.0, SVG Export Plug-In . SVG Version: 6.00 Build 0)  -->
<svg version="1.1" id="Capa_1" xmlns="http://www.w3.org/2000/svg" xmlns:xlink="http://www.w3.org/1999/xlink" x="0px" y="0px"
	 viewBox="0 0 512 512" style="enable-background:new 0 0 512 512;" xml:space="preserve">
<style type="text/css">
	.st0{fill:#010101;}
</style>
<g>
	<path class="st0" d="M349,468.6c-13.7,0-27.3-2.4-40.6-7.3c-58.6-21.3-113-56-157.4-100.3S72,262.3,50.7,203.7
		c-6.8-18.8-8.9-38.3-6-57.8c2.7-18.3,9.8-36,20.5-51.3c10.8-15.4,25.1-28.1,41.5-37c17.5-9.4,36.5-14.2,56.7-14.2
		c6.3,0,11.7,4.4,13,10.5l20.9,97.3c0.9,4.4-0.4,9-3.6,12.2L157.9,199c33.6,66.8,88.2,121.4,155,155l35.6-35.6
		c3.2-3.2,7.8-4.5,12.2-3.6l97.3,20.9c6.1,1.3,10.5,6.7,10.5,13c0,20.1-4.8,39.2-14.2,56.7c-8.8,16.4-21.6,30.7-37,41.5
		c-15.3,10.7-33,17.8-51.3,20.5C360.4,468.2,354.7,468.6,349,468.6L349,468.6z M152.7,70.6c-26.6,2.9-50.2,16.9-65.8,39.2
		c-17.6,25.1-21.7,56-11.3,84.8c40.9,112.7,129.1,200.8,241.8,241.8c28.8,10.5,59.7,6.3,84.8-11.3c22.4-15.7,36.3-39.2,39.2-65.8
		l-79.2-17l-37.2,37.2c-4,4-10,5-15,2.6C231,345,167,281,129.8,202c-2.4-5.1-1.3-11.1,2.6-15l37.2-37.2L152.7,70.6z"/>
	<path class="st0" d="M455.3,269.3c-7.3,0-13.3-5.9-13.3-13.3c0-102.6-83.4-186-186-186c-7.3,0-13.3-5.9-13.3-13.3
		c0-7.3,5.9-13.3,13.3-13.3c56.8,0,110.2,22.1,150.3,62.3s62.3,93.5,62.3,150.3C468.6,263.3,462.6,269.3,455.3,269.3L455.3,269.3z"
		/>
	<path class="st0" d="M402.2,269.3c-7.3,0-13.3-5.9-13.3-13.3c0-73.3-59.6-132.9-132.9-132.9c-7.3,0-13.3-5.9-13.3-13.3
		c0-7.3,5.9-13.3,13.3-13.3c87.9,0,159.4,71.5,159.4,159.4C415.5,263.3,409.5,269.3,402.2,269.3z"/>
	<path class="st0" d="M349,269.3c-7.3,0-13.3-5.9-13.3-13.3c0-44-35.8-79.7-79.7-79.7c-7.3,0-13.3-5.9-13.3-13.3s5.9-13.3,13.3-13.3
		c58.6,0,106.3,47.7,106.3,106.3C362.3,263.3,356.4,269.3,349,269.3z"/>
</g>
</svg>
