<?xml version="1.0" encoding="utf-8"?>
<!-- Generator: Adobe Illustrator 24.2.0, SVG Export Plug-In . SVG Version: 6.00 Build 0)  -->
<svg version="1.1" id="Capa_1" xmlns="http://www.w3.org/2000/svg" xmlns:xlink="http://www.w3.org/1999/xlink" x="0px" y="0px"
	 viewBox="0 0 512 512" style="enable-background:new 0 0 512 512;" xml:space="preserve">
<style type="text/css">
	.st0{fill:#010101;}
</style>
<g>
	<path class="st0" d="M256,468.6c-9.3,0-17.6-4.8-22.2-12.9c0-0.1-0.1-0.2-0.1-0.3l-105.4-193c-25.2-46.1-24.4-100.7,1.9-146.3
		c25.8-44.5,71.6-71.7,122.6-72.8c2.2,0,4.4,0,6.5,0c51,1,96.8,28.2,122.6,72.8c26.4,45.5,27.1,100.2,1.9,146.3l-105.4,193
		c0,0.1-0.1,0.2-0.1,0.3C273.6,463.8,265.3,468.6,256,468.6L256,468.6z M256,70c-0.9,0-1.8,0-2.7,0c-41.6,0.8-79,23.1-100.2,59.5
		c-21.7,37.4-22.3,82.4-1.6,120.2L256,441l104.5-191.3c20.7-37.8,20.1-82.8-1.6-120.2C337.8,93.1,300.3,70.9,258.7,70
		C257.8,70,256.9,70,256,70L256,70z"/>
	<path class="st0" d="M256,236.1c-33,0-59.8-26.8-59.8-59.8s26.8-59.8,59.8-59.8s59.8,26.8,59.8,59.8S289,236.1,256,236.1z
		 M256,143.1c-18.3,0-33.2,14.9-33.2,33.2s14.9,33.2,33.2,33.2s33.2-14.9,33.2-33.2S274.3,143.1,256,143.1z"/>
</g>
</svg>
