<?xml version="1.0" encoding="utf-8"?>
<!-- Generator: Adobe Illustrator 24.2.3, SVG Export Plug-In . SVG Version: 6.00 Build 0)  -->
<svg version="1.1" id="Capa_1" xmlns="http://www.w3.org/2000/svg" xmlns:xlink="http://www.w3.org/1999/xlink" x="0px" y="0px"
	 viewBox="0 0 512 512" style="enable-background:new 0 0 512 512;" xml:space="preserve">
<style type="text/css">
	.st0{fill:#FFFFFF;}
</style>
<g>
	<path class="st0" d="M478.7,119.9c0,31.3,0,62.5,0,93.8c0,8.7-1.9,10.2-9.8,6.5c-5.4-2.5-9.7-3-14.8,0.8c-1.7,1.3-5.9,0.8-8.1-0.5
		c-4-2.4-7.3-3.2-11.1,0c-3.4,2.9-6.9,2.5-10.2-0.2c-3.4-2.8-6.7-2.8-10.1,0c-3.5,2.9-7.2,2.8-10.7-0.1c-3.2-2.6-6.3-2.9-9.6-0.1
		c-3.6,3-7.5,3.1-11.2,0.1c-3.3-2.7-6.4-2.7-9.6,0c-3.7,3.1-7.5,2.9-11.2-0.1c-3-2.5-6-2.8-9.1-0.2c-3.8,3.2-7.8,3.3-11.6,0.1
		c-3.1-2.6-6-2.6-9.2,0c-3.6,2.9-7.4,3.4-11.2,0.2c-3.6-3.1-7.3-3-11.3-0.7c-1.4,0.8-2.9,1.3-4.4,1.8c-4.1,1.5-6.6,0.2-7.3-4.1
		c-0.3-1.6-0.1-3.2-0.1-4.8c0-61.3,0-122.6,0-183.9c0-1.6-0.1-3.2,0.1-4.8c0.5-3.7,2.6-5.4,6.4-4.4c1.5,0.4,3.1,0.9,4.5,1.7
		c4.6,2.6,8.9,2.9,13.1-1c3.4-3.1,7-1.9,10.1,0.7c3.3,2.7,6.3,2.7,9.5,0c3.7-3.2,7.4-3.2,11.1,0c3.2,2.7,6.2,3,9.5,0.1
		c3.8-3.4,7.7-3.1,11.5,0c2.8,2.3,5.6,2.9,8.6,0.3c4.1-3.5,8.3-3.7,12.4,0c3,2.6,5.9,2,8.6-0.3c3.9-3.2,7.7-3.3,11.5-0.1
		c3.3,2.8,6.4,2.5,9.5-0.2c3.7-3.2,7.4-3.1,11,0.1c3.2,2.8,6.2,2.8,9.5,0c3.6-3.1,7.4-3.3,11.1-0.1c3.4,2.9,6.9,3.4,10.7,0.9
		c1.2-0.8,2.6-1.2,3.9-1.7c5.6-2,8-0.4,8,5.6c0.1,18.8,0,37.5,0,56.3C478.7,94.5,478.7,107.2,478.7,119.9z M306,29.2
		c-0.1,2.9-0.1,4.7-0.3,6.4c-0.7,5.2,1.5,7.2,6.7,6.7c1.9-0.2,4.1-0.3,5.8,0.4c1.6,0.6,2.8,2.3,4.1,3.5c-1.3,1.2-2.5,2.9-4.1,3.5
		c-1.7,0.6-3.9,0.5-5.8,0.3c-5.1-0.5-6.8,1.4-6.8,6.7c0.2,26.1,0.1,52.2,0.1,78.3c0,17,0.1,34-0.1,50.9c0,4,1.3,5.6,5.3,5.3
		c2.5-0.2,5.1-0.4,7.4,0.3c1.5,0.4,2.6,2.4,3.9,3.7c-1.3,1.2-2.5,3.1-4,3.5c-2.7,0.6-5.7,0-8.5,0.4c-1.4,0.2-3.5,1.6-3.7,2.7
		c-0.5,3-0.2,6.2-0.2,9.1c1.1,0.3,1.5,0.5,1.8,0.5c0.5,0,1.1-0.1,1.5-0.4c5.3-2.9,10-2.2,14.9,1.2c1.5,1,5.1,0.1,7-1.1
		c3.9-2.5,7.4-3.2,11.2,0c3.2,2.7,6.3,3,9.5,0.1c3.8-3.4,7.7-3.2,11.5,0.2c3.1,2.7,6.1,2.4,9.1-0.1c3.9-3.3,7.7-3.2,11.5,0
		c3.1,2.7,6.1,2.6,9.1,0c3.8-3.3,7.7-3.3,11.5,0c3,2.6,6,2.7,9.1,0.1c3.8-3.3,7.7-3.4,11.5-0.1c3.3,2.9,6.4,2.5,9.5-0.2
		c3.7-3.1,7.5-3,11.1,0.1c3.3,2.8,6.3,2.5,9.6,0c3-2.4,6.3-3.1,10-1.1c1.5,0.8,3.2,1,5.5,1.6c0.1-2.9,0.1-5,0.3-7.1
		c0.5-4.4-1.2-6.1-5.8-5.8c-5.3,0.3-10.8,0.4-16.1-0.1c-2-0.2-3.7-2.4-5.6-3.7c1.8-1.3,3.6-3.6,5.5-3.7c5.5-0.5,11.1-0.4,16.6-0.1
		c3.9,0.2,5.3-1,5.3-5.1c-0.1-43.4-0.1-86.9,0-130.3c0-4.2-1.4-5.7-5.6-5.6c-10.5,0.2-21.1,0.1-31.6,0c-2.7,0-6.4,0.6-6.5-3.7
		c-0.1-4.2,3.6-3.6,6.3-4c1.2-0.2,2.5,0,3.8,0c9.5,0,19,0.1,28.4-0.1c1.7,0,4.6-1.4,4.8-2.6c0.7-3.1,0.2-6.4,0.2-11.1
		c-7.2,4.8-12.9,4.3-18.6,0.1c-1.1-0.8-4.5,0.3-6.1,1.5c-4,2.9-7.8,3.4-11.6,0c-3.2-2.8-6.3-2.6-9.5,0.1c-3.7,3.1-7.4,3.1-11.1,0
		c-3.2-2.7-6.3-2.8-9.5,0c-3.6,3.1-7.4,3.3-11.1,0.1c-3.1-2.7-6.3-2.9-9.5-0.1c-3.8,3.3-7.8,3.1-11.5-0.1c-3.1-2.7-6.1-2.4-9,0.1
		c-3.9,3.2-7.6,3.3-11.5,0c-2.9-2.5-5.9-2.8-9-0.1c-3.8,3.3-7.7,3.5-11.5,0.2c-3.3-2.8-6-2-9.6-0.2c-2.8,1.4-6.6,1.2-10,1.2
		C310.1,31.2,308.5,30.1,306,29.2z"/>
	<path class="st0" d="M79.3,119.8c0-31.1,0-62.2,0-93.3c0-13,5.6-18.5,18.6-18.5c39.7,0,79.4,0,119.1,0c12.8,0,18.3,5.3,18.4,18.2
		c0.1,23.2,0,46.5,0,69.7c0,0.9,0,1.8-0.1,2.7c-0.5,2.6-0.5,5.7-4.3,5.6c-3.9-0.1-4.4-3.1-4.4-6.1c0-16.6,0-33.2,0-49.9
		c0-7.7,0.1-15.4,0-23.1c-0.1-6.1-2-8-8.1-8c-40.6,0-81.2,0-121.7,0c-6.8,0-8.2,1.6-8.2,8.2c0,63.1,0,126.2,0,189.3
		c0,7.3,1.8,9.1,9.3,9.1c39.5,0,79,0,118.5,0c8.4,0,10.3-2,10.3-10.5c0-22.5,0-45,0-67.6c0-1.6-0.5-3.5,0.2-4.8
		c0.9-1.9,2.7-3.3,4-4.9c1.5,1.6,3.1,3,4.3,4.7c0.6,0.9,0.3,2.4,0.3,3.7c0,23.4,0.1,46.8-0.1,70.2c0,3.5-0.7,7.2-2.1,10.3
		c-2.9,6.1-8.5,7.4-14.9,7.4c-37.4-0.1-74.7,0-112.1,0c-3,0-6.1,0-9.1,0c-12.5-0.1-17.8-5.4-17.8-18.1c0-13,0-26.1,0-39.1
		C79.3,156.6,79.3,138.2,79.3,119.8z"/>
	<path class="st0" d="M479,415.4c0,25.4,0,50.7,0,76.1c0,7.3-2.1,8.7-8.8,5.6c-3.9-1.8-7.1-2.1-11,0.4c-1.9,1.2-5.6,1.1-7.7,0
		c-3.2-1.6-5.5-2-8.8-0.2c-2.1,1.1-5.7,1.1-7.9,0.1c-3.1-1.5-5.2-1.6-8.4-0.2c-2.3,1.1-5.9,1-8.3,0c-2.9-1.1-4.9-1.5-7.9-0.2
		c-2.5,1.1-5.9,0.2-8.9,0.2c-2.4,0-5.2-0.8-7.2,0c-3.4,1.5-6.2,1.7-9.6-0.1c-1.8-0.9-4.9-1-6.7-0.1c-3.4,1.7-6.4,2.3-9.5,0
		c-2.7-2-5-1.3-7.8,0.1c-2.2,1.1-6,1.4-7.9,0.2c-3.9-2.5-7.2-2.1-11-0.3c-6.7,3-8.8,1.7-8.8-5.8c0-50.9,0-101.8,0-152.7
		c0-7.4,1.9-8.8,8.7-5.6c4.2,1.9,7.5,2,11.5-0.5c1.7-1.1,5.2-0.9,7.1,0.2c3.2,1.8,5.7,2.5,8.7,0c2.7-2.3,5.6-2.1,8.3,0.1
		c2.8,2.3,5.4,2.3,8.2,0c2.7-2.2,5.5-2.3,8.3,0c2.7,2.3,5.3,2.5,8.1,0.1c2.9-2.5,5.9-2.2,8.7,0.1c2.6,2.2,5.1,2,7.7-0.1
		c2.6-2.1,5.5-2.6,8.3-0.2c2.9,2.4,5.4,2,8.7,0.2c2-1.1,5.7-1.2,7.6-0.1c3.5,2.1,5.9,1.8,9.2-0.2c1.8-1.1,5.3-1,7.1,0
		c3.8,2.2,6.9,2.4,11,0.5c7.3-3.4,9.3-1.9,9.3,6.1C479,364.7,479,390,479,415.4z M470.6,490.5c1.9-10.5,1.7-10.8-7.7-10.8
		c-3,0-6.1,0.3-9.1-0.2c-1.6-0.3-2.9-1.9-4.4-3c1.5-1.2,2.8-3.2,4.4-3.5c3.3-0.6,6.8-0.2,10.2-0.2c7.4,0,7.4,0,7.4-7.2
		c0-32.5,0-65,0-97.5c0-11.5,0-11.4-11.7-11.5c-6.8,0-13.6,0.1-20.4-0.2c-1.2,0-2.3-1.6-3.5-2.4c1.1-1.2,2-2.8,3.3-3.4
		c1.4-0.6,3.2-0.2,4.8-0.2c8.9,0,17.8,0,26.9,0c0-3.7,0-6.9,0-11c-5.3,3.3-9.7,2.9-14.1-0.3c-1-0.7-3.8,0.2-5.2,1.1
		c-3.3,2-6.1,1.8-9.5,0.1c-1.9-1-5.1-0.9-7,0c-3.4,1.7-6.1,1.6-9.5-0.1c-1.9-0.9-5.1-0.9-7.1,0.1c-3.5,1.8-6.1,1.5-9.5-0.1
		c-1.9-0.9-5.1-0.8-7,0.1c-3.2,1.6-6,2.1-8.9-0.1c-2.7-2.1-4.9-1.7-7.8-0.2c-2.2,1.1-5.7,1.5-7.7,0.4c-3.6-2-6.5-2.4-9.7,0.2
		c-0.8,0.6-2.3,1.4-2.9,1.1c-6-3.5-11.7-2.7-17.8,0c-1.7,0.8-4.5-1-6.8-1.6c-1.7,9.7-1.5,9.8,6.9,10.2c1.4,0.1,3,0.1,4.1,0.8
		c2.3,1.6,2.4,3.6-0.3,4.9c-1.1,0.5-2.4,0.5-3.7,0.5c-7.7-0.1-7.7-0.6-7.7,8.1c0,32.9,0,65.7,0,98.6c0,8.5,0,8.5,8.4,9.5
		c0.9,0.1,1.9,0.1,2.5,0.6c0.9,0.7,2.3,1.9,2.2,2.6c-0.2,1.1-1.3,2.4-2.4,3c-1,0.6-2.4,0.5-3.6,0.6c-7.7,0.4-8.8,2.2-6.4,8.8
		c4.4,0.5,8.4,0.2,11.9,1.5c2.9,1.1,4.9,1.2,7.9,0c2.5-1,6.2-1.1,8.7,0c3,1.3,5.2,1.8,7.8-0.2c2.9-2.3,5.9-2.3,8.8,0
		c2.6,2.1,4.8,1.3,7.8,0.1c2.5-1,6.2-1,8.7,0.1c3,1.2,4.9,1.1,7.8-0.1c2.5-1,6.2-1,8.7,0.1c3,1.4,5.2,1.8,7.7-0.3
		c3.1-2.5,6.2-2.3,9.3,0.2c2.4,2,4.8,2,7.2,0c3.1-2.5,6.1-2.2,9.4-0.1c1.4,0.9,4.2,1.7,5.2,1C461.3,487.6,465.7,487.1,470.6,490.5z"
		/>
	<path class="st0" d="M261.3,278.2c2-4.4,3.4-7.5,4.9-10.7c4.2-9.1,10.2-13.2,20-11.5c15.1,2.5,30.1,5.9,45.1,9
		c3.1,0.6,6.5,1.1,9.2,2.6c1.7,0.9,3.4,3.7,3.3,5.5c-0.7,8.4-6.9,13.5-15.2,13.2c-10.4-0.3-16.5-5.2-17-14c-0.2-3.1-1.2-4.5-4.1-5
		c-7.7-1.4-15.4-3.2-23.1-4.4c-4.9-0.8-8.8,1.6-11.1,5.9c-2.6,5-4.6,10.4-7.2,16.2c1.8,0.4,3.1,0.7,4.4,0.8
		c7,0.7,10.1,3.7,10.3,10.5c0.2,8.2,0.3,16.5-0.1,24.7c-0.1,1.9-2.2,3.7-3.4,5.6c-1.1-2-3.1-3.9-3.2-5.9c-0.4-6.9-0.3-13.9-0.1-20.9
		c0.1-4.7-1.8-6.9-6.7-6.7c-4.8,0.2-9.7,0.1-14.5,0c-3.8-0.1-5.6,1.8-5.6,5.6c0,29.5,0,59,0,88.5c0,4.1,2.2,5.8,6,5.7
		c4.8,0,9.7,0,14.5,0c4.3,0.1,6.2-2,6.2-6.2c-0.1-8,0-16.1,0-24.1c0-1.4-0.4-3,0.1-4.3c0.8-2,2.2-3.8,3.3-5.8
		c1.2,1.8,2.8,3.5,3.5,5.5c0.6,1.8,0.1,3.9,0.1,5.9c0,8.4,0.1,16.8-0.1,25.2c-0.2,7.7-3.2,10.3-10.9,10.8c-1.8,0.1-3.6,1.3-5.3,2.1
		c0.9,2.1,1.7,4.2,2.8,6.2c1.7,3.3,4.2,6.4,5.2,10c0.9,3.1,0.3,6.7,0.1,10.1c-0.5,6.7-5,11.1-11.3,11.2c-6.9,0.1-12.2-4.5-12.4-11.3
		c-0.2-7.7-1.7-16,7-21c1.1-0.6,1.3-3.6,0.9-5.3c-0.2-0.9-2.4-1.7-3.8-1.8c-10.1-0.8-12.2-3-12.2-13.3c0-27.7,0-55.4,0-83.1
		c0-14.8,0-14.8,15-18.9c-3.1-6.3-5.7-12.7-9.5-18.3c-1.5-2.2-6-3.7-8.9-3.4c-7.4,0.7-14.7,2.7-22.1,4c-3.6,0.6-4.9,2.3-5.2,6
		c-0.7,7.6-5.4,11.8-13.4,12.9c-9,1.3-14.7-1.4-17.8-8.4c-2.7-6.1-1.3-9.5,5.3-11c15.8-3.5,31.7-7.1,47.6-10.1
		c14.1-2.6,19.7,0.8,25.6,14C258.3,272.7,259.6,274.9,261.3,278.2z M256.2,423c0.3,3.9-1,9.4,4.9,9.3c5-0.1,5-5,5-9c0-4,0-8.9-5-9.1
		C255.6,413.9,256.5,419.1,256.2,423z M336.5,276.2c-0.1-0.9-0.3-1.8-0.4-2.6c-4.3-1.2-8.6-2.5-13-3.5c-1-0.2-3,0-3.3,0.6
		c-0.5,1.1-0.6,3.4,0.1,3.9c2.8,1.8,5.9,4,9.1,4.5C331.3,279.4,333.9,277.3,336.5,276.2z M203.1,269.2c-6.2,1.6-11.8,3-17.8,4.5
		c2.8,5.2,6.1,6.3,10.4,5.1C199.8,277.7,203.3,276,203.1,269.2z"/>
	<path class="st0" d="M161.6,120.4c0,24.3,0,48.6,0,72.9c0,1.6,0.4,3.5-0.2,4.8c-0.8,1.7-2.4,3.9-3.9,4.1c-1.3,0.2-3.3-2-4.1-3.6
		c-0.8-1.4-0.5-3.5-0.5-5.3c0-48.6,0-97.1,0-145.7c0-1.8-0.3-3.8,0.5-5.3c0.8-1.6,2.9-3.7,4.2-3.6c1.5,0.2,3.3,2.4,3.9,4.1
		c0.7,2.1,0.2,4.6,0.2,6.9C161.6,73.3,161.6,96.9,161.6,120.4z"/>
	<path class="st0" d="M120.5,61c-4.2-0.6-8.5-0.8-12.5-2c-6.6-2-10.7-8.5-10.5-15.2c0.2-6.9,4.3-13.5,11.1-14.6
		c7.2-1.2,14.9-1.6,22.2-0.6c8.5,1.1,13.7,8.8,13,16.9c-0.7,7.9-7.3,14.3-15.7,14.9c-2.5,0.2-5,0-7.5,0
		C120.5,60.6,120.5,60.8,120.5,61z M116.3,44.7c0-7.6-0.1-7.8-3.2-7.7c-3.7,0.1-6.8,3.5-6.7,7.5c0.1,4.2,2.4,6.8,6.5,6.9
		C118.7,51.5,115.2,46.7,116.3,44.7z M122.9,43.9c2.1,3.2,3.4,7.1,5.3,7.4c4,0.7,6.4-2.5,6.7-6.6c0.3-3.8-3.3-8.2-6.7-7.3
		C126.3,38,125.1,41.1,122.9,43.9z"/>
	<path class="st0" d="M193.9,60.7c-3.5-0.3-7.2-0.2-10.6-1.1c-8.1-2.1-12.5-8-12.3-16c0.2-7.8,5-14.2,13.1-15.3
		c6.6-0.9,13.6-0.9,20.2,0.2c8.6,1.5,13.2,8.7,12.5,17.3c-0.6,7.7-7,13.8-15.4,14.5c-2.5,0.2-5,0-7.5,0
		C193.9,60.5,193.9,60.6,193.9,60.7z M200.4,36.7c-0.6,1.6-2.2,3.4-1.9,4.9c0.6,3.4-2.9,8.1,2.9,10c0.2,0,0.4,0,0.5-0.1
		c4.1-0.7,6.5-3.4,6.5-7.3C208.4,40.4,205.8,37.9,200.4,36.7z M190.8,45c-2.8-3,1.2-8-4.6-8c-4.1,0-6.3,3-6.7,7
		c-0.4,3.9,3.3,8.1,6.8,7.1C188.2,50.6,189.3,47.3,190.8,45z"/>
	<path class="st0" d="M120.8,128.6c5,1,10.2,1.3,14.8,3.3c6.2,2.6,9.2,10.2,7.8,16.6c-1.5,7-7,12.3-13.9,12.8
		c-6,0.4-12.1,0.5-18.1,0c-8.2-0.6-14.3-8-14.1-16.1c0.2-8.3,7-15.3,15.3-15.7c2.7-0.1,5.3,0,8,0
		C120.7,129.3,120.8,128.9,120.8,128.6z M116,152.6c0.1-1.3,0.3-2.7,0.3-4c0-2.5,0.4-5.1-0.2-7.4c-0.3-1.2-2.6-2.7-3.8-2.5
		c-4.1,0.5-6.6,4.5-5.8,8.6C107.2,151.2,110.7,153.3,116,152.6z M134.9,147.6c0-5.6-3.3-9.4-6.8-9.1c-4.5,0.4-2.9,4-3.2,6.6
		c-0.2,1.4,0,2.8,0,4.2c-0.2,4,2.3,4.8,5.1,3.3C132.2,151.3,133.8,148.7,134.9,147.6z"/>
	<path class="st0" d="M121,78c4.3,0.7,8.9,0.9,12.9,2.4c6.6,2.3,10.4,9.4,9.8,16.2c-0.7,6.6-5.5,12.9-12.3,13.7
		c-7,0.9-14.2,1-21.2,0.1c-8.1-1.1-13.4-8.9-12.8-16.6c0.7-7.9,6.9-14.3,14.9-15c2.8-0.3,5.7,0,8.5,0C120.9,78.5,120.9,78.2,121,78z
		 M116.6,95c-1.4-2.4,2.2-7.1-3.5-7.3c-3.8-0.2-6.9,3.4-6.7,7.4c0.2,4.1,2.5,6.8,6.5,7C118.8,102.3,115.1,97.3,116.6,95z
		 M123.6,95.5c1.5,2.2,2.5,5.7,4.6,6.5c3.2,1.2,7-3.1,6.8-7c-0.3-4-2.3-6.9-6.5-7C123.3,87.9,125.5,92.2,123.6,95.5z"/>
	<path class="st0" d="M193.9,111.5c-3.3-0.3-6.8-0.2-10.1-0.9c-8.3-1.7-13.2-8.2-12.7-16.6c0.4-8.1,6.3-14.5,14.6-15.1
		c5.5-0.4,11.1-0.4,16.6,0c8.1,0.6,14.3,7.4,14.6,15.2c0.3,8.3-4.7,14.9-12.9,16.6C200.8,111.3,197.3,111.2,193.9,111.5z M189.7,95
		c-1.3-2.5,2.1-7-3.5-7.3c-3.6-0.1-7.1,3.7-6.8,7.4c0.3,3.9,2.5,6.9,6.6,6.9C191.8,102.2,188.4,97.4,189.7,95z M202.1,85.9
		c-2,2.7-3.4,3.8-3.6,5.1c-0.4,2.4-0.1,5-0.2,7.4c-0.1,4,2.7,5,5.1,3.3c2.3-1.6,4.8-4.9,4.7-7.2C208,91.9,204.8,89.5,202.1,85.9z"/>
	<path class="st0" d="M120.8,212.9c-4.1-0.4-8.3-0.2-12.2-1.3c-7.3-2.1-11.7-9.7-10.7-17.1c1-7.8,6.6-13.4,14.6-13.9
		c5.9-0.4,11.8-0.4,17.6,0.1c7.9,0.7,13.8,7.8,13.7,15.8c-0.1,8-6,15-13.9,15.7c-3,0.3-6.1,0-9.1,0
		C120.8,212.6,120.8,212.7,120.8,212.9z M116.3,189c-5.4-0.4-8.6,1.5-9.7,5.8c-1,4,0.8,6.9,4.6,8.5c3.3,1.4,5.2,0.7,5.1-3.2
		C116.3,196.5,116.3,193,116.3,189z M123.2,196.5c1.7,3,2.6,6.5,4.5,7.3c3.2,1.2,7.2-3.5,7.2-7.4c0-3.8-3.7-8.2-6.9-7.1
		C126,190.1,125,193.7,123.2,196.5z"/>
	<path class="st0" d="M193.9,212.4c-2.7,0-5.4,0.2-8,0c-8.7-0.6-14.7-7.2-14.8-15.9c0-8.5,5.7-15.3,14.2-15.9
		c5.9-0.4,11.8-0.4,17.6,0c8.3,0.7,14.1,7.6,14,16c-0.1,8.3-6.2,15-14.5,15.7C199.6,212.6,196.7,212.4,193.9,212.4
		C193.9,212.4,193.9,212.4,193.9,212.4z M200,189.1c-3.4,2.4-1.4,6.6-1.5,10c-0.1,1.6,1.6,4.5,2.9,4.7c3.5,0.6,7.4-4.1,7.2-7.7
		C208.3,192.7,204.3,188.9,200,189.1z M189.4,189c-5.3-0.5-8.6,1.5-9.7,6c-1,4.3,1.3,7.1,5.3,8.6c2.5,0.9,4.3,0.4,4.4-2.6
		C189.5,197.1,189.4,193.2,189.4,189z"/>
	<path class="st0" d="M193.8,161.5c-2.9,0-5.7,0.2-8.6,0c-8.6-0.8-14.4-7.6-14.2-16.4c0.2-8.3,6.5-15,14.7-15.4
		c5.3-0.2,10.7-0.2,16.1,0c8.4,0.3,15,7.3,15,15.7c0.1,8.7-5.8,15.4-14.5,16.1C199.5,161.7,196.7,161.5,193.8,161.5z M197.4,144.7
		c2.2,3.4-1.6,8.1,4.1,8.4c3.4,0.2,7.1-4,7-7.5c-0.1-3.6-4.2-8.2-7.1-7C199.4,139.5,198.5,142.8,197.4,144.7z M190.7,146.5
		c-1.2-7.6-1.5-8.3-4.4-8.2c-3.7,0.2-6.9,3.9-6.8,7.6c0.1,3.6,4.2,8.1,7.2,6.9C188.6,152.2,189.4,148.7,190.7,146.5z"/>
	<g>
		<path class="st0" d="M179.8,471.3c-11.1,5.1-11.1,5.1-22.3-9.8c-2.7,1.4-5.4,2.9-8.1,4.5c-7.2,4.2-9.2,3.7-13.4-3.2
			c-20-33.2-39.9-66.3-59.8-99.5c-2.1-3.5-3.8-5.3-8.4-3.8c-1.8,0.6-5.6-1.2-7-3c-4.1-5.6-7.4-11.8-11-17.7c-2.4-4-1.5-7.2,2.3-9.5
			c5.1-3.2,10.3-6.4,15.6-9.4c3-1.7,3.6-3.7,1.5-6.5c-1-1.4-1.6-3.4-2.9-4.4c-1.2-0.9-3.3-1.6-4.6-1.2c-2.5,0.9-4.6,2.6-6.9,4
			c-4.2,2.4-7.6,1.4-10-2.6c-3.6-5.8-6.9-11.7-10.5-17.4c-2.5-4-1.7-7.2,2.2-9.6c17.4-10.5,34.8-21,52.3-31.5
			c4.1-2.4,7.1-1.3,9.5,2.5c3.6,5.8,7.2,11.5,10.6,17.4c2.3,3.9,1.8,7.5-2.4,10.1c-0.5,0.3-0.9,0.6-1.3,0.9c-9,5.9-9.2,8-0.6,16.2
			c4.9-2.9,9.9-5.9,14.9-8.9c8.5-5.1,10.3-4.7,15.6,4c1.9,3.2,3.9,6.4,5.8,9.6c5.3,8.7,5.3,8.7-1.4,16.1c0.7,1.5,2,3.1,2,4.7
			c0,2.4-0.3,5.4-1.7,6.8c-1,0.9-5.5,0.2-6.2-1.1c-3.4-6.1-6.9-3.9-11.2-1.3c-13.2,8.2-26.5,16-40.4,24.4c5,8.1,9.6,15.9,14.5,23.4
			c0.5,0.8,3.2,0.8,4.6,0.3c2-0.6,3.8-2.5,5.7-2.7c2-0.2,5.3,0.6,5.9,2c0.8,1.7,0.2,5-1.1,6.5c-2,2.3-5,3.8-7.5,5.5
			c0.1,0.8,0,1.2,0.1,1.4c7.9,14.7,7.9,14.7,22.1,6.2c9.9-6,19.9-12,29.9-17.8c2.4-1.4,3.9-2.8,2.5-5.9c-1.3-2.9-1.6-6.2,2-7.8
			c3.7-1.6,6.1,0.7,7.9,3.7c9.8,16.2,19.6,32.4,29.3,48.5c1.8,2.9,3.6,5.7,5.3,8.7c2.7,4.9,2,7.8-2.6,10.9c-9.4,6.3-9.4,6.3-4,16
			c2.9,5.2,2.4,7.9-2.9,11.1c-3.9,2.3-4.2,4.4-1.8,8c4.6,7,8.8,14.3,13,21.5c2.1,3.6,5.6,7.3,0.6,11.2c-3.1,2.4-5.9,0.7-9.7-5.5
			c-4.4-7.3-8.9-14.6-13.3-22C181.8,474.2,180.8,472.9,179.8,471.3z M165.6,384.4c-13.2,7.9-26.1,15.7-39.1,23.4
			c-9.4,5.6-8.8,4-3.2,13.3c4.7,7.9,4.7,7.6,13.2,4.7c2.1-0.7,5.8,0,7.4,1.5c2.5,2.5,0.3,5.2-2,7.2c-2.2,1.9-6.1,3.7-6.2,5.6
			c-0.1,2.7,2.6,5.6,4.2,8.4c0.8,1.4,1.8,2.6,2.5,4.1c1.4,2.8,3.1,3.4,5.9,1.7c13.4-8.2,26.8-16.3,40.4-24.2
			c3.3-1.9,2.9-3.7,1.3-6.4c-7.2-11.9-14.3-23.8-21.5-35.7C167.7,386.8,166.7,385.8,165.6,384.4z M67.9,347.8
			c2.5-1.4,4.1-2.2,5.6-3.1c17.2-10.4,34.4-20.8,51.7-31.1c7.5-4.5,7.4-4.4,2.7-11.9c-1.9-3-3.4-3.4-6.4-1.6
			c-18.7,11.4-37.5,22.6-56.2,34c-1.4,0.8-3.1,3.3-2.8,4.2C63.8,341.6,66,344.5,67.9,347.8z M97.9,273.3c-1.6-2.7-2.9-4.6-3.8-6.7
			c-1.8-4-3.9-4.6-7.8-2.1c-11.9,7.5-24,14.6-36.1,21.8c-3,1.8-5,3.5-2.1,7c1.1,1.4,1.6,3.4,2.9,4.4c1,0.9,3.3,1.6,4.3,1
			C69.3,290.5,83.2,282,97.9,273.3z M81,311.8c3.8-2.2,7.3-3.9,10.4-6.2c1-0.8,1.6-3.3,1.2-4.6c-0.6-2.1-2-4.2-3.5-5.9
			c-0.8-0.9-2.9-1.6-3.9-1.1c-3.7,1.9-7.3,4.2-11.1,6.5C76.6,304.5,78.7,307.9,81,311.8z M185.9,454.8c-1.7-2.7-3-4.9-4.6-7.5
			c-4.1,2.4-7.9,4.2-11.3,6.8c-1,0.8-1.3,3.6-0.8,5.1c0.7,2,1.9,4.5,5.1,2.6C178,459.5,181.8,457.3,185.9,454.8z"/>
		<path class="st0" d="M148.6,353c-1.1-2-3.5-4.4-3.1-6.1c0.4-1.8,3.3-3.9,5.4-4.2c1.1-0.2,3.9,3.1,3.9,4.8
			c-0.1,1.9-2.5,3.8-3.9,5.6C150.1,353.1,149.3,353,148.6,353z"/>
	</g>
	<path class="st0" d="M231,114.1c1.8,3.2,3.5,4.8,3.4,6.4c0,1.2-2.3,3.3-3.5,3.2c-1.4-0.1-3.6-2.1-3.7-3.3
		C227.2,118.8,229.1,117.2,231,114.1z"/>
	<path class="st0" d="M282.1,339.3c-1.9,1.6-3.1,3.2-4.1,3.1c-1.2-0.1-2.2-1.6-3.3-2.5c1-1,1.8-2.7,3-3
		C278.7,336.8,280,338.1,282.1,339.3z"/>
	<path class="st0" d="M388.9,48.9c31.3,0,59.3,19.8,69.3,49.5c0.7,2.1-0.1,6.5-1.5,7.2c-3.5,1.8-4.7-1.8-5.7-4.5
		c-8.5-24-25.5-38.7-50.1-43.4c-26.7-5-53.1,5.5-67.7,29.9c-20.4,34.2-6.9,75,29.4,91.5c33.2,15.1,73.9-1.7,86.9-35.7
		c0.6-1.5,0.8-3.3,1.8-4.4c1.4-1.5,3.4-2.4,5.2-3.6c0.8,1.9,2.5,4,2.2,5.7c-0.7,3.6-2.2,7.2-3.8,10.5c-16,32.7-53,48.2-88.1,37.7
		c-35.8-10.7-58-47.7-49.6-84.7C324.5,72.5,354.7,48.9,388.9,48.9z"/>
	<path class="st0" d="M389.1,175c-30.3,0.1-55.8-24.2-55.6-54.2c0.2-30.7,24.6-54.4,55.2-54.5c30.6,0,55.8,23.9,55.6,54
		C444,151.6,419.7,174.4,389.1,175z M388.9,74.2c-26.1,0-47.7,21.3-47.4,46.6c0.3,25.8,21.7,46.6,47.7,46.4
		c25.8-0.1,46.8-21,47-46.5C436.4,95.1,415,74.1,388.9,74.2z"/>
	<path class="st0" d="M457.5,125.4c-1.3-2.4-2.8-3.9-2.5-5c0.3-1.3,2.2-2.1,3.4-3.2c1,1.2,2.7,2.5,2.7,3.7
		C461.1,122,459.3,123.2,457.5,125.4z"/>
	<path class="st0" d="M404.5,355.2c24.8,0.1,47.5,15.5,56.3,38.6c0.2,0.5,0.5,1,0.5,1.5c-0.2,2.4-0.5,4.8-0.8,7.2
		c-1.7-1.7-4.2-3-5-5c-8.3-20.6-23.2-33.1-45.2-35c-23.7-2.1-41.9,8.4-52.4,29.7c-13.7,27.8-0.4,62.7,30.6,72.6
		c28.9,9.3,56.1-4.3,67-32.8c0.3-0.7,0.3-1.6,0.7-2c1.3-1,2.7-1.8,4.1-2.7c0.6,1.6,1.9,3.5,1.6,4.9c-2.5,9.7-7.7,18-15,24.9
		c-31.1,29.2-78.6,19.9-96.5-18.8c-14.2-30.8,4-70.3,36.9-79.7C392.8,357,398.7,356.3,404.5,355.2z"/>
	<path class="st0" d="M450.1,415.2c-0.1,24.9-20.5,45.1-45.1,44.7c-24.8-0.4-44.6-20.3-44.5-44.9c0.1-25,20-45,44.9-45
		C430.2,370.1,450.2,390.3,450.1,415.2z M405.4,453.1c21.4-0.1,38.5-17.2,38.4-38.5c-0.1-20.9-17.6-38.1-38.5-38
		c-21.2,0.1-38.5,17.6-38.4,38.7C367,436.4,384.2,453.2,405.4,453.1z"/>
	<path class="st0" d="M414,101.5c0.7,1.3,1.6,2.4,1.7,3.5c0.2,1.5,0.2,3.3-0.6,4.4c-0.6,0.8-3,1.1-3.8,0.5c-3-2.1-4.9-1.2-7.3,1.1
		c-2.9,2.7-0.7,4.9,0.2,7.2c4.6,12-1,25-12.8,29.5c-12.1,4.6-25.5-1-30.2-12.7c-4.7-11.6,0.9-25.2,13.2-29.2
		c5.2-1.7,11.4-0.5,17.1,0c2.5,0.2,4.7,2.1,7.3-0.5c2.3-2.3,2.8-4.1,0.9-6.9c-0.6-0.9,0-3.3,0.9-4.1c0.9-0.8,2.8-0.4,4.3-0.4
		c1.9-0.1,3.9,0,5.8-0.1c2.1-0.1,4.2-0.3,6.3-0.4c-0.5,2.2-1,4.4-1.5,6.6C415.2,100.3,414.6,100.7,414,101.5z M397.8,126.6
		c0-8.2-6.7-14.7-15.1-14.8c-8.6-0.1-14.9,6.1-14.9,14.7c0,8.3,6.7,15,14.9,15C390.8,141.4,397.9,134.5,397.8,126.6z"/>
	<path class="st0" d="M416,399.4c-0.8-2.6-1.4-4.5-2.1-6.4c2.3-0.7,4.5-2,6.8-1.9c2.6,0.1,7.1,0.8,7.4,2.2c1,3.7,0.5,8,0,11.9
		c-0.1,0.4-4.2,0.3-6.6-0.4c-4,1.6-6,3.9-3.8,9.4c3.3,8.3-0.8,18-8.2,22.2c-7.5,4.4-16.8,2.8-22.9-3.8c-5.9-6.4-6.7-15.9-1.7-23.2
		c5-7.3,14.1-10.2,22.7-6.6C412.2,404.9,413.9,401.8,416,399.4z M412.3,419.9c0-6.5-5.3-12-11.8-12.1c-6.6-0.2-12.2,5.5-12.2,12.3
		c0,6.8,5.1,12.1,11.7,12C406.8,432,412.3,426.6,412.3,419.9z"/>
</g>
</svg>
