<?xml version="1.0" encoding="utf-8"?>
<!-- Generator: Adobe Illustrator 24.2.3, SVG Export Plug-In . SVG Version: 6.00 Build 0)  -->
<svg version="1.1" id="Capa_1" xmlns="http://www.w3.org/2000/svg" xmlns:xlink="http://www.w3.org/1999/xlink" x="0px" y="0px"
	 viewBox="0 0 512 512" style="enable-background:new 0 0 512 512;" xml:space="preserve">
<style type="text/css">
	.st0{fill:#FFFFFF;}
</style>
<g>
	<path class="st0" d="M138.8,158c-19.1,0-34.7,15.6-34.7,34.7s15.6,34.7,34.7,34.7s34.7-15.6,34.7-34.7
		C173.5,173.6,157.9,158,138.8,158z M138.8,208c-8.4,0-15.3-6.9-15.3-15.3s6.9-15.3,15.3-15.3s15.3,6.9,15.3,15.3
		C154.1,201.1,147.2,208,138.8,208z"/>
	<path class="st0" d="M138.8,342.1c-19.1,0-34.7,15.6-34.7,34.7s15.6,34.7,34.7,34.7s34.7-15.6,34.7-34.7
		C173.5,357.6,157.9,342.1,138.8,342.1z M138.8,392.1c-8.4,0-15.3-6.9-15.3-15.3s6.9-15.3,15.3-15.3s15.3,6.9,15.3,15.3
		C154.1,385.2,147.2,392.1,138.8,392.1z"/>
	<path class="st0" d="M138.8,250.1c-19.1,0-34.7,15.6-34.7,34.7c0,19.1,15.6,34.7,34.7,34.7s34.7-15.6,34.7-34.7
		C173.5,265.6,157.9,250.1,138.8,250.1L138.8,250.1z M138.8,300c-8.4,0-15.3-6.9-15.3-15.3c0-8.4,6.9-15.3,15.3-15.3
		s15.3,6.9,15.3,15.3C154.1,293.2,147.2,300,138.8,300L138.8,300z"/>
	<path class="st0" d="M298.9,183h-98c-5.4,0-9.7,4.3-9.7,9.7c0,5.4,4.3,9.7,9.7,9.7h98c5.4,0,9.7-4.3,9.7-9.7
		C308.6,187.4,304.3,183,298.9,183z"/>
	<path class="st0" d="M493.4,330.2c0-56.7-43.5-103.5-98.8-108.4V87.5c0-16.5-13.4-29.9-29.9-29.9H258.1C257.1,30.1,234.4,8,206.6,8
		c-27.8,0-50.5,22.1-51.4,49.6H48.5C32,57.6,18.6,71,18.6,87.5v386.7c0,16.5,13.4,29.9,29.9,29.9h316.3c16.2,0,29.9-12.8,29.9-28
		v-37.4C449.9,433.6,493.4,386.9,493.4,330.2L493.4,330.2z M375.2,87.5v134.3c-8.3,0.7-16.3,2.4-24,4.9V110.6c0-5.4-4.3-9.7-9.7-9.7
		h-37.1V77h60.3C370.5,77,375.2,81.7,375.2,87.5z M291.4,275h-90.5c-5.4,0-9.7,4.3-9.7,9.7c0,5.4,4.3,9.7,9.7,9.7h81.6
		c-3.9,11.2-6,23.2-6,35.7c0,12.9,2.3,25.4,6.4,36.9h-82c-5.4,0-9.7,4.3-9.7,9.7s4.3,9.7,9.7,9.7h91.2c9.7,16,23.4,29.4,39.7,38.6
		v16.2H81.4v-321h250.5v114.9C315.1,244.7,301.2,258.5,291.4,275z M165.6,77c2.9,0,5.6-1.3,7.5-3.5c1.8-2.2,2.6-5.2,2-8
		c-0.4-2-0.6-4-0.6-6.1c0-17.7,14.4-32.1,32.1-32.1c17.7,0,32.1,14.4,32.1,32.1c0,2-0.2,4.1-0.6,6.1c-0.5,2.8,0.2,5.8,2,8
		c1.8,2.2,4.6,3.5,7.5,3.5H285v24H128.2V77H165.6z M364.7,484.7H48.5c-5.8,0-10.5-4.7-10.5-10.5V87.5C38,81.7,42.7,77,48.5,77h60.3
		v24H71.7c-5.4,0-9.7,4.3-9.7,9.7V451c0,5.4,4.3,9.7,9.7,9.7h269.9c5.4,0,9.7-4.3,9.7-9.7v-17.4c7.7,2.5,15.7,4.2,24,4.9V476
		C375.2,479.9,370.6,484.7,364.7,484.7L364.7,484.7z M384.9,419.6c-49.1,0-89.1-40.1-89.1-89.5c0-49.3,40-89.5,89.1-89.5
		s89.1,40.1,89.1,89.5C474,379.5,434,419.6,384.9,419.6z"/>
	<path class="st0" d="M403,325h-8.4v-20.5c0-5.4-4.3-9.7-9.7-9.7s-9.7,4.3-9.7,9.7v30.2c0,5.4,4.3,9.7,9.7,9.7H403
		c5.4,0,9.7-4.3,9.7-9.7C412.7,329.4,408.3,325,403,325z"/>
</g>
</svg>
