<?xml version="1.0" encoding="utf-8"?>
<!-- Generator: Adobe Illustrator 24.2.3, SVG Export Plug-In . SVG Version: 6.00 Build 0)  -->
<svg version="1.1" id="Capa_1" xmlns="http://www.w3.org/2000/svg" xmlns:xlink="http://www.w3.org/1999/xlink" x="0px" y="0px"
	 viewBox="0 0 512 512" style="enable-background:new 0 0 512 512;" xml:space="preserve">
<style type="text/css">
	.st0{fill:#F9F9F9;}
</style>
<g>
	<path class="st0" d="M398.6,43.5c-18.6,0-33.7,15.1-33.7,33.7c0,4,3.3,7.3,7.3,7.3s7.3-3.3,7.3-7.3c0-10.6,8.6-19.2,19.2-19.2
		c10.6,0,19.2,8.6,19.2,19.2s-8.6,19.2-19.2,19.2H394c-4,0-7.3,3.3-7.3,7.3v24.9c0,4,3.3,7.3,7.3,7.3s7.3-3.3,7.3-7.3v-17.7
		c17.3-1.4,31-15.9,31-33.6C432.3,58.6,417.2,43.5,398.6,43.5z"/>
	<path class="st0" d="M394,146.8c-4,0-7.3,3.3-7.3,7.3v2.1c0,4,3.3,7.3,7.3,7.3s7.3-3.3,7.3-7.3v-2.1C401.3,150,398,146.8,394,146.8
		z"/>
	<path class="st0" d="M462.4,8H334.9c-17.5,0-31.7,14.2-31.7,31.7v57.5c-23.9-34.3-63.7-56.9-108.6-56.9H162
		c-38,0-73.4,20-93.1,52.4c-26.7,8.4-44.6,33.3-43.8,61.6l1.8,63.4c-5.7,5.3-9.2,12.8-9.2,21.2v6.8c0,16,13,29,29,29h19.5
		c5,12.3,12.2,23.7,21.5,34.1c-5.2,7.1-31.6,43.8-33.2,46c-0.5,0.7-0.9,1.6-1.1,2.4L20,486.2c-1.1,4.3-0.2,8.8,2.5,12.3
		c2.7,3.5,6.8,5.5,11.3,5.5h270.3c4.8,0,9.5-2,12.8-5.6c3.3-3.5,5-8.4,4.6-13.2l-2.8-37.7c-0.7-9.5-3.2-18.7-7.5-27.1
		c-1.8-3.6-6.2-5-9.8-3.2c-3.6,1.8-5,6.2-3.2,9.8c3.4,6.7,5.4,14,6,21.6l2.8,37.7c0.1,1.1-0.5,1.9-0.8,2.2c-0.3,0.4-1.1,0.9-2.2,0.9
		h-33.5v-29.7c0-4-3.3-7.3-7.3-7.3s-7.3,3.3-7.3,7.3v29.7H97l18.5-71.3c0.1-0.2,0.3-0.4,0.5-0.4h32.1c6.5,0,12.7-1.6,18.1-4.5
		c4.7,0.8,9.4,1.3,14.3,1.3c20.4,0,39.8-7.8,54.1-21.5l0,0c1.4,0.3,0.3,0.1,21.9,3.5c7.9,1.2,15.3,4,22,8.3c1.2,0.8,2.6,1.2,3.9,1.2
		c2.4,0,4.7-1.2,6.1-3.3c2.2-3.4,1.2-7.9-2.2-10c-8.4-5.4-17.7-8.9-27.6-10.5c-18.6-3.1-20.4-2.8-23.3-4c-5.2-2-8.8-7-8.9-12.8
		c8.6-3.7,14.7-12.1,14.7-21.8c0-2.7-0.4-5.3-1.2-7.8c17.2-10.2,41.8-29.5,54.6-61.1h13.7c16,0,29-13,29-29v-6.8
		c0-8.9-4-16.9-10.4-22.2v-18.7c2.6,0.7,5.3,1.1,8.1,1.1h22.9c2.6,0,4.8,2.2,4.8,4.8v20.6c0,5.1,3.1,9.5,8,11.2
		c1.3,0.4,2.6,0.7,3.9,0.7c3.6,0,7-1.6,9.3-4.6l24-31c0.8-1.1,2.1-1.7,3.4-1.7h51.2c17.5,0,31.7-14.2,31.7-31.7V39.7
		C494.1,22.2,479.9,8,462.4,8L462.4,8z M32.4,245.7v-6.8c0-8,6.5-14.5,14.5-14.5h11.8c-0.5,12.6-0.2,23,3,35.8H46.9
		C38.9,260.2,32.4,253.7,32.4,245.7z M180.7,400c3.9-6.1,6.2-13.3,6.2-21.1v-11.6h25c0.6,7.3,3.8,13.8,8.8,18.5
		C209.7,394.9,195.5,400,180.7,400z M216.6,352.8h-31.3c-7.1,0-12.9,5.8-12.9,12.9V379c0,13.4-10.9,24.3-24.3,24.3H116
		c-6.9,0-12.9,4.6-14.6,11.3l-19.5,75H34.2l33.1-127.2c2.6-3.6,49.7-68.8,55.6-77.1c1.5-2.1,3.7-3.5,6.3-3.9
		c2.6-0.4,5.2,0.2,7.3,1.8l0.4,0.3c2.3,1.7,3.7,4.3,3.7,7.2c0.1,2-0.5,3.9-1.6,5.5l-13.5,19.4c-2.5,3.6-2.8,8.2-0.8,12.1
		c2,3.9,6,6.3,10.4,6.3h82c2.5,0,4.9,1,6.7,2.8c1.8,1.8,2.8,4.2,2.8,6.8C226.5,348.6,222.1,352.8,216.6,352.8z M322.6,245.7
		c0,8-6.5,14.5-14.5,14.5h-9c2.1-8.5,3.2-17.3,3.2-26.2c0-3.2-0.1-6.4-0.2-9.6h6c8,0,14.5,6.5,14.5,14.5V245.7z M308.2,209.8h-7
		c-0.9-8.2-2.1-16.1-3.9-23.6c-3.4-14.6-16.3-25.4-31.3-26.2c-28.2-1.6-56.9-8.9-83-21.1c-7.3-3.4-16.2-1.1-20.6,5.5
		c-1.7,2.5-5.2,4.3-8.3,4.2c-5.1-0.1-10.7-2.9-17.6-8.8c-4.7-4-9.4-8.7-14.4-14.4c-3.6-4.1-8.8-6.4-14.2-6.4h0
		c-5.4,0-10.5,2.3-14.1,6.3c-7,7.9-13.1,16.9-18,26.9c-1.8,3.6-0.3,8,3.3,9.7c3.6,1.8,8,0.3,9.7-3.3c4.4-8.8,9.8-16.8,15.9-23.8
		c1.1-1.3,2.5-1.5,3.2-1.5c0.7,0,2.2,0.2,3.3,1.5c5.4,6.2,10.6,11.3,15.8,15.8c6.1,5.2,15.5,12.2,26.9,12.3
		c8.1,0.1,16.1-4.1,20.5-10.6c0.4-0.7,1.5-0.8,2.4-0.4c27.8,13,58.4,20.8,88.4,22.5c8.7,0.5,16.1,6.7,18,15c2,8.8,3.4,18.3,4.2,28.1
		c0.4,5.2,0.6,10.7,0.6,16.3c0,10.7-1.8,21.2-5.2,31.1c-10.9,31-35.2,49.6-51.3,58.9c-4.1-3-9.1-4.7-14.3-4.7h-76.7l10.5-14.9
		c3-4.2,4.4-9.2,4.3-14.3c-0.2-7.4-3.7-14.1-9.7-18.5l-0.4-0.3c-5.3-3.8-11.7-5.4-18.1-4.3c-6.4,1-12,4.5-15.8,9.7
		c-2.7,3.8-8.1,11.2-14.5,20c-8.2-9.7-14.4-20.4-18.4-31.7c-5.6-16-5.9-30.3-4.6-47.4c0.7-10,2.2-19.7,4.3-28.7
		c0.9-3.9-1.5-7.8-5.4-8.7c-3.9-0.9-7.8,1.5-8.7,5.4c-1.8,7.7-3.2,15.9-4.1,24.3H46.9c-1.9,0-3.7,0.2-5.5,0.5l-1.6-56.5
		c-0.6-22.5,14.1-42.2,35.9-47.9c1.9-0.5,3.5-1.7,4.5-3.4c16.8-29.4,48.2-47.6,82-47.6h32.5c64.9,0,117.7,52.8,117.7,117.7v37.5
		C310.9,209.9,309.5,209.8,308.2,209.8L308.2,209.8z M479.6,167.2c0,9.5-7.7,17.2-17.2,17.2h-51.2c-5.9,0-11.3,2.7-14.9,7.3
		l-19.2,24.7v-12.7c0-10.7-8.7-19.3-19.3-19.3h-22.9c-2.9,0-5.6-0.7-8.1-2v-9.8c0-17-3.2-33.3-9.1-48.3V39.7
		c0-9.5,7.7-17.2,17.2-17.2h127.5c9.5,0,17.2,7.7,17.2,17.2V167.2z"/>
	<path class="st0" d="M143.7,241.1c4,0,7.3-3.3,7.3-7.3v-8.1c0-4-3.3-7.3-7.3-7.3s-7.3,3.3-7.3,7.3v8.1
		C136.4,237.9,139.7,241.1,143.7,241.1z"/>
	<path class="st0" d="M252.3,241.1c4,0,7.3-3.3,7.3-7.3v-8.1c0-4-3.3-7.3-7.3-7.3c-4,0-7.3,3.3-7.3,7.3v8.1
		C245,237.9,248.3,241.1,252.3,241.1L252.3,241.1z"/>
	<path class="st0" d="M185.5,276.9c9.9-5.8,19.1-5.8,29,0c1.2,0.7,2.4,1,3.7,1c2.5,0,4.9-1.3,6.3-3.6c2-3.5,0.9-7.9-2.6-9.9
		c-14.3-8.3-29.4-8.3-43.7,0c-3.5,2-4.6,6.5-2.6,9.9C177.6,277.7,182,278.9,185.5,276.9L185.5,276.9z"/>
</g>
</svg>
