<?xml version="1.0" encoding="utf-8"?>
<!-- Generator: Adobe Illustrator 24.2.3, SVG Export Plug-In . SVG Version: 6.00 Build 0)  -->
<svg version="1.1" id="Capa_1" xmlns="http://www.w3.org/2000/svg" xmlns:xlink="http://www.w3.org/1999/xlink" x="0px" y="0px"
	 viewBox="0 0 512 512" style="enable-background:new 0 0 512 512;" xml:space="preserve">
<style type="text/css">
	.st0{fill:#FFFFFF;}
</style>
<g>
	<path class="st0" d="M502.3,227.6c-3.3-14-11.3-26.1-21.3-32.3c-6.7-4.1-13.9-5.5-20.7-3.8c-1.6,0.4-3.1,0.9-4.5,1.6
		c-19.3-47-49.4-77.4-80.4-97l11.2-22.5c2-4.1,0.4-9.1-3.7-11.1c-4.1-2-9.1-0.4-11.1,3.7L361,87.8c-5.1-2.7-10.2-5.2-15.2-7.4
		l8.1-24.4c1.4-4.3-0.9-9-5.2-10.5c-4.4-1.5-9,0.9-10.5,5.2l-7.8,23.5c-5.7-2.1-11.3-3.8-16.6-5.3l7.1-21.2c1.4-4.3-0.9-9-5.2-10.5
		c-4.3-1.5-9,0.9-10.5,5.2l-7.5,22.5c-10.5-2.2-19.4-3.4-26-4V45.2c0-4.6-3.7-8.3-8.3-8.3c-4.6,0-8.3,3.7-8.3,8.3v15.3
		c-4.3,0.2-11.9,0.8-21.7,2.4l-3.2-19c-0.8-4.5-5-7.6-9.5-6.8c-4.5,0.8-7.5,5-6.8,9.5l3.2,19.4c-8.9,2-18.7,4.7-29,8.4l-7.9-23.6
		c-1.4-4.3-6.1-6.7-10.5-5.2c-4.3,1.4-6.7,6.1-5.2,10.5l8.1,24.4c-7.1,3.1-14.4,6.8-21.7,10.9l-12.6-25.1c-2-4.1-7-5.7-11.1-3.7
		c-4.1,2-5.7,7-3.7,11.1l13.3,26.5c-7.3,5-14.5,10.6-21.5,16.9L95.7,97.2c-3.2-3.2-8.5-3.2-11.7,0s-3.2,8.5,0,11.7l19.7,19.7
		c-25.4,27-46.7,64.8-56.4,117.5c-0.1,0.7-0.2,1.4-0.3,2.1c-2.1-0.6-4.2-1-6.4-1C22.3,247.2,8,266.9,8,292.1s14.3,44.8,32.6,44.8
		c3.3,0,6.6-0.8,9.7-2.2c5.8,22.1,15.4,42.8,28.6,61c26.4,36.4,78.3,79.4,175.8,79.4c1.5,0,3,0,4.5,0c1.5,0,3,0,4.5,0
		c97.6,0,149.4-43,175.8-79.4c23.8-32.8,35.9-74,35-116.4c0.3,0,0.6,0.1,0.9,0.1c1.9,0,3.7-0.2,5.6-0.7
		C498.7,274.6,508.1,252.1,502.3,227.6z M46.6,317.9c-1.7,1.4-3.8,2.5-6.1,2.5c-7.6,0-16-11.6-16-28.3c0-16.7,8.4-28.3,16-28.3
		c1.4,0,2.8,0.4,4.2,1.1c-0.4,4.4-0.7,8.8-0.8,13.2c0,0.3,0,0.6,0,0.8c-0.1,3.7-0.1,7.3,0,11c0,1.1,0.1,2.2,0.1,3.4
		c0.1,3,0.3,5.9,0.6,8.9c0.1,1.2,0.2,2.3,0.3,3.5c0.4,3.6,0.9,7.2,1.5,10.8C46.5,317,46.5,317.4,46.6,317.9z M426.2,386
		c-35.7,49.2-91.8,73.7-166.9,72.6h-0.1h-0.1C184,459.7,127.9,435.2,92.2,386c-17-23.5-27.5-51.7-30.8-81.6
		c-0.1-0.6-0.1-1.3-0.1-1.9c-0.5-4.7-0.7-9.5-0.8-14.2c0-2.1,0-4.2,0-6.3c0-3.4,0.2-6.7,0.4-10.1c0.2-2.4,0.3-4.9,0.6-7.3
		c0.5-5.2,1.1-10.3,2.1-15.5c9.1-49,28.4-84,51.6-109.1l10.2,10.2c1.6,1.6,3.7,2.4,5.8,2.4s4.2-0.8,5.8-2.4c3.2-3.2,3.2-8.5,0-11.7
		l-10.1-10.1c5.7-5.1,11.4-9.7,17.3-13.9l4.4,8.8c1.4,2.9,4.4,4.6,7.4,4.6c1.2,0,2.5-0.3,3.7-0.9c4.1-2,5.7-7,3.7-11.1l-5.2-10.4
		c6.6-3.8,13.1-7.2,19.6-10.1l3.4,10.2c1.2,3.5,4.4,5.7,7.8,5.7c0.9,0,1.7-0.1,2.6-0.4c4.3-1.4,6.7-6.1,5.2-10.5l-3.7-11.1
		c9.5-3.4,18.5-5.8,26.6-7.6l2.4,14.4c0.7,4,4.2,6.9,8.1,6.9c0.4,0,0.9,0,1.4-0.1c4.5-0.8,7.5-5,6.8-9.5l-2.4-14.7
		c8.5-1.2,15.1-1.7,19.1-1.8v17.9c0,4.6,3.7,8.3,8.3,8.3c4.6,0,8.3-3.7,8.3-8.3V77.5c5.5,0.5,12.6,1.4,20.9,3l-3.9,11.7
		c-1.4,4.3,0.9,9,5.2,10.5c0.9,0.3,1.8,0.4,2.6,0.4c3.5,0,6.7-2.2,7.8-5.7l4.4-13.3c5.3,1.4,10.9,3.2,16.7,5.2l-3.7,11.1
		c-1.4,4.3,0.9,9,5.2,10.5c0.9,0.3,1.8,0.4,2.6,0.4c3.5,0,6.7-2.2,7.8-5.7l3.4-10.2c4.3,1.9,8.7,4.1,13.1,6.4l-7,14
		c-2,4.1-0.4,9.1,3.7,11.1c1.2,0.6,2.4,0.9,3.7,0.9c3,0,6-1.7,7.4-4.6l6.4-12.9c29.1,18.9,57.2,48.4,74.6,94.7l-0.1,0.1l1.5,4.2
		c2.1,6.1,4,12.1,5.7,18.3c0.2,0.8,0.4,1.5,0.6,2.3c1.7,6.3,3.1,12.6,4.3,19.2c1,5.5,1.7,11.1,2.2,16.6c0.1,0.9,0.2,1.8,0.3,2.8
		C461,311.3,450,353.2,426.2,386z M477.1,262.7c-1.1,0.3-2.3,0.3-3.6,0c0-0.3-0.1-0.6-0.1-1c-0.6-5.2-1.3-10.4-2.2-15.6
		c-1.2-6.4-2.6-12.5-4.1-18.4c-0.2-0.7-0.4-1.4-0.6-2.1c-1.5-5.6-3.1-11.1-4.8-16.4c0-0.1-0.1-0.3-0.1-0.4c0.8-0.6,1.7-1,2.6-1.2
		c3.1-0.7,6.2,0.6,8.2,1.8c6.3,3.9,11.6,12.3,13.9,22C490.1,247.7,484.5,260.9,477.1,262.7z"/>
	<path class="st0" d="M157.6,171.2c-4.7-0.3-8.5,3.2-8.8,7.7c-0.3,4.6,3.2,8.5,7.7,8.8c10.9,0.7,21.7,6.3,29.8,15.5
		c3.5,3.9,6.2,8.3,8.2,12.9c-6.7-3.3-14.2-5.3-21.9-5.8c-15.4-1-30.3,4.1-41.9,14.3c-3.4,3-3.8,8.2-0.7,11.7s8.2,3.8,11.7,0.7
		c8.3-7.3,18.9-11,29.9-10.2c11,0.7,21.1,5.7,28.4,14c1.6,1.8,3.9,2.8,6.2,2.8c0.9,0,1.8-0.1,2.7-0.4c3.2-1.1,5.4-4,5.6-7.3
		c1-15.2-4.8-31.1-15.7-43.5C187.9,179.9,172.9,172.2,157.6,171.2z"/>
	<path class="st0" d="M338.7,160.9c-31.9,0-57.9,26-57.9,57.9s26,57.9,57.9,57.9s57.9-26,57.9-57.9S370.6,160.9,338.7,160.9z
		 M338.7,260.1c-22.8,0-41.3-18.5-41.3-41.3s18.5-41.3,41.3-41.3c22.8,0,41.3,18.5,41.3,41.3S361.5,260.1,338.7,260.1z"/>
	<circle class="st0" cx="338.7" cy="218.8" r="16.5"/>
	<path class="st0" d="M287.9,316.9c-10.2,0-19.9,4.5-26.4,12.4c-2.9,3.5-2.4,8.7,1.1,11.6c3.5,2.9,8.7,2.4,11.6-1.1
		c3.4-4.1,8.4-6.4,13.7-6.4c9.8,0,17.7,7.9,17.7,17.7s-7.9,17.7-17.7,17.7c-4.2,0-8.1-1.4-11.3-4.1c-3.5-2.9-8.7-2.4-11.6,1.1
		c-2.9,3.5-2.4,8.7,1.1,11.6c3.9,3.2,8.6,5.4,13.5,6.7c1.3,1,2.4,2,3.4,3.3c2.9,3.7,4.2,8.4,3.6,13.1c-0.6,4.7-3,8.9-6.7,11.8
		c-3.7,2.9-8.4,4.2-13.1,3.6c-4.7-0.6-8.9-3-11.8-6.7c-2.6-3.3-3.9-7.2-3.7-11.4c0.1-4.6-3.5-8.4-8-8.5c-4.6,0.2-8.4,3.5-8.5,8
		c-0.2,7.9,2.3,15.8,7.2,22c5.6,7.2,13.7,11.8,22.8,12.9c1.4,0.2,2.9,0.3,4.3,0.3c7.6,0,14.9-2.5,21-7.2
		c7.2-5.6,11.8-13.7,12.9-22.8c0.8-6.8-0.3-13.5-3.3-19.4c13.1-4.8,22.5-17.3,22.5-32.1C322.1,332.2,306.8,316.9,287.9,316.9z"/>
</g>
</svg>
