<?xml version="1.0" encoding="utf-8"?>
<!-- Generator: Adobe Illustrator 24.1.3, SVG Export Plug-In . SVG Version: 6.00 Build 0)  -->
<svg version="1.1" id="Capa_1" xmlns="http://www.w3.org/2000/svg" xmlns:xlink="http://www.w3.org/1999/xlink" x="0px" y="0px"
	 viewBox="0 0 512 512" style="enable-background:new 0 0 512 512;" xml:space="preserve">
<style type="text/css">
	.st0{fill:#FDE4E4;}
	.st1{fill:#FCCED3;}
	.st2{fill:#FDBF00;}
	.st3{fill:#FF9100;}
</style>
<g>
	<path class="st0" d="M510,279.3l-36.6-71c10.8-31.7,9.6-63.5-3.9-94.6c-17.7-41.3-55.4-71.9-98.2-79.9C329.1,26,287.2,38,256,66.5
		C224.9,38,183,26,140.8,33.8C98,41.9,60.2,72.4,42.6,113.8c-13.5,31.1-14.7,62.9-3.9,94.6l-36.6,71c-5.1,11,3.2,21.6,13.5,21.6
		h45.9v44.9c0,24.8,20.1,44.9,44.9,44.9h59.9c8.4,0,15,6.6,15,15v59.9c0,8.4,6.6,15,15,15h119.8c8.4,0,15-6.6,15-15v-59.9
		c0-8.4,6.6-15,15-15h59.9c24.8,0,44.9-20.1,44.9-44.9v-44.9h45.9c5.1,0,9.9-2.7,12.9-7.2C512.1,289.5,512.1,283.8,510,279.3z"/>
	<path class="st1" d="M509.4,293.7c-3,4.5-7.8,7.2-12.9,7.2h-45.9v44.9c0,24.8-20.1,44.9-44.9,44.9h-59.9c-8.4,0-15,6.6-15,15v59.9
		c0,8.4-6.6,15-15,15H256v-414c31.1-28.4,73-40.4,115.3-32.6c42.8,8.1,80.5,38.6,98.2,79.9c13.5,31.1,14.7,62.9,3.9,94.6l36.6,71
		C512.1,283.8,512.1,289.5,509.4,293.7z"/>
	<path class="st2" d="M322.5,212.6L271,186.8v-50.6c0-6.6-4.2-12.3-10.5-14.4c-1.5-0.3-3-0.6-4.5-0.6c-5.1,0-9.6,2.4-12.6,6.6
		l-59.9,89.8c-4.8,7.5-2.1,17.7,6,21.9l51.5,25.7v50.6c0,8.4,6.6,15,15,15c4.8,0,9.6-2.4,12.6-6.6l59.9-89.8
		C333.3,226.9,330.6,216.7,322.5,212.6z"/>
	<path class="st3" d="M328.5,234.4l-59.9,89.8c-3,4.2-7.8,6.6-12.6,6.6V121.2c1.5,0,3,0.3,4.5,0.6c6.3,2.1,10.5,7.8,10.5,14.4v50.6
		l51.5,25.7C330.6,216.7,333.3,226.9,328.5,234.4z"/>
</g>
</svg>
