<?xml version="1.0" encoding="utf-8"?>
<!-- Generator: Adobe Illustrator 24.1.3, SVG Export Plug-In . SVG Version: 6.00 Build 0)  -->
<svg version="1.1" id="Capa_1" xmlns="http://www.w3.org/2000/svg" xmlns:xlink="http://www.w3.org/1999/xlink" x="0px" y="0px"
	 viewBox="0 0 512 512" style="enable-background:new 0 0 512 512;" xml:space="preserve">
<style type="text/css">
	.st0{fill:#6AA9FF;}
	.st1{fill:#7ED8F6;}
	.st2{fill:#FFF5F5;}
	.st3{fill:#EFE2DD;}
</style>
<g>
	<path class="st0" d="M239.1,303.1l-67.5-44.7c-6.9-4.6-8.8-13.9-4.2-20.8c4.6-6.9,13.9-8.8,20.8-4.2l67.5,44.7
		c6.9,4.6,8.8,13.9,4.2,20.8C255.4,305.7,246.1,307.7,239.1,303.1z"/>
	<path class="st0" d="M173.6,165.5c-3.4-7.6,0-16.4,7.6-19.8l118.9-60.1c7.6-3.3,16.4,0.1,19.8,7.6c3.4,7.6,0,16.4-7.6,19.8
		l-118.9,60.1C185.9,176.5,177,173.2,173.6,165.5z"/>
	<g>
		<path class="st1" d="M512,362c0,47.4-22.2,91.2-59.7,119.4l-32.4-14.7C413,440.6,389.6,422,362,422c-29.4,0-54,21.3-59.1,49.8
			l-31.2,9.6c-37.5-28.2-59.7-72-59.7-119.4c0-28.2,7.8-55.5,22.8-79.2C262.1,238.4,309.5,212,362,212C444.8,212,512,279.2,512,362z
			"/>
		<path class="st1" d="M361,0c-41.4,0-75,33.6-75,75c0,5.7,0.6,11.4,2.1,16.8c2.1,9.9,6.3,19.2,12.3,27.3
			c13.5,18.6,35.7,30.9,60.6,30.9c41.4,0,75-33.6,75-75S402.4,0,361,0z"/>
		<path class="st1" d="M105,301C47.1,301,0,253.9,0,196S47.1,91,105,91s105,47.1,105,105S162.9,301,105,301z"/>
	</g>
	<path d="M422,332c0,33-27,60-60,60V272C395,272,422,299,422,332z"/>
	<path class="st0" d="M361,150V0c41.4,0,75,33.6,75,75S402.4,150,361,150z"/>
	<path class="st0" d="M512,362c0,47.4-22.2,91.2-59.7,119.4l-32.4-14.7C413,440.6,389.6,422,362,422V212
		C444.8,212,512,279.2,512,362z"/>
	<path class="st2" d="M362,272c-33,0-60,27-60,60s27,60,60,60s60-27,60-60S395,272,362,272z"/>
	<path class="st3" d="M422,332c0,33-27,60-60,60V272C395,272,422,299,422,332z"/>
	<path class="st2" d="M451.7,473c-4.8-46.2-43.5-81-89.7-81s-84.9,34.8-89.7,81l-0.9,8.7c25.8,19.8,57.3,30.3,90.6,30.3
		s64.8-10.5,90.6-30.3L451.7,473z"/>
	<path class="st3" d="M452.6,481.7C426.8,501.5,395.3,512,362,512V392c46.2,0,84.9,34.8,89.7,81L452.6,481.7z"/>
</g>
</svg>
