<?xml version="1.0" encoding="utf-8"?>
<!-- Generator: Adobe Illustrator 24.2.3, SVG Export Plug-In . SVG Version: 6.00 Build 0)  -->
<svg version="1.1" id="Capa_1" xmlns="http://www.w3.org/2000/svg" xmlns:xlink="http://www.w3.org/1999/xlink" x="0px" y="0px"
	 viewBox="0 0 512 512" style="enable-background:new 0 0 512 512;" xml:space="preserve">
<style type="text/css">
	.st0{fill:#FFFFFF;}
</style>
<g>
	<path class="st0" d="M31.2,201.8c-4.3,0-7.8-3.5-7.8-7.8v-30c0-4.3,3.5-7.8,7.8-7.8s7.8,3.5,7.8,7.8v30
		C39,198.3,35.5,201.8,31.2,201.8z"/>
	<path class="st0" d="M139.7,201.8c-4.3,0-7.8-3.5-7.8-7.8v-34.9c0-4.3,3.5-7.8,7.8-7.8c4.3,0,7.8,3.5,7.8,7.8V194
		C147.5,198.3,144,201.8,139.7,201.8z"/>
	<path class="st0" d="M139.7,166.9c-4.3,0-7.8-3.5-7.8-7.8c0-27.8-22.6-50.4-50.4-50.4c-27.8,0-50.4,22.6-50.4,50.4
		c0,4.3-3.5,7.8-7.8,7.8s-7.8-3.5-7.8-7.8c0-36.3,29.6-65.9,65.9-65.9c36.3,0,65.9,29.6,65.9,65.9
		C147.5,163.4,144,166.9,139.7,166.9z"/>
	<path class="st0" d="M139.7,177.5c-2.3,0-4.6-1-6.2-3c-15-19.5-19-17.9-34.2-11.9c-14.6,5.8-36.6,14.5-77.1,8.1
		c-4.2-0.7-7.1-4.6-6.4-8.9c0.7-4.2,4.6-7.1,8.9-6.4c36.4,5.7,55.2-1.7,69-7.2c18.7-7.4,31.2-10.6,52.2,16.9c2.6,3.4,2,8.3-1.4,10.9
		C143,177,141.4,177.5,139.7,177.5z"/>
	<path class="st0" d="M108.7,158.9c-1.1,0-2.3-0.3-3.4-0.8c-3.8-1.9-5.4-6.5-3.5-10.4l15.5-31.6c1.9-3.8,6.5-5.4,10.4-3.5
		c3.8,1.9,5.4,6.5,3.5,10.4l-15.5,31.6C114.3,157.4,111.6,158.9,108.7,158.9z"/>
	<path class="st0" d="M15.7,302.5c-4.3,0-7.8-3.5-7.8-7.8c0-17.1,13.9-31,31-31c4.3,0,7.8,3.5,7.8,7.8c0,4.3-3.5,7.8-7.8,7.8
		c-8.5,0-15.5,7-15.5,15.5C23.5,299,20,302.5,15.7,302.5z"/>
	<path class="st0" d="M62.2,279.3H39c-4.3,0-7.8-3.5-7.8-7.8c0-4.3,3.5-7.8,7.8-7.8h23.3c4.3,0,7.8,3.5,7.8,7.8
		C70,275.8,66.5,279.3,62.2,279.3z"/>
	<path class="st0" d="M15.7,333.5c-4.3,0-7.8-3.5-7.8-7.8v-31c0-4.3,3.5-7.8,7.8-7.8s7.8,3.5,7.8,7.8v31
		C23.5,330.1,20,333.5,15.7,333.5z"/>
	<path class="st0" d="M155.2,302.5c-4.3,0-7.8-3.5-7.8-7.8c0-8.5-7-15.5-15.5-15.5c-4.3,0-7.8-3.5-7.8-7.8c0-4.3,3.5-7.8,7.8-7.8
		c17.1,0,31,13.9,31,31C163,299,159.5,302.5,155.2,302.5z"/>
	<path class="st0" d="M132,279.3h-23.3c-4.3,0-7.8-3.5-7.8-7.8c0-4.3,3.5-7.8,7.8-7.8H132c4.3,0,7.8,3.5,7.8,7.8
		C139.7,275.8,136.3,279.3,132,279.3z"/>
	<path class="st0" d="M155.2,333.5c-4.3,0-7.8-3.5-7.8-7.8v-31c0-4.3,3.5-7.8,7.8-7.8c4.3,0,7.8,3.5,7.8,7.8v31
		C163,330.1,159.5,333.5,155.2,333.5z"/>
	<path class="st0" d="M155.2,333.5H15.7c-4.3,0-7.8-3.5-7.8-7.8c0-4.3,3.5-7.8,7.8-7.8h139.5c4.3,0,7.8,3.5,7.8,7.8
		C163,330.1,159.5,333.5,155.2,333.5z"/>
	<path class="st0" d="M62.2,279.3c-4.3,0-7.8-3.5-7.8-7.8V243c0-4.3,3.5-7.8,7.8-7.8s7.8,3.5,7.8,7.8v28.6
		C70,275.8,66.5,279.3,62.2,279.3z"/>
	<path class="st0" d="M108.7,279.2c-4.3,0-7.8-3.5-7.8-7.8V243c0-4.3,3.5-7.8,7.8-7.8c4.3,0,7.8,3.5,7.8,7.8v28.5
		C116.5,275.8,113,279.2,108.7,279.2z"/>
	<path class="st0" d="M85.5,256c-34.2,0-62-27.8-62-62c0-4.3,3.5-7.8,7.8-7.8s7.8,3.5,7.8,7.8c0,25.6,20.9,46.5,46.5,46.5
		S132,219.6,132,194c0-4.3,3.5-7.8,7.8-7.8c4.3,0,7.8,3.5,7.8,7.8C147.5,228.2,119.7,256,85.5,256z"/>
	<path class="st0" d="M70,287c-2.8,0-5.6-1.6-6.9-4.3c-1.9-3.8-0.4-8.5,3.5-10.4l15.5-7.8c3.8-1.9,8.5-0.4,10.4,3.5
		c1.9,3.8,0.4,8.5-3.5,10.4l-15.5,7.8C72.3,286.7,71.1,287,70,287z"/>
	<path class="st0" d="M101,287c-2,0-4-0.8-5.5-2.3c-3-3-3-7.9,0-11l7.8-7.8c3-3,7.9-3,11,0c3,3,3,7.9,0,11l-7.8,7.8
		C105,286.2,103,287,101,287z"/>
	<path class="st0" d="M70,287c-2,0-4-0.8-5.5-2.3l-7.8-7.8c-3-3-3-7.9,0-11c3-3,7.9-3,11,0l7.8,7.8c3,3,3,7.9,0,11
		C73.9,286.2,72,287,70,287z"/>
	<path class="st0" d="M101,287c-1.2,0-2.4-0.3-3.5-0.8L82,278.4c-3.8-1.9-5.4-6.6-3.5-10.4c1.9-3.8,6.6-5.4,10.4-3.5l15.5,7.8
		c3.8,1.9,5.4,6.6,3.5,10.4C106.6,285.4,103.8,287,101,287z"/>
	<path class="st0" d="M372.3,201.8c-4.3,0-7.8-3.5-7.8-7.8v-62c0-4.3,3.5-7.8,7.8-7.8s7.8,3.5,7.8,7.8v62
		C380,198.3,376.6,201.8,372.3,201.8z"/>
	<path class="st0" d="M480.8,201.8c-4.3,0-7.8-3.5-7.8-7.8v-2.3c0-4.3,3.5-7.8,7.8-7.8s7.8,3.5,7.8,7.8v2.3
		C488.5,198.3,485.1,201.8,480.8,201.8z"/>
	<path class="st0" d="M356.8,302.5c-4.3,0-7.8-3.5-7.8-7.8c0-17.1,13.9-31,31-31c4.3,0,7.8,3.5,7.8,7.8c0,4.3-3.5,7.8-7.8,7.8
		c-8.5,0-15.5,7-15.5,15.5C364.5,299,361.1,302.5,356.8,302.5z"/>
	<path class="st0" d="M403.3,279.3H380c-4.3,0-7.8-3.5-7.8-7.8c0-4.3,3.5-7.8,7.8-7.8h23.3c4.3,0,7.8,3.5,7.8,7.8
		C411,275.8,407.6,279.3,403.3,279.3z"/>
	<path class="st0" d="M356.8,333.5c-4.3,0-7.8-3.5-7.8-7.8v-31c0-4.3,3.5-7.8,7.8-7.8s7.8,3.5,7.8,7.8v31
		C364.5,330.1,361.1,333.5,356.8,333.5z"/>
	<path class="st0" d="M496.3,302.5c-4.3,0-7.8-3.5-7.8-7.8c0-8.5-7-15.5-15.5-15.5c-4.3,0-7.8-3.5-7.8-7.8c0-4.3,3.5-7.8,7.8-7.8
		c17.1,0,31,13.9,31,31C504,299,500.6,302.5,496.3,302.5z"/>
	<path class="st0" d="M473,279.3h-23.3c-4.3,0-7.8-3.5-7.8-7.8c0-4.3,3.5-7.8,7.8-7.8H473c4.3,0,7.8,3.5,7.8,7.8
		C480.8,275.8,477.3,279.3,473,279.3z"/>
	<path class="st0" d="M496.3,333.5c-4.3,0-7.8-3.5-7.8-7.8v-31c0-4.3,3.5-7.8,7.8-7.8s7.8,3.5,7.8,7.8v31
		C504,330.1,500.6,333.5,496.3,333.5z"/>
	<path class="st0" d="M496.3,333.5H356.8c-4.3,0-7.8-3.5-7.8-7.8c0-4.3,3.5-7.8,7.8-7.8h139.5c4.3,0,7.8,3.5,7.8,7.8
		C504,330.1,500.6,333.5,496.3,333.5z"/>
	<path class="st0" d="M403.3,279.3c-4.3,0-7.8-3.5-7.8-7.8V243c0-4.3,3.5-7.8,7.8-7.8s7.8,3.5,7.8,7.8v28.6
		C411,275.8,407.6,279.3,403.3,279.3z"/>
	<path class="st0" d="M449.8,279.2c-4.3,0-7.8-3.5-7.8-7.8V243c0-4.3,3.5-7.8,7.8-7.8s7.8,3.5,7.8,7.8v28.5
		C457.5,275.8,454.1,279.2,449.8,279.2z"/>
	<path class="st0" d="M426.5,256c-34.2,0-62-27.8-62-62c0-4.3,3.5-7.8,7.8-7.8s7.8,3.5,7.8,7.8c0,25.6,20.9,46.5,46.5,46.5
		c25.6,0,46.5-20.8,46.5-46.5c0-4.3,3.5-7.8,7.8-7.8s7.8,3.5,7.8,7.8C488.5,228.2,460.7,256,426.5,256z"/>
	<path class="st0" d="M426.5,294.7c-1.5,0-3-0.4-4.3-1.3L399,277.9c-3.6-2.4-4.5-7.2-2.1-10.8c2.4-3.6,7.2-4.5,10.8-2.1l23.3,15.5
		c3.6,2.4,4.5,7.2,2.1,10.8C431.5,293.5,429,294.7,426.5,294.7z"/>
	<path class="st0" d="M426.5,294.7c-2.5,0-5-1.2-6.5-3.4c-2.4-3.6-1.4-8.4,2.1-10.8l23.3-15.5c3.6-2.4,8.4-1.4,10.8,2.1
		c2.4,3.6,1.4,8.4-2.1,10.8l-23.3,15.5C429.5,294.3,428,294.7,426.5,294.7z"/>
	<path class="st0" d="M163,387.8c-4.3,0-7.8-3.5-7.8-7.8c0-25.6,20.9-46.5,46.5-46.5c4.3,0,7.8,3.5,7.8,7.8c0,4.3-3.5,7.8-7.8,7.8
		c-17.1,0-31,13.9-31,31C170.7,384.3,167.3,387.8,163,387.8z"/>
	<path class="st0" d="M225,349h-23.3c-4.3,0-7.8-3.5-7.8-7.8c0-4.3,3.5-7.8,7.8-7.8H225c4.3,0,7.8,3.5,7.8,7.8
		C232.7,345.6,229.3,349,225,349z"/>
	<path class="st0" d="M163,418.8c-4.3,0-7.8-3.5-7.8-7.8v-31c0-4.3,3.5-7.8,7.8-7.8s7.8,3.5,7.8,7.8v31
		C170.7,415.3,167.3,418.8,163,418.8z"/>
	<path class="st0" d="M170.7,426.5c-8.5,0-15.5-7-15.5-15.5c0-4.1,3.2-7.1,7.3-7.3c4.4-0.1,7.7,3.2,8.2,7.3c4.3,0,7.8,3.5,7.8,7.8
		C178.5,423.1,175,426.5,170.7,426.5z"/>
	<path class="st0" d="M349,387.8c-4.3,0-7.8-3.5-7.8-7.8c0-17.1-13.9-31-31-31c-4.3,0-7.8-3.5-7.8-7.8c0-4.3,3.5-7.8,7.8-7.8
		c25.6,0,46.5,20.9,46.5,46.5C356.8,384.3,353.3,387.8,349,387.8z"/>
	<path class="st0" d="M310.3,349H287c-4.3,0-7.8-3.5-7.8-7.8c0-4.3,3.5-7.8,7.8-7.8h23.3c4.3,0,7.8,3.5,7.8,7.8
		C318,345.6,314.5,349,310.3,349z"/>
	<path class="st0" d="M349,418.8c-4.3,0-7.8-3.5-7.8-7.8v-31c0-4.3,3.5-7.8,7.8-7.8s7.8,3.5,7.8,7.8v31
		C356.8,415.3,353.3,418.8,349,418.8z"/>
	<path class="st0" d="M341.3,426.5c-4.3,0-7.8-3.5-7.8-7.8c0-4.3,3.5-7.8,7.8-7.8c0-4.3,3.5-7.8,7.8-7.8s7.8,3.5,7.8,7.8
		C356.8,419.6,349.8,426.5,341.3,426.5z"/>
	<path class="st0" d="M341.3,426.5H170.7c-4.3,0-7.8-3.5-7.8-7.8c0-4.3,3.5-7.8,7.8-7.8h170.5c4.3,0,7.8,3.5,7.8,7.8
		C349,423.1,345.5,426.5,341.3,426.5z"/>
	<path class="st0" d="M225,349c-4.3,0-7.8-3.5-7.8-7.8v-30.5c0-4.3,3.5-7.8,7.8-7.8s7.8,3.5,7.8,7.8v30.5
		C232.7,345.6,229.3,349,225,349z"/>
	<path class="st0" d="M287,349c-4.3,0-7.8-3.5-7.8-7.8v-30.5c0-4.3,3.5-7.8,7.8-7.8s7.8,3.5,7.8,7.8v30.5
		C294.8,345.6,291.3,349,287,349z"/>
	<path class="st0" d="M256,325.8c-42.7,0-77.5-34.8-77.5-77.5c0-4.3,3.5-7.8,7.8-7.8c4.3,0,7.8,3.5,7.8,7.8c0,34.2,27.8,62,62,62
		c34.2,0,62-27.8,62-62c0-4.3,3.5-7.8,7.8-7.8s7.8,3.5,7.8,7.8C333.5,291,298.7,325.8,256,325.8z"/>
	<path class="st0" d="M186.2,256.4c-4.3,0-7.8-3.5-7.8-7.8v-46.9c0-4.3,3.5-7.8,7.8-7.8c4.3,0,7.8,3.5,7.8,7.8v46.9
		C194,252.9,190.5,256.4,186.2,256.4z"/>
	<path class="st0" d="M325.8,256c-4.3,0-7.8-3.5-7.8-7.8v-46.5c0-4.3,3.5-7.8,7.8-7.8s7.8,3.5,7.8,7.8v46.5
		C333.5,252.6,330,256,325.8,256z"/>
	<path class="st0" d="M325.8,209.5c-4.3,0-7.8-3.5-7.8-7.8c0-12.8-10.4-23.3-23.3-23.3c-4.3,0-7.8-3.5-7.8-7.8
		c0-4.3,3.5-7.8,7.8-7.8c21.4,0,38.8,17.4,38.8,38.8C333.5,206,330,209.5,325.8,209.5z"/>
	<path class="st0" d="M294.8,178.5c-4.3,0-7.8-3.5-7.8-7.8v-31c0-4.3,3.5-7.8,7.8-7.8s7.8,3.5,7.8,7.8v31
		C302.5,175,299,178.5,294.8,178.5z"/>
	<path class="st0" d="M294.8,147.5h-46.5c-4.3,0-7.8-3.5-7.8-7.8c0-4.3,3.5-7.8,7.8-7.8h46.5c4.3,0,7.8,3.5,7.8,7.8
		C302.5,144,299,147.5,294.8,147.5z"/>
	<path class="st0" d="M186.2,209.5c-4.3,0-7.8-3.5-7.8-7.8c0-38.5,31.3-69.8,69.8-69.8c4.3,0,7.8,3.5,7.8,7.8c0,4.3-3.5,7.8-7.8,7.8
		c-29.9,0-54.3,24.3-54.3,54.3C194,206,190.5,209.5,186.2,209.5z"/>
	<path class="st0" d="M325.8,233c-1.5,0-3-0.4-4.3-1.3l-23.3-15.7c-3.5-2.4-4.5-7.2-2.1-10.8c2.4-3.6,7.2-4.5,10.8-2.1l23.3,15.7
		c3.6,2.4,4.5,7.2,2.1,10.8C330.7,231.8,328.2,233,325.8,233z"/>
	<path class="st0" d="M259.9,225c-28,0-51.8-7.8-52.8-8.1c-4.1-1.4-6.3-5.7-4.9-9.8c1.4-4.1,5.7-6.3,9.8-4.9
		c0.2,0.1,22.5,7.4,47.9,7.4c24.6,0,39.1-6.9,39.2-7c3.8-1.9,8.5-0.3,10.4,3.5c1.9,3.8,0.3,8.4-3.5,10.4
		C305.3,216.8,288.4,225,259.9,225z"/>
	<path class="st0" d="M186.2,233c-2.5,0-4.9-1.2-6.4-3.4c-2.4-3.6-1.5-8.4,2.1-10.8l23.3-15.7c3.6-2.4,8.4-1.5,10.8,2.1
		c2.4,3.6,1.5,8.4-2.1,10.8l-23.3,15.7C189.2,232.5,187.7,233,186.2,233z"/>
	<path class="st0" d="M240.5,364.5c-2,0-4-0.8-5.5-2.3l-15.5-15.5c-3-3-3-7.9,0-11c3-3,7.9-3,11,0l15.5,15.5c3,3,3,7.9,0,11
		C244.5,363.8,242.5,364.5,240.5,364.5z"/>
	<path class="st0" d="M240.5,364.5c-2.8,0-5.6-1.6-6.9-4.3c-1.9-3.8-0.4-8.5,3.5-10.4l15.5-7.8c3.8-1.9,8.5-0.4,10.4,3.5
		c1.9,3.8,0.4,8.5-3.5,10.4l-15.5,7.8C242.9,364.3,241.7,364.5,240.5,364.5z"/>
	<path class="st0" d="M271.5,364.5c-2,0-4-0.8-5.5-2.3c-3-3-3-7.9,0-11l15.5-15.5c3-3,7.9-3,11,0c3,3,3,7.9,0,11L277,362.3
		C275.5,363.8,273.5,364.5,271.5,364.5z"/>
	<path class="st0" d="M271.5,364.5c-1.2,0-2.4-0.3-3.5-0.8l-15.5-7.8c-3.8-1.9-5.4-6.6-3.5-10.4c1.9-3.8,6.6-5.4,10.4-3.5l15.5,7.8
		c3.8,1.9,5.4,6.6,3.5,10.4C277.1,363,274.3,364.5,271.5,364.5z"/>
	<path class="st0" d="M496.3,163c-4.3,0-7.8-3.5-7.8-7.8c0-29.9-24.3-54.3-54.3-54.3c-13.8,0-26.1,7.5-33.9,13.8
		c-3.3,2.7-8.2,2.1-10.9-1.2c-2.7-3.3-2.1-8.2,1.2-10.9c14-11.3,29.1-17.2,43.6-17.2c38.5,0,69.8,31.3,69.8,69.8
		C504,159.5,500.6,163,496.3,163z"/>
	<path class="st0" d="M496.3,240.5c-4.3,0-7.8-3.5-7.8-7.8c0-29.9-24.3-54.3-54.3-54.3c-4.3,0-7.8-3.5-7.8-7.8
		c0-4.3,3.5-7.8,7.8-7.8c38.5,0,69.8,31.3,69.8,69.8C504,237,500.6,240.5,496.3,240.5z"/>
	<path class="st0" d="M372.3,178.5c-4.3,0-7.8-3.5-7.8-7.8c0-4.3,3.5-7.8,7.8-7.8c8.5,0,15.5-7,15.5-15.5c0-4.3,3.5-7.8,7.8-7.8
		c4.3,0,7.8,3.5,7.8,7.8C403.3,164.6,389.4,178.5,372.3,178.5z"/>
	<path class="st0" d="M372.3,139.7c-4.3,0-7.8-3.5-7.8-7.8c0-17.1,13.9-31,31-31c4.3,0,7.8,3.5,7.8,7.8c0,4.3-3.5,7.8-7.8,7.8
		c-8.5,0-15.5,7-15.5,15.5C380,136.3,376.6,139.7,372.3,139.7z"/>
	<path class="st0" d="M418.8,178.5c-17.1,0-31-13.9-31-31c0-4.3,3.5-7.8,7.8-7.8c4.3,0,7.8,3.5,7.8,7.8c0,8.5,7,15.5,15.5,15.5
		c4.3,0,7.8,3.5,7.8,7.8C426.5,175,423.1,178.5,418.8,178.5z"/>
	<path class="st0" d="M395.5,155.2c-4.3,0-7.8-3.5-7.8-7.8v-38.8c0-4.3,3.5-7.8,7.8-7.8c4.3,0,7.8,3.5,7.8,7.8v38.8
		C403.3,151.8,399.8,155.2,395.5,155.2z"/>
	<path class="st0" d="M496.3,240.5c-4.3,0-7.8-3.5-7.8-7.8v-77.5c0-4.3,3.5-7.8,7.8-7.8s7.8,3.5,7.8,7.8v77.5
		C504,237,500.6,240.5,496.3,240.5z"/>
	<path class="st0" d="M434.3,178.5h-15.5c-4.3,0-7.8-3.5-7.8-7.8c0-4.3,3.5-7.8,7.8-7.8h15.5c4.3,0,7.8,3.5,7.8,7.8
		C442,175,438.6,178.5,434.3,178.5z"/>
	<path class="st0" d="M23.5,170.7c-4.3,0-7.8-3.5-7.8-7.8v-3.8c0-4.3,3.5-7.8,7.8-7.8s7.8,3.5,7.8,7.8v3.8
		C31.2,167.3,27.8,170.7,23.5,170.7z"/>
</g>
</svg>
