<?xml version="1.0" encoding="utf-8"?>
<!-- Generator: Adobe Illustrator 24.1.3, SVG Export Plug-In . SVG Version: 6.00 Build 0)  -->
<svg version="1.1" id="Capa_1" xmlns="http://www.w3.org/2000/svg" xmlns:xlink="http://www.w3.org/1999/xlink" x="0px" y="0px"
	 viewBox="0 0 512 512" style="enable-background:new 0 0 512 512;" xml:space="preserve">
<style type="text/css">
	.st0{fill:#C6715A;}
	.st1{fill:#FED2A4;}
	.st2{fill:#FFB99C;}
	.st3{fill:#FF9468;}
	.st4{fill:#FFBD86;}
	.st5{fill:#B35F49;}
	.st6{fill:#FDD0D0;}
	.st7{fill:#FAAAAA;}
</style>
<g>
	<path class="st0" d="M467,0h-30l-14.1,24.4L407,0h-31c-19.5,0-36.3,12.6-42.3,30l-117.5,85.4L271,181v15c0,5.7,3.3,10.8,8.4,13.5
		l51.6,25.8V271c0,0-16.4,40.8-20.2,41.7L331,331v15c0,8.4,6.6,15,15,15h121c8.4,0,15-6.6,15-15V229.6l28.5-57
		c0.9-2.1,1.5-4.2,1.5-6.6V45C512,20.1,491.9,0,467,0z"/>
	<path class="st1" d="M512,376c0-19.5-12.6-36.3-30-42.3c-4.8-1.8-9.6-2.7-15-2.7c-63.1,0-70.5,0-136,0v-60h-15
		c-5.7,0-10.8,3.3-13.5,8.4L276.7,331H241l-34.2-30L181,331h-15c-8.4,0-15,6.6-15,15v121c0,8.4,6.6,15,15,15h116.4l57,28.5
		c2.1,0.9,4.2,1.5,6.6,1.5h121c24.9,0,45-20.1,45-45v-30l-18.8-10.3L512,407V376z"/>
	<path class="st2" d="M232.6,302.5L181,276.7V241l21.1-27.7L181,181v-15c0-8.4-6.6-15-15-15H45c-8.4,0-15,6.6-15,15v116.4l-28.5,57
		C0.6,341.5,0,343.6,0,346v121c0,24.9,20.1,45,45,45h30l11.2-21.6L105,512h31c19.5,0,36.3-12.6,42.3-30c1.8-4.8,2.7-9.6,2.7-15
		c0-50.6,0-86.6,0-136h60v-15C241,310.3,237.7,305.2,232.6,302.5z"/>
	<path class="st3" d="M105,437v75H75v-75c0-8.4,6.6-15,15-15S105,428.6,105,437z"/>
	<path class="st4" d="M512,407v30h-75c-8.4,0-15-6.6-15-15c0-8.4,6.6-15,15-15H512z"/>
	<path class="st5" d="M437,0v76c0,8.4-6.6,15-15,15s-15-6.6-15-15V0H437z"/>
	<path class="st6" d="M229.6,30l-57-28.5C170.5,0.6,168.4,0,166,0H45C20.1,0,0,20.1,0,45v31l19.8,20.7L0,106v30
		c0,19.5,12.6,36.3,30,42.3c4.8,1.8,9.6,2.7,15,2.7h136v60h15c5.7,0,10.8-3.3,13.5-8.4l25.8-51.6H331c0-66.5,0-78,0-136
		c0-5.4,0.9-10.2,2.7-15H229.6z"/>
	<path class="st7" d="M90,91c0,8.4-6.6,15-15,15H0V76h75C83.4,76,90,82.6,90,91z"/>
</g>
</svg>
