<?xml version="1.0" encoding="utf-8"?>
<!-- Generator: Adobe Illustrator 24.2.3, SVG Export Plug-In . SVG Version: 6.00 Build 0)  -->
<svg version="1.1" id="Capa_1" xmlns="http://www.w3.org/2000/svg" xmlns:xlink="http://www.w3.org/1999/xlink" x="0px" y="0px"
	 viewBox="0 0 512 512" style="enable-background:new 0 0 512 512;" xml:space="preserve">
<style type="text/css">
	.st0{fill:#386BB2;}
</style>
<g>
	<g>
		<g>
			<g>
				<g>
					<path class="st0" d="M131.1,25.8c-5,0-9,4-9,9c0,5,4,9,9,9c50.8,0,92.1,42.4,92.1,94.5c0,5,4,9,9,9c5,0,9-4,9-9
						C241.2,76.3,191.8,25.8,131.1,25.8z"/>
				</g>
			</g>
			<g>
				<g>
					<path class="st0" d="M131,68.5c-5,0-9,4-9,9c0,5,4,9,9,9c27.8,0,50.4,23.3,50.4,51.8c0,5,4,9,9,9c5,0,9-4,9-9
						C199.5,99.8,168.8,68.5,131,68.5z"/>
				</g>
			</g>
			<g>
				<g>
					<path class="st0" d="M131.2,107.8c-5,0-9,4-9,9c0,5,4,9,9,9c6.5,0,11.8,5.5,11.8,12.3c0,5,4,9,9,9c5,0,9-4,9-9
						C161,121.4,147.6,107.8,131.2,107.8z"/>
				</g>
			</g>
			<g>
				<g>
					<path class="st0" d="M182.2,328.3c-1.7-1.7-4-2.6-6.4-2.6c-2.4,0-4.7,1-6.4,2.6c-1.7,1.7-2.6,4-2.6,6.4c0,2.4,1,4.7,2.6,6.4
						c1.7,1.7,4,2.6,6.4,2.6s4.7-1,6.4-2.6c1.7-1.7,2.6-4,2.6-6.4C184.8,332.3,183.9,330,182.2,328.3z"/>
				</g>
			</g>
			<g>
				<g>
					<path class="st0" d="M379,409.6l-68.9-68.9c-9.2-9.2-23.6-10.5-34.3-3.2l-44,30.1c-3.6,2.4-8.4,2-11.4-1.1L205.9,352
						c-3.5-3.5-9.2-3.5-12.7,0c-3.5,3.5-3.5,9.2,0,12.7l14.5,14.5c9.2,9.2,23.6,10.5,34.3,3.2l44-30.1c3.6-2.4,8.4-2,11.4,1.1
						l68.9,68.9c3.5,3.5,3.5,9.2,0,12.7c-44.2,44.2-116.1,44.2-160.2,0L66.2,295.2C44.8,273.8,33,245.3,33,215.1
						s11.8-58.7,33.2-80.1c1.7-1.7,4-2.6,6.4-2.6c2.4,0,4.7,0.9,6.4,2.6l68.9,68.9c3.1,3.1,3.5,7.9,1.1,11.4l-30.1,44
						c-7.3,10.7-6,25.1,3.2,34.3l21.9,21.9c3.5,3.5,9.2,3.5,12.7,0c3.5-3.5,3.5-9.2,0-12.7l-21.9-21.9c-3.1-3.1-3.5-7.9-1.1-11.4
						l30.1-44c7.3-10.7,6-25.1-3.2-34.3l-68.9-68.9c-10.5-10.5-27.6-10.5-38.2,0c-51.2,51.2-51.2,134.5,0,185.7l139.9,139.9
						c25.6,25.6,59.2,38.4,92.8,38.4c33.6,0,67.2-12.8,92.8-38.4C389.5,437.3,389.5,420.1,379,409.6z"/>
				</g>
			</g>
			<g>
				<g>
					<path class="st0" d="M136.2,246.9l-54.5-54.5c-3.5-3.5-9.2-3.5-12.7,0c-3.5,3.5-3.5,9.2,0,12.7l54.5,54.5
						c1.8,1.8,4.1,2.6,6.4,2.6c2.3,0,4.6-0.9,6.4-2.6C139.7,256.1,139.7,250.4,136.2,246.9z"/>
				</g>
			</g>
			<g>
				<g>
					<path class="st0" d="M344.8,455.6l-57.4-57.4c-3.5-3.5-9.2-3.5-12.7,0c-3.5,3.5-3.5,9.2,0,12.7l57.4,57.4
						c1.8,1.8,4.1,2.6,6.4,2.6c2.3,0,4.6-0.9,6.4-2.6C348.3,464.8,348.3,459.1,344.8,455.6z"/>
				</g>
			</g>
		</g>
	</g>
	<g>
		<g>
			<g>
				<path class="st0" d="M493.3,250.3c-2,0-3.7,1.6-3.7,3.7v44.3c0,11.8-9.6,21.5-21.5,21.5H315.2c-11.8,0-21.5-9.6-21.5-21.5V185.1
					c0-2-1.6-3.7-3.7-3.7c-2,0-3.7,1.6-3.7,3.7v113.1c0,15.9,12.9,28.8,28.8,28.8h152.9c15.9,0,28.8-12.9,28.8-28.8v-44.3
					C496.9,251.9,495.3,250.3,493.3,250.3z"/>
			</g>
		</g>
		<g>
			<g>
				<path class="st0" d="M468.1,76.9H315.2c-15.9,0-28.8,12.9-28.8,28.8v64.7c0,2,1.6,3.7,3.7,3.7c2,0,3.7-1.6,3.7-3.7v-64.7
					c0-11.8,9.6-21.5,21.5-21.5h152.9c11.8,0,21.5,9.6,21.5,21.5v133.6c0,2,1.6,3.7,3.7,3.7c2,0,3.7-1.6,3.7-3.7V105.7
					C496.9,89.8,484,76.9,468.1,76.9z"/>
			</g>
		</g>
		<g>
			<g>
				<path class="st0" d="M343.8,119.6c-14.7,0-26.6,11.9-26.6,26.6c0,14.7,11.9,26.6,26.6,26.6s26.6-11.9,26.6-26.6
					C370.4,131.6,358.5,119.6,343.8,119.6z M324.5,146.3c0-10.6,8.7-19.3,19.3-19.3c4,0,7.7,1.2,10.8,3.3l-26.8,26.8
					C325.7,154,324.5,150.3,324.5,146.3z M343.8,165.6c-4,0-7.7-1.2-10.8-3.3l26.8-26.8c2.1,3.1,3.3,6.8,3.3,10.8
					C363.1,156.9,354.5,165.6,343.8,165.6z"/>
			</g>
		</g>
		<g>
			<g>
				<path class="st0" d="M439.5,119.6c-14.7,0-26.6,11.9-26.6,26.6c0,14.7,11.9,26.6,26.6,26.6s26.6-11.9,26.6-26.6
					C466.2,131.6,454.2,119.6,439.5,119.6z M420.2,146.3c0-10.6,8.7-19.3,19.3-19.3c4,0,7.7,1.2,10.8,3.3l-26.8,26.8
					C421.5,154,420.2,150.3,420.2,146.3z M439.5,165.6c-4,0-7.7-1.2-10.8-3.3l26.8-26.8c2.1,3.1,3.3,6.8,3.3,10.8
					C458.8,156.9,450.2,165.6,439.5,165.6z"/>
			</g>
		</g>
		<g>
			<g>
				<path class="st0" d="M343.8,185.1c-14.7,0-26.6,11.9-26.6,26.6c0,14.7,11.9,26.6,26.6,26.6s26.6-11.9,26.6-26.6
					C370.4,197,358.5,185.1,343.8,185.1z M324.5,211.7c0-10.6,8.7-19.3,19.3-19.3c4,0,7.7,1.2,10.8,3.3l-26.8,26.8
					C325.7,219.4,324.5,215.7,324.5,211.7z M343.8,231c-4,0-7.7-1.2-10.8-3.3l26.8-26.8c2.1,3.1,3.3,6.8,3.3,10.8
					C363.1,222.4,354.5,231,343.8,231z"/>
			</g>
		</g>
		<g>
			<g>
				<path class="st0" d="M439.5,185.1c-14.7,0-26.6,11.9-26.6,26.6c0,14.7,11.9,26.6,26.6,26.6s26.6-11.9,26.6-26.6
					C466.2,197,454.2,185.1,439.5,185.1z M420.2,211.7c0-10.6,8.7-19.3,19.3-19.3c4,0,7.7,1.2,10.8,3.3l-26.8,26.8
					C421.5,219.4,420.2,215.7,420.2,211.7z M439.5,231c-4,0-7.7-1.2-10.8-3.3l26.8-26.8c2.1,3.1,3.3,6.8,3.3,10.8
					C458.8,222.4,450.2,231,439.5,231z"/>
			</g>
		</g>
		<g>
			<g>
				<path class="st0" d="M343.8,250.6c-14.7,0-26.6,11.9-26.6,26.6c0,14.7,11.9,26.6,26.6,26.6s26.6-11.9,26.6-26.6
					C370.4,262.5,358.5,250.6,343.8,250.6z M324.5,277.2c0-10.6,8.7-19.3,19.3-19.3c4,0,7.7,1.2,10.8,3.3L327.8,288
					C325.7,284.9,324.5,281.2,324.5,277.2z M343.8,296.5c-4,0-7.7-1.2-10.8-3.3l26.8-26.8c2.1,3.1,3.3,6.8,3.3,10.8
					C363.1,287.8,354.5,296.5,343.8,296.5z"/>
			</g>
		</g>
		<g>
			<g>
				<path class="st0" d="M439.5,250.6c-14.7,0-26.6,11.9-26.6,26.6c0,14.7,11.9,26.6,26.6,26.6s26.6-11.9,26.6-26.6
					C466.2,262.5,454.2,250.6,439.5,250.6z M420.2,277.2c0-10.6,8.7-19.3,19.3-19.3c4,0,7.7,1.2,10.8,3.3L423.6,288
					C421.5,284.9,420.2,281.2,420.2,277.2z M439.5,296.5c-4,0-7.7-1.2-10.8-3.3l26.8-26.8c2.1,3.1,3.3,6.8,3.3,10.8
					C458.8,287.8,450.2,296.5,439.5,296.5z"/>
			</g>
		</g>
		<g>
			<g>
				<path class="st0" d="M358.9,96c-2,0-3.7,1.6-3.7,3.7v5.9c0,2,1.6,3.7,3.7,3.7c2,0,3.7-1.6,3.7-3.7v-5.9
					C362.6,97.6,360.9,96,358.9,96z"/>
			</g>
		</g>
		<g>
			<g>
				<path class="st0" d="M424.4,96c-2,0-3.7,1.6-3.7,3.7v5.9c0,2,1.6,3.7,3.7,3.7c2,0,3.7-1.6,3.7-3.7v-5.9
					C428.1,97.6,426.5,96,424.4,96z"/>
			</g>
		</g>
		<g>
			<g>
				<path class="st0" d="M402.2,102.4c-1.5-1.3-3.8-1.2-5.2,0.3c-1.3,1.5-3.2,2.3-5.3,2.3c-2.1,0-4-0.8-5.3-2.3
					c-1.3-1.5-3.6-1.7-5.2-0.3c-1.5,1.3-1.7,3.6-0.3,5.2c2.7,3.1,6.6,4.8,10.8,4.8s8.2-1.8,10.8-4.8
					C403.9,106,403.7,103.7,402.2,102.4z"/>
			</g>
		</g>
	</g>
</g>
</svg>
