<?xml version="1.0" encoding="utf-8"?>
<!-- Generator: Adobe Illustrator 24.3.0, SVG Export Plug-In . SVG Version: 6.00 Build 0)  -->
<svg version="1.1" id="Capa_1" xmlns="http://www.w3.org/2000/svg" xmlns:xlink="http://www.w3.org/1999/xlink" x="0px" y="0px"
	 viewBox="0 0 512 512" style="enable-background:new 0 0 512 512;" xml:space="preserve">
<style type="text/css">
	.st0{fill:#FFFFFF;}
</style>
<g>
	<path class="st0" d="M471,305.6H41v-248H471V305.6z M57.6,289.1h396.9v-215H57.6V289.1z"/>
	<path class="st0" d="M132,330.4h322.4v16.5H132V330.4z"/>
	<path class="st0" d="M107.2,322.1h16.5v33.1h-16.5V322.1z"/>
	<path class="st0" d="M57.6,330.4h41.3v16.5H57.6V330.4z"/>
	<path class="st0" d="M198.1,261.1v-159l159,79.5L198.1,261.1z M214.7,128.8v105.5l105.5-52.8L214.7,128.8z"/>
	<path class="st0" d="M479.2,24.5H32.8C19.1,24.5,8,35.6,8,49.3v314.2c0,13.7,11.1,24.8,24.8,24.8h148.8v49.6H98.9v49.6h314.2v-49.6
		h-82.7v-49.6h148.8c13.7,0,24.8-11.1,24.8-24.8V49.3C504,35.6,492.9,24.5,479.2,24.5z M396.6,454.4V471H115.4v-16.5H396.6z
		 M313.9,437.9H198.1v-49.6h115.7V437.9z M487.5,363.5c0,4.6-3.7,8.3-8.3,8.3H32.8c-4.6,0-8.3-3.7-8.3-8.3V49.3
		c0-4.6,3.7-8.3,8.3-8.3h446.5c4.6,0,8.3,3.7,8.3,8.3V363.5z"/>
</g>
</svg>
