<?xml version="1.0" encoding="utf-8"?>
<!-- Generator: Adobe Illustrator 24.2.1, SVG Export Plug-In . SVG Version: 6.00 Build 0)  -->
<svg version="1.1" id="Capa_1" xmlns="http://www.w3.org/2000/svg" xmlns:xlink="http://www.w3.org/1999/xlink" x="0px" y="0px"
	 viewBox="0 0 512 512" style="enable-background:new 0 0 512 512;" xml:space="preserve">
<path d="M252.1,330.2c-21.3-1.1-41.1-10.7-52.7-33.5c-1.6-3.2-2.1-9.1-0.2-11.3c4.1-4.8,8.5-1.6,12.5,2.2
	c19.3,18.2,41.7,24.6,66.8,14c8.1-3.4,14.6-10.4,22.3-14.9c3-1.8,7.5-1.1,11.3-1.6c0.2,3.3,1.5,7.1,0.4,9.9
	C304.5,315.8,280.8,330.2,252.1,330.2z"/>
<path d="M180.1,233.5c0.7-16,14.2-27.2,30.1-26.9c15,0.2,28.6,12,28.6,25.2c0,2.7-1.7,7.4-3.2,7.7c-3.6,0.6-8.4,0.2-11.1-1.9
	c-13.9-10.5-15.5-10.5-29.6,0c-3,2.2-8.1,2.3-12,1.8C181.3,239.1,180.5,234.3,180.1,233.5z"/>
<path d="M300.7,206.5c15.4-0.1,28.9,10.8,29.2,24.2c0.1,3-1.1,7.9-3,8.6c-2.9,1.1-7.7,0.6-10.3-1.2c-15.6-10.7-15.3-10.7-30.9-0.1
	c-2.8,1.9-7.9,2.1-11.2,1.1c-1.6-0.5-2.7-5.8-2.5-8.8C272.7,217.3,285.9,206.6,300.7,206.5z"/>
<g>
	<path d="M512,280c0-41.7-29.5-75.9-66.9-78.8c-4.4-14.9-16.4-26.6-31.4-30.7C403.6,88,336.6,25,256,25S108.4,88,98.3,170.6
		c-15.1,4.1-27,15.8-31.4,30.7c-1.3,0.1-2.6,0.2-3.9,0.4V104c0-8.3-6.7-15-15-15s-15,6.7-15,15v109.6C13.2,227.7,0,252.2,0,280
		c0,41.7,29.5,75.9,66.9,78.8c4.4,14.9,16.3,26.5,31.3,30.6C104.6,426.6,137,455,176,455h3.5c6.3,18.6,23.9,32,44.5,32h64
		c25.9,0,47-21.1,47-47s-21.1-47-47-47h-64c-20.7,0-38.3,13.4-44.5,32H176c-22.7,0-41.8-15.5-47.4-36.5
		c17.6-6.1,30.4-22.9,30.4-42.5V214c0-19.8-12.8-36.6-30.6-42.6C137.8,105.1,191.6,55,256,55s118.2,50.1,127.6,116.4
		c-17.7,6-30.5,22.8-30.5,42.6v132c0,24.8,20.2,45,45,45h4c20.4,0,37.6-13.6,43.1-32.2C482.5,355.9,512,321.7,512,280z M224,423h64
		c9.4,0,17,7.6,17,17s-7.6,17-17,17h-64c-9.4,0-17-7.6-17-17S214.6,423,224,423z M30,280c0-23.8,15.4-44.3,35-48.3v96.6
		C45.4,324.3,30,303.8,30,280z M129,346c0,8.3-6.7,15-15,15h-4c-8.3,0-15-6.7-15-15c0-48.1,0-87.5,0-132c0-8.3,6.7-15,15-15h4
		c8.3,0,15,6.7,15,15V346z M417,346c0,8.3-6.7,15-15,15h-4c-8.3,0-15-6.7-15-15V214c0-8.3,6.7-15,15-15h4c8.3,0,15,6.7,15,15V346z
		 M447,328.3v-96.6c19.6,4,35,24.5,35,48.3S466.6,324.3,447,328.3z"/>
</g>
</svg>
