<?xml version="1.0" encoding="utf-8"?>
<!-- Generator: Adobe Illustrator 24.3.0, SVG Export Plug-In . SVG Version: 6.00 Build 0)  -->
<svg version="1.1" id="Capa_1" xmlns="http://www.w3.org/2000/svg" xmlns:xlink="http://www.w3.org/1999/xlink" x="0px" y="0px"
	 viewBox="0 0 512 512" style="enable-background:new 0 0 512 512;" xml:space="preserve">
<style type="text/css">
	.st0{fill:#FFFFFF;}
</style>
<g id="Page-1">
	<g id="_x30_37---Favourite-Date">
		<path id="Shape" class="st0" d="M479.7,57.6h-16.5c0-13.7-11.1-24.8-24.8-24.8h-33.1c0-13.7-11.1-24.8-24.8-24.8
			s-24.8,11.1-24.8,24.8h-33.1c0-13.7-11.1-24.8-24.8-24.8C284.1,8,273,19.1,273,32.8H240C240,19.1,228.9,8,215.2,8
			c-13.7,0-24.8,11.1-24.8,24.8h-33.1c0-13.7-11.1-24.8-24.8-24.8s-24.8,11.1-24.8,24.8H74.6c-13.7,0-24.8,11.1-24.8,24.8H33.3
			c-6.6,0-12.9,2.6-17.5,7.3s-7.3,11-7.3,17.5v396.9c0,13.7,11.1,24.8,24.8,24.8h446.5c13.7,0,24.8-11.1,24.8-24.8V82.4
			C504.5,68.7,493.4,57.6,479.7,57.6z M66.3,419.8c2.6,1,5.4,1.5,8.3,1.5h363.8c2.8,0,5.6-0.5,8.3-1.5v18.1c0,4.6-3.7,8.3-8.3,8.3
			H74.6c-4.6,0-8.3-3.7-8.3-8.3V419.8z M438.4,404.8H74.6c-4.6,0-8.3-3.7-8.3-8.3V115.4h380.3v281.1
			C446.7,401.1,443,404.8,438.4,404.8z M372.2,32.8c0-4.6,3.7-8.3,8.3-8.3s8.3,3.7,8.3,8.3v24.8c0,4.6-3.7,8.3-8.3,8.3
			s-8.3-3.7-8.3-8.3V32.8z M289.6,32.8c0-4.6,3.7-8.3,8.3-8.3s8.3,3.7,8.3,8.3v24.8c0,4.6-3.7,8.3-8.3,8.3s-8.3-3.7-8.3-8.3V32.8z
			 M206.9,32.8c0-4.6,3.7-8.3,8.3-8.3c4.6,0,8.3,3.7,8.3,8.3v24.8c0,4.6-3.7,8.3-8.3,8.3c-4.6,0-8.3-3.7-8.3-8.3V32.8z M124.2,32.8
			c0-4.6,3.7-8.3,8.3-8.3s8.3,3.7,8.3,8.3v24.8c0,4.6-3.7,8.3-8.3,8.3s-8.3-3.7-8.3-8.3V32.8z M74.6,49.3h33.1v8.3
			c0,13.7,11.1,24.8,24.8,24.8s24.8-11.1,24.8-24.8v-8.3h33.1v8.3c0,13.7,11.1,24.8,24.8,24.8c13.7,0,24.8-11.1,24.8-24.8v-8.3H273
			v8.3c0,13.7,11.1,24.8,24.8,24.8c13.7,0,24.8-11.1,24.8-24.8v-8.3h33.1v8.3c0,13.7,11.1,24.8,24.8,24.8s24.8-11.1,24.8-24.8v-8.3
			h33.1c4.6,0,8.3,3.7,8.3,8.3v41.3H66.3V57.6C66.3,53,70,49.3,74.6,49.3z M488,479.2c0,4.6-3.7,8.3-8.3,8.3H33.3
			c-4.6,0-8.3-3.7-8.3-8.3V82.4c0-4.6,3.7-8.3,8.3-8.3h16.5v363.8c0,13.7,11.1,24.8,24.8,24.8h363.8c13.7,0,24.8-11.1,24.8-24.8
			V74.1h16.5c4.6,0,8.3,3.7,8.3,8.3V479.2z"/>
		<path id="Shape_1_" class="st0" d="M366.9,209.5L309.4,198c-0.4-0.1-0.7-0.3-0.8-0.6L280.3,146c-4.8-8.7-13.9-14-23.8-14
			c-9.9,0-19,5.4-23.8,14l-28.3,51.4c-0.2,0.3-0.5,0.5-0.8,0.6L146,209.5c-9.6,1.9-17.4,8.8-20.5,18.1s-0.9,19.5,5.8,26.7l40.2,43.8
			c0.2,0.2,0.3,0.6,0.3,0.9l-7,59c-0.9,7.7,1.6,15.4,6.7,21.2c5.1,5.8,12.5,9.1,20.2,9.1c4,0,8-0.9,11.6-2.6l52.7-24.7
			c0.3-0.2,0.7-0.2,1,0l52.7,24.7c8.9,4.2,19.4,3.2,27.4-2.5s12.3-15.4,11.1-25.2l-7-59c0-0.3,0.1-0.6,0.3-0.9l40.2-43.8
			c6.6-7.2,8.8-17.4,5.8-26.7C384.4,218.3,376.5,211.4,366.9,209.5L366.9,209.5z M369.5,243.1l-40.2,43.8c-3.5,3.8-5.1,8.9-4.5,14
			l7,59c0.5,3.8-1.2,7.5-4.3,9.8c-3.1,2.3-7.3,2.7-10.7,1L264.1,346c-4.8-2.2-10.3-2.2-15.1,0l-52.7,24.7c-3.5,1.7-7.6,1.3-10.7-1
			c-3.1-2.2-4.8-6-4.3-9.8l7-59c0.6-5.1-1-10.3-4.5-14.1l-40.2-43.8c-2.6-2.8-3.5-6.8-2.2-10.4c1.2-3.6,4.2-6.4,8-7.1l57.5-11.5
			c5.1-1,9.5-4.2,12.1-8.8l28.3-51.4c1.9-3.4,5.4-5.5,9.3-5.5c3.9,0,7.4,2.1,9.3,5.5l28.3,51.4c2.5,4.6,6.9,7.8,12.1,8.8l57.5,11.5
			c3.8,0.7,6.8,3.4,8,7.1C373,236.3,372.1,240.3,369.5,243.1L369.5,243.1z"/>
		<path id="Shape_2_" class="st0" d="M253.2,194.4c-4-2.2-9-0.7-11.2,3.3l-16.6,29.7l-27.1,6.5c-5.9,1.4-10.6,5.9-12.1,11.8
			c-1.6,5.9,0.2,12.1,4.6,16.3l13.6,12.8c2.1,2.1,5.2,2.8,8.1,2s5-3.2,5.7-6.1c0.7-2.9-0.3-5.9-2.5-8l-13.6-12.8l26.8-6.4
			c4.8-1,8.9-4,11.2-8.3l16.3-29.6c1.1-1.9,1.3-4.2,0.7-6.3C256.6,197.3,255.2,195.5,253.2,194.4L253.2,194.4z"/>
		<path id="Shape_3_" class="st0" d="M420.7,148.4c-1.1-1.9-2.9-3.2-5.1-3.8c-2.1-0.5-4.4-0.2-6.3,0.9l-8.3,5v-10.3
			c0-4.6-3.7-8.3-8.3-8.3s-8.3,3.7-8.3,8.3v10.3l-8.3-5c-3.9-2.3-9-1.1-11.3,2.9c-2.3,3.9-1.1,9,2.9,11.3l8.9,5.3l-8.9,5.3
			c-3.9,2.3-5.2,7.4-2.9,11.3c2.3,3.9,7.4,5.2,11.3,2.9l8.3-5v10.3c0,4.6,3.7,8.3,8.3,8.3s8.3-3.7,8.3-8.3v-10.3l8.3,5
			c2.5,1.5,5.7,1.6,8.3,0.1c2.6-1.4,4.2-4.1,4.2-7.1c0-3-1.5-5.7-4-7.2l-8.9-5.3l8.9-5.3c1.9-1.1,3.2-2.9,3.8-5.1
			S421.8,150.3,420.7,148.4L420.7,148.4z"/>
		<path id="Shape_4_" class="st0" d="M128.5,189.9v-10.3l8.3,5c2.5,1.5,5.7,1.6,8.3,0.1c2.6-1.4,4.2-4.1,4.2-7.1c0-3-1.5-5.7-4-7.2
			l-8.9-5.3l8.9-5.3c3.9-2.3,5.2-7.4,2.9-11.3c-2.3-3.9-7.4-5.2-11.3-2.9l-8.3,5v-10.3c0-4.6-3.7-8.3-8.3-8.3
			c-4.6,0-8.3,3.7-8.3,8.3v10.3l-8.3-5c-2.5-1.5-5.7-1.6-8.3-0.1c-2.6,1.4-4.2,4.1-4.2,7.1s1.5,5.7,4,7.2l8.9,5.3l-8.9,5.3
			c-3.9,2.3-5.2,7.4-2.9,11.3s7.4,5.2,11.3,2.9l8.3-5v10.3c0,4.6,3.7,8.3,8.3,8.3C124.8,198.1,128.5,194.4,128.5,189.9z"/>
		<circle id="Oval" class="st0" cx="223.4" cy="297.3" r="8.3"/>
	</g>
</g>
</svg>
