<?xml version="1.0" encoding="utf-8"?>
<!-- Generator: Adobe Illustrator 24.1.3, SVG Export Plug-In . SVG Version: 6.00 Build 0)  -->
<svg version="1.1" id="Capa_1" xmlns="http://www.w3.org/2000/svg" xmlns:xlink="http://www.w3.org/1999/xlink" x="0px" y="0px"
	 viewBox="0 0 512 512" style="enable-background:new 0 0 512 512;" xml:space="preserve">
<style type="text/css">
	.st0{fill:#FDE4E4;}
	.st1{fill:#FCCED3;}
	.st2{fill:#7ED8F6;}
	.st3{fill:#6AA9FF;}
</style>
<g>
	<path class="st0" d="M510,279.3l-36.6-71c10.8-31.7,9.6-63.5-3.9-94.6c-17.7-41.3-55.4-71.9-98.2-79.9C329.1,26,287.1,38,256,66.4
		C224.9,38,182.9,26,140.7,33.8c-42.8,8.1-80.5,38.6-98.2,79.9c-13.5,31.1-14.7,62.9-3.9,94.6L2,279.3c-2.1,4.5-2.1,10.2,0.6,14.4
		c3,4.5,7.8,7.2,12.9,7.2h45.9v44.9c0,24.8,20.1,44.9,44.9,44.9h59.9c8.4,0,15,6.6,15,15v59.9c0,8.4,6.6,15,15,15h119.8
		c8.4,0,15-6.6,15-15v-59.9c0-8.4,6.6-15,15-15h59.9c24.8,0,44.9-20.1,44.9-44.9v-44.9h45.9c5.1,0,9.9-2.7,12.9-7.2
		C512.1,289.5,512.1,283.8,510,279.3z"/>
	<path class="st1" d="M509.4,293.7c-3,4.5-7.8,7.2-12.9,7.2h-45.9v44.9c0,24.8-20.1,44.9-44.9,44.9h-59.9c-8.4,0-15,6.6-15,15v59.9
		c0,8.4-6.6,15-15,15H256V66.4C287.1,38,329.1,26,371.3,33.8c42.8,8.1,80.5,38.6,98.2,79.9c13.5,31.1,14.7,62.9,3.9,94.6l36.6,71
		C512.1,283.8,512.1,289.5,509.4,293.7z"/>
	<path class="st2" d="M390.1,196.1c0,3.9-0.9,7.8-3.9,10.5L266.5,326.3c-2.7,3-6.6,4.5-10.5,4.5c-3.9,0-7.8-1.5-10.5-4.5
		L125.8,206.6c-3-2.7-3.9-6.6-3.9-10.5l47.9-16.8H359L390.1,196.1z"/>
	<path class="st3" d="M390.1,196.1H121.9c0-2.4,0-4.5,0.9-6.6l29.9-59.9c2.7-5.1,7.8-8.4,13.5-8.4l75.5,26.9l14.4-3.6l89.8-23.4
		c5.7,0,10.8,3.3,13.5,8.4l29.9,59.9C390.1,191.6,390.1,193.7,390.1,196.1z"/>
	<path class="st3" d="M390.1,196.1c0,3.9-0.9,7.8-3.9,10.5L266.5,326.3c-2.7,3-6.6,4.5-10.5,4.5V179.3h103L390.1,196.1z"/>
	<path class="st2" d="M390.1,196.1H256v-51.5l89.8-23.4c5.7,0,10.8,3.3,13.5,8.4l29.9,59.9C390.1,191.6,390.1,193.7,390.1,196.1z"/>
	<path class="st2" d="M345.8,121.2L256,196.1l-89.8-74.9H345.8z"/>
	<path class="st3" d="M345.8,121.2L256,196.1v-74.9H345.8z"/>
</g>
</svg>
