<?xml version="1.0" encoding="utf-8"?>
<!-- Generator: Adobe Illustrator 24.3.0, SVG Export Plug-In . SVG Version: 6.00 Build 0)  -->
<svg version="1.1" id="Capa_1" xmlns="http://www.w3.org/2000/svg" xmlns:xlink="http://www.w3.org/1999/xlink" x="0px" y="0px"
	 viewBox="0 0 512 512" style="enable-background:new 0 0 512 512;" xml:space="preserve">
<style type="text/css">
	.st0{fill:#FFFFFF;}
</style>
<g>
	<path class="st0" d="M496.3,437.9h-16.5V173.4c0-27.4-22.2-49.6-49.6-49.6h-24.8v16.5h24.8c18.3,0,33.1,14.8,33.1,33.1v264.6H330.9
		c-2.2,0-4.3,0.9-5.8,2.4L311,454.5H202l-14.1-14.1c-1.6-1.6-3.7-2.4-5.8-2.4H49.8V173.4c0-18.3,14.8-33.1,33.1-33.1h24.8v-16.5
		H82.9c-27.4,0-49.6,22.2-49.6,49.6v264.6H16.7c-4.6,0-8.3,3.7-8.3,8.3V471c0,18.3,14.8,33.1,33.1,33.1h429.9
		c18.3,0,33.1-14.8,33.1-33.1v-24.8C504.5,441.6,500.8,437.9,496.3,437.9z M488,471c0,9.1-7.4,16.5-16.5,16.5H41.5
		c-9.1,0-16.5-7.4-16.5-16.5v-16.5h153.7l14.1,14.1c1.6,1.6,3.7,2.4,5.8,2.4h115.7c2.2,0,4.3-0.9,5.8-2.4l14.1-14.1H488V471z"/>
	<path class="st0" d="M430.1,181.6v223.2H82.9V181.6c0-4.6,3.7-8.3,8.3-8.3h16.5v-16.5H91.1c-13.7,0-24.8,11.1-24.8,24.8v231.5
		c0,4.6,3.7,8.3,8.3,8.3h363.8c4.6,0,8.3-3.7,8.3-8.3V181.6c0-13.7-11.1-24.8-24.8-24.8h-16.5v16.5h16.5
		C426.4,173.4,430.1,177.1,430.1,181.6z"/>
	<path class="st0" d="M167.8,271.4l-27.1,38.1c-9.3,13-6.3,31,6.7,40.3c4.9,3.5,10.8,5.4,16.8,5.4h184.5c16,0,28.9-12.9,28.9-28.9
		c0-6-1.9-11.9-5.4-16.8l-27.1-38.1c54.2-49,58.4-132.6,9.4-186.8S222,26.1,167.8,75.1s-58.4,132.6-9.4,186.8
		C161.3,265.3,164.5,268.4,167.8,271.4L167.8,271.4z M358.8,319.1c4,5.5,2.7,13.3-2.8,17.3c-2.1,1.5-4.6,2.3-7.2,2.3H164.2
		c-6.8,0-12.4-5.5-12.4-12.4c0-2.6,0.8-5.1,2.3-7.2l26.6-37.4c45.5,31.9,106,31.9,151.5,0L358.8,319.1z M256.5,57.6
		c31.2,0,61.1,12.6,82.9,35.1l-10.6,24c-4.2,9.2-5.8,19.3-4.7,29.3l2.4,23.9c0.2,2.6,0.4,4.9,0.4,7c0,22.9-11.3,44.4-30.1,57.6
		c-24.1,17-56.3,16.9-80.5,0c-20.8-14.6-32.2-39.2-29.7-64.5L189,146c1.1-10-0.6-20.1-4.7-29.3l-10.7-24
		C195.4,70.2,225.3,57.6,256.5,57.6z M161.8,106.9l7.4,16.6c3,6.5,4.1,13.7,3.4,20.8l-2.4,23.9c-3.1,31.2,10.9,61.7,36.6,79.7
		c29.8,21,69.6,21,99.5,0c23.2-16.2,37.1-42.8,37.1-71.1c0-2.6-0.1-5.4-0.5-8.6l-2.4-23.9c-0.7-7.1,0.4-14.3,3.4-20.8l7.3-16.5
		c36.8,52.3,24.2,124.5-28.1,161.3S198.6,292.3,161.8,240C133.7,200.1,133.7,146.8,161.8,106.9L161.8,106.9z"/>
	<path class="st0" d="M383.3,95.3l14.1-8.7c-3.2-5.1-6.6-10.1-10.4-14.9l-13,10.2C377.3,86.2,380.4,90.7,383.3,95.3z"/>
	<path class="st0" d="M256.5,24.5c41.2-0.2,80.5,16.9,108.5,47l12.1-11.3C345.8,27,302.2,8.1,256.5,8c-24.1-0.1-47.8,5.2-69.6,15.3
		l7,15C213.5,29.2,234.9,24.5,256.5,24.5L256.5,24.5z"/>
	<path class="st0" d="M256.5,223c27.4,0,49.6-22.2,49.6-49.6s-22.2-49.6-49.6-49.6s-49.6,22.2-49.6,49.6
		C206.9,200.7,229.1,222.9,256.5,223z M256.5,140.3c18.3,0,33.1,14.8,33.1,33.1s-14.8,33.1-33.1,33.1c-18.3,0-33.1-14.8-33.1-33.1
		C223.4,155.1,238.2,140.3,256.5,140.3z"/>
	<path class="st0" d="M248.2,74.1h16.5v16.5h-16.5V74.1z"/>
	<path class="st0" d="M107.7,371.8h16.5v16.5h-16.5V371.8z"/>
	<path class="st0" d="M140.8,371.8h264.6v16.5H140.8V371.8z"/>
</g>
</svg>
