<?xml version="1.0" encoding="utf-8"?>
<!-- Generator: Adobe Illustrator 24.1.3, SVG Export Plug-In . SVG Version: 6.00 Build 0)  -->
<svg version="1.1" id="Capa_1" xmlns="http://www.w3.org/2000/svg" xmlns:xlink="http://www.w3.org/1999/xlink" x="0px" y="0px"
	 viewBox="0 0 512 512" style="enable-background:new 0 0 512 512;" xml:space="preserve">
<style type="text/css">
	.st0{fill:#DFEEF4;}
	.st1{fill:#F45858;}
	.st2{fill:#F2DA30;}
	.st3{fill:#3EA2E5;}
</style>
<g>
	<path class="st0" d="M429.7,337.1H309.1c-16.2,25.6-33.9,50.1-53.1,73.5c-19.2-23.4-36.9-47.9-53.1-73.5H82.3L25.2,486.8h461.6
		L429.7,337.1z"/>
	<path class="st1" d="M256,25.2c-67.8,0-122.8,55-122.8,122.8C132.4,265.3,256,410.6,256,410.6s123.6-145.4,122.8-262.6
		C378.8,80.2,323.8,25.2,256,25.2L256,25.2z M256,200.2c-28.8,0-52.1-23.3-52.1-52.1c0-28.8,23.3-52.1,52.1-52.1
		s52.1,23.3,52.1,52.1c0,0,0,0,0,0C308.1,176.8,284.8,200.2,256,200.2C256,200.2,256,200.2,256,200.2z"/>
	<path class="st2" d="M443,371.8l-230.3,81.9l-89.8-116.6h80c16.2,25.6,33.9,50.1,53.1,73.5c19.2-23.4,36.9-47.9,53.1-73.5h120.6
		L443,371.8z"/>
	<path class="st3" d="M119.8,486.8l228-81.1l62.4,81.1H119.8z"/>
</g>
</svg>
