<?xml version="1.0" encoding="utf-8"?>
<!-- Generator: Adobe Illustrator 24.2.1, SVG Export Plug-In . SVG Version: 6.00 Build 0)  -->
<svg version="1.1" id="Capa_1" xmlns="http://www.w3.org/2000/svg" xmlns:xlink="http://www.w3.org/1999/xlink" x="0px" y="0px"
	 viewBox="0 0 512 512" style="enable-background:new 0 0 512 512;" xml:space="preserve">
<g>
	<path d="M182.3,212.8c0-20.8,0-39.9,0-60.1c14.5,0,28.7,0,43.9,0c0-13,0.3-25.2-0.1-37.3c-0.2-5.8,1.7-7.7,7.5-7.6
		c17.4,0.3,34.7,0.1,52.9,0.1c0,15.2,0,29.4,0,44.5c14.9,0,29.1,0,43.8,0c0,20.2,0,39.6,0,60c-14.4,0-28.5,0-43.5,0
		c0,15.2,0,29.4,0,44.2c-20.4,0-40,0-60.4,0c0-14.4,0-28.7,0-43.9C211.4,212.8,197.2,212.8,182.3,212.8z"/>
	<g>
		<path d="M256,0C165,0,91,74,91,165c0,95.3,91.3,218.6,154.3,282.5c2.8,2.9,6.7,4.5,10.7,4.5s7.9-1.6,10.7-4.5
			C330.7,382.7,421,259.8,421,165C421,74,347,0,256,0z M256,415.1C222.4,378.2,121,259.4,121,165c0-74.4,60.6-135,135-135
			s135,60.6,135,135C391,259.2,289.6,378.2,256,415.1z"/>
		<path d="M166,482c-8.3,0-15,6.7-15,15s6.7,15,15,15h180c8.3,0,15-6.7,15-15s-6.7-15-15-15H166z"/>
	</g>
</g>
</svg>
