<?xml version="1.0" encoding="utf-8"?>
<!-- Generator: Adobe Illustrator 24.2.3, SVG Export Plug-In . SVG Version: 6.00 Build 0)  -->
<svg version="1.1" id="Capa_1" xmlns="http://www.w3.org/2000/svg" xmlns:xlink="http://www.w3.org/1999/xlink" x="0px" y="0px"
	 viewBox="0 0 512 512" style="enable-background:new 0 0 512 512;" xml:space="preserve">
<style type="text/css">
	.st0{fill:#386BB2;}
</style>
<g>
	<path class="st0" d="M255.8,15.3c101.2-0.1,185.5,83,185.2,182.4c-0.1,31.6-11.7,60.1-25.1,87.7c-34.9,71.8-82,135.6-131.9,197.4
		c-14.5,18-42.9,18.5-58.9,0.8c-54.5-60.5-103.9-124.6-135.6-200.5C68.7,233.4,63.5,183,84,131.7C112.2,61.4,180.1,15.4,255.8,15.3z
		 M256.1,39.8c-90.9-0.1-163.4,74.8-160.3,165.5c1.2,33.5,12.7,64,27.4,93.4c30.9,61.7,73,115.5,118.6,166.7
		c8.7,9.7,18.6,9.2,26.9-1.2c7.6-9.4,15-19,22.3-28.6c41-54.1,79.9-109.6,108-171.9c9.5-21,17.7-42.5,17.5-66.1
		C415.9,111.1,343.5,39.9,256.1,39.8z"/>
	<path class="st0" d="M172.6,241c0-23.5,0-45.2,0-68c16.4,0,32.4,0,49.7,0c0-14.8,0.3-28.5-0.1-42.3c-0.2-6.6,1.9-8.7,8.5-8.6
		c19.7,0.4,39.3,0.1,59.9,0.1c0,17.2,0,33.3,0,50.3c16.9,0,33,0,49.6,0c0,22.9,0,44.9,0,67.9c-16.3,0-32.3,0-49.2,0
		c0,17.2,0,33.3,0,50c-23.1,0-45.3,0-68.4,0c0-16.4,0-32.4,0-49.6C205.5,241,189.4,241,172.6,241z"/>
</g>
</svg>
