<svg id="Capa_1" enable-background="new 0 0 512.051 512.051" height="512" viewBox="0 0 512.051 512.051" width="512" xmlns="http://www.w3.org/2000/svg"><g><path d="m254.165 15v224c0 8.28-6.72 15-15 15h-224c-8.28 0-15-6.72-15-15v-224c0-8.28 6.72-15 15-15h224c8.28 0 15 6.72 15 15z" fill="#ffe278"/><path d="m254.165 15v224c0 8.28-6.72 15-15 15h-111v-254h111c8.28 0 15 6.72 15 15z" fill="#ffb454"/><path d="m128.165 64.01c-.33-.01-.66-.01-1-.01-34.74 0-63 28.26-63 63s28.26 63 63 63c.34 0 .67 0 1-.01 34.28-.54 62-28.59 62-62.99s-27.72-62.45-62-62.99zm0 95.97c-.33.01-.67.02-1 .02-18.2 0-33-14.8-33-33s14.8-33 33-33c.33 0 .67.01 1 .02 17.74.53 32 15.11 32 32.98s-14.26 32.45-32 32.98z" fill="#ffb454"/><path d="m190.165 127c0 34.4-27.72 62.45-62 62.99v-30.01c17.74-.53 32-15.11 32-32.98s-14.26-32.45-32-32.98v-30.01c34.28.54 62 28.59 62 62.99z" fill="#ff8659"/><path d="m498.165 80.47-6.39 6.391c8.97 32.68-.12 68-24.43 92.31l-262.53 262.529c-5.85 5.85-15.337 5.882-21.22 0l-113.13-113.13c-5.871-5.872-5.86-15.36 0-21.221l262.53-262.52c24.31-24.32 59.63-33.41 92.32-24.44l6.38-6.39c8.88-8.88 20.68-13.76 33.23-13.76 25.997 0 47 21.008 47 47 0 12.551-4.88 24.351-13.76 33.231z" fill="#6ba7ff"/><path d="m498.165 80.47-6.39 6.391c8.97 32.68-.12 68-24.43 92.31l-262.53 262.529c-5.85 5.85-15.337 5.882-21.22 0l-56.56-56.561 371.13-371.139c18.348 18.347 18.376 48.094 0 66.47z" fill="#5e69e2"/><path d="m216.125 498.27c-18.37 18.372-48.094 18.378-66.47 0-7.535-7.535-128.225-128.224-135.76-135.76-18.372-18.372-18.376-48.094 0-66.47 18.32-18.32 48.14-18.33 66.46 0 83.731 83.719 51.357 51.346 135.77 135.76 18.33 18.33 18.33 48.15 0 66.47z" fill="#5e69e2"/><path d="m216.125 498.27c-18.37 18.372-48.094 18.378-66.47 0l-67.88-67.88 66.47-66.47 67.88 67.88c18.33 18.33 18.33 48.15 0 66.47z" fill="#424fdd"/></g></svg>