<?xml version="1.0" encoding="utf-8"?>
<!-- Generator: Adobe Illustrator 24.2.3, SVG Export Plug-In . SVG Version: 6.00 Build 0)  -->
<svg version="1.1" id="Capa_1" xmlns="http://www.w3.org/2000/svg" xmlns:xlink="http://www.w3.org/1999/xlink" x="0px" y="0px"
	 viewBox="0 0 512 512" style="enable-background:new 0 0 512 512;" xml:space="preserve">
<style type="text/css">
	.st0{fill:#C4C4C4;}
	.st1{fill:#FFFFFF;}
</style>
<g>
	<path class="st0" d="M412.6,475.6H99.4c-2.9,0-5.3-2.4-5.3-5.3v-66.7c0-2.9,2.4-5.3,5.3-5.3s5.3,2.4,5.3,5.3v61.4h302.7v-61.4
		c0-2.9,2.4-5.3,5.3-5.3c2.9,0,5.3,2.4,5.3,5.3v66.7C417.9,473.2,415.5,475.6,412.6,475.6z"/>
	<path class="st0" d="M412.6,152.2c-2.9,0-5.3-2.4-5.3-5.3v-100H104.7v100c0,2.9-2.4,5.3-5.3,5.3s-5.3-2.4-5.3-5.3V41.7
		c0-2.9,2.4-5.3,5.3-5.3h313.2c2.9,0,5.3,2.4,5.3,5.3v105.3C417.9,149.8,415.5,152.2,412.6,152.2z"/>
	<path class="st1" d="M164.2,307c-12.8,11-32.1,9.5-43.2-3.3c-11-12.8-9.5-32.1,3.3-43.2c11.6-10,28.8-9.8,40.2,0.3
		c2.2,1.9,5.5,1.7,7.4-0.5c1.9-2.2,1.7-5.4-0.4-7.4c-9.9-8.8-23.4-12.3-36.3-9.4l-6.9-18.9l12.7-4.6c2.7-1,4.1-4,3.1-6.7
		c-1-2.7-4-4.1-6.7-3.1l-12.7,4.6l-7.8-21.3c-1-2.7-4-4.1-6.7-3.1c-2.7,1-4.1,4-3.1,6.7l7.8,21.3l-12.7,4.6c-2.7,1-4.1,4-3.1,6.7
		c1,2.7,4,4.1,6.7,3.1l12.7-4.6l6.9,18.9c-20.2,10.4-28.1,35.2-17.6,55.4c10.4,20.2,35.2,28.1,55.4,17.6c2.8-1.5,5.5-3.3,7.9-5.3
		c2.2-1.9,2.5-5.2,0.7-7.4c-1.9-2.2-5.2-2.5-7.4-0.7C164.3,307,164.2,307,164.2,307L164.2,307z"/>
	<path class="st1" d="M412.8,206.9l-11-23.6c-1.2-2.6-4.4-3.8-7-2.5l-23.6,11c-2.6,1.3-3.7,4.4-2.4,7c1.2,2.6,4.3,3.7,6.9,2.5
		l12.1-5.7L373,236.1c-11.5-2.6-23.6-0.1-33.1,6.8c-2.4,1.7-3,4.9-1.3,7.3c1.7,2.4,4.9,3,7.3,1.3c0.1,0,0.1-0.1,0.2-0.1
		c13.7-9.9,32.8-6.8,42.7,6.9c9.9,13.7,6.8,32.8-6.9,42.7c-10.5,7.6-24.7,7.7-35.3,0.3c-2.4-1.7-5.7-1.1-7.3,1.3
		c-1.7,2.4-1.1,5.7,1.3,7.3c18.7,13,44.3,8.3,57.2-10.3c13-18.7,8.3-44.3-10.3-57.2c-1.5-1-3-1.9-4.6-2.7l14.7-40.5l5.7,12.1
		c1.2,2.6,4.3,3.8,6.9,2.6c2.6-1.2,3.8-4.3,2.6-6.9C412.8,206.9,412.8,206.9,412.8,206.9L412.8,206.9z"/>
</g>
<path class="st1" d="M500.7,174.5l-151.9-58.9v-6.2c0-2.9-2.4-5.3-5.3-5.3h-175c-2.9,0-5.3,2.4-5.3,5.3v6.2L11.3,174.5
	c-2.7,1-4,4.1-3,6.8c0,0,0,0,0,0l86.6,223.3c1.1,2.7,4.1,4,6.8,3L238,354.7c0.4-0.2,0.8-0.3,1.1-0.6h33.6c0.3,0.2,0.6,0.3,0.9,0.5
	l136.6,53c1.3,0.5,2.7,0.5,4-0.1c1.3-0.6,2.3-1.6,2.8-2.9l86.6-223.3C504.7,178.6,503.4,175.5,500.7,174.5
	C500.7,174.5,500.7,174.5,500.7,174.5L500.7,174.5z M173.7,114.6h164.5v229H173.7V114.6z M102.8,395.8L20,182.4l143.2-55.6v222
	c0,2.9,2.4,5.3,5.3,5.3h42L102.8,395.8z M409.2,395.8l-107.6-41.7h42c2.9,0,5.3-2.4,5.3-5.3v-222L492,182.4L409.2,395.8z"/>
<path class="st1" d="M261.3,245.6v-9.7h13.5c2.9,0,5.3-2.4,5.3-5.3c0-2.9-2.4-5.3-5.3-5.3h-13.5v-22.9l9.5,9.5c2,2.1,5.4,2.1,7.4,0
	c2.1-2,2.1-5.4,0-7.4c0,0,0,0,0,0l-18.4-18.4c-2.1-2.1-5.4-2.1-7.4,0c0,0,0,0,0,0l-18.4,18.4c-2.1,2.1-2.1,5.4,0,7.4
	c2.1,2.1,5.4,2.1,7.4,0l9.5-9.5v22.9h-13.5c-2.9,0-5.3,2.4-5.3,5.3c0,2.9,2.4,5.3,5.3,5.3h13.5v9.7c-22.5,2.9-38.4,23.5-35.5,46
	c2.9,22.5,23.5,38.4,46,35.5c22.5-2.9,38.4-23.5,35.5-46C294.4,262.6,279.8,248,261.3,245.6L261.3,245.6z M256,317
	c-16.9,0-30.6-13.7-30.6-30.6c0-16.9,13.7-30.6,30.6-30.6c16.9,0,30.6,13.7,30.6,30.6C286.6,303.2,272.9,316.9,256,317z"/>
</svg>
