<?xml version="1.0" encoding="utf-8"?>
<!-- Generator: Adobe Illustrator 24.2.1, SVG Export Plug-In . SVG Version: 6.00 Build 0)  -->
<svg version="1.1" id="Capa_1" xmlns="http://www.w3.org/2000/svg" xmlns:xlink="http://www.w3.org/1999/xlink" x="0px" y="0px"
	 viewBox="0 0 512 512" style="enable-background:new 0 0 512 512;" xml:space="preserve">
<style type="text/css">
	.st0{fill:#FFFFFF;}
</style>
<g>
	<g>
		<path d="M256,481C131.9,481,31,380.1,31,256S131.9,31,256,31s225,100.9,225,225S380.1,481,256,481z"/>
	</g>
	<g>
		<path class="st0" d="M360.2,196.7c-13.6,0-26.1-4.5-36.1-12.1c-11.5-8.7-19.8-21.4-22.7-36.1c-0.7-3.6-1.1-7.4-1.2-11.2h-38.8
			v105.9v58c0,15.5-10.1,28.7-24.1,33.3c-4.1,1.3-8.5,2-13,1.7c-5.8-0.3-11.3-2.1-16-4.9c-10.1-6-17-17-17.1-29.6
			c-0.3-19.6,15.6-35.6,35.2-35.6c3.9,0,7.6,0.6,11.1,1.8V239v-10.4c-3.7-0.5-7.4-0.8-11.2-0.8c-21.5,0-41.5,8.9-55.9,25
			c-10.8,12.1-17.3,27.6-18.3,43.9c-1.3,21.3,6.5,41.6,21.6,56.6c2.2,2.2,4.6,4.2,7,6.1c13,10,28.8,15.4,45.6,15.4
			c3.8,0,7.5-0.3,11.2-0.8c15.6-2.3,30-9.5,41.4-20.7c14-13.8,21.7-32.1,21.8-51.6l-0.2-86.6c6.7,5.1,14,9.4,21.8,12.7
			c12.2,5.1,25.1,7.7,38.3,7.7v-28.1V197C360.3,196.7,360.2,196.7,360.2,196.7L360.2,196.7z"/>
	</g>
</g>
</svg>
