<?xml version="1.0" encoding="utf-8"?>
<!-- Generator: Adobe Illustrator 24.2.3, SVG Export Plug-In . SVG Version: 6.00 Build 0)  -->
<svg version="1.1" id="Capa_1" xmlns="http://www.w3.org/2000/svg" xmlns:xlink="http://www.w3.org/1999/xlink" x="0px" y="0px"
	 viewBox="0 0 512 512" style="enable-background:new 0 0 512 512;" xml:space="preserve">
<style type="text/css">
	.st0{fill:#FFFFFF;}
</style>
<g>
	<g>
		<g>
			<path class="st0" d="M95.3,366.1c2.4,0,4.9-0.6,7.3-1.9c6-3.3,10.5-8.2,13.3-13.9c0.1,0,0.3,0,0.4,0c2.5,0,5-0.6,7.2-1.8
				c5.5-3,9.7-7.4,12.5-12.5c2-0.2,4-0.8,5.8-1.8c7.4-4,12.8-10.6,15.1-18.7c2.4-8.1,1.5-16.5-2.5-23.9L136,257.6
				c5.2-8,16.1-26.5,22.8-49c3.4-11.6,6-24.1,7.5-37.2c1.6-13.8-3.1-27.4-12.9-37.2L70.9,51.8c-2.8-2.8-7.4-2.8-10.3,0
				c-2.8,2.8-2.8,7.4,0,10.3l82.4,82.4c6.7,6.7,9.9,15.9,8.8,25.2c-1.4,12.3-3.8,24-7,34.8c-4.5,15.1-11,28.2-16.1,37.1l-8.7-16.1
				c13.8-8.6,21.6-30.7,22-47.2c0.1-4-3.1-7.3-7.1-7.4c-0.1,0-0.1,0-0.2,0c-3.9,0-7.2,3.2-7.3,7.1c-0.3,14.2-7.3,30.3-15.2,35.2
				c-0.8,0.5-3.7,2-5.4,2.9c-1.7,0.9-3,2.5-3.6,4.3c-0.6,1.9-0.4,3.9,0.6,5.6l15.2,28.1c5.2,9.6,1.6,21.6-8,26.8
				c-0.8,0.4-1.7,0.2-2.2-0.6l-30.1-48.2l-1.6-34.7c-0.2-5.4,1.6-10.6,5.2-14.7l15.2-17.1l12.5-6.8c3.5-1.9,4.8-6.3,2.9-9.9
				c-1.9-3.5-6.3-4.8-9.9-2.9l-13.6,7.4c-0.7,0.4-1.4,0.9-2,1.5l-2.7,3L20,101.9c-3-2.6-7.6-2.3-10.2,0.7c-2.6,3-2.3,7.6,0.7,10.2
				L75.4,169l-3.8,4.2c-6.2,6.9-9.3,15.8-8.9,25l0.9,18.9c-0.1,0.1-8.1,27.3-8.1,27.3c-1.1,3.8,1.1,7.9,4.9,9
				c0.7,0.2,1.4,0.3,2.1,0.3c3.1,0,6-2,7-5.2l0.8-2.7l15.4,24.7l-4.3,14.6c-0.5,1.8-0.3,3.8,0.6,5.5l20.5,37.8
				c2.2,4,2.6,8.5,1.4,12.9c-1.3,4.3-4.2,7.9-8.1,10.1c-0.3,0.2-0.6,0.1-0.8-0.2l-36.9-63.8l1.8-5.9c1.1-3.8-1.1-7.9-4.9-9
				c-3.8-1.1-7.9,1.1-9,4.9l-2.6,8.9c-0.6,1.9-0.3,4,0.7,5.7l38.5,66.5C85,363.3,90.1,366.1,95.3,366.1z M143,311.4
				c-0.7,2.3-1.8,4.3-3.3,6.1c-0.4-4-1.6-7.9-3.6-11.6l-9.9-18.2c2.2-2.2,4-4.8,5.5-7.5l10,18.3C143.8,302.5,144.3,307,143,311.4
				L143,311.4z M98.2,290.3c3.1,3.5,7.6,5.4,12.1,5.4c1.2,0,2.3-0.1,3.5-0.4l9.5,17.4c4,7.3,1.9,16.3-4.4,21.3
				c-0.3-4.3-1.5-8.5-3.7-12.5L98.2,290.3z"/>
			<path class="st0" d="M450.2,296.4l20.5-68.8c0.6-1.9,0.3-4-0.7-5.7l-38.5-66.5c-4.1-7.2-13.1-9.7-20.3-5.7
				c-5.9,3.2-10.5,8-13.3,13.9c-2.6-0.1-5.2,0.5-7.6,1.8c-5.5,3-9.8,7.4-12.6,12.5c-2,0.2-4,0.8-5.8,1.8c-7.4,4-12.8,10.6-15.1,18.7
				c-2.4,8.1-1.5,16.5,2.5,23.9l18.4,33.9c-5.3,8.3-16.1,26.6-22.8,49c-3.4,11.6-6,24.1-7.5,37.2c-1.6,13.8,3.1,27.4,12.9,37.2
				l80.7,80.7c1.4,1.4,3.3,2.1,5.1,2.1c1.9,0,3.7-0.7,5.1-2.1c2.8-2.8,2.8-7.4,0-10.3l-80.7-80.7c-6.7-6.7-9.9-15.9-8.8-25.2
				c1.4-12.3,3.8-24,7-34.8c4.5-15.1,11.1-28.3,16.1-37.1l8.7,16c-13.8,8.6-21.6,30.7-22,47.2c-0.1,4,3.1,7.3,7.1,7.4
				c4,0.1,7.3-3.1,7.4-7.1c0.3-14.2,7.3-30.3,15.2-35.2c0.8-0.5,3.7-2,5.4-2.9c1.7-0.9,3-2.5,3.6-4.3c0.6-1.9,0.4-3.9-0.6-5.6
				l-15.2-28.1c-5.2-9.6-1.6-21.6,8-26.8c0.8-0.4,1.7-0.2,2.2,0.6l30.1,48.2l1.6,34.7c0.2,5.4-1.6,10.6-5.2,14.7L416.1,348
				l-12.5,6.8c-3.5,1.9-4.8,6.3-2.9,9.9c1.3,2.4,3.8,3.8,6.4,3.8c1.2,0,2.4-0.3,3.5-0.9l13.6-7.4c0.7-0.4,1.4-0.9,2-1.5l2.7-3
				l63.3,54.5c1.4,1.2,3.1,1.8,4.7,1.8c2,0,4.1-0.9,5.5-2.5c2.6-3,2.3-7.6-0.8-10.2l-63.1-54.4l3.7-4.2c6.2-6.9,9.3-15.8,8.9-25
				L450.2,296.4z M370.8,202.4c0.7-2.3,1.8-4.3,3.3-6.1c0.4,4,1.6,7.9,3.6,11.6l9.9,18.2c-2.2,2.2-4,4.8-5.5,7.5l-10-18.3
				C370,211.3,369.5,206.7,370.8,202.4L370.8,202.4z M400,218.4l-9.5-17.4c-4-7.3-1.9-16.3,4.4-21.3c0.3,4.3,1.6,8.6,3.7,12.5
				l17,31.3C411.7,219.1,405.6,217.2,400,218.4L400,218.4z M428.2,243.2l4.3-14.6c0.5-1.8,0.3-3.8-0.6-5.5l-20.5-37.8
				c-2.2-4-2.6-8.5-1.4-12.9c1.3-4.3,4.2-7.9,8.1-10.1c0.3-0.2,0.6-0.1,0.8,0.2l36.9,63.8l-12.3,41.4L428.2,243.2z"/>
			<path class="st0" d="M217.6,448.6l68.6,20.3c0.7,0.2,1.4,0.3,2.1,0.3c1.3,0,2.5-0.3,3.6-1l66.5-38.5c7.2-4.1,9.7-13.1,5.7-20.3
				c-3.3-6-8.2-10.5-13.9-13.3c0.1-2.6-0.5-5.2-1.8-7.6c-3-5.5-7.4-9.8-12.5-12.6c-0.2-2-0.8-4-1.8-5.8c-4-7.4-10.6-12.8-18.7-15.1
				c-8.1-2.4-16.5-1.5-23.9,2.5L257.6,376c-7.4-4.8-26.3-16-49-22.8c-11.6-3.4-24.1-6-37.2-7.5c-13.8-1.6-27.4,3.1-37.2,12.9
				l-82.4,82.4c-2.8,2.8-2.8,7.4,0,10.3c1.4,1.4,3.3,2.1,5.1,2.1c1.9,0,3.7-0.7,5.1-2.1l82.4-82.4c6.7-6.7,15.9-9.9,25.2-8.8
				c12.3,1.4,24,3.8,34.8,7c15.1,4.5,28.3,11.1,37.1,16.1l-16,8.7c-8.6-13.8-30.7-21.6-47.2-22c-0.1,0-0.1,0-0.2,0
				c-3.9,0-7.2,3.2-7.3,7.1c-0.1,4,3.1,7.3,7.1,7.4c14.2,0.3,30.3,7.3,35.2,15.2c0.5,0.8,2,3.7,2.9,5.4c0.9,1.7,2.5,3,4.3,3.6
				c1.9,0.6,3.9,0.4,5.6-0.6l28.1-15.2c4.6-2.5,10-3.1,15.1-1.6c5.1,1.5,9.2,4.9,11.8,9.5c0.4,0.8,0.2,1.7-0.6,2.2l-48.2,30.1
				l-34.7,1.6c-5.4,0.2-10.6-1.6-14.7-5.2l-17.1-15.2l-6.8-12.5c-1.9-3.5-6.3-4.8-9.9-2.9c-3.5,1.9-4.8,6.3-2.9,9.9l7.4,13.6
				c0.4,0.7,0.9,1.4,1.5,2l3,2.7L101.9,492c-2.6,3-2.3,7.6,0.7,10.2c1.4,1.2,3.1,1.8,4.8,1.8c2,0,4.1-0.9,5.5-2.5l56.1-64.9l4.2,3.8
				c6.5,5.8,14.7,8.9,23.4,8.9c0.5,0,1.1,0,1.6,0L217.6,448.6z M295.4,398.2l17.4-9.5c7.3-4,16.3-1.9,21.3,4.4
				c-4.3,0.3-8.5,1.5-12.5,3.7l-31.3,17C294.7,409.9,296.6,403.9,295.4,398.2z M298.5,370.4c4-2.2,8.5-2.6,12.9-1.4
				c2.3,0.7,4.3,1.8,6.1,3.3c-4,0.4-7.9,1.6-11.6,3.6l-18.2,9.9c-2.2-2.2-4.7-4-7.5-5.5L298.5,370.4z M351.2,417.2l-63.8,36.9
				l-41.4-12.3l24.7-15.4l14.6,4.3c1.8,0.5,3.8,0.3,5.5-0.6l37.8-20.5c8.2-4.4,18.5-1.4,22.9,6.8C351.6,416.7,351.5,417,351.2,417.2
				L351.2,417.2z"/>
			<path class="st0" d="M344.1,150c-6-0.7-12-1.6-17.8-2.8c-3.9-0.8-7.8,1.8-8.6,5.7c-0.8,3.9,1.8,7.8,5.7,8.6
				c6.2,1.2,12.6,2.2,18.9,3c1.8,0.2,3.6,0.3,5.3,0.3c11.9,0,23.3-4.7,31.9-13.3l80.7-80.7c2.8-2.8,2.8-7.4,0-10.3
				c-2.8-2.8-7.4-2.8-10.3,0l-80.7,80.7C362.6,147.9,353.4,151.1,344.1,150L344.1,150z"/>
			<path class="st0" d="M163.5,114c-0.1,2.6,0.5,5.3,1.8,7.6c3,5.5,7.4,9.7,12.5,12.5c0.2,2,0.8,4,1.8,5.8
				c4,7.4,10.6,12.8,18.7,15.1c3,0.9,6,1.3,9,1.3c5.2,0,10.3-1.3,15-3.8l33.9-18.4c5.7,3.7,17.8,11,33.2,17.2
				c0.9,0.4,1.8,0.5,2.7,0.5c2.9,0,5.6-1.7,6.7-4.5c1.5-3.7-0.3-8-4-9.5c-9-3.6-16.7-7.7-22.6-11l16-8.7c8.6,13.8,30.7,21.6,47.2,22
				c0.1,0,0.1,0,0.2,0c3.9,0,7.2-3.2,7.3-7.1c0.1-4-3.1-7.3-7.1-7.4c-14.2-0.3-30.3-7.3-35.2-15.2c-0.5-0.8-2-3.7-2.9-5.4
				c-0.9-1.7-2.5-3-4.3-3.6c-1.9-0.6-3.9-0.4-5.6,0.6l-28.1,15.2c-4.6,2.5-10,3.1-15.1,1.6c-5.1-1.5-9.2-4.9-11.8-9.5
				c-0.4-0.8-0.2-1.7,0.6-2.2L281.5,77l34.7-1.6c5.4-0.2,10.6,1.6,14.7,5.2L348,95.9l6.8,12.5c1.9,3.5,6.3,4.8,9.9,2.9
				c3.5-1.9,4.8-6.3,2.9-9.9l-7.4-13.6c-0.4-0.7-0.9-1.4-1.5-2l-3-2.7L410.1,20c2.6-3,2.3-7.6-0.8-10.2s-7.6-2.3-10.2,0.8
				l-54.4,63.1l-4.2-3.7c-6.9-6.2-15.8-9.3-25-8.9l-18.9,0.9l-69.1-20.5c-1.9-0.6-4-0.3-5.7,0.7l-66.5,38.5
				c-7.2,4.1-9.7,13.1-5.7,20.3C152.8,106.8,157.8,111.3,163.5,114L163.5,114z M218.4,112l-17.4,9.5c-7.3,4-16.3,1.9-21.3-4.4
				c4.3-0.3,8.5-1.5,12.5-3.7l31.3-17C219.1,100.3,217.2,106.4,218.4,112z M215.3,139.9c-4,2.2-8.5,2.6-12.9,1.4
				c-2.3-0.7-4.4-1.8-6.1-3.3c4-0.4,7.9-1.6,11.6-3.6l18.2-9.9c2.2,2.2,4.7,4,7.5,5.5L215.3,139.9z M162.6,93l63.8-36.9l41.4,12.3
				l-24.7,15.4l-14.6-4.3c-1.8-0.5-3.8-0.3-5.5,0.6l-37.8,20.5c-4,2.2-8.5,2.6-12.9,1.4c-4.3-1.3-7.9-4.2-10.1-8.1
				C162.2,93.5,162.3,93.2,162.6,93L162.6,93z"/>
			<path class="st0" d="M256.3,319.5c-0.2,0.2-0.5,0.2-0.6,0l-28.5-28.5c-2.8-2.8-7.4-2.8-10.3,0c-2.8,2.8-2.8,7.4,0,10.3l28.5,28.5
				c2.9,2.9,6.8,4.4,10.6,4.4c3.8,0,7.7-1.5,10.6-4.4l51.4-51.4c18.5-18.5,18.4-48.6,0-67.1c-16.9-16.9-43.4-18.4-62-4.5
				c-18.6-13.9-45.1-12.4-62,4.5c-17.9,17.9-18.6,46.7-1.6,65.5c2.7,3,7.3,3.2,10.3,0.5s3.2-7.3,0.5-10.3c-11.8-13-11.3-33,1.1-45.4
				c12.8-12.8,33.7-12.8,46.6,0c2.8,2.8,7.4,2.8,10.3,0c12.8-12.8,33.7-12.8,46.6,0c12.8,12.8,12.8,33.7,0,46.6L256.3,319.5z"/>
		</g>
	</g>
</g>
</svg>
