<?xml version="1.0" encoding="utf-8"?>
<!-- Generator: Adobe Illustrator 24.2.3, SVG Export Plug-In . SVG Version: 6.00 Build 0)  -->
<svg version="1.1" id="Capa_1" xmlns="http://www.w3.org/2000/svg" xmlns:xlink="http://www.w3.org/1999/xlink" x="0px" y="0px"
	 viewBox="0 0 512 512" style="enable-background:new 0 0 512 512;" xml:space="preserve">
<style type="text/css">
	.st0{fill:#FFFFFF;}
</style>
<g>
	<path class="st0" d="M369.9,303.9c1.3,1.3,3,2,4.8,2h0.3c1.9-0.1,3.7-1,4.9-2.4c57-68.4,47.8-170-20.5-227
		c-59.8-49.9-146.7-49.9-206.5,0c-2.9,2.4-3.3,6.7-0.9,9.6c0.1,0.2,0.3,0.3,0.4,0.4L369.9,303.9z M212.2,126.9
		c3.4-1.5,7.1-2.3,10.8-2.3h44.4c5.1,0,10.2,1.5,14.5,4.3l64.2,41.3v66.9l-15.2,8.6L212.2,126.9z M256,52.6
		c81.5-0.1,147.7,66,147.7,147.5c0,32-10.4,63.2-29.6,88.8l-33.3-33.3l15.3-8.6c2.1-1.2,3.5-3.5,3.5-5.9v-74.5
		c0-2.3-1.2-4.5-3.1-5.7l-67.4-43.3c-6.5-4.2-14.1-6.4-21.8-6.4H223c-7.3,0-14.5,2-20.8,5.8l-34.8-34.8C193,63,224.1,52.6,256,52.6z
		"/>
	<path class="st0" d="M448.3,200.3C448.3,94.1,362.2,8,256,8C149.8,7.9,63.7,94,63.7,200.2c0,97.6,73.1,179.7,170,191.1v30.9h-33.9
		c-3.7,0-6.8,3-6.8,6.8l0,0v31c0,3.7,3,6.8,6.8,6.8h33.9v30.5c0,3.7,3,6.8,6.8,6.8c0,0,0,0,0,0h31c3.7,0,6.8-3,6.8-6.8v-30.5h33.9
		c3.7,0,6.8-3,6.8-6.8v-31c0-3.7-3-6.8-6.8-6.8h-33.9v-30.9C375,379.5,447.8,297.7,448.3,200.3z M271.5,435.7h33.9v17.4h-33.9
		c-3.7,0-6.8,3-6.8,6.8v30.5h-17.4V460c0-3.7-3-6.8-6.8-6.8h-33.9v-17.4h33.9c3.7,0,6.8-3,6.8-6.8v-43.8c0-3.5-2.7-6.5-6.2-6.8
		c-98.4-8.3-171.4-94.7-163.2-193.1S172.6,13.9,270.9,22.2s171.4,94.7,163.2,193.1c-7.3,86.9-76.3,155.9-163.2,163.2
		c-3.5,0.3-6.2,3.2-6.2,6.8V429C264.7,432.7,267.8,435.7,271.5,435.7z"/>
	<path class="st0" d="M359.4,321.2c0.1-1.9-0.6-3.8-2-5.2l-50.9-50.9l0,0l-42.2-42.2l-0.1-0.1l-27.3-27.3l0,0l-49.7-49.7l0,0l-47-47
		c-2.6-2.6-6.9-2.6-9.6,0c-0.2,0.2-0.3,0.4-0.5,0.5c-55.7,69.4-44.6,170.9,24.9,226.6c58.9,47.3,142.8,47.3,201.8,0
		C358.4,324.9,359.3,323.1,359.4,321.2z M215.8,193.5h-9.6c-3.7,0-6.8,3-6.8,6.8c0,3.7,3,6.8,6.8,6.8h23.2l21.9,21.9
		c-2.6,3.3-6.5,5.3-10.7,5.3h-46.3L172.6,211c-8-8.7-8.9-21.8-2.1-31.5l12.9-18.4L215.8,193.5z M198,247.8h42.5
		c7.8,0,15.2-3.4,20.3-9.3l29.8,29.8L277,276h-63.5c-8.6,0-15.5-6.9-15.5-15.5L198,247.8z M256,348.1
		c-81.6-0.1-147.6-66.2-147.7-147.7c-0.1-31,9.7-61.3,28-86.3l37.4,37.4l-14.3,20.3c-10.4,14.9-9,35.1,3.3,48.5l21.8,23.4v16.8
		c0,16,13,29,29.1,29.1h65.3c1.2,0,2.3-0.3,3.3-0.9l18.4-10.4l41.8,41.8C317.3,338.4,287,348.2,256,348.1z"/>
</g>
</svg>
