<?xml version="1.0" encoding="utf-8"?>
<!-- Generator: Adobe Illustrator 24.2.3, SVG Export Plug-In . SVG Version: 6.00 Build 0)  -->
<svg version="1.1" id="Capa_1" xmlns="http://www.w3.org/2000/svg" xmlns:xlink="http://www.w3.org/1999/xlink" x="0px" y="0px"
	 viewBox="0 0 512 512" style="enable-background:new 0 0 512 512;" xml:space="preserve">
<style type="text/css">
	.st0{fill:#FFFFFF;}
</style>
<g id="Users_Male_And_Female">
	<g id="Outline">
		<path class="st0" d="M472.2,197.2l-53.4-9.7v-21.4c5.1-3.7,9.5-8.2,13.2-13.3c3.9-5.3,6.9-11.2,8.9-17.5l0.1-0.3l9.5-43.9
			c1-4.6,1.5-9.3,1.5-14c0-9.2-1.9-18.2-5.5-26.6c-3.5-8.2-8.6-15.7-15-22c-6.4-6.4-14.1-11.5-22.4-15c-8.8-3.7-18.3-5.6-27.8-5.5
			c-4.4,0-8.7,0.4-13,1.2c-4.2,0.8-7,4.8-6.2,9c0.7,3.7,3.9,6.4,7.6,6.4c0.5,0,0.9,0,1.4-0.1c3.4-0.6,6.8-0.9,10.2-0.9
			c14.7-0.1,28.9,5.7,39.3,16c9.2,9,14.8,21,15.7,33.8l-4-2.3c-11.9-6.7-23.1-6.6-33.2,0.2c-11.5,7.6-26.4,7.7-37.9,0
			c-4.8-3.3-10.4-5.2-16.2-5.2c-5.5,0-11.1,1.6-17,5l-1.6,0.9c0.5-5.2,1.8-10.3,3.9-15.2c1.8-3.9,0.1-8.5-3.8-10.3
			c-3.9-1.8-8.5-0.1-10.3,3.8c-0.1,0.1-0.1,0.3-0.2,0.5c-3.6,8.3-5.4,17.3-5.4,26.4c0,2.9,0.2,5.8,0.6,8.6c0,0.2,0,0.4,0.1,0.6
			c0.2,1.6,0.5,3.2,0.8,4.8l9.5,43.8l0.1,0.3c2,6.3,5,12.2,8.9,17.5c3.1,4.3,6.8,8.1,10.9,11.5v23.2l-40.1,7.3c-4.2,0.8-7,4.8-6.2,9
			c0.8,4.2,4.8,7,9,6.2l37.5-6.8c0.7,9.4,4.6,18.3,11,25.2c7.1,7.7,17.1,12.1,27.6,12.1c20.3,0,36.9-16.4,38.6-37.2l50.8,9.2
			c11.1,2,19.1,11.6,19.1,22.9v90.4c0,4.3,3.5,7.8,7.8,7.8c4.3,0,7.8-3.5,7.8-7.8v-90.4C504,216.6,490.6,200.6,472.2,197.2z
			 M403.3,196.9v2.9c0,13.9-10.4,25.2-23.3,25.2c-6.2,0-12.1-2.6-16.3-7.2c-4.5-4.9-7-11.3-7-18v-26.2c1.5,0.6,3,1.2,4.6,1.7
			c12.9,4.2,26.7,4.2,39.6,0c0.8-0.3,1.5-0.5,2.3-0.8V196.9z M381.2,163L381.2,163c-20.6,0-38.6-12.8-44.8-32l-9-41.9l8.1-4.6
			c3.6-2,6.7-3,9.4-3c2.7,0.1,5.4,1,7.6,2.6c16.7,11.1,38.5,11.1,55.1,0c5.2-3.5,10.2-3.4,17,0.4l10.2,5.7L426,131
			C419.8,150.1,401.8,163,381.2,163z"/>
		<path class="st0" d="M274.4,295.2L208,281.9c-3.6-0.7-6.2-3.9-6.2-7.6v-14.6c19.4-12.9,31-34.7,31-58V194c0-4.3-3.5-7.8-7.8-7.8
			s-7.8,3.5-7.8,7.8v7.8c0,30-24.3,54.3-54.3,54.3s-54.3-24.3-54.3-54.3V194c0-4.3-3.5-7.8-7.8-7.8c-4.3,0-7.8,3.5-7.8,7.8v7.8
			c0,23.3,11.6,45,31,58v14.6c0,3.7-2.6,6.9-6.2,7.6l-66.4,13.3C26.3,300.3,8,322.5,8,348.4v147.9c0,4.3,3.5,7.8,7.8,7.8
			s7.8-3.5,7.8-7.8V348.4c0-18.5,13.1-34.3,31.2-38l54.1-10.8v9.1c0,35.1,48.5,61.5,50.6,62.6l3.7,2l3.7-2
			c2.1-1.1,50.6-27.6,50.6-62.6v-9.1l54.1,10.8c18.1,3.7,31.1,19.5,31.2,38v147.9c0,4.3,3.5,7.8,7.8,7.8c4.3,0,7.8-3.5,7.8-7.8
			V348.4C318,322.5,299.7,300.3,274.4,295.2z M201.7,308.7c0,19.5-25.3,38.7-38.8,46.9c-13.5-8.1-38.7-27.4-38.7-46.9v-12.5
			c9.3-3.3,15.5-12.1,15.5-21.9v-6.8c15,5.3,31.5,5.3,46.5,0v6.8c0,9.8,6.2,18.6,15.5,21.9V308.7z"/>
		<path class="st0" d="M62.2,380c-4.3,0-7.8,3.5-7.8,7.8v108.5c0,4.3,3.5,7.8,7.8,7.8s7.8-3.5,7.8-7.8V387.8
			C70,383.5,66.5,380,62.2,380z"/>
		<path class="st0" d="M263.8,380c-4.3,0-7.8,3.5-7.8,7.8v108.5c0,4.3,3.5,7.8,7.8,7.8c4.3,0,7.8-3.5,7.8-7.8V387.8
			C271.5,383.5,268,380,263.8,380z"/>
		<path class="st0" d="M449.8,256c-4.3,0-7.8,3.5-7.8,7.8v62c0,4.3,3.5,7.8,7.8,7.8c4.3,0,7.8-3.5,7.8-7.8v-62
			C457.5,259.5,454.1,256,449.8,256z"/>
		<path class="st0" d="M310.3,256c-4.3,0-7.8,3.5-7.8,7.8V287c0,4.3,3.5,7.8,7.8,7.8c4.3,0,7.8-3.5,7.8-7.8v-23.3
			C318,259.5,314.5,256,310.3,256z"/>
		<path class="st0" d="M77.3,271.5h15.9c4.3,0,7.8-3.5,7.8-7.8c0-4.3-3.5-7.8-7.8-7.8H77.3c-8.3,0-15.1-6.8-15.1-15.1v-85.7
			c0-26.1,10.1-51.1,28.2-69.9c3-3.1,2.9-8-0.2-11c-3.1-3-8-2.9-11,0.2l-0.1,0.1c-20.8,21.6-32.5,50.5-32.4,80.5v85.7
			C46.7,257.8,60.4,271.5,77.3,271.5z"/>
		<path class="st0" d="M109.2,68.7c4.3,0,7.8-3.5,7.8-7.8c0-4.3-3.5-7.8-7.8-7.8c-1.4,0-2.7,0.4-3.9,1c-3.7,2.1-5,6.8-2.9,10.6
			c0,0,0,0,0,0C103.8,67.3,106.4,68.7,109.2,68.7z"/>
		<path class="st0" d="M137.9,57.4c0.6,0,1.2-0.1,1.8-0.2c7.6-1.8,15.5-2.7,23.3-2.7c55.6,0,100.8,45.1,100.8,100.8v85.7
			c0,8.3-6.8,15.1-15.1,15.1h-15.9c-4.3,0-7.8,3.5-7.8,7.8c0,4.3,3.5,7.8,7.8,7.8h15.9c16.9,0,30.6-13.7,30.6-30.6v-85.7
			C279.3,91.1,227.3,39,163.2,39c0,0-0.1,0-0.1,0h0c-9,0-18.1,1-26.9,3.1c-4.2,1-6.8,5.1-5.8,9.3C131.1,54.9,134.3,57.4,137.9,57.4z
			"/>
		<path class="st0" d="M341.6,37.1c3.9,0,7.2-3,7.7-6.9c0.5-4.3-2.6-8.1-6.8-8.6s-8.1,2.6-8.6,6.8s2.6,8.1,6.8,8.6
			C341,37.1,341.3,37.1,341.6,37.1z"/>
		<path class="st0" d="M85.5,139.7v15.5c0,8.6,6.9,15.5,15.5,15.5h124c8.6,0,15.5-6.9,15.5-15.5v-15.5c0-4.3-3.5-7.8-7.8-7.8
			s-7.8,3.5-7.8,7.8v15.5H101v-15.5c0-4.3-3.5-7.8-7.8-7.8C88.9,132,85.5,135.5,85.5,139.7z"/>
		<path class="st0" d="M170.1,392.6c-0.2-0.5-0.4-0.9-0.7-1.3c-0.6-0.9-1.3-1.6-2.1-2.1c-0.4-0.3-0.9-0.5-1.3-0.7
			c-1.9-0.8-4-0.8-5.9,0c-0.5,0.2-0.9,0.4-1.3,0.7c-0.9,0.6-1.6,1.3-2.1,2.1c-0.3,0.4-0.5,0.9-0.7,1.3c-0.2,0.5-0.3,1-0.4,1.5
			c-0.2,1-0.2,2,0,3c0.1,0.5,0.2,1,0.4,1.5c0.2,0.5,0.4,0.9,0.7,1.3c0.6,0.9,1.3,1.6,2.1,2.1c0.4,0.3,0.9,0.5,1.3,0.7
			c0.5,0.2,1,0.3,1.5,0.4c1,0.2,2,0.2,3,0c0.5-0.1,1-0.2,1.5-0.4c0.5-0.2,0.9-0.4,1.3-0.7c0.9-0.6,1.6-1.3,2.1-2.1
			c0.3-0.4,0.5-0.9,0.7-1.3c0.2-0.5,0.3-1,0.4-1.5c0.2-1,0.2-2,0-3C170.5,393.5,170.3,393,170.1,392.6z"/>
		<path class="st0" d="M170.1,423.6c-0.2-0.5-0.4-0.9-0.7-1.3c-0.3-0.4-0.6-0.8-1-1.2c-1.8-1.8-4.5-2.6-7-2.1
			c-0.5,0.1-1,0.2-1.5,0.4c-0.5,0.2-0.9,0.4-1.3,0.7c-0.9,0.6-1.6,1.3-2.1,2.1c-0.3,0.4-0.5,0.9-0.7,1.3c-0.2,0.5-0.3,1-0.4,1.5
			c-0.2,1-0.2,2,0,3c0.1,0.5,0.2,1,0.4,1.5c0.2,0.5,0.4,0.9,0.7,1.3c0.6,0.9,1.3,1.6,2.1,2.1c0.4,0.3,0.9,0.5,1.3,0.7
			c0.5,0.2,1,0.3,1.5,0.4c1,0.2,2,0.2,3,0c0.5-0.1,1-0.2,1.5-0.4c0.5-0.2,0.9-0.4,1.3-0.7c0.9-0.6,1.6-1.3,2.1-2.1
			c0.3-0.4,0.5-0.9,0.7-1.3c0.2-0.5,0.3-1,0.4-1.5c0.2-1,0.2-2,0-3C170.5,424.5,170.3,424,170.1,423.6z"/>
		<path class="st0" d="M170.1,454.6c-0.2-0.5-0.4-0.9-0.7-1.3c-0.6-0.9-1.3-1.6-2.1-2.1c-0.4-0.3-0.9-0.5-1.3-0.7
			c-1.9-0.8-4-0.8-5.9,0c-0.5,0.2-0.9,0.4-1.3,0.7c-0.4,0.3-0.8,0.6-1.2,1c-0.4,0.4-0.7,0.8-1,1.2c-0.3,0.4-0.5,0.9-0.7,1.3
			c-0.2,0.5-0.3,1-0.4,1.5c-0.1,0.5-0.2,1-0.2,1.5c0,2.1,0.8,4,2.3,5.5c0.4,0.4,0.8,0.7,1.2,1c0.4,0.3,0.9,0.5,1.3,0.7
			c0.5,0.2,1,0.3,1.5,0.4c1,0.2,2,0.2,3,0c0.5-0.1,1-0.2,1.5-0.4c0.5-0.2,0.9-0.4,1.3-0.7c0.4-0.3,0.8-0.6,1.2-1
			c1.4-1.5,2.3-3.4,2.3-5.5c0-0.5-0.1-1-0.2-1.5C170.5,455.5,170.3,455,170.1,454.6z"/>
		<path class="st0" d="M170.1,485.6c-0.2-0.5-0.4-0.9-0.7-1.3c-0.6-0.9-1.3-1.6-2.1-2.1c-0.4-0.3-0.9-0.5-1.3-0.7
			c-1.9-0.8-4-0.8-5.9,0c-0.5,0.2-0.9,0.4-1.3,0.7c-0.4,0.3-0.8,0.6-1.2,1c-0.4,0.4-0.7,0.8-1,1.2c-0.3,0.4-0.5,0.9-0.7,1.3
			c-0.2,0.5-0.3,1-0.4,1.5c-0.2,1-0.2,2,0,3c0.1,0.5,0.2,1,0.4,1.5c0.2,0.5,0.4,0.9,0.7,1.3c0.3,0.4,0.6,0.8,1,1.2
			c0.4,0.4,0.8,0.7,1.2,1c0.4,0.3,0.9,0.5,1.3,0.7c0.5,0.2,1,0.3,1.5,0.4c1,0.2,2,0.2,3,0c0.5-0.1,1-0.2,1.5-0.4
			c0.5-0.2,0.9-0.4,1.3-0.7c0.9-0.6,1.6-1.3,2.1-2.1c0.3-0.4,0.5-0.9,0.7-1.3c0.2-0.5,0.3-1,0.4-1.5c0.2-1,0.2-2,0-3
			C170.5,486.5,170.3,486,170.1,485.6z"/>
	</g>
</g>
</svg>
