<?xml version="1.0" encoding="utf-8"?>
<!-- Generator: Adobe Illustrator 24.2.3, SVG Export Plug-In . SVG Version: 6.00 Build 0)  -->
<svg version="1.1" id="Capa_1" xmlns="http://www.w3.org/2000/svg" xmlns:xlink="http://www.w3.org/1999/xlink" x="0px" y="0px"
	 viewBox="0 0 512 512" style="enable-background:new 0 0 512 512;" xml:space="preserve">
<style type="text/css">
	.st0{fill:#FFFFFF;}
</style>
<g>
	<path class="st0" d="M454.4,107.1l39.4-39.4c13.6-13.6,13.6-35.8,0-49.5c-13.6-13.6-35.8-13.6-49.5,0l-39.4,39.4
		C361.7,25.1,310.4,8,256,8C189.7,8,127.5,33.8,80.6,80.6S8,189.7,8,256c0,54.4,17.2,105.7,49.7,148.9l-39.4,39.4
		C11.6,450.9,8,459.7,8,469.1c0,9.3,3.6,18.1,10.2,24.7c6.6,6.6,15.4,10.3,24.7,10.3c9.4,0,18.1-3.6,24.7-10.2l39.4-39.4
		C150.3,486.9,201.6,504,256,504c72,0,140.4-31.2,187.5-85.7c2.6-3,2.3-7.6-0.7-10.2c-3-2.6-7.6-2.3-10.2,0.7
		c-44.4,51.3-108.8,80.7-176.6,80.7c-50.5,0-98.2-15.7-138.5-45.5l15.9-15.9c35.9,25.7,78.2,39.3,122.6,39.3
		c116.5,0,211.3-94.8,211.3-211.3c0-44.4-13.6-86.6-39.3-122.6l15.9-15.9c29.8,40.3,45.5,88,45.5,138.5c0,45.1-12.9,88.8-37.2,126.5
		c-2.2,3.4-1.2,7.9,2.2,10c1.2,0.8,2.6,1.2,3.9,1.2c2.4,0,4.7-1.2,6.1-3.3C490.4,350.4,504,303.9,504,256
		C504,201.6,486.9,150.3,454.4,107.1L454.4,107.1z M22.5,256C22.5,127.2,127.2,22.5,256,22.5c50.5,0,98.2,15.7,138.5,45.5
		l-15.9,15.9C342.6,58.2,300.4,44.7,256,44.7c-62.4,0-121.4,27.5-161.8,75.5c-2.6,3.1-2.2,7.7,0.9,10.2c1.4,1.1,3,1.7,4.7,1.7
		c2.1,0,4.1-0.9,5.6-2.6c37.6-44.7,92.5-70.3,150.6-70.3c40.5,0,79.1,12.1,112.2,35.2l-36.1,36.1c-0.1-0.1-0.1-0.2-0.2-0.2
		c-5.7-5.7-13.2-8.8-21.3-8.8c-5.2,0-10.2,1.4-14.4,3.9v-10.5c0-7.9-3.1-15.3-8.6-20.9c-5.6-5.6-13-8.6-20.9-8.6
		c-15.9,0-29,12.7-29.5,28.5c-4.5-2.7-9.6-4.1-15-4.1c-16.3,0-29.5,13.2-29.5,29.5v7.9c-4.5-2.7-9.6-4.1-15-4.1
		c-16.3,0-29.5,13.2-29.5,29.5v141.7l-53.9,53.9c-23-33-35.2-71.6-35.2-112.2c0-35.2,9.4-69.7,27.3-99.9c2-3.5,0.9-7.9-2.6-10
		c-3.5-2-7.9-0.9-10,2.6C54.8,181.1,44.7,218.2,44.7,256c0,44.4,13.6,86.6,39.3,122.6L68,394.5C38.2,354.2,22.5,306.5,22.5,256
		L22.5,256z M192.8,269.8l-30,30V172.6c0-8.3,6.7-15,15-15c4,0,7.8,1.6,10.6,4.4c2.8,2.8,4.4,6.6,4.4,10.6c0,0,0,0,0,0v96.1
		C192.7,269.1,192.7,269.4,192.8,269.8L192.8,269.8z M207.2,139.3c0-8.3,6.7-15,15-15c4,0,7.8,1.6,10.6,4.4
		c2.8,2.8,4.4,6.6,4.4,10.6v0v0v86.1l-29.9,29.9L207.2,139.3z M251.7,114.8c0-8.3,6.7-15,15-15c4,0,7.8,1.6,10.6,4.4
		c2.8,2.8,4.4,6.6,4.4,10.6l0,66.1l-29.9,29.9V114.8z M296.2,150.3c0-7.9,6.5-14.4,14.4-14.4c4.2,0,8.1,1.6,11,4.5
		c0.1,0.1,0.2,0.2,0.2,0.3l-25.6,25.6L296.2,150.3C296.2,150.3,296.2,150.3,296.2,150.3L296.2,150.3z M452.8,256
		c0,108.5-88.3,196.8-196.8,196.8c-40.5,0-79.1-12.1-112.2-35.2l21-21c14.8,19,37.3,30.1,61.8,30.1H276c35.6,0,64.6-29,64.6-64.6
		v-1.9l53.2-53.2c5.8-5.8,9-13.6,9-21.8c0-8.2-3.2-16-9-21.8c-5.8-5.8-13.6-9-21.8-9s-16,3.2-21.8,9l-9.6,9.6v-52.1l27.5-27.5
		c2.8-2.8,2.8-7.4,0-10.3c-2.8-2.8-7.4-2.8-10.3,0L57.4,483.5c-3.9,3.9-9,6-14.5,6c-5.5,0-10.6-2.1-14.5-6c-8-8-8-20.9,0-28.9
		L454.6,28.5c8-8,20.9-8,28.9,0c8,8,8,20.9,0,28.9L381.9,159c-2.8,2.8-2.8,7.4,0,10.3c2.8,2.8,7.4,2.8,10.3,0l25.5-25.5
		C440.7,176.9,452.8,215.5,452.8,256L452.8,256z M326.1,287.5l-16.2,16.2c-2.8,2.8-2.8,7.4,0,10.3c1.4,1.4,3.3,2.1,5.1,2.1
		c1.9,0,3.7-0.7,5.1-2.1l40.4-40.3c3.1-3.1,7.2-4.8,11.5-4.8s8.5,1.7,11.5,4.8c3.1,3.1,4.8,7.2,4.8,11.5s-1.7,8.5-4.8,11.5
		L328.3,352c-1.4,1.4-2.1,3.2-2.1,5.1v4.9c0,27.6-22.5,50.1-50.1,50.1h-49.4c-20.6,0-39.4-9.6-51.4-26l150.9-150.9V287.5z"/>
</g>
</svg>
