<?xml version="1.0" encoding="utf-8"?>
<!-- Generator: Adobe Illustrator 24.2.3, SVG Export Plug-In . SVG Version: 6.00 Build 0)  -->
<svg version="1.1" id="Capa_1" xmlns="http://www.w3.org/2000/svg" xmlns:xlink="http://www.w3.org/1999/xlink" x="0px" y="0px"
	 viewBox="0 0 512 512" style="enable-background:new 0 0 512 512;" xml:space="preserve">
<style type="text/css">
	.st0{fill:#FFFFFF;}
</style>
<g id="Page-1">
	<g id="_x30_42---No-Phone-Security">
		<path id="Shape" class="st0" d="M198.1,322.1c55.2,0,102.7-39,113.5-93.2c10.8-54.2-18.2-108.4-69.2-129.5s-109.9-3.3-140.5,42.6
			s-24.6,107.1,14.4,146.2C137.9,310,167.4,322.2,198.1,322.1z M127.9,136.2c38.8-38.6,101.5-38.6,140.2,0.2s38.7,101.5,0,140.2
			s-101.4,38.8-140.2,0.2c-18.7-18.6-29.2-43.9-29.2-70.3S109.3,154.8,127.9,136.2L127.9,136.2z"/>
		<path id="Shape_1_" class="st0" d="M255.3,251.9c1.5,1.5,3.6,2.4,5.8,2.4h1c2.5-0.3,4.7-1.7,6-3.9c20.6-32.7,15.9-75.3-11.5-102.6
			s-70-32.1-102.6-11.4c-2.1,1.3-3.5,3.6-3.8,6c-0.3,2.5,0.6,5,2.4,6.8L255.3,251.9z M244.9,159.6c18.8,19.2,24.4,47.7,14.1,72.6
			l-86.7-86.7C197.2,135.2,225.7,140.8,244.9,159.6z"/>
		<path id="Shape_2_" class="st0" d="M198.1,289.1c15.5,0,30.6-4.3,43.7-12.5c2.1-1.3,3.6-3.5,3.9-6c0.3-2.5-0.6-5-2.4-6.8
			L140.9,160.9c-1.8-1.8-4.3-2.7-6.8-2.4c-2.5,0.3-4.7,1.7-6,3.9c-16,25.5-16.9,57.7-2.3,84S168,289.1,198.1,289.1L198.1,289.1z
			 M136.9,180.8l87,86.6c-24.8,10.5-53.5,5-72.6-14.1c-19.1-19.1-24.6-47.8-14.1-72.6L136.9,180.8z"/>
		<path id="Shape_3_" class="st0" d="M429.6,306.4v-33.9c0-19.5-11.6-37.2-29.4-45.2c-17.8-8-38.7-4.7-53.3,8.3V41
			c0-18.3-14.8-33.1-33.1-33.1H82.4C64.1,8,49.3,22.8,49.3,41V471c0,18.3,14.8,33.1,33.1,33.1h231.5c18.3,0,33.1-14.8,33.1-33.1
			h74.4c22.8,0,41.3-18.5,41.3-41.3v-82.7C462.7,327.3,448.9,310.4,429.6,306.4L429.6,306.4z M380,239.5c18.3,0,33.1,14.8,33.1,33.1
			v33.1h-66.1v-33.1C346.9,254.3,361.8,239.5,380,239.5L380,239.5z M261.7,24.5l-10.6,11.3c-3,3.2-7.2,5.1-11.7,5.2h-81.9
			c-4.6,0-8.9-1.9-12.1-5.2l-11-11.3H261.7z M65.8,41c0-9.1,7.4-16.5,16.5-16.5h29.5l21.2,22.7c6.3,6.7,15,10.4,24.1,10.4h82.3
			c9.1,0,17.9-3.8,24.1-10.4l20.8-22.7h29.5c9.1,0,16.5,7.4,16.5,16.5v265.4c-19.2,3.9-33.1,20.9-33.1,40.5v82.7
			c0,5.7,1.2,11.3,3.5,16.5H82.4c-9.1,0-16.5-7.4-16.5-16.5L65.8,41z M313.9,487.5H82.4c-9.1,0-16.5-7.4-16.5-16.5v-12.9
			c5,3,10.7,4.6,16.5,4.6h231.5c4.9,3.7,10.5,6.2,16.5,7.4v0.8C330.4,480.1,323,487.5,313.9,487.5L313.9,487.5z M446.2,429.6
			c0,13.7-11.1,24.8-24.8,24.8h-82.7c-13.7,0-24.8-11.1-24.8-24.8v-82.7c0-13.7,11.1-24.8,24.8-24.8h82.7
			c13.7,0,24.8,11.1,24.8,24.8V429.6z"/>
		<path id="Shape_4_" class="st0" d="M380,346.9c-16.5,0.2-30.3,12.5-32.4,28.9c-2.1,16.4,8.2,31.8,24.1,36.1v9.4
			c0,4.6,3.7,8.3,8.3,8.3s8.3-3.7,8.3-8.3v-9.4c15.9-4.3,26.2-19.7,24.1-36.1C410.3,359.5,396.5,347.1,380,346.9z M380,396.6
			c-9.1,0-16.5-7.4-16.5-16.5s7.4-16.5,16.5-16.5s16.5,7.4,16.5,16.5S389.1,396.6,380,396.6z"/>
	</g>
</g>
</svg>
