<?xml version="1.0" encoding="utf-8"?>
<!-- Generator: Adobe Illustrator 24.1.3, SVG Export Plug-In . SVG Version: 6.00 Build 0)  -->
<svg version="1.1" id="Capa_1" xmlns="http://www.w3.org/2000/svg" xmlns:xlink="http://www.w3.org/1999/xlink" x="0px" y="0px"
	 viewBox="0 0 512 512" style="enable-background:new 0 0 512 512;" xml:space="preserve">
<style type="text/css">
	.st0{fill:#FFDA2D;}
	.st1{fill:#FDBF00;}
	.st2{fill:#FF637B;}
	.st3{fill:#895D3C;}
	.st4{fill:#714C2F;}
	.st5{fill:#E63950;}
</style>
<g>
	<path class="st0" d="M256,0C115.3,0,0,115.3,0,256s115.3,256,256,256s256-115.3,256-256S396.7,0,256,0z"/>
	<path class="st1" d="M512,256c0,140.7-115.3,256-256,256V0C396.7,0,512,115.3,512,256z"/>
	<path class="st2" d="M385,388c-6.6,5.1-15.9,3.9-21-3c-25.8-34.2-65.1-54-108-54c-42.9,0-82.2,19.8-108,54c-5.1,6.6-14.4,8.1-21,3
		c-6.6-4.8-8.1-14.4-3-21c31.5-42,79.8-66,132-66s100.5,24,132,66C393.1,373.6,391.6,383.2,385,388z"/>
	<path class="st3" d="M125.4,266.6c-5.9-5.9-5.9-15.4,0-21.2l49.4-49.4l-49.4-49.4c-5.9-5.9-5.9-15.4,0-21.2s15.4-5.9,21.2,0l60,60
		c5.9,5.9,5.9,15.4,0,21.2l-60,60C140.7,272.5,131.3,272.5,125.4,266.6z"/>
	<path class="st4" d="M365.4,266.6l-60-60c-5.9-5.9-5.9-15.4,0-21.2l60-60c5.9-5.9,15.4-5.9,21.2,0s5.9,15.4,0,21.2L337.2,196
		l49.4,49.4c5.9,5.9,5.9,15.4,0,21.2S371.3,272.5,365.4,266.6z"/>
	<path class="st5" d="M385,388c-6.6,5.1-15.9,3.9-21-3c-25.8-34.2-65.1-54-108-54v-30c52.2,0,100.5,24,132,66
		C393.1,373.6,391.6,383.2,385,388z"/>
</g>
</svg>
