<?xml version="1.0" encoding="utf-8"?>
<!-- Generator: Adobe Illustrator 24.1.3, SVG Export Plug-In . SVG Version: 6.00 Build 0)  -->
<svg version="1.1" id="Capa_1" xmlns="http://www.w3.org/2000/svg" xmlns:xlink="http://www.w3.org/1999/xlink" x="0px" y="0px"
	 viewBox="0 0 512 512" style="enable-background:new 0 0 512 512;" xml:space="preserve">
<style type="text/css">
	.st0{fill:#FFDA2D;}
	.st1{fill:#FDBF00;}
	.st2{fill:#895D3C;}
	.st3{fill:#FFF5F5;}
	.st4{fill:#714C2F;}
	.st5{fill:#EFE2DD;}
	.st6{fill:#FF637B;}
	.st7{fill:#E63950;}
</style>
<g>
	<path class="st0" d="M256,0C115.3,0,0,115.3,0,256s115.3,256,256,256s256-115.3,256-256S396.7,0,256,0z"/>
	<path class="st1" d="M512,256c0,140.7-115.3,256-256,256V0C396.7,0,512,115.3,512,256z"/>
	<path class="st2" d="M166,241c-24.8,0-45-20.2-45-45s20.2-45,45-45s45,20.2,45,45S190.8,241,166,241z"/>
	<path class="st3" d="M166,211c-8.3,0-15-6.7-15-15s6.7-15,15-15s15,6.7,15,15S174.3,211,166,211z"/>
	<path class="st4" d="M346,241c-24.8,0-45-20.2-45-45s20.2-45,45-45s45,20.2,45,45S370.8,241,346,241z"/>
	<path class="st5" d="M346,211c-8.3,0-15-6.7-15-15s6.7-15,15-15s15,6.7,15,15S354.3,211,346,211z"/>
	<path class="st2" d="M226,151c-3.8,0-7.7-1.5-10.6-4.4l-30-30c-5.9-5.9-5.9-15.4,0-21.2s15.4-5.9,21.2,0l30,30
		c5.9,5.9,5.9,15.4,0,21.2C233.7,149.5,229.8,151,226,151z"/>
	<path class="st4" d="M286,151c-3.8,0-7.7-1.5-10.6-4.4c-5.9-5.9-5.9-15.4,0-21.2l30-30c5.9-5.9,15.4-5.9,21.2,0s5.9,15.4,0,21.2
		l-30,30C293.7,149.5,289.8,151,286,151z"/>
	<path class="st6" d="M361,376c0,8.4-6.6,15-15,15h-17.7c-26.4,0-51.9-9-72.3-25.5c-3.6-2.7-7.2-5.7-10.5-9
		C229,340,206.8,331,183.7,331H166c-8.4,0-15-6.6-15-15c0-8.4,6.6-15,15-15h17.7c26.4,0,51.9,9,72.3,25.5c3.6,2.7,7.2,5.7,10.5,9
		C283,352,305.2,361,328.3,361H346C354.4,361,361,367.6,361,376z"/>
	<path class="st7" d="M361,376c0,8.4-6.6,15-15,15h-17.7c-26.4,0-51.9-9-72.3-25.5v-39c3.6,2.7,7.2,5.7,10.5,9
		C283,352,305.2,361,328.3,361H346C354.4,361,361,367.6,361,376z"/>
</g>
</svg>
