<?xml version="1.0" encoding="utf-8"?>
<!-- Generator: Adobe Illustrator 24.2.1, SVG Export Plug-In . SVG Version: 6.00 Build 0)  -->
<svg version="1.1" id="Capa_1" xmlns="http://www.w3.org/2000/svg" xmlns:xlink="http://www.w3.org/1999/xlink" x="0px" y="0px"
	 viewBox="0 0 512 512" style="enable-background:new 0 0 512 512;" xml:space="preserve">
<g>
	<path d="M229.7,296.4l70.1-40.4l-70.1-40.4V296.4z"/>
	<path d="M256.5,40.5C137.5,40.5,41,137,41,256s96.5,215.5,215.5,215.5S472,375,472,256S375.5,40.5,256.5,40.5z M391.2,256.2
		c0,0,0,43.7-5.5,64.8c-3.1,11.5-12.2,20.6-23.7,23.7c-21.1,5.5-105.4,5.5-105.4,5.5s-84.1,0-105.4-5.8
		c-11.5-3.1-20.6-12.2-23.7-23.7c-5.5-20.9-5.5-64.8-5.5-64.8s0-43.7,5.5-64.8c3.1-11.5,12.4-20.9,23.7-24
		c21.1-5.5,105.4-5.5,105.4-5.5s84.3,0,105.4,5.8c11.5,3.1,20.6,12.2,23.7,23.7C391.4,212.3,391.2,256.2,391.2,256.2z"/>
</g>
</svg>
