<?xml version="1.0" encoding="utf-8"?>
<!-- Generator: Adobe Illustrator 24.2.1, SVG Export Plug-In . SVG Version: 6.00 Build 0)  -->
<svg version="1.1" id="Capa_1" xmlns="http://www.w3.org/2000/svg" xmlns:xlink="http://www.w3.org/1999/xlink" x="0px" y="0px"
	 viewBox="0 0 512 512" style="enable-background:new 0 0 512 512;" xml:space="preserve">
<style type="text/css">
	.st0{fill:#FFFFFF;}
</style>
<g>
	<g>
		<path d="M256,481C131.9,481,31,380.1,31,256S131.9,31,256,31s225,100.9,225,225S380.1,481,256,481z"/>
	</g>
	<g>
		<g>
			<path class="st0" d="M390.7,221.9c0-31.9-25.9-57.8-57.8-57.8H183.1c-31.9,0-57.8,25.9-57.8,57.8v70.2
				c0,31.9,25.9,57.8,57.8,57.8H333c31.9,0,57.8-25.9,57.8-57.8L390.7,221.9L390.7,221.9z M296.2,260.5l-59.8,32.8
				c-2.6,1.4-4.9-0.5-4.9-3.4v-67.3c0-3,2.4-4.9,5-3.4l60.2,34.5C299.3,255.2,298.9,259.1,296.2,260.5z"/>
		</g>
	</g>
</g>
</svg>
