<?xml version="1.0" encoding="utf-8"?>
<!-- Generator: Adobe Illustrator 24.2.1, SVG Export Plug-In . SVG Version: 6.00 Build 0)  -->
<svg version="1.1" id="Capa_1" xmlns="http://www.w3.org/2000/svg" xmlns:xlink="http://www.w3.org/1999/xlink" x="0px" y="0px"
	 viewBox="0 0 512 512" style="enable-background:new 0 0 512 512;" xml:space="preserve">
<style type="text/css">
	.st0{fill:#FFFFFF;}
</style>
<g>
	<path class="st0" d="M503.3,241.2c-3.3-14.1-11.3-26.2-21.4-32.4c-6.7-4.1-13.9-5.5-20.8-3.8c-1.6,0.4-3.1,0.9-4.6,1.6
		c-19.4-47.2-49.6-77.7-80.7-97.4l19.5-40.8c2.1-4.1,0.4-9.1-3.7-11.1c-4.1-2-9.1-0.4-11.1,3.7l-19.1,39.9
		c-5.1-2.7-10.2-5.2-15.3-7.4l17.3-47.5c1.5-4.3-0.9-9.1-5.2-10.5c-4.4-1.5-9,0.9-10.5,5.2l-17,46.6c-5.8-2.1-11.3-3.8-16.7-5.3
		l16.2-48.6c1.5-4.3-0.9-9.1-5.2-10.5c-4.4-1.5-9.1,0.9-10.5,5.2L297.8,78c-10.5-2.2-19.4-3.4-26.1-4.1l0.8-41.9
		c0-4.6-3.7-8.3-8.3-8.3c-4.6,0-8.3,3.7-8.3,8.3l-0.8,41.3c-4.4,0.2-12,0.8-21.8,2.3l-7-45.7c-0.7-4.5-5-7.6-9.5-6.8
		c-4.5,0.8-7.6,5-6.8,9.5l7,46.1c-8.9,2-18.7,4.8-29.1,8.5l-15.1-47.1c-1.4-4.3-6.1-6.7-10.5-5.2c-4.3,1.4-6.7,6.1-5.2,10.5l15.4,48
		c-7.2,3.1-14.5,6.8-21.8,11l-22.6-48.7c-2.1-4.1-7-5.7-11.1-3.7c-4.1,2.1-5.8,7-3.7,11.1l23.3,50.1c-7.3,5-14.5,10.7-21.5,17
		L80.7,92.3c-3.2-3.2-8.5-3.2-11.7,0s-3.2,8.5,0,11.7l34.1,37.7c-25.5,27.2-46.9,65-56.7,118c-0.1,0.7-0.2,1.4-0.3,2.1
		c-2.1-0.6-4.2-1-6.4-1c-18.3,0-32.7,19.8-32.7,45c0,25.2,14.4,45,32.7,45c3.4,0,6.6-0.8,9.8-2.2c5.8,22.2,15.5,43,28.7,61.2
		C105.1,447,158,491,259.2,489.6c1.5,0,3.1,0,4.6,0c97.9,0,150-43.2,176.5-79.7c23.9-33,36.1-74.2,35.1-116.8c0.3,0,0.6,0.1,0.9,0.1
		c1.9,0,3.7-0.2,5.6-0.6C499.7,288.3,509.1,265.7,503.3,241.2z M45.8,331.8c-1.7,1.4-3.8,2.5-6.1,2.5c-7.6,0-16.1-11.7-16.1-28.4
		s8.5-28.4,16.1-28.4c1.4,0,2.8,0.4,4.2,1.2c-0.4,4.4-0.7,8.8-0.8,13.2c0,0.4,0,0.7,0,1.1c-0.1,3.6-0.1,7.1,0,10.7
		c0,1.2,0.1,2.5,0.1,3.7c0.1,2.8,0.3,5.6,0.6,8.4c0.1,1.3,0.2,2.6,0.3,3.9c0.4,3.6,0.9,7.2,1.5,10.7
		C45.7,330.8,45.7,331.3,45.8,331.8z M426.9,400.2c-35.8,49.4-92.4,74-167.5,72.8h-0.2c-75.3,1.3-131.7-23.5-167.5-72.8
		c-17.1-23.6-27.6-51.9-30.9-81.9c-0.1-0.6-0.1-1.3-0.1-1.9c-0.5-4.7-0.7-9.5-0.8-14.3c0-2.1,0-4.2,0-6.3c0-3.4,0.2-6.7,0.4-10.1
		c0.2-2.5,0.3-5,0.6-7.4c0.5-5.1,1.1-10.3,2.1-15.4c9.1-49.2,28.5-84.4,51.8-109.6l10.3,10.3c1.6,1.6,3.7,2.4,5.9,2.4
		s4.2-0.8,5.9-2.4c3.2-3.2,3.2-8.5,0-11.7l-10.2-10.2c5.7-5.1,11.5-9.8,17.4-14l4.4,8.9c1.5,2.9,4.4,4.6,7.4,4.6
		c1.2,0,2.5-0.3,3.7-0.9c4.1-2.1,5.8-7,3.7-11.1l-5.2-10.4c6.6-3.9,13.2-7.2,19.7-10.1l3.4,10.3c1.2,3.5,4.4,5.7,7.9,5.7
		c0.9,0,1.8-0.1,2.6-0.4c4.3-1.4,6.7-6.1,5.2-10.5l-3.7-11.2c9.5-3.4,18.6-5.8,26.8-7.6l2.4,14.5c0.7,4.1,4.2,6.9,8.2,6.9
		c0.5,0,0.9,0,1.4-0.1c4.5-0.8,7.6-5,6.8-9.5L236,91.7c8.5-1.2,15.1-1.7,19.2-1.8v17.9c0,4.6,3.7,8.3,8.3,8.3c4.6,0,8.3-3.7,8.3-8.3
		V90.5c5.5,0.5,12.6,1.5,20.9,3.1l-3.9,11.6c-1.5,4.3,0.9,9.1,5.2,10.5c0.9,0.3,1.8,0.4,2.6,0.4c3.5,0,6.7-2.2,7.9-5.7l4.3-13
		c5.3,1.5,10.9,3.2,16.7,5.3l-3.6,10.8c-1.5,4.3,0.9,9.1,5.2,10.5c0.9,0.3,1.8,0.4,2.6,0.4c3.5,0,6.7-2.2,7.9-5.7l3.3-9.8
		c1.5,0.7,2.9,1.3,4.4,2c3,1.4,5.9,2.9,8.7,4.5l-6.8,13.7c-2.1,4.1-0.4,9.1,3.7,11.1c1.2,0.6,2.5,0.9,3.7,0.9c3,0,6-1.7,7.4-4.6
		l6.3-12.7c34.6,22.3,59.7,54.1,75,94.9l0,0l1.5,4.3c2.3,6.4,4.2,12.7,6,19.2c0.1,0.4,0.2,0.8,0.3,1.2c1.7,6.4,3.2,12.8,4.4,19.4
		c0,0,0,0.1,0,0.1c1,5.5,1.7,11,2.2,16.4c0.1,1,0.2,2.1,0.3,3.1C461.8,325.2,450.7,367.3,426.9,400.2z M478,276.4
		c-1.1,0.3-2.3,0.3-3.6,0c0-0.3-0.1-0.6-0.1-0.9c-0.6-5.2-1.3-10.4-2.2-15.6c0,0,0-0.1,0-0.1c0-0.2-0.1-0.4-0.1-0.6
		c-1.2-6.2-2.5-12.1-4-17.9c-0.2-0.7-0.4-1.3-0.6-2c-1.5-5.7-3.1-11.3-4.9-16.6c0-0.1-0.1-0.2-0.1-0.4c0.8-0.6,1.7-1,2.6-1.2
		c3.1-0.7,6.2,0.6,8.2,1.8c6.3,3.9,11.6,12.3,13.9,22.1C491,261.3,485.4,274.6,478,276.4z"/>
	<path class="st0" d="M238.2,272.3c11.9,25.4,37.7,43,67.6,43c41.2,0,74.7-33.5,74.7-74.7s-33.5-74.7-74.7-74.7
		c-29.9,0-55.6,17.6-67.6,43c-10.4-15.9-28.3-26.4-48.6-26.4c-32,0-58.1,26.1-58.1,58.1s26.1,58.1,58.1,58.1
		C209.9,298.7,227.9,288.2,238.2,272.3z M305.8,182.5c32,0,58.1,26.1,58.1,58.1s-26.1,58.1-58.1,58.1s-58.1-26.1-58.1-58.1
		S273.8,182.5,305.8,182.5z M148.1,240.6c0-22.9,18.6-41.5,41.5-41.5s41.5,18.6,41.5,41.5s-18.6,41.5-41.5,41.5
		S148.1,263.5,148.1,240.6z"/>
	<circle class="st0" cx="189.6" cy="240.6" r="16.6"/>
	<circle class="st0" cx="305.8" cy="240.6" r="24.9"/>
	<path class="st0" d="M126.5,331.9c0,22.9,18.6,41.5,41.5,41.5c4.6,0,8.3-3.7,8.3-8.3s-3.7-8.3-8.3-8.3c-4.2,0-8.2-1.2-11.6-3
		c35.1-15.5,74-17.9,110.8-6.3c39,12.3,71,38.7,90.7,74.5c-2.3,0.7-4.7,1.2-7.3,1.2c-4.6,0-8.3,3.7-8.3,8.3s3.7,8.3,8.3,8.3
		c22.9,0,41.5-18.6,41.5-41.5c0-4.6-3.7-8.3-8.3-8.3c-4.6,0-8.3,3.7-8.3,8.3c0,5.1-1.6,9.9-4.2,13.8c-21.8-38.6-56.7-67.1-99.1-80.4
		c-42.4-13.4-87.4-9.9-127.3,9.2c-1.1-2.8-1.7-5.8-1.7-8.9c0-4.6-3.7-8.3-8.3-8.3S126.5,327.3,126.5,331.9z"/>
</g>
</svg>
